<?xml version="1.0" encoding="UTF-8" standalone="no"?>
<svg
   xmlns:sketch="http://www.bohemiancoding.com/sketch/ns"
   xmlns:dc="http://purl.org/dc/elements/1.1/"
   xmlns:cc="http://creativecommons.org/ns#"
   xmlns:rdf="http://www.w3.org/1999/02/22-rdf-syntax-ns#"
   xmlns:svg="http://www.w3.org/2000/svg"
   xmlns="http://www.w3.org/2000/svg"
   xmlns:sodipodi="http://sodipodi.sourceforge.net/DTD/sodipodi-0.dtd"
   xmlns:inkscape="http://www.inkscape.org/namespaces/inkscape"
   width="958.23718"
   height="290.51538"
   viewBox="0 0 958.23721 290.51538"
   version="1.1"
   id="svg2"
   inkscape:version="0.91 r13725"
   sodipodi:docname="tdoee.svg"
   inkscape:export-filename="C:\Users\Jonathan\Documents\tdoee\tdoee2Wiki\img\tdoee.png"
   inkscape:export-xdpi="12.02"
   inkscape:export-ydpi="12.02">
  <metadata
     id="metadata20">
    <rdf:RDF>
      <cc:Work
         rdf:about="">
        <dc:format>image/svg+xml</dc:format>
        <dc:type
           rdf:resource="http://purl.org/dc/dcmitype/StillImage" />
        <dc:title>Group</dc:title>
      </cc:Work>
    </rdf:RDF>
  </metadata>
  <sodipodi:namedview
     pagecolor="#ffffff"
     bordercolor="#666666"
     borderopacity="1"
     objecttolerance="10"
     gridtolerance="10"
     guidetolerance="10"
     inkscape:pageopacity="0"
     inkscape:pageshadow="2"
     inkscape:window-width="1366"
     inkscape:window-height="715"
     id="namedview18"
     showgrid="false"
     fit-margin-top="0"
     fit-margin-left="0"
     fit-margin-right="0"
     fit-margin-bottom="0"
     inkscape:zoom="0.89643777"
     inkscape:cx="479.11859"
     inkscape:cy="145.25769"
     inkscape:window-x="-8"
     inkscape:window-y="22"
     inkscape:window-maximized="1"
     inkscape:current-layer="svg2" />
  <!-- Generator: Sketch 3.3.3 (12072) - http://www.bohemiancoding.com/sketch -->
  <title
     id="title4">Group</title>
  <desc
     id="desc6">Created with Sketch.</desc>
  <defs
     id="defs8" />
  <g
     id="Home---Landing"
     sketch:type="MSPage"
     style="fill:none;fill-rule:evenodd;stroke:none;stroke-width:1"
     transform="matrix(5.607999,0,0,5.607999,-106.55198,-112.15998)">
    <g
       id="Desktop-HD"
       sketch:type="MSArtboardGroup"
       transform="translate(-563,-16)">
      <g
         id="Group"
         sketch:type="MSLayerGroup"
         transform="translate(582,36)">
        <path
           d="M 61.491368,10.341882 61.488309,0 50.04525,0.00382353 l 0.0054,18.91449047 -0.150647,0 c -1.656863,-2.425392 -5.195922,-3.923706 -9.712785,-3.922687 -8.808137,0.0031 -16.55996,6.786765 -16.480686,18.563236 0.0031,10.849137 7.007255,17.91298 15.740451,17.909921 4.742196,-0.0013 9.183353,-2.00149 11.516726,-5.928 l 0.149882,0 0.528412,5.138824 10.163451,-0.0033 C 61.748054,49.772922 61.688916,48.607 61.64023,47.292216 57.019368,42.474569 54.175171,35.941176 54.175171,28.739431 c 0,-7.124764 2.78404,-13.595196 7.316197,-18.397549 M 49.755936,37.618431 c -0.677274,3.070294 -3.310667,5.211216 -6.623118,5.213 -4.74296,0.002 -7.830843,-3.709078 -7.833137,-9.633 -0.002,-5.495941 2.707059,-9.922059 7.902216,-9.924608 3.537784,-7.64e-4 6.023333,2.425393 6.701627,5.351667 0.07596,0.570726 0.150902,1.355569 0.151412,1.927059 l 0.0013,4.566823 c 5.09e-4,0.928099 -0.07494,1.714216 -0.300275,2.499059"
           id="Fill-1-Copy-2"
           sketch:type="MSShapeGroup"
           inkscape:connector-curvature="0"
           style="fill:#0571cb" />
        <path
           d="m 134.8852,32.45004 c -0.004,-8.637098 -4.52248,-17.414392 -16.41747,-17.410823 -5.24818,0.0028 -9.31616,1.648706 -12.29265,4.200019 1.13737,2.973177 1.76596,6.197177 1.76596,9.569785 0,5.789843 -1.84167,11.146353 -4.96065,15.529902 3.22553,4.520176 8.87977,7.105902 16.55334,7.102078 4.9688,-0.0013 9.56009,-0.717294 13.32423,-2.146274 l -1.50774,-7.351373 c -3.08738,0.930902 -6.24816,1.430255 -10.16346,1.431784 -5.34478,0.0013 -10.01382,-2.137862 -10.39184,-6.634843 l 23.71557,-0.0082 c 0.14912,-0.785353 0.37547,-2.426156 0.37471,-4.282098 m -24.16726,-3.131725 c 0.30079,-2.927294 2.25639,-7.067922 7.0743,-7.068687 5.2706,-0.0028 6.4768,4.42255 6.47756,7.063589 l -13.55186,0.0051"
           id="Fill-2-Copy"
           sketch:type="MSShapeGroup"
           inkscape:connector-curvature="0"
           style="fill:#0571cb" />
        <path
           d="m 16.10751,5.8627451 0.0028,9.9919019 8.206568,-0.0031 0.002,7.994745 -8.206059,0.0028 0.0038,12.633961 c 0.002,4.210725 1.056059,6.137529 4.519157,6.136255 1.43051,-10e-4 2.559726,-0.14453 3.387392,-0.28753 l 0.07877,8.208608 c -1.505706,0.57251 -4.216078,0.929628 -7.452569,0.930647 C 12.96049,51.472608 9.8728628,50.259784 8.0658628,48.476745 5.9573137,46.407451 4.9022745,43.052686 4.9004902,38.127471 L 4.895902,23.852961 0.00178431,23.853725 0,15.859745 4.893098,15.858471 4.8910588,8.2927255 16.10751,5.8627451"
           id="Fill-3-Copy"
           sketch:type="MSShapeGroup"
           inkscape:connector-curvature="0"
           style="fill:#0571cb" />
        <path
           d="m 146.78071,36.740295 c 0.37827,4.494941 5.04527,6.636118 10.39031,6.634079 3.9158,-0.0013 7.07761,-0.501392 10.1632,-1.43051 l 1.50902,7.350608 c -3.76465,1.42949 -8.35595,2.144745 -13.32449,2.146274 -12.49785,0.0048 -19.65218,-6.845137 -19.656,-17.765137 -0.002,-8.851216 5.7906,-18.632059 18.58974,-18.636392 11.89424,-0.0038 16.41467,8.77347 16.41722,17.411078 0.001,1.855432 -0.22457,3.496745 -0.37446,4.281843 l -23.71454,0.0082 0,0 z m 13.47309,-7.427333 c -2.5e-4,-2.640784 -1.20619,-7.065118 -6.47655,-7.064098 -4.81866,0.0018 -6.77376,4.142667 -7.0748,7.068686 l 13.55135,-0.0046 0,0 z"
           id="Fill-4-Copy"
           sketch:type="MSShapeGroup"
           inkscape:connector-curvature="0"
           style="fill:#0571cb" />
        <path
           d="m 83.807941,41.646137 c 6.781667,-1.850078 5.986628,-11.057902 5.986628,-11.057902 l -16.637706,4.37004 c 0,0 4.489843,8.367156 10.651078,6.687862 z M 85.57015,27.957656 c 2.354784,-0.387961 3.949706,-2.609432 3.562764,-4.963961 -0.386686,-2.353765 -2.608411,-3.950471 -4.96396,-3.563275 -2.354785,0.386432 -3.948432,2.610706 -3.562255,4.964981 0.386431,2.354274 2.608921,3.949451 4.963451,3.562255 z m -8.626683,-1.135732 c -0.251589,-1.527373 -1.692549,-2.564569 -3.220941,-2.314 -1.529667,0.251333 -2.564059,1.694843 -2.312216,3.22298 0.251078,1.527373 1.692039,2.563295 3.221706,2.312216 1.528392,-0.251333 2.563039,-1.693314 2.311451,-3.221196 z m 7.178398,-19.1785478 1.00202,6.0263918 c -0.02957,0.905157 0.523313,1.318608 1.218176,1.460334 6.237961,1.271705 10.162431,8.072745 9.909314,14.867411 -0.294922,7.904765 -6.733236,14.349706 -14.639275,14.651255 -8.690372,0.331118 -15.840882,-6.615725 -15.840882,-15.23498 0,-5.533667 2.949215,-10.378588 7.360549,-13.048431 l 0.632666,3.502862 c 0.026,0.160334 0.232471,0.206471 0.32551,0.07596 l 5.864275,-7.865765 c 0.05812,-0.08131 0.03875,-0.19398 -0.04027,-0.252098 L 71.730571,5.8975526 c -0.129745,-0.094314 -0.309706,0.016059 -0.285745,0.1751177 l 0.473353,2.8844706 C 64.022845,12.475298 58.535826,20.422121 58.62861,29.643709 c 0.122608,12.345922 10.413,22.356942 22.757902,22.157098 12.19451,-0.197548 22.019198,-10.143823 22.019198,-22.387019 0,-11.190961 -8.213963,-20.4597059 -18.941767,-22.1186079 -0.200353,-0.030588 -0.373686,0.1475882 -0.342078,0.3481961 z"
           id="Fill-5-Copy"
           sketch:type="MSShapeGroup"
           inkscape:connector-curvature="0"
           style="fill:#33cc00" />
      </g>
    </g>
  </g>
</svg>
