<?xml version="1.0" encoding="UTF-8" standalone="no"?>
<!-- Created with Inkscape (http://www.inkscape.org/) -->

<svg
   xmlns:dc="http://purl.org/dc/elements/1.1/"
   xmlns:cc="http://creativecommons.org/ns#"
   xmlns:rdf="http://www.w3.org/1999/02/22-rdf-syntax-ns#"
   xmlns:svg="http://www.w3.org/2000/svg"
   xmlns="http://www.w3.org/2000/svg"
   xmlns:sodipodi="http://sodipodi.sourceforge.net/DTD/sodipodi-0.dtd"
   xmlns:inkscape="http://www.inkscape.org/namespaces/inkscape"
   id="svg3336"
   version="1.1"
   inkscape:version="0.91 r13725"
   width="690.7442"
   height="186.84471"
   viewBox="0 0 690.7442 186.84471"
   sodipodi:docname="Masvida.svg">
  <metadata
     id="metadata3342">
    <rdf:RDF>
      <cc:Work
         rdf:about="">
        <dc:format>image/svg+xml</dc:format>
        <dc:type
           rdf:resource="http://purl.org/dc/dcmitype/StillImage" />
        <dc:title></dc:title>
      </cc:Work>
    </rdf:RDF>
  </metadata>
  <defs
     id="defs3340" />
  <sodipodi:namedview
     pagecolor="#ffffff"
     bordercolor="#666666"
     borderopacity="1"
     objecttolerance="10"
     gridtolerance="10"
     guidetolerance="10"
     inkscape:pageopacity="0"
     inkscape:pageshadow="2"
     inkscape:window-width="1366"
     inkscape:window-height="715"
     id="namedview3338"
     showgrid="false"
     fit-margin-top="0"
     fit-margin-left="0"
     fit-margin-right="0"
     fit-margin-bottom="0"
     inkscape:zoom="0.60552798"
     inkscape:cx="710.76236"
     inkscape:cy="148.73516"
     inkscape:window-x="-8"
     inkscape:window-y="22"
     inkscape:window-maximized="1"
     inkscape:current-layer="svg3336" />
  <g
     id="g4320"
     transform="translate(-4.9159335,-5.2776448)">
    <path
       id="path4301"
       d="m 73.758971,162.89739 c 0,-16.07401 -0.0819,-29.43901 -0.1821,-29.7 -0.10015,-0.261 -0.37323,-0.47454 -0.60684,-0.47454 -0.23361,0 -7.94792,4.34345 -17.1429,9.65211 -33.53206,19.3595 -31.25461,18.09293 -31.69081,17.62432 -0.21832,-0.23453 -4.54624,-7.6304 -9.61761,-16.43525 -7.6087102,-13.21017 -9.1497802,-16.07378 -8.8152002,-16.38034 0.43684,-0.40027 32.5052902,-18.91042 33.2596002,-19.19769 0.30604,-0.11655 0.63981,0.17183 1.02351,0.88432 0.89225,1.65679 3.5738,3.99003 5.79479,5.0421 l 2.02756,0.96043 14.4,0.15 14.4,0.15 0.15,14.4163 0.15,14.41629 1.12776,2.28112 c 1.87487,3.79232 5.24105,6.35081 9.35234,7.10831 2.28964,0.42186 8.54717,0.42273 10.82582,0.001 3.426749,-0.63347 6.696669,-2.79457 8.514329,-5.62716 2.01161,-3.13482 1.95865,-2.67796 2.12681,-18.34635 l 0.15294,-14.25001 14.25,-0.15 c 13.89764,-0.14629 14.2908,-0.16663 15.9,-0.82286 2.73714,-1.11619 5.23249,-3.30571 6.77225,-5.94223 0.29312,-0.5019 1.81708,0.3104 16.85534,8.9842 9.09319,5.24479 16.7517,9.69585 17.0189,9.89123 0.42705,0.31227 -0.65439,2.33026 -8.94118,16.68439 -5.18484,8.98104 -9.56003,16.37351 -9.72264,16.42772 -0.16262,0.0542 -11.06914,-6.12195 -24.23672,-13.72479 -13.16758,-7.60283 -24.15591,-13.78196 -24.4185,-13.7314 -0.43213,0.0832 -0.48471,2.90321 -0.55391,29.71284 l -0.0765,29.6209 -19.048529,0 -19.04854,0 0,-29.22546 z"
       style="fill:#77ad1b;fill-opacity:1"
       inkscape:connector-curvature="0" />
    <path
       id="path4299"
       d="m 606.45312,164.22266 c -0.5231,0 -0.94754,0.39202 -1.64843,1.51953 -0.51966,0.83596 -0.94531,1.64674 -0.94531,1.80078 0,0.15403 0.18663,0.2793 0.41406,0.2793 0.381,0 2.88476,-2.9532 2.88476,-3.40235 0,-0.10849 -0.31724,-0.19726 -0.70508,-0.19726 z m -16.67968,0.27539 c -0.48523,-0.0159 -1.01126,0.1876 -1.28321,0.62304 -0.20571,0.32939 -1.5912,4.19323 -3.07812,8.58594 -1.48695,4.39272 -2.83891,8.00564 -3.00391,8.02735 -0.165,0.0217 -1.59391,-3.80922 -3.17578,-8.51172 l -2.875,-8.54883 -0.99219,-0.0977 c -0.59118,-0.0579 -1.09606,0.0622 -1.24609,0.29883 -0.29627,0.46721 -0.35443,19.55379 -0.0606,19.84766 0.10998,0.11 0.44748,0.20117 0.75,0.20117 0.51928,0 0.55069,-0.44031 0.55469,-7.875 0.004,-7.33418 0.1738,-9.2512 0.73828,-8.33789 0.11988,0.194 1.39675,3.88717 2.83789,8.20703 2.59128,7.7676 2.6299,7.85547 3.45703,7.85547 0.82542,0 0.87036,-0.10037 3.43164,-7.65039 1.42737,-4.2075 2.70924,-7.83277 2.84961,-8.05664 0.60618,-0.96675 0.77139,0.76771 0.77539,8.15234 l 0.006,7.74609 0.67579,-0.0957 0.67382,-0.0957 0.084,-9.45117 c 0.0462,-5.1975 0.0104,-9.75375 -0.0801,-10.125 -0.10925,-0.44793 -0.55383,-0.68332 -1.03906,-0.69922 z m -280.40821,0.0723 c -0.0716,0.003 -0.14753,0.0185 -0.22656,0.0488 -0.33234,0.12753 -0.48047,0.56472 -0.48047,1.41602 0,1.10422 0.0699,1.21881 0.67578,1.13281 0.50649,-0.0719 0.69521,-0.3208 0.75391,-0.99609 0.085,-0.97939 -0.22141,-1.61932 -0.72266,-1.60157 z m -93.10546,0.01 -4.05079,0.0918 -0.0801,9.74804 c -0.0436,5.36115 -0.0133,9.91741 0.0664,10.125 0.0797,0.20759 0.41545,0.37695 0.7461,0.37696 0.56955,0 0.60469,-0.22334 0.68359,-4.27344 l 0.084,-4.27539 3.9004,-0.15039 c 3.37378,-0.12976 4.04661,-0.24206 4.99218,-0.83008 2.67283,-1.66212 3.12847,-6.95321 0.80274,-9.33203 -1.29764,-1.32725 -2.53381,-1.58496 -7.14453,-1.48047 z m 197.25,0.0918 c -0.58606,0 -0.60229,0.22689 -0.67969,9.74804 -0.0436,5.36115 -0.0152,9.91741 0.0644,10.125 0.0797,0.20759 0.42239,0.37696 0.75977,0.37696 0.60732,0 0.6114,-0.10049 0.5332,-10.125 -0.0772,-9.89868 -0.0911,-10.125 -0.67773,-10.125 z m 119.84961,0 c -0.36505,0 -0.465,0.5664 -0.5254,3 -0.0409,1.64999 -0.14532,3.30797 -0.23242,3.68359 -0.15789,0.68124 -0.16117,0.68119 -1.34179,-0.26758 -1.37214,-1.10267 -3.61029,-1.48409 -5.09961,-0.86719 -2.41548,1.00052 -3.78303,4.19866 -3.52344,8.23633 0.22836,3.55207 1.25407,5.54602 3.3418,6.49414 2.02815,0.92108 3.85767,0.59644 5.47656,-0.97265 1.03269,-1.00094 0.97149,-1.02252 1.44531,0.49414 0.0773,0.2475 0.34864,0.44921 0.60352,0.44922 0.41022,0 0.45466,-1.16074 0.38476,-10.125 -0.0684,-8.7649 -0.13975,-10.12501 -0.52929,-10.125 z m 95.25,0 c -0.56278,0 -0.60655,0.22886 -0.68555,3.67578 -0.0463,2.02125 -0.19379,3.67578 -0.32813,3.67578 -0.13434,0 -0.5005,-0.28397 -0.81445,-0.63086 -2.08155,-2.30009 -5.90595,-1.88003 -7.63086,0.83984 -2.73192,4.30779 -1.23201,11.83645 2.58594,12.97852 1.88829,0.56485 3.75382,0.0679 5.29492,-1.40821 l 0.82227,-0.78711 0.19336,0.96876 c 0.13461,0.67305 0.34053,0.93794 0.67773,0.87304 0.43475,-0.0837 0.48437,-1.12825 0.48437,-10.13867 0,-9.84589 -0.0115,-10.04687 -0.5996,-10.04687 z m 10.19921,0 c -0.43599,-10e-6 -0.62646,0.23368 -0.69726,0.85156 -0.0535,0.46769 -0.0201,1.05111 0.0742,1.29687 0.0943,0.24574 0.408,0.40141 0.69726,0.34571 0.3963,-0.0763 0.52539,-0.39566 0.52539,-1.29688 0,-0.99589 -0.1,-1.19726 -0.59961,-1.19726 z m -341.54882,1.20117 c -0.32955,0 -0.4719,0.40151 -0.5293,1.5 -0.1316,2.51791 -0.27714,2.84961 -1.25195,2.84961 -0.87295,0 -1.25088,0.42687 -0.99414,1.125 0.0759,0.20625 0.51491,0.375 0.9746,0.375 0.4854,0 0.91183,0.19902 1.01758,0.47461 0.1002,0.26099 0.18164,3.01937 0.18164,6.1289 l 0,5.65235 0.81055,0.63671 c 1.07262,0.84372 2.93945,0.75324 2.93945,-0.14257 0,-0.45958 -0.23187,-0.62242 -0.99023,-0.69532 -0.73299,-0.0704 -1.0625,-0.28894 -1.27344,-0.84375 -0.33403,-0.8786 -0.37997,-10.29611 -0.0527,-10.81054 0.12267,-0.19283 0.69347,-0.39648 1.26953,-0.45117 0.81425,-0.0773 1.04687,-0.23277 1.04687,-0.69922 0,-0.47666 -0.23023,-0.61946 -1.12304,-0.69336 -1.2523,-0.10367 -1.36271,-0.31677 -1.49805,-2.90625 -0.0574,-1.09849 -0.19779,-1.5 -0.52734,-1.5 z m -80.7793,0.14257 c 2.01111,0.004 4.57983,0.27705 5.20312,0.69336 1.14247,0.76309 1.62623,1.89906 1.61133,3.78516 -0.0156,1.9756 -0.61446,3.05925 -2.07422,3.75195 -1.24389,0.59026 -6.73916,0.67881 -7.30078,0.11719 -0.5673,-0.5673 -0.49451,-7.55701 0.084,-8.03711 0.26274,-0.21806 1.26989,-0.31289 2.47656,-0.31055 z m 229.39648,3.88282 c -2.43512,0.0479 -4.61691,1.53806 -4.71875,3.65625 -0.063,1.3094 0.67522,1.37737 1.26172,0.11719 0.9561,-2.05425 2.466,-2.8083 4.51758,-2.25586 1.34466,0.36207 2.12109,1.43635 2.12109,2.93359 0,1.46013 -0.544,1.82994 -3.41992,2.32812 -1.46817,0.25432 -3.03614,0.68056 -3.48437,0.94532 -2.70432,1.59749 -2.30197,6.50305 0.61523,7.50781 1.9968,0.68775 3.78417,0.30309 5.26563,-1.13281 l 0.96289,-0.9336 0.4082,0.85352 c 0.44322,0.92889 1.84927,1.33192 2.46484,0.70703 0.2523,-0.25612 0.12865,-0.49636 -0.48632,-0.94727 l -0.82618,-0.60546 -0.006,-4.84961 c -0.008,-5.72107 -0.39778,-7.09803 -2.22461,-7.86133 -0.80054,-0.33449 -1.63946,-0.47885 -2.45117,-0.46289 z m 159.0293,0.002 c -0.9387,0.001 -1.87535,0.23674 -2.57031,0.70508 -2.25045,1.51658 -3.10382,3.82023 -2.91406,7.86719 0.17516,3.73535 1.45984,6.06272 3.72265,6.74023 2.74842,0.82292 5.13185,-0.19653 6.44336,-2.75391 0.7242,-1.41329 0.72453,-2.0371 -0.002,-2.0371 -0.37803,-1e-5 -0.78422,0.43805 -1.19336,1.2832 -0.7539,1.5574 -1.95188,2.31836 -3.65039,2.31836 -1.09446,0 -1.4362,-0.16795 -2.40235,-1.1836 -1.23078,-1.29381 -2.01516,-3.72424 -1.42968,-4.42968 0.2151,-0.25917 1.68965,-0.39758 4.85351,-0.45508 l 4.54492,-0.082 -0.084,-1.65039 c -0.10815,-2.13689 -1.36077,-4.71544 -2.73438,-5.625 -0.70434,-0.46647 -1.64528,-0.69855 -2.58398,-0.69727 z m -139.51563,0.004 c -1.35025,0.0387 -2.72108,0.56714 -3.55468,1.48828 -0.75987,0.83963 -1.01895,0.79416 -1.13282,-0.19531 -0.0565,-0.49114 -0.27702,-0.82422 -0.54492,-0.82422 -0.38913,0 -0.46069,1.31877 -0.52929,9.74804 -0.0436,5.36116 -0.009,9.92713 0.0762,10.14844 0.0849,0.22136 0.32313,0.3477 0.5293,0.2793 0.26456,-0.0878 0.39938,-1.15446 0.45898,-3.625 0.0919,-3.80515 0.27243,-4.12675 1.55664,-2.75977 2.22543,2.36884 6.08346,1.45619 7.68555,-1.81836 2.02101,-4.1308 0.84659,-10.35856 -2.25586,-11.96289 -0.67615,-0.34965 -1.4789,-0.50176 -2.28907,-0.47851 z m 31.88477,0.0176 c -2.34909,-1e-5 -3.85051,1.0833 -4.99219,3.60156 -0.71043,1.56707 -0.86138,5.88592 -0.27539,7.84179 0.46197,1.54196 2.16053,3.48264 3.34766,3.82618 2.9871,0.8644 5.48523,-0.27864 6.63672,-3.03516 0.60873,-1.45732 0.58911,-1.73437 -0.12891,-1.73437 -0.39054,-1e-5 -0.73898,0.34212 -1.00976,0.99023 -0.22728,0.54395 -0.84686,1.35278 -1.37696,1.79883 -2.23002,1.87646 -5.24773,0.56929 -6.19336,-2.6836 -0.70785,-2.43489 -0.63696,-2.47376 4.78125,-2.57226 l 4.54493,-0.082 -0.0859,-1.65039 c -0.18552,-3.61752 -2.41902,-6.30079 -5.24805,-6.30078 z m -69.32031,0.002 c -2.79678,-0.002 -4.69231,1.6131 -4.69531,4.00195 -0.002,2.2857 1.43994,3.54168 5.04882,4.39258 2.16171,0.50968 3.16993,1.40763 3.16993,2.82422 0,1.64279 -1.13233,2.63995 -3.18946,2.81054 -1.40694,0.11668 -1.72557,0.0345 -2.54883,-0.6582 -0.51762,-0.43554 -1.09633,-1.25993 -1.28515,-1.83203 -0.42567,-1.28977 -1.4961,-1.48798 -1.4961,-0.27734 0,1.73435 1.42355,3.48763 3.29102,4.05468 1.84575,0.56078 4.05499,0.0805 5.47852,-1.1914 0.81033,-0.72402 0.953,-1.08065 1.0664,-2.64844 0.1248,-1.72516 0.0833,-1.86291 -0.87695,-2.87305 -0.79191,-0.83304 -1.57259,-1.22889 -3.63281,-1.84179 -2.91543,-0.86731 -3.63664,-1.52956 -3.47266,-3.1875 0.12834,-1.29788 1.38374,-2.2248 2.95508,-2.1836 1.5069,0.0395 2.57333,0.74419 3.125,2.06446 0.42117,1.00805 1.13471,1.3612 1.51367,0.74804 0.1008,-0.1631 -0.0848,-0.90257 -0.41211,-1.64257 -0.76032,-1.71887 -2.08435,-2.55955 -4.03906,-2.56055 z m 119.75781,0 c -2.21484,0.002 -4.21615,1.72038 -5.06836,4.34961 -0.5514,1.70118 -0.4904,5.39936 0.11914,7.22265 0.56607,1.69331 2.03898,3.31578 3.37305,3.71485 2.87061,0.85869 5.41805,-0.32899 6.55664,-3.05469 0.60843,-1.45656 0.58701,-1.73437 -0.12891,-1.73437 -0.38844,0 -0.80044,0.40553 -1.1914,1.17187 -1.90962,3.74319 -6.1711,3.12865 -7.39063,-1.06641 -0.71496,-2.45927 -0.63035,-2.5039 4.69531,-2.5039 2.52447,0 4.52366,-0.1251 4.625,-0.28906 0.0981,-0.15882 0.0244,-1.16535 -0.16211,-2.23633 -0.62669,-3.59874 -2.55265,-5.57622 -5.42773,-5.57422 z m 142.74219,0 c -2.79678,-0.002 -4.69231,1.6131 -4.69531,4.00195 -0.002,2.25037 1.40989,3.50712 4.90234,4.36328 1.89804,0.46529 2.78048,1.06934 3.16211,2.16406 0.63675,1.82661 -0.65161,3.30236 -3.0586,3.50196 -1.37985,0.11443 -1.7057,0.0296 -2.52539,-0.66016 -0.51762,-0.43554 -1.09633,-1.25993 -1.28515,-1.83203 -0.42567,-1.28977 -1.4961,-1.48994 -1.4961,-0.2793 0,1.72748 1.3964,3.45688 3.29102,4.07422 1.05399,0.34343 3.39262,0.0913 4.50586,-0.48437 1.30899,-0.67691 2.10156,-2.11417 2.10156,-3.81641 0.002,-2.161 -1.10864,-3.25448 -4.19336,-4.13281 -2.86167,-0.81483 -3.90429,-1.642 -3.90429,-3.0918 0,-1.80631 2.01341,-2.91898 4.06445,-2.24609 0.88815,0.29138 1.34514,0.69775 1.87695,1.66211 0.67782,1.22909 1.32162,1.59894 1.70508,0.97851 0.1008,-0.1631 -0.0848,-0.90257 -0.41211,-1.64257 -0.76032,-1.71887 -2.08435,-2.55955 -4.03906,-2.56055 z m -420.80078,0.004 c -2.74323,-0.007 -4.60499,1.42944 -4.84961,3.74415 -0.0761,0.72003 0.0185,0.90039 0.47851,0.90039 0.37463,0 0.67686,-0.31402 0.86524,-0.90039 0.41356,-1.28726 1.05011,-1.90948 2.29297,-2.24415 1.31788,-0.35487 2.99539,0.0399 3.76171,0.88672 0.313,0.34586 0.54536,1.10269 0.56446,1.83008 0.0431,1.64372 -0.70013,2.23332 -3.16602,2.50977 -2.2887,0.25658 -4.2328,1.06462 -4.8457,2.01562 -0.79141,1.22798 -0.91941,2.84542 -0.3457,4.34766 0.42122,1.10294 0.76149,1.47638 1.75976,1.92969 2.10925,0.95782 4.13244,0.5717 5.66406,-1.08008 l 0.76368,-0.82031 0.375,0.71289 c 0.46829,0.88847 0.85467,1.1522 1.69336,1.1582 1.02393,0.007 1.14511,-0.58765 0.28125,-1.38867 l -0.78907,-0.73047 0,-5.04297 c 0,-4.75318 -0.0389,-5.10202 -0.68359,-6.05859 -0.90293,-1.33987 -1.81836,-1.76454 -3.82031,-1.76954 z m 402.24609,0 c -1.42785,0.0298 -2.86626,0.57294 -3.75195,1.53516 -2.19147,2.38083 -2.74927,7.3487 -1.1836,10.54883 0.83859,1.71404 1.94361,2.75374 3.43164,3.23047 1.25337,0.40156 3.37513,0.0512 4.59766,-0.75781 4.11498,-2.72318 3.68988,-11.82096 -0.65625,-14.03711 -0.72747,-0.37095 -1.58079,-0.53743 -2.4375,-0.51954 z m -285.64844,0.008 c -0.97633,0.0175 -1.94378,0.19705 -2.57422,0.53515 -1.15161,0.61761 -2.11914,2.17925 -2.11914,3.42188 0,1.28144 0.79206,1.01361 1.45899,-0.49414 0.70299,-1.58917 1.51511,-2.08389 3.42773,-2.08789 1.7385,-0.004 2.83803,0.90977 3.10938,2.58203 0.26448,1.62965 -0.7127,2.47479 -3.17969,2.7539 -4.09386,0.46317 -5.41602,1.56751 -5.41602,4.5254 0,2.12291 0.62645,3.22831 2.22461,3.92382 0.50898,0.22161 1.33118,0.40521 1.82618,0.40821 1.21317,0.007 3.32361,-0.98471 3.73632,-1.75586 0.44745,-0.83608 0.66774,-0.78711 1.27344,0.27734 0.39213,0.68911 0.7245,0.89844 1.42578,0.89844 1.13592,0 1.19573,-0.59137 0.16407,-1.62305 -0.73981,-0.7399 -0.75,-0.81702 -0.75,-5.74219 -10e-6,-5.57891 -0.21012,-6.34063 -1.98243,-7.18164 -0.66355,-0.31489 -1.64866,-0.45893 -2.625,-0.4414 z m 267.1836,0.002 c -0.8918,0.0229 -1.77215,0.22542 -2.44141,0.60156 -4.63875,2.60711 -4.3835,12.24658 0.38086,14.41016 1.64511,0.74708 2.82187,0.71548 4.39648,-0.11719 1.44456,-0.76391 2.6875,-2.68648 2.6875,-4.15625 0,-1.4183 -0.83411,-1.02183 -1.6289,0.77539 -0.86919,1.96537 -2.04229,2.72094 -3.84961,2.47852 -2.39907,-0.32178 -3.80395,-2.6137 -3.81445,-6.22266 -0.009,-3.04999 0.93815,-5.06235 2.81054,-5.96875 2.10381,-1.01843 3.92693,-0.27849 4.86914,1.97656 0.49533,1.18547 1.61328,1.43465 1.61328,0.35938 0,-1.09041 -1.40219,-3.13653 -2.50976,-3.66211 -0.71777,-0.3406 -1.62188,-0.49746 -2.51367,-0.47461 z m -415.67774,0.002 c -0.98274,0.0274 -1.98378,0.20213 -2.59961,0.50977 -1.77247,0.88545 -3.15038,4.52146 -1.59961,4.2207 0.27558,-0.0534 0.63011,-0.50304 0.78907,-0.99804 0.41333,-1.28717 1.05005,-1.90946 2.29296,-2.24415 2.32686,-0.62656 4.3379,0.71279 4.3379,2.88868 0,1.4507 -0.57934,1.85645 -3.33985,2.34179 -1.34337,0.23619 -2.85575,0.64387 -3.35937,0.9043 -2.80404,1.45005 -2.7458,6.09623 0.0918,7.38477 2.12081,0.96306 3.78853,0.66027 5.50782,-0.99805 0.53377,-0.51485 1.01285,-0.87784 1.06445,-0.80664 0.0516,0.0712 0.25435,0.50133 0.44922,0.95508 0.27255,0.63461 0.55857,0.82421 1.24219,0.82422 1.24165,0 1.43812,-0.53356 0.51171,-1.39258 l -0.7871,-0.73047 0,-5.04297 c 0,-4.75318 -0.039,-5.10202 -0.6836,-6.05859 -0.3762,-0.55825 -1.01823,-1.1844 -1.42578,-1.39063 -0.54418,-0.27535 -1.50944,-0.39454 -2.49219,-0.36719 z m 130.37891,0.002 c -1.2065,0.0548 -2.38679,0.50067 -3.06055,1.3125 -0.55095,0.66385 -0.82253,0.58527 -1.04492,-0.30079 -0.1293,-0.51515 -0.36293,-0.73807 -0.70703,-0.67187 -0.46623,0.0897 -0.5228,0.78145 -0.5957,7.39258 l -0.0801,7.29297 0.67968,-0.0977 c 0.67206,-0.0954 0.68191,-0.16321 0.83008,-5.52148 0.14835,-5.36483 0.16043,-5.4365 0.98438,-6.51563 1.10154,-1.44265 2.78422,-1.94317 4.22851,-1.25781 1.62516,0.77119 1.81065,1.49054 1.98243,7.64844 0.14778,5.2984 0.18307,5.55078 0.75586,5.55078 0.57236,0 0.60274,-0.22884 0.68164,-4.94141 0.0979,-5.84485 -0.19892,-7.67861 -1.4375,-8.86523 -0.77847,-0.74582 -2.0103,-1.08023 -3.2168,-1.02539 z m -111.35156,0.23242 c -0.59366,-0.0918 -1.57233,0.35609 -2.57813,1.2832 -1.38268,1.2745 -1.51968,1.24861 -1.70898,-0.33398 -0.0511,-0.42679 -0.28299,-0.75 -0.53907,-0.75 -0.38546,0 -0.46245,1.04676 -0.53125,7.29687 l -0.0801,7.29688 0.68164,-0.0977 c 0.66869,-0.0949 0.68265,-0.18187 0.83008,-5.04687 0.0938,-3.09569 0.28728,-5.1899 0.51757,-5.5918 0.56264,-0.98191 2.16518,-2.21859 3.12305,-2.41016 0.6551,-0.13103 0.85938,-0.34082 0.85938,-0.88476 0,-0.45633 -0.21803,-0.70663 -0.57422,-0.76172 z m 223.06054,0.0176 c -0.21913,-0.0585 -0.44507,0.0879 -0.60547,0.50586 -0.2487,0.64834 -0.23042,13.77545 0.0195,14.02539 0.10998,0.11 0.44748,0.19922 0.75,0.19922 0.50747,0 0.54778,-0.32859 0.55078,-4.27344 9e-4,-2.35125 0.14369,-4.78438 0.3164,-5.40625 0.38958,-1.40289 1.95605,-3.01159 3.31055,-3.39844 0.71172,-0.20327 1.05039,-0.49191 1.11719,-0.95508 0.0796,-0.55229 -0.0475,-0.66496 -0.75,-0.66406 -1.01886,0.001 -2.63321,0.93169 -3.08789,1.78125 -0.44601,0.8334 -0.90821,0.77772 -0.90821,-0.10938 0,-0.94 -0.34767,-1.60753 -0.71289,-1.70507 z m -170.49804,0.0898 c -0.071,7.8e-4 -0.14295,0.0137 -0.20899,0.0391 -0.42197,0.16193 -0.48047,1.06131 -0.48047,7.41407 l 0,7.23046 0.67578,-0.0957 0.67579,-0.0957 0.0723,-6.90039 c 0.0404,-3.795 -0.0458,-7.08807 -0.19336,-7.31836 -0.11063,-0.17282 -0.32792,-0.27577 -0.54101,-0.27344 z m 35.09961,0 c -0.0709,7.8e-4 -0.14295,0.0137 -0.20899,0.0391 -0.41627,0.15974 -0.47851,0.91954 -0.47851,5.69922 0,6.85792 0.35126,8.11201 2.54882,9.08203 1.64016,0.72398 3.6221,0.34444 4.97852,-0.95508 0.88317,-0.84615 1.47266,-0.75929 1.47266,0.2168 0,0.41409 0.16373,0.57125 0.52343,0.50195 0.4826,-0.0929 0.52539,-0.68215 0.52539,-7.29687 0,-6.99589 -0.0163,-7.19531 -0.59961,-7.19531 -0.57129,0 -0.60738,0.2513 -0.7539,5.25 -0.1665,5.68051 -0.37862,6.51343 -1.98047,7.77343 -1.55457,1.22282 -4.26937,0.55069 -4.88281,-1.20898 -0.19239,-0.5519 -0.33489,-3.11573 -0.33789,-6.08398 -0.003,-2.82163 -0.12371,-5.31854 -0.26953,-5.54883 -0.10938,-0.17282 -0.3245,-0.27577 -0.53711,-0.27344 z m 294.36132,0.0918 c -0.58026,0 -0.60158,0.226 -0.67968,6.89257 -0.0444,3.79143 -0.011,7.07682 0.0742,7.29883 0.0852,0.22198 0.39043,0.35648 0.67969,0.30078 0.4838,-0.0932 0.52539,-0.67743 0.52539,-7.29687 0,-6.99589 -0.0163,-7.19531 -0.59961,-7.19531 z m 33.31446,0.86718 c 0.95694,0.0423 1.93644,0.5354 2.80078,1.58399 2.36238,2.86599 1.82014,8.91961 -0.95117,10.60937 -0.52962,0.32291 -1.43618,0.58594 -2.01368,0.58594 -2.38008,0 -4.16108,-2.22972 -4.42382,-5.53906 -0.32184,-4.0538 1.79683,-7.01881 4.17968,-7.23047 0.13539,-0.012 0.2715,-0.0158 0.40821,-0.01 z m -206.66211,0.0391 c 0.89121,0.0436 1.7598,0.40596 2.43164,1.12109 2.43552,2.59249 1.92575,9.74544 -0.79492,11.15234 -2.12646,1.09963 -4.4546,0.18981 -5.52539,-2.16211 -0.92519,-2.03201 -0.89953,-5.98257 0.0508,-7.81835 0.80298,-1.55117 2.35253,-2.3657 3.83789,-2.29297 z m 157.9375,0.002 c 0.50408,0.0231 1.03542,0.16218 1.58398,0.42773 1.71273,0.82911 2.61866,2.47642 2.80664,5.10352 0.198,2.76711 -0.48986,5.04746 -1.89062,6.27734 -0.8457,0.74254 -1.32955,0.9336 -2.38867,0.9336 -2.82471,0 -4.61185,-3.03457 -4.25977,-7.23438 0.29503,-3.51918 1.96406,-5.60775 4.14844,-5.50781 z m -75.53711,0.006 c 1.56018,-0.0412 3.02885,1.19626 3.7832,3.52148 0.28916,0.89108 0.28915,1.2325 0.004,1.57618 -0.54003,0.65066 -7.43138,0.63843 -7.68164,-0.0137 -0.32139,-0.83755 0.21443,-2.55329 1.12109,-3.58593 0.86708,-0.98755 1.83733,-1.47333 2.77344,-1.49805 z m 57.16015,0.008 c 1.06242,0.0223 2.11313,0.62778 2.92383,1.8457 0.84513,1.26963 1.19473,3.08294 0.66016,3.42188 -0.42009,0.26636 -6.73308,0.31799 -7.37109,0.0606 -0.5209,-0.21019 -0.46912,-1.44493 0.10937,-2.58985 0.92556,-1.8319 2.31177,-2.76699 3.67773,-2.73828 z m -107.89062,0.008 c 0.99001,-0.0414 1.96409,0.40792 2.75976,1.35352 0.98071,1.16546 1.5375,3.14947 1.04883,3.73828 -0.53151,0.64036 -7.42706,0.61952 -7.67383,-0.0234 -0.30554,-0.7963 0.19216,-2.50183 1.01563,-3.48047 0.85365,-1.01451 1.8596,-1.54652 2.84961,-1.58789 z m 31.16992,0.0117 c 1.57749,0.0414 2.62823,0.83292 3.55274,2.67383 1.53411,3.05482 0.68106,8.06504 -1.61133,9.46289 -1.1886,0.72467 -2.77449,0.72698 -3.95703,0.006 -1.43388,-0.87437 -2.04832,-2.46069 -2.16211,-5.58398 -0.0856,-2.35082 -0.009,-2.87309 0.59375,-4.03321 0.9192,-1.76959 2.04792,-2.56569 3.58398,-2.52539 z m -79.24219,6.03125 0,1.61328 c -5.7e-4,1.98066 -0.70336,3.47095 -2.06836,4.38282 l -0.002,0 c -1.40439,0.93818 -3.02206,0.90137 -4.20703,-0.0957 -0.76851,-0.64667 -0.92188,-0.99458 -0.92187,-2.07421 0,-1.06963 0.15544,-1.42827 0.89062,-2.04688 0.83214,-0.70019 2.18226,-1.11912 5.10156,-1.58594 l 1.20703,-0.19336 z m -208.71875,0.14258 c 0.52459,-0.0227 0.60793,0.11863 0.7168,0.40234 0.1125,0.29318 0.0479,1.28363 -0.14453,2.20118 -0.25564,1.21876 -0.62588,1.94422 -1.37305,2.6914 -0.82239,0.82239 -1.31893,1.05092 -2.53711,1.16797 -1.38156,0.13275 -1.59637,0.0657 -2.42968,-0.76758 -1.96183,-1.96183 -0.77288,-4.48983 2.40625,-5.11718 1.87196,-0.3694 2.83674,-0.55544 3.36132,-0.57813 z m 148.55664,0.0332 c 0.17109,-0.005 0.29953,0.005 0.37305,0.0332 0.63126,0.24223 0.46648,2.59078 -0.28515,4.05664 -0.41938,0.81786 -1.07124,1.52331 -1.72071,1.86328 -0.57492,0.30096 -1.56062,0.54883 -2.18945,0.54883 -2.80674,0 -3.92198,-3.76665 -1.5293,-5.16406 0.88408,-0.51632 4.15395,-1.30099 5.35156,-1.3379 z m -116.54882,0.0234 c 0.17383,0.001 0.29697,0.0185 0.35546,0.0547 0.49353,0.30502 0.047,3.3551 -0.6582,4.49609 -0.32766,0.53016 -1.05274,1.18025 -1.61133,1.44532 -2.24548,1.06555 -4.46828,0.23836 -4.85156,-1.80469 -0.23478,-1.25146 0.17749,-2.30461 1.15235,-2.94336 0.73579,-0.48212 4.39642,-1.25587 5.61328,-1.24805 z m 48.3125,4.67774 c -0.8634,0 -0.90039,0.054 -0.90039,1.31836 0,0.89473 0.14568,1.373 0.45117,1.49023 0.57036,0.21931 0.56876,1.00353 -0.004,2.10156 -0.24648,0.47261 -0.44726,1.0617 -0.44726,1.31055 0,0.37657 0.0797,0.38705 0.4707,0.0625 0.92211,-0.76527 1.33008,-2.04355 1.33008,-4.16797 l 0,-2.11523 -0.90039,0 z"
       style="fill:#000000;fill-opacity:1"
       inkscape:connector-curvature="0" />
    <path
       id="path4219"
       d="m 531.70898,50.373047 -0.0801,6.375 -0.082,6.375 6.01171,0 6.01172,0 -0.0801,-6.375 -0.082,-6.375 -5.84961,0 -5.84961,0 z m 73.80079,0 -0.0781,16.884765 c -0.0681,14.832291 -0.13391,16.907781 -0.53711,17.0625 -0.29721,0.114052 -1.11563,-0.451755 -2.32226,-1.603515 -5.63169,-5.37542 -11.97759,-7.582294 -20.73243,-7.208985 -8.02815,0.342332 -15.17884,3.302087 -20.38867,8.435547 -4.38828,4.32394 -7.66395,11.105012 -9.11133,18.863281 -0.80055,4.29114 -0.71247,13.76279 0.16602,17.83594 1.86357,8.64042 5.67161,15.14248 11.65625,19.90234 3.92577,3.12237 9.1012,5.47032 14.18164,6.4336 3.30351,0.62637 10.51869,0.40162 13.62891,-0.42383 4.62933,-1.22862 9.49375,-4.23334 11.88672,-7.34375 1.80425,-2.3452 2.06881,-2.03044 2.16601,2.58594 l 0.084,3.97656 5.54882,0 5.55078,0 0,-47.701174 0,-47.699219 -5.8496,0 -5.84961,0 z M 360.10938,75.423828 c -15.42222,0 -26.18366,4.300448 -31.00586,12.392578 -1.58859,2.66582 -3.44217,7.7102 -2.9961,8.15625 0.0927,0.09272 2.65171,0.48578 5.68555,0.875 4.11723,0.52821 5.5997,0.622178 5.84375,0.367188 0.17985,-0.18789 0.56498,-1.016797 0.85742,-1.841797 1.4193,-4.00388 4.04357,-7.178839 7.26563,-8.792969 2.95323,-1.47948 5.13903,-1.89297 10.89843,-2.0625 6.45999,-0.19014 9.80733,0.371188 13.70313,2.298828 4.04676,2.00232 5.77839,4.586135 6.41601,9.578125 0.31911,2.49853 0.0976,5.565079 -0.43164,5.986329 -1.06599,0.84852 -10.97328,2.65528 -21.63672,3.94531 -11.19579,1.35443 -13.78199,1.88915 -18.25781,3.77539 -8.21466,3.46189 -12.83665,9.80572 -12.87695,17.67188 -0.0282,5.50608 1.41656,9.01216 5.32031,12.9082 1.87569,1.87198 2.98401,2.69094 4.96875,3.67188 2.65821,1.31382 6.10076,2.32472 9.34766,2.74609 3.21579,0.41733 9.45003,0.3477 12.75195,-0.14258 6.46632,-0.96016 11.89004,-3.13372 18.04883,-7.23437 1.8714,-1.246 3.51383,-2.14944 3.65039,-2.00782 0.13653,0.14162 0.51868,1.4061 0.84961,2.8086 0.33093,1.4025 0.87833,3.19086 1.21484,3.97461 l 0.61133,1.42383 6.16016,0 c 3.38835,0 6.16015,-0.10367 6.16015,-0.23243 0,-0.12876 -0.46575,-1.33941 -1.03515,-2.68945 -2.01333,-4.77385 -1.99841,-4.5979 -2.26367,-28.12695 -0.15101,-13.3942 -0.36564,-21.999557 -0.57813,-23.183597 -0.77949,-4.34351 -2.85007,-8.204125 -5.53711,-10.328125 -5.0349,-3.97986 -12.66352,-5.9375 -23.13476,-5.9375 z m -68.15235,0.03516 c -1.89343,0.01542 -3.68941,0.146125 -5.04883,0.402344 -6.39588,1.20546 -11.71482,4.325806 -16.16015,9.478516 -0.84616,0.98082 -1.74759,1.783193 -2.00196,1.783203 -0.25981,1e-5 -0.8002,-0.691442 -1.23437,-1.576172 -2.20239,-4.48789 -7.16947,-8.087338 -13.00195,-9.423828 -3.62739,-0.8312 -11.99913,-0.744377 -15.30079,0.158203 -5.02279,1.37309 -10.21873,4.527142 -13.39257,8.132812 -0.8773,0.99667 -1.73188,1.766738 -1.90039,1.710938 -0.18106,-0.05999 -0.36844,-1.931292 -0.45704,-4.576172 l -0.15039,-4.476562 -5.32421,-0.08203 -5.32618,-0.08203 0,34.50782 0,34.50586 6,0 6,0 0.002,-18.52344 c 4e-4,-10.18875 0.13594,-20.29427 0.30078,-22.45508 0.74172,-9.722695 3.63059,-14.905609 10.00586,-17.947269 4.18134,-1.99534 7.77828,-2.591534 12.02734,-1.996094 5.65654,0.79269 8.88673,3.744797 10.5293,9.623047 0.50159,1.79505 0.55379,3.910719 0.66015,26.625006 l 0.11524,24.67383 5.98047,0 5.98047,0 0,-20.56055 c 0,-21.83905 0.13971,-24.75152 1.37695,-28.667974 1.23526,-3.91029 3.32185,-6.555673 7.09766,-8.996093 3.4988,-2.26139 8.89654,-3.360918 13.30664,-2.710938 4.27515,0.63008 8.20073,3.063025 9.70703,6.015625 1.66353,3.2608 1.6272,2.653172 1.80078,29.72071 l 0.16015,25.05078 6,0 6,0 -0.006,-25.80078 c -0.005,-25.269748 -0.0179,-25.860631 -0.64843,-28.714851 -0.95877,-4.33996 -2.40835,-7.109544 -5.16407,-9.865234 -2.58137,-2.5814 -5.22043,-4.042492 -9.21874,-5.101562 -2.13191,-0.564694 -5.55912,-0.857729 -8.71485,-0.832032 z m 135.01367,0.0293 c -4.73464,-0.03569 -7.81412,0.389985 -11.96093,1.574219 -9.82776,2.80658 -15.7275,9.520142 -15.7461,17.919922 -0.0136,6.163911 3.19149,11.527361 8.73438,14.611331 2.97786,1.65685 8.78669,3.5209 17.81054,5.71484 14.09568,3.42704 16.9223,4.35559 19.11329,6.2793 1.63505,1.43561 2.33798,3.12169 2.33398,5.60547 -0.007,5.23909 -4.4027,9.41805 -11.35547,10.79883 -3.24306,0.64405 -11.5353,0.46298 -14.29101,-0.3125 -5.95092,-1.67461 -9.86194,-5.29813 -11.72461,-10.85938 -0.4326,-1.29159 -0.83614,-2.42703 -0.89454,-2.52343 -0.12084,-0.19955 -11.49262,1.38913 -11.74414,1.64062 -0.0902,0.0902 0.20247,1.34894 0.65235,2.79883 3.40449,10.97184 11.14872,16.82658 24.28125,18.35937 3.14193,0.36672 10.47426,0.37373 13.38672,0.0117 10.58163,-1.31528 18.56755,-5.95453 22.16797,-12.875 1.57989,-3.03677 2.125,-5.22879 2.125,-8.56054 0,-5.45464 -1.89912,-9.57462 -5.84961,-12.68946 -3.55389,-2.80211 -7.75422,-4.27129 -24.26172,-8.48633 -12.85557,-3.28256 -14.62726,-3.94047 -16.76563,-6.226562 -2.91762,-3.11917 -2.6073,-7.068239 0.80274,-10.199219 2.79852,-2.569509 5.55857,-3.354429 12.51953,-3.5625 4.25601,-0.127209 5.73221,-0.0604 7.51367,0.335938 4.78143,1.06377 8.14314,3.467989 9.97852,7.136719 0.58433,1.16803 1.0625,2.365962 1.0625,2.664062 -10e-6,0.29809 0.14039,0.629968 0.3125,0.736328 0.17207,0.10635 2.87207,-0.110461 6,-0.482421 5.18898,-0.617071 5.6875,-0.728503 5.6875,-1.257813 -10e-6,-1.09562 -1.82991,-6.036581 -2.86719,-7.744141 -3.89673,-6.41472 -12.46551,-9.983754 -24.88281,-10.365234 -0.75185,-0.0231 -1.4623,-0.03787 -2.13868,-0.04297 z m 235.90821,0.05664 c -4.16357,-0.0045 -8.32481,0.184234 -10.41797,0.568359 -11.19768,2.05495 -17.57557,5.985975 -21.26758,13.109375 -1.19964,2.31458 -2.66923,6.463561 -2.38867,6.744141 0.13293,0.13291 8.16888,1.19438 10.83789,1.431641 0.77619,0.069 0.89696,-0.0865 1.8125,-2.326172 2.38614,-5.83725 5.52155,-8.614562 11.24219,-9.957032 3.35223,-0.78674 13.11247,-0.771329 16.11328,0.02539 6.2145,1.64996 9.48612,4.569177 10.5039,9.373047 0.5904,2.79366 0.59124,7.119723 0,7.710943 -0.9891,0.98911 -10.82805,2.816 -22.80468,4.23437 -7.87803,0.93298 -10.83639,1.45007 -14.00196,2.44336 -3.4263,1.07509 -7.85402,3.41142 -9.91211,5.23243 -2.10621,1.86359 -4.43621,5.28716 -5.33008,7.83007 -0.92146,2.62145 -1.14631,7.43722 -0.48046,10.27344 1.81353,7.7247 8.5448,13.13299 18.33398,14.72852 3.51789,0.57337 12.52606,0.39929 15.73438,-0.30469 5.9346,-1.30221 10.52085,-3.28579 15.88281,-6.87109 2.73858,-1.83114 3.49657,-2.21371 3.77539,-1.9043 0.19191,0.21296 0.56385,1.41623 0.82617,2.67578 0.26232,1.25954 0.79046,2.94704 1.17383,3.75 l 0.69726,1.46093 6.22657,0.0801 c 3.42375,0.0446 6.22461,0.007 6.22461,-0.084 0,-0.0913 -0.31749,-0.80376 -0.70704,-1.58203 -1.00508,-2.00793 -1.92867,-4.96859 -2.31054,-7.41406 -0.19434,-1.24451 -0.4277,-10.77754 -0.57227,-23.40039 -0.2679,-23.394102 -0.23973,-23.040587 -2.17578,-27.074217 -1.21056,-2.52209 -4.17244,-5.570446 -6.68359,-6.878906 -2.63484,-1.37291 -6.49372,-2.651843 -9.9043,-3.283203 -2.09944,-0.388665 -6.26417,-0.587307 -10.42773,-0.591797 z m -198.85743,1.378906 c -3.44481,0 -6.26171,0.05169 -6.26171,0.117188 0,0.0655 1.94157,4.757531 4.31445,10.425781 4.90752,11.72294 23.27319,55.623447 23.98437,57.330087 l 0.47071,1.125 5.67773,0 c 4.18983,0 5.75316,-0.0983 5.96485,-0.375 0.21426,-0.28 27.35957,-65.25921 28.45703,-68.11915 0.18417,-0.47989 -0.24331,-0.511047 -6.06055,-0.435546 l -6.25977,0.08008 -9.38086,23.400396 c -5.15922,12.86999 -10.01792,25.22004 -10.79882,27.44531 -0.95067,2.70912 -1.57925,4.07842 -1.90235,4.14062 -0.37785,0.0728 -0.87879,-1.06527 -2.30859,-5.24609 -1.00419,-2.93637 -3.79746,-10.33445 -6.20703,-16.43945 -2.40957,-6.105 -6.28706,-15.960406 -8.61719,-21.900396 -2.33013,-5.94 -4.36636,-10.967578 -4.52344,-11.173828 -0.2124,-0.2789 -1.89055,-0.375 -6.54883,-0.375 z m 67.53711,0 0,34.498056 0,34.5 6,0 6,0 0,-34.5 0,-34.498056 -6,0 -6,0 z m 52.11133,7.552734 c 0.73248,-0.02583 1.49482,-0.02132 2.29297,0.01172 5.47479,0.22664 9.29577,1.899406 13.2207,5.791016 4.71981,4.67973 6.66329,10.280886 6.98243,20.123046 0.35307,10.88857 -1.4242,16.90692 -6.50782,22.05078 -2.96553,3.00069 -5.42844,4.49512 -8.85351,5.3711 -3.04455,0.77861 -7.89139,0.78689 -10.58203,0.0176 -3.53046,-1.00943 -5.69696,-2.34654 -8.78321,-5.41602 -3.12171,-3.10476 -4.48281,-5.30419 -5.66601,-9.15234 -1.90845,-6.20694 -2.03326,-16.30739 -0.28516,-23.25 1.00608,-3.995698 2.71836,-7.008087 5.64063,-9.925787 3.77821,-3.772326 7.41369,-5.440249 12.54101,-5.621094 z M 376.34961,111.12305 c 0.43056,0 0.46438,0.59602 0.32422,5.625 -0.11007,3.94831 -0.30724,6.16036 -0.66211,7.42383 -2.0886,7.43605 -9.01892,12.90454 -18.25391,14.40234 -4.75668,0.77148 -10.00262,0.44167 -13.58984,-0.85352 -2.80863,-1.01406 -5.60877,-3.51656 -6.76758,-6.04882 -0.54375,-1.18821 -0.68555,-2.02886 -0.68555,-4.04883 0,-3.09386 0.61453,-4.64724 2.74219,-6.92188 2.71506,-2.9026 5.59341,-3.86374 16.15235,-5.39453 7.33046,-1.06275 13.90644,-2.33826 17.6289,-3.41992 1.44624,-0.42024 2.84649,-0.76367 3.11133,-0.76367 z m 302.53906,0.0469 c 0.48455,0.009 0.63594,0.25857 0.75977,0.75196 0.30486,1.21465 -0.12948,8.97797 -0.63477,11.35156 -0.57465,2.69942 -2.1555,5.87789 -3.91797,7.8789 -2.76294,3.13693 -7.4352,5.8136 -12.1914,6.98438 -3.27414,0.80595 -9.7368,1.03816 -12.76953,0.45898 -4.60221,-0.87891 -8.03034,-3.236 -9.73047,-6.68945 -0.82647,-1.67879 -0.95508,-2.25624 -0.95508,-4.2832 0,-2.02696 0.12861,-2.60442 0.95508,-4.28321 2.36529,-4.80454 5.72507,-6.30301 18.05468,-8.04687 7.56153,-1.06949 14.46653,-2.41042 17.66993,-3.43359 1.45716,-0.46543 2.27521,-0.69802 2.75976,-0.68946 z"
       style="fill:#e3302c;fill-opacity:1"
       inkscape:connector-curvature="0" />
    <path
       id="path4199"
       d="m 22.458971,80.946529 c -8.9925,-5.20086 -16.6560302,-9.65592 -17.0300702,-9.90013 -0.57985,-0.37859 -0.63001,-0.54199 -0.34037,-1.10879 0.18684,-0.36561 4.52909,-7.93153 9.6494502,-16.81314 7.2652,-12.60201 9.42013,-16.11951 9.81247,-16.01692 0.27651,0.0723 11.17383,6.29284 24.21626,13.82339 13.04242,7.53056 23.86622,13.69192 24.05288,13.69192 0.2502,0 0.33938,-7.71639 0.33938,-29.36327 0,-24.40722 0.0689,-29.42048 0.40845,-29.70225 0.29634,-0.24594 5.62812,-0.31778 19.425,-0.26173 l 19.016549,0.0773 0.15659,29.55 c 0.0861,16.2525 0.18737,29.58375 0.22499,29.62499 0.2462,0.2699 3.07244,-1.30862 24.5737,-13.725 13.1435,-7.58999 24.04585,-13.79999 24.22744,-13.79999 0.37709,0 19.36728,32.74511 19.36728,33.39533 0,0.42711 -33.5429,20.00516 -34.27289,20.00413 -0.20741,-3e-4 -0.752,-0.59396 -1.21021,-1.31926 -1.21597,-1.92478 -3.28168,-3.70005 -5.56302,-4.78085 l -2.00388,-0.94936 -14.4,-0.15 -14.4,-0.15 -0.15873,-14.24999 c -0.17204,-15.44528 -0.13483,-15.09462 -1.9257,-18.1505 -1.0269,-1.75227 -3.51075,-3.96305 -5.50015,-4.89549 -1.697779,-0.79575 -1.783359,-0.80401 -8.321729,-0.80401 l -6.6063,0 -1.9437,0.95849 c -3.01676,1.48766 -5.04507,3.68125 -6.46472,6.99151 -0.53739,1.25304 -0.58974,2.38424 -0.72897,15.74999 l -0.15,14.4 -14.4,0.1557 c -15.56762,0.16833 -15.29461,0.13993 -18.04072,1.87667 -1.59003,1.00559 -2.8129,2.20622 -3.96478,3.89263 -0.53533,0.78375 -1.13559,1.42045 -1.33391,1.4149 -0.19832,-0.006 -7.71809,-4.26536 -16.71059,-9.46622 z"
       style="fill:#008ac9;fill-opacity:1"
       inkscape:connector-curvature="0" />
  </g>
</svg>
