<?xml version="1.0" encoding="UTF-8" standalone="no"?>
<!-- Created with Inkscape (http://www.inkscape.org/) -->

<svg
   xmlns:dc="http://purl.org/dc/elements/1.1/"
   xmlns:cc="http://creativecommons.org/ns#"
   xmlns:rdf="http://www.w3.org/1999/02/22-rdf-syntax-ns#"
   xmlns:svg="http://www.w3.org/2000/svg"
   xmlns="http://www.w3.org/2000/svg"
   xmlns:sodipodi="http://sodipodi.sourceforge.net/DTD/sodipodi-0.dtd"
   xmlns:inkscape="http://www.inkscape.org/namespaces/inkscape"
   width="1302"
   height="393"
   id="svg4220"
   version="1.1"
   inkscape:version="0.48.5 r10040"
   sodipodi:docname="logo ajenjo.svg"
   inkscape:export-filename="C:\Users\Jonathan\Pictures\Logo-ajenjo-fullEdit177.png"
   inkscape:export-xdpi="12.72"
   inkscape:export-ydpi="12.72">
  <title
     id="title3103">Ajenjo Logo</title>
  <defs
     id="defs4222" />
  <sodipodi:namedview
     id="base"
     pagecolor="#ffffff"
     bordercolor="#666666"
     borderopacity="1.0"
     inkscape:pageopacity="0.0"
     inkscape:pageshadow="2"
     inkscape:zoom="0.5"
     inkscape:cx="1058.1847"
     inkscape:cy="-51.009594"
     inkscape:document-units="px"
     inkscape:current-layer="layer1"
     showgrid="false"
     showguides="true"
     inkscape:guide-bbox="true"
     inkscape:window-width="1366"
     inkscape:window-height="715"
     inkscape:window-x="-8"
     inkscape:window-y="22"
     inkscape:window-maximized="1">
    <sodipodi:guide
       position="0,0"
       orientation="0,1302"
       id="guide3087" />
    <sodipodi:guide
       position="1302,0"
       orientation="-393,0"
       id="guide3089" />
    <sodipodi:guide
       position="1302,393"
       orientation="0,-1302"
       id="guide3091" />
    <sodipodi:guide
       position="0,393"
       orientation="393,0"
       id="guide3093" />
    <sodipodi:guide
       position="0,0"
       orientation="0,1302"
       id="guide3095" />
    <sodipodi:guide
       position="1302,0"
       orientation="-393,0"
       id="guide3097" />
    <sodipodi:guide
       position="1302,393"
       orientation="0,-1302"
       id="guide3099" />
    <sodipodi:guide
       position="0,393"
       orientation="393,0"
       id="guide3101" />
  </sodipodi:namedview>
  <metadata
     id="metadata4225">
    <rdf:RDF>
      <cc:Work
         rdf:about="">
        <dc:format>image/svg+xml</dc:format>
        <dc:type
           rdf:resource="http://purl.org/dc/dcmitype/StillImage" />
        <dc:title>Ajenjo Logo</dc:title>
        <dc:date>2015-01-15</dc:date>
        <dc:creator>
          <cc:Agent>
            <dc:title>Jon Dotsoy (hi@jon.soy)</dc:title>
          </cc:Agent>
        </dc:creator>
        <dc:rights>
          <cc:Agent>
            <dc:title>Jon Dotsoy (hi@jon.soy)</dc:title>
          </cc:Agent>
        </dc:rights>
        <dc:publisher>
          <cc:Agent>
            <dc:title>Jon Dotsoy (hi@jon.soy)</dc:title>
          </cc:Agent>
        </dc:publisher>
        <dc:subject>
          <rdf:Bag>
            <rdf:li>ajenjo</rdf:li>
            <rdf:li>logo</rdf:li>
          </rdf:Bag>
        </dc:subject>
        <cc:license
           rdf:resource="http://creativecommons.org/licenses/by-sa/3.0/" />
      </cc:Work>
      <cc:License
         rdf:about="http://creativecommons.org/licenses/by-sa/3.0/">
        <cc:permits
           rdf:resource="http://creativecommons.org/ns#Reproduction" />
        <cc:permits
           rdf:resource="http://creativecommons.org/ns#Distribution" />
        <cc:requires
           rdf:resource="http://creativecommons.org/ns#Notice" />
        <cc:requires
           rdf:resource="http://creativecommons.org/ns#Attribution" />
        <cc:permits
           rdf:resource="http://creativecommons.org/ns#DerivativeWorks" />
        <cc:requires
           rdf:resource="http://creativecommons.org/ns#ShareAlike" />
      </cc:License>
    </rdf:RDF>
  </metadata>
  <g
     inkscape:label="Capa 1"
     inkscape:groupmode="layer"
     id="layer1"
     transform="translate(0,-659.36218)">
    <g
       id="g3034"
       inkscape:export-xdpi="36.799999"
       inkscape:export-ydpi="36.799999"
       inkscape:export-filename="C:\Users\Jonathan\Documents\ajenjo\press\ImagotipoX512.png">
      <g
         inkscape:export-ydpi="90"
         inkscape:export-xdpi="90"
         id="g4271"
         transform="matrix(0.44318871,0,0,0.44318871,-366.32784,183.78699)">
        <path
           inkscape:connector-curvature="0"
           id="path4273"
           d="m 1047.4531,1367.1458 c -97.20391,0 -175.99997,78.8274 -175.99997,176.0313 0,97.2039 78.79606,176 175.99997,176 97.2039,0 176,-78.7961 176,-176 0,-97.2039 -78.7961,-176.0313 -176,-176.0313 z m 390.75,0 c -97.2039,0 -176,78.8274 -176,176.0313 0,97.2039 78.7961,176 176,176 97.2039,0 176,-78.7961 176,-176 0,-97.2039 -78.7961,-176.0313 -176,-176.0313 z"
           style="fill:#a02c2c;fill-opacity:1;stroke:none" />
        <path
           style="fill:#d18757;fill-opacity:1;stroke:none"
           d="m 1059.4797,1370.9175 c -91.22033,0 -165.16598,73.5488 -165.16598,164.2437 0,90.6947 73.94565,164.2144 165.16598,164.2144 91.2203,0 165.1661,-73.5197 165.1661,-164.2144 0,-90.6949 -73.9458,-164.2437 -165.1661,-164.2437 z m 366.6968,0 c -91.2203,0 -165.1661,73.5488 -165.1661,164.2437 0,90.6947 73.9458,164.2144 165.1661,164.2144 91.2204,0 165.166,-73.5197 165.166,-164.2144 0,-90.6949 -73.9456,-164.2437 -165.166,-164.2437 z"
           id="path4275"
           inkscape:connector-curvature="0" />
        <path
           sodipodi:nodetypes="ssssssssss"
           inkscape:connector-curvature="0"
           id="path4277"
           d="m 1065.6781,1367.1458 c -88.12946,0 -159.56954,78.8273 -159.56954,176.0312 0,48.602 17.86002,92.602 46.73622,124.4515 28.87621,31.8495 148.25962,164.1817 177.13582,196.0313 28.8763,31.8495 68.7687,51.5485 112.8334,51.5485 44.0647,0 83.9571,-19.699 112.8333,-51.5485 28.8762,-31.8496 148.2667,-164.1818 177.15,-196.0313 28.8834,-31.8495 46.7504,-75.8495 46.7504,-124.4515 0,-97.2039 -71.4685,-176.0312 -159.5979,-176.0312 -88.1295,0 -266.1422,0 -354.2717,0 z"
           style="fill:#a02c2c;fill-opacity:1;stroke:none" />
        <path
           id="path4279"
           d="m 1419.9782,1387.1427 c 78.3262,0 141.4366,69.6357 141.4366,156.0312 0,43.1978 -15.8072,82.0598 -41.4223,110.3126 -28.9643,31.9465 -148.3477,164.2787 -177.1359,196.0312 -25.6152,28.2528 -60.8493,45.6875 -100.0143,45.6875 -39.165,0 -74.3991,-17.4347 -100.0143,-45.6875 -28.7892,-31.7536 -148.16113,-164.0811 -177.13579,-196.0312 -25.62234,-28.2537 -41.45074,-67.1169 -41.45074,-110.3126 0,-86.3912 63.13878,-156.0312 141.46503,-156.0312 l 354.2717,0 z"
           style="fill:#ffffff;fill-opacity:1;stroke:none"
           inkscape:connector-curvature="0" />
        <g
           id="g4281">
          <g
             id="g4283"
             transform="translate(-1.7616,0)">
            <g
               id="g4285">
              <path
                 style="fill:#1a1a1a;fill-opacity:1;stroke:none"
                 d="m 1309.4398,1197.4088 c 56.8361,-43.9855 124.5925,-71.8492 181.31,-78.2799 4.8787,-0.5531 9.6757,-0.9477 14.3771,-1.1803 11.7607,-0.5819 22.9228,-0.1503 33.2676,1.3478 -65.5753,11.466 -83.8338,40.5163 -147.5144,89.7991 -63.6742,49.2775 -124.238,134.6373 -133.5229,181.0987 -19.8006,-42.1444 -21.8699,-135.5535 52.0826,-192.7854 z"
                 id="path4287"
                 inkscape:connector-curvature="0"
                 sodipodi:nodetypes="ssscscs" />
              <path
                 sodipodi:nodetypes="ssscscs"
                 inkscape:connector-curvature="0"
                 id="path4289"
                 d="m 1317.2356,1197.2066 c 54.6193,-30.2612 116.4857,-45.2351 166.0405,-43.2625 4.2626,0.1697 8.434,0.4647 12.502,0.8862 10.1762,1.0544 19.7044,2.9 28.3898,5.5535 -57.8266,1.1809 -77.3446,23.7145 -138.5413,57.6202 -61.1907,33.9021 -124.4784,99.2001 -138.5911,137.8709 -11.4343,-38.8072 -0.8679,-119.2938 70.2001,-158.6683 z"
                 style="fill:#1a1a1a;fill-opacity:1;stroke:none" />
            </g>
            <g
               transform="matrix(-1,0,0,1,2489.1795,0)"
               id="g4291">
              <path
                 sodipodi:nodetypes="ssscscs"
                 inkscape:connector-curvature="0"
                 id="path4293"
                 d="m 1309.4398,1197.4088 c 56.8361,-43.9855 124.5925,-71.8492 181.31,-78.2799 4.8787,-0.5531 9.6757,-0.9477 14.3771,-1.1803 11.7607,-0.5819 22.9228,-0.1503 33.2676,1.3478 -65.5753,11.466 -83.8338,40.5163 -147.5144,89.7991 -63.6742,49.2775 -124.238,134.6373 -133.5229,181.0987 -19.8006,-42.1444 -21.8699,-135.5535 52.0826,-192.7854 z"
                 style="fill:#1a1a1a;fill-opacity:1;stroke:none" />
              <path
                 style="fill:#1a1a1a;fill-opacity:1;stroke:none"
                 d="m 1317.2356,1197.2066 c 54.6193,-30.2612 116.4857,-45.2351 166.0405,-43.2625 4.2626,0.1697 8.434,0.4647 12.502,0.8862 10.1762,1.0544 19.7044,2.9 28.3898,5.5535 -57.8266,1.1809 -77.3446,23.7145 -138.5413,57.6202 -61.1907,33.9021 -124.4784,99.2001 -138.5911,137.8709 -11.4343,-38.8072 -0.8679,-119.2938 70.2001,-158.6683 z"
                 id="path4295"
                 inkscape:connector-curvature="0"
                 sodipodi:nodetypes="ssscscs" />
            </g>
          </g>
          <g
             id="g4297">
            <g
               id="g4299"
               transform="translate(898.79619,0)">
              <g
                 id="g4301">
                <path
                   sodipodi:type="arc"
                   style="fill:#1a1a1a;fill-opacity:1;stroke:none"
                   id="path4303"
                   sodipodi:cx="255.36575"
                   sodipodi:cy="306.03885"
                   sodipodi:rx="58.007366"
                   sodipodi:ry="58.007366"
                   d="m 313.37312,306.03885 c 0,32.03658 -25.97078,58.00737 -58.00737,58.00737 -32.03658,0 -58.00736,-25.97079 -58.00736,-58.00737 0,-32.03658 25.97078,-58.00737 58.00736,-58.00737 32.03659,0 58.00737,25.97079 58.00737,58.00737 z"
                   transform="matrix(2.8965517,0,0,2.8965517,-563.66949,446.01101)" />
                <path
                   transform="matrix(2.6551724,0,0,2.6551724,-488.0277,519.88246)"
                   d="m 313.37312,306.03885 c 0,32.03658 -25.97078,58.00737 -58.00737,58.00737 -32.03658,0 -58.00736,-25.97079 -58.00736,-58.00737 0,-32.03658 25.97078,-58.00737 58.00736,-58.00737 32.03659,0 58.00737,25.97079 58.00737,58.00737 z"
                   sodipodi:ry="58.007366"
                   sodipodi:rx="58.007366"
                   sodipodi:cy="306.03885"
                   sodipodi:cx="255.36575"
                   id="path4305"
                   style="fill:#ffffff;fill-opacity:1;stroke:none"
                   sodipodi:type="arc" />
              </g>
              <g
                 id="g4307">
                <path
                   transform="matrix(2.8965517,0,0,2.8965517,-227.62682,446.01101)"
                   d="m 313.37312,306.03885 c 0,32.03658 -25.97078,58.00737 -58.00737,58.00737 -32.03658,0 -58.00736,-25.97079 -58.00736,-58.00737 0,-32.03658 25.97078,-58.00737 58.00736,-58.00737 32.03659,0 58.00737,25.97079 58.00737,58.00737 z"
                   sodipodi:ry="58.007366"
                   sodipodi:rx="58.007366"
                   sodipodi:cy="306.03885"
                   sodipodi:cx="255.36575"
                   id="path4309"
                   style="fill:#1a1a1a;fill-opacity:1;stroke:none"
                   sodipodi:type="arc" />
                <path
                   transform="matrix(2.6551724,0,0,2.6551724,-179.98859,519.88246)"
                   d="m 313.37312,306.03885 c 0,32.03658 -25.97078,58.00737 -58.00737,58.00737 -32.03658,0 -58.00736,-25.97079 -58.00736,-58.00737 0,-32.03658 25.97078,-58.00737 58.00736,-58.00737 32.03659,0 58.00737,25.97079 58.00737,58.00737 z"
                   sodipodi:ry="58.007366"
                   sodipodi:rx="58.007366"
                   sodipodi:cy="306.03885"
                   sodipodi:cx="255.36575"
                   id="path4311"
                   style="fill:#ffffff;fill-opacity:1;stroke:none"
                   sodipodi:type="arc" />
              </g>
            </g>
            <g
               id="g4313">
              <g
                 transform="translate(898.7962,0)"
                 id="g4315">
                <path
                   sodipodi:type="arc"
                   style="fill:#a05a2c;fill-opacity:1;stroke:none"
                   id="path4317"
                   sodipodi:cx="255.36575"
                   sodipodi:cy="306.03885"
                   sodipodi:rx="58.007366"
                   sodipodi:ry="58.007366"
                   d="m 313.37312,306.03885 c 0,32.03658 -25.97078,58.00737 -58.00737,58.00737 -32.03658,0 -58.00736,-25.97079 -58.00736,-58.00737 0,-32.03658 25.97078,-58.00737 58.00736,-58.00737 32.03659,0 58.00737,25.97079 58.00737,58.00737 z"
                   transform="matrix(1.696108,0,0,1.696108,-236.07247,808.67877)" />
                <path
                   transform="matrix(1.696108,0,0,1.696108,57.880558,808.67877)"
                   d="m 313.37312,306.03885 c 0,32.03658 -25.97078,58.00737 -58.00737,58.00737 -32.03658,0 -58.00736,-25.97079 -58.00736,-58.00737 0,-32.03658 25.97078,-58.00737 58.00736,-58.00737 32.03659,0 58.00737,25.97079 58.00737,58.00737 z"
                   sodipodi:ry="58.007366"
                   sodipodi:rx="58.007366"
                   sodipodi:cy="306.03885"
                   sodipodi:cx="255.36575"
                   id="path4319"
                   style="fill:#a05a2c;fill-opacity:1;stroke:none"
                   sodipodi:type="arc" />
              </g>
              <path
                 sodipodi:type="arc"
                 style="fill:#000000;fill-opacity:1;stroke:#d89970;stroke-width:10.83335304;stroke-miterlimit:4;stroke-opacity:1;stroke-dasharray:none"
                 id="path4321"
                 sodipodi:cx="255.36575"
                 sodipodi:cy="306.03885"
                 sodipodi:rx="58.007366"
                 sodipodi:ry="58.007366"
                 d="m 313.37312,306.03885 c 0,32.03658 -25.97078,58.00737 -58.00737,58.00737 -32.03658,0 -58.00736,-25.97079 -58.00736,-58.00737 0,-32.03658 25.97078,-58.00737 58.00736,-58.00737 32.03659,0 58.00737,25.97079 58.00737,58.00737 z"
                 transform="matrix(0.85846001,0,0,0.85846001,1170.5834,1065.0316)" />
              <path
                 transform="matrix(0.85846001,0,0,0.85846001,1170.5834,1065.0316)"
                 d="m 313.37312,306.03885 c 0,32.03658 -25.97078,58.00737 -58.00737,58.00737 -32.03658,0 -58.00736,-25.97079 -58.00736,-58.00737 0,-32.03658 25.97078,-58.00737 58.00736,-58.00737 32.03659,0 58.00737,25.97079 58.00737,58.00737 z"
                 sodipodi:ry="58.007366"
                 sodipodi:rx="58.007366"
                 sodipodi:cy="306.03885"
                 sodipodi:cx="255.36575"
                 id="path4323"
                 style="fill:#000000;fill-opacity:1;stroke:none"
                 sodipodi:type="arc" />
              <path
                 transform="matrix(0.85846001,0,0,0.85846001,876.63035,1065.0316)"
                 d="m 313.37312,306.03885 c 0,32.03658 -25.97078,58.00737 -58.00737,58.00737 -32.03658,0 -58.00736,-25.97079 -58.00736,-58.00737 0,-32.03658 25.97078,-58.00737 58.00736,-58.00737 32.03659,0 58.00737,25.97079 58.00737,58.00737 z"
                 sodipodi:ry="58.007366"
                 sodipodi:rx="58.007366"
                 sodipodi:cy="306.03885"
                 sodipodi:cx="255.36575"
                 id="path4325"
                 style="fill:#000000;fill-opacity:1;stroke:#d89970;stroke-width:10.83335304;stroke-miterlimit:4;stroke-opacity:1;stroke-dasharray:none"
                 sodipodi:type="arc" />
              <path
                 sodipodi:type="arc"
                 style="fill:#000000;fill-opacity:1;stroke:none"
                 id="path4327"
                 sodipodi:cx="255.36575"
                 sodipodi:cy="306.03885"
                 sodipodi:rx="58.007366"
                 sodipodi:ry="58.007366"
                 d="m 313.37312,306.03885 c 0,32.03658 -25.97078,58.00737 -58.00737,58.00737 -32.03658,0 -58.00736,-25.97079 -58.00736,-58.00737 0,-32.03658 25.97078,-58.00737 58.00736,-58.00737 32.03659,0 58.00737,25.97079 58.00737,58.00737 z"
                 transform="matrix(0.85846001,0,0,0.85846001,876.63035,1065.0316)" />
              <path
                 transform="matrix(0.2894945,0,0,0.2894945,988.92047,1206.153)"
                 d="m 313.37312,306.03885 c 0,32.03658 -25.97078,58.00737 -58.00737,58.00737 -32.03658,0 -58.00736,-25.97079 -58.00736,-58.00737 0,-32.03658 25.97078,-58.00737 58.00736,-58.00737 32.03659,0 58.00737,25.97079 58.00737,58.00737 z"
                 sodipodi:ry="58.007366"
                 sodipodi:rx="58.007366"
                 sodipodi:cy="306.03885"
                 sodipodi:cx="255.36575"
                 id="path4329"
                 style="fill:#ffffff;fill-opacity:1;stroke:none"
                 sodipodi:type="arc" />
              <path
                 sodipodi:type="arc"
                 style="fill:#ffffff;fill-opacity:1;stroke:none"
                 id="path4331"
                 sodipodi:cx="255.36575"
                 sodipodi:cy="306.03885"
                 sodipodi:rx="58.007366"
                 sodipodi:ry="58.007366"
                 d="m 313.37312,306.03885 c 0,32.03658 -25.97078,58.00737 -58.00737,58.00737 -32.03658,0 -58.00736,-25.97079 -58.00736,-58.00737 0,-32.03658 25.97078,-58.00737 58.00736,-58.00737 32.03659,0 58.00737,25.97079 58.00737,58.00737 z"
                 transform="matrix(0.2894945,0,0,0.2894945,1348.8819,1206.153)" />
            </g>
          </g>
          <path
             style="fill:#d38d5f;fill-opacity:1;stroke:none"
             d="m 1012.8181,1133.7989 c 122.4063,0 221.6291,118.1736 221.6291,264.0025 l 16.7881,0 c 0,-145.8289 99.1964,-264.0025 221.6029,-264.0025 l -16.7881,0 -426.4439,0 z"
             id="path4333"
             inkscape:connector-curvature="0"
             sodipodi:nodetypes="ccccccc" />
          <path
             sodipodi:nodetypes="sccscssscsccs"
             inkscape:connector-curvature="0"
             id="path4335"
             d="m 1242.8281,1379.6016 c -23.216,0 -42.1067,18.5181 -42.7059,41.5896 -2e-4,0.01 3e-4,0.018 0,0.027 -0.01,0.056 -0.014,0.1065 -0.014,0.1634 0,0.045 0.011,0.1012 0.014,0.1497 -0.01,0.2629 -0.014,0.5256 -0.014,0.7896 0,2.5162 38.1713,65.7265 42.7195,65.7265 4.5491,0 42.7195,-63.2147 42.7195,-65.7265 0,-0.264 -0.01,-0.5267 -0.014,-0.7896 0,-0.049 0.014,-0.104 0.014,-0.1497 0,-0.057 -0.01,-0.1073 -0.014,-0.1634 -2e-4,-0.01 3e-4,-0.018 0,-0.027 -0.5991,-23.0715 -19.4899,-41.5896 -42.7059,-41.5896 z"
             style="fill:#ff9955;fill-opacity:1;stroke:none" />
        </g>
        <g
           style="fill:#cb7842;fill-opacity:1"
           transform="translate(0,-34)"
           id="g4337">
          <path
             style="fill:#cb7842;fill-opacity:1;stroke:none"
             d="m 1242.8281,1821.9272 c 0,0 12.5573,-25.9708 12.5573,-56.1411 0,-30.1703 -12.5573,-56.1411 -12.5573,-56.1411 0,0 -12.5573,25.9708 -12.5573,56.1411 0,30.1703 12.5573,56.1411 12.5573,56.1411 z"
             id="path4339"
             inkscape:connector-curvature="0"
             sodipodi:nodetypes="cscsc" />
          <path
             sodipodi:nodetypes="cscsc"
             inkscape:connector-curvature="0"
             id="path4341"
             d="m 1242.8281,1659.2399 c 0,0 12.5573,-25.9708 12.5573,-56.1411 0,-30.1703 -12.5573,-56.1411 -12.5573,-56.1411 0,0 -12.5573,25.9708 -12.5573,56.1411 0,30.1703 12.5573,56.1411 12.5573,56.1411 z"
             style="fill:#cb7842;fill-opacity:1;stroke:none" />
          <path
             sodipodi:nodetypes="cscsc"
             inkscape:connector-curvature="0"
             id="path4343"
             d="m 1286.3593,1815.9805 c 0,0 -3.5524,-28.6278 6.1359,-57.2002 9.6883,-28.5724 29.9204,-49.1353 29.9204,-49.1353 0,0 3.5524,28.6277 -6.1359,57.2001 -9.6883,28.5724 -29.9204,49.1354 -29.9204,49.1354 z"
             style="fill:#cb7842;fill-opacity:1;stroke:none" />
          <path
             style="fill:#cb7842;fill-opacity:1;stroke:none"
             d="m 1338.6017,1653.2932 c 0,0 -3.5524,-28.6277 6.1359,-57.2002 9.6883,-28.5724 29.9203,-49.1353 29.9203,-49.1353 0,0 3.5525,28.6277 -6.1358,57.2002 -9.6884,28.5724 -29.9204,49.1353 -29.9204,49.1353 z"
             id="path4345"
             inkscape:connector-curvature="0"
             sodipodi:nodetypes="cscsc" />
          <path
             sodipodi:nodetypes="cscsc"
             inkscape:connector-curvature="0"
             id="path4347"
             d="m 1410.0257,1634.7148 c 0,0 6.3864,-28.1315 25.2069,-51.7119 18.8205,-23.5804 44.8358,-36.0452 44.8358,-36.0452 0,0 -6.3863,28.1315 -25.2068,51.7119 -18.8206,23.5804 -44.8359,36.0452 -44.8359,36.0452 z"
             style="fill:#cb7842;fill-opacity:1;stroke:none" />
          <path
             style="fill:#cb7842;fill-opacity:1;stroke:none"
             d="m 1199.297,1815.9805 c 0,0 3.5525,-28.6278 -6.1359,-57.2002 -9.6883,-28.5724 -29.9203,-49.1353 -29.9203,-49.1353 0,0 -3.5525,28.6277 6.1358,57.2001 9.6884,28.5724 29.9204,49.1354 29.9204,49.1354 z"
             id="path4349"
             inkscape:connector-curvature="0"
             sodipodi:nodetypes="cscsc" />
          <path
             sodipodi:nodetypes="cscsc"
             inkscape:connector-curvature="0"
             id="path4351"
             d="m 1147.0546,1653.2932 c 0,0 3.5525,-28.6277 -6.1359,-57.2002 -9.6883,-28.5724 -29.9203,-49.1353 -29.9203,-49.1353 0,0 -3.5525,28.6277 6.1359,57.2002 9.6883,28.5724 29.9203,49.1353 29.9203,49.1353 z"
             style="fill:#cb7842;fill-opacity:1;stroke:none" />
          <path
             style="fill:#cb7842;fill-opacity:1;stroke:none"
             d="m 1075.6306,1634.7148 c 0,0 -6.3864,-28.1315 -25.2069,-51.7119 -18.8205,-23.5804 -44.8358,-36.0452 -44.8358,-36.0452 0,0 6.3863,28.1315 25.2068,51.7119 18.8206,23.5804 44.8359,36.0452 44.8359,36.0452 z"
             id="path4353"
             inkscape:connector-curvature="0"
             sodipodi:nodetypes="cscsc" />
        </g>
      </g>
      <g
         transform="matrix(1.1409932,0,-0.30572821,1.1409932,260.84659,105.63184)"
         id="g4523">
        <g
           transform="translate(43.242641,0)"
           id="g4531">
          <path
             d="m 413.96398,681.34069 c -2.35625,3.27805 -5.50619,7.11945 -9.44987,11.52424 -3.94403,4.40482 -8.37445,8.60478 -13.29128,12.59981 -4.91716,3.99508 -10.19269,7.37553 -15.82662,10.14133 -5.63421,2.76583 -11.26826,4.14873 -16.90221,4.14873 -6.76099,0 -12.39505,-2.17681 -16.9022,-6.53039 -4.50736,-4.35361 -8.39999,-10.67913 -11.67789,-18.97658 -2.45859,2.86827 -5.48051,5.78775 -9.06573,8.75841 -3.58539,2.97072 -7.50363,5.65969 -11.7547,8.06697 -4.25124,2.4073 -8.68166,4.37921 -13.2913,5.91577 -4.60975,1.53657 -9.21943,2.30485 -13.82907,2.30485 -4.91705,0 -9.70601,-0.99877 -14.36687,-2.99629 -4.66095,-1.99753 -8.78405,-4.86578 -12.36935,-8.60476 -3.58533,-3.73896 -6.45358,-8.29744 -8.60476,-13.67544 -2.1512,-5.37794 -3.22678,-11.44736 -3.22678,-18.20828 0,-7.68277 1.07558,-15.57045 3.22678,-23.66308 2.15118,-8.09249 5.12188,-16.00579 8.91208,-23.73991 3.79016,-7.73395 8.2718,-15.03262 13.44493,-21.89606 5.17306,-6.8632 10.83273,-12.85579 16.97903,-17.9778 6.14621,-5.12175 12.62538,-9.19362 19.43755,-12.21567 6.81202,-3.02178 13.75215,-4.53272 20.82044,-4.53287 2.35597,1.5e-4 4.19984,0.4611 5.53163,1.3829 1.33159,0.92208 2.43278,1.97207 3.30362,3.14997 0.87061,1.17818 1.71573,2.33059 2.53531,3.45726 0.81942,1.12696 1.84379,1.94646 3.07313,2.45851 1.22915,0.51233 2.48401,0.84524 3.76459,0.99876 1.28037,0.15385 2.58644,0.23062 3.91824,0.23049 1.1267,1.3e-4 2.27911,-0.0256 3.45727,-0.0769 1.17792,-0.0511 2.33033,-0.0767 3.45727,-0.0769 1.53644,1.3e-4 2.97057,0.15385 4.30238,0.46095 1.33157,0.30746 2.50959,0.97331 3.5341,1.99755 1.02425,1.02451 1.81813,2.45864 2.38167,4.30238 0.56327,1.84401 0.84498,4.35371 0.84511,7.52916 -1.3e-4,4.91711 -0.51231,10.37191 -1.53655,16.36441 -1.02451,5.99269 -2.15134,12.13895 -3.38046,18.43877 -1.22938,6.29999 -2.35618,12.5999 -3.38043,18.89974 -1.0245,6.29997 -1.53668,12.26697 -1.53657,17.90096 -1.1e-4,4.81462 0.43523,8.57921 1.30609,11.29375 0.87059,2.71464 2.74008,4.07193 5.60844,4.07189 2.15107,4e-5 4.4047,-0.53774 6.76088,-1.61339 2.35595,-1.07556 4.73762,-2.48407 7.14505,-4.22554 2.40712,-1.74141 4.8144,-3.71332 7.22183,-5.91577 2.40713,-2.20236 4.68637,-4.4816 6.83772,-6.83772 5.01928,-5.53157 10.08994,-11.78025 15.21199,-18.74607 z M 282.74139,669.20183 c -4e-5,2.56099 0.1792,5.04511 0.53781,7.45234 0.35846,2.40732 0.9987,4.55852 1.92069,6.45358 0.92189,1.89512 2.15114,3.43168 3.68776,4.60968 1.53651,1.17807 3.48281,1.76709 5.83895,1.76704 3.79012,5e-5 7.22177,-1.63896 10.29496,-4.917 3.07307,-3.27796 5.73645,-7.22179 7.99014,-11.83154 2.25356,-4.60964 4.07182,-9.37297 5.45481,-14.29004 1.38282,-4.91694 2.27916,-9.01445 2.68899,-12.29252 l 9.37304,-45.17499 c -4.20004,1.3e-4 -8.29754,1.05012 -12.29251,3.14996 -3.99515,2.10009 -7.75974,4.94273 -11.29375,8.52792 -3.53417,3.58544 -6.78656,7.68295 -9.75718,12.29252 -2.97076,4.60979 -5.53169,9.44996 -7.68283,14.52055 -2.15124,5.07072 -3.81586,10.16699 -4.99382,15.2888 -1.17809,5.12195 -1.7671,9.93651 -1.76706,14.4437 z"
             id="path4505"
             inkscape:connector-curvature="0"
             style="font-size:144px;font-style:normal;font-variant:normal;font-weight:normal;font-stretch:normal;line-height:125%;letter-spacing:0px;word-spacing:0px;fill:#000000;fill-opacity:1;stroke:none;font-family:Pacifico;-inkscape-font-specification:Sans" />
          <path
             d="m 376.16449,718.9865 c 0,-1.63897 0.23049,-4.53284 0.69146,-8.68157 0.46096,-4.14871 1.07558,-9.16816 1.84388,-15.05834 0.76828,-5.89013 1.71582,-12.42051 2.84264,-19.59118 1.1268,-7.17059 2.35605,-14.52047 3.68775,-22.04969 1.33168,-7.52909 2.76581,-15.00703 4.30238,-22.43385 1.53656,-7.42662 3.12434,-14.39238 4.76336,-20.89727 1.63898,-6.50468 3.30359,-12.26677 4.99382,-17.28636 1.6902,-5.0193 3.35482,-8.91193 4.99384,-11.67788 1.43411,-2.35593 3.12431,-4.1998 5.07066,-5.53164 1.94628,-1.33152 4.07187,-2.30469 6.37674,-2.91945 2.30481,-0.6145 4.71209,-0.99863 7.22186,-1.15244 2.50966,-0.15341 4.99377,-0.23033 7.45232,-0.23048 3.58526,1.5e-4 6.1718,1.07575 7.75967,3.2268 1.58771,2.15133 2.3816,4.40496 2.38166,6.76088 -6e-5,1.22938 -0.28177,3.17568 -0.84511,5.83893 -0.56347,2.66351 -1.25493,5.53176 -2.07436,8.60476 -0.81957,3.07326 -1.63907,5.99272 -2.45851,8.75841 -0.81956,2.76594 -1.43417,4.81469 -1.84387,6.14626 l -8.60476,24.58502 c 5.73646,-0.92184 11.26807,-1.56207 16.59489,-1.92069 5.32669,-0.35844 11.16562,-1.02429 17.51684,-1.99753 6.35105,-0.97308 13.52166,-2.61208 21.5119,-4.917 7.99003,-2.30476 17.51671,-5.91568 28.58008,-10.8328 l 0,29.50204 c -6.76101,3.68784 -13.54748,6.53048 -20.35946,8.52794 -6.81221,1.99759 -12.98408,3.45733 -18.5156,4.37919 -6.45367,1.12689 -12.75358,1.74152 -18.89975,1.84388 2.56087,6.6585 4.81449,13.57303 6.76088,20.74362 1.74137,6.1463 3.30353,12.984 4.68652,20.51314 1.38282,7.52918 2.07428,15.08395 2.07437,22.66431 -9e-5,1.3317 -0.12806,4.43042 -0.38414,9.29622 -0.25619,4.86576 -0.87081,10.57665 -1.84388,17.13268 -0.97324,6.55599 -2.50981,13.49613 -4.60968,20.82046 -2.10006,7.32422 -4.96832,14.03388 -8.60476,20.129 -3.63662,6.09494 -8.19507,11.13999 -13.67544,15.13515 -5.48045,3.99497 -12.16452,5.9925 -20.05216,5.99259 -7.17065,-9e-5 -13.26568,-2.10005 -18.28512,-6.29991 -5.01945,-4.20002 -9.09134,-10.29505 -12.21567,-18.28512 -3.12436,-7.99018 -5.37798,-17.77296 -6.76089,-29.34836 -1.3829,-11.57548 -2.07436,-24.7387 -2.07436,-39.48972 z m 43.94575,-68.6844 c -2.66342,15.87789 -4.91705,31.90936 -6.76089,48.09446 -1.84392,16.18514 -2.76584,32.88246 -2.76582,50.09198 -2e-5,5.63403 0.3585,10.32055 1.0756,14.05957 0.71703,3.73892 1.61334,6.76084 2.68899,9.06574 1.07555,2.30478 2.15113,3.94378 3.22678,4.917 1.07555,0.97309 2.02309,1.45968 2.84264,1.45972 3.38039,-4e-5 6.06938,-1.84392 8.06697,-5.53163 1.99748,-3.6878 3.48281,-8.24626 4.45603,-13.67542 0.97311,-5.42922 1.58773,-11.29377 1.84388,-17.59365 0.25603,-6.29993 0.38407,-12.06203 0.38413,-17.28636 -6e-5,-2.97068 -0.23053,-6.32552 -0.69144,-10.06448 -0.46104,-3.73897 -1.02444,-7.60599 -1.69022,-11.60107 -0.66592,-3.99503 -1.45981,-8.04131 -2.38169,-12.13886 -0.92199,-4.09746 -1.84392,-8.09252 -2.7658,-11.98519 -2.25368,-9.01447 -4.7634,-18.28505 -7.52916,-27.81181 z m -9.83401,-122.0032 c -5e-5,-2.35586 0.51215,-5.01924 1.53655,-7.99014 1.02433,-2.97048 2.68895,-5.7619 4.99384,-8.37427 2.30481,-2.61195 5.37792,-4.81436 9.21939,-6.60723 3.84136,-1.79243 8.6303,-2.68877 14.36687,-2.68899 3.58524,2.2e-4 6.96567,0.40997 10.14132,1.22925 3.17549,0.81972 5.94129,2.07458 8.29745,3.76459 2.35597,1.69043 4.22546,3.91844 5.60845,6.68405 1.38281,2.76602 2.07428,6.04402 2.07436,9.83401 -8e-5,3.48307 -0.56349,6.86353 -1.69022,10.14133 -1.12689,3.27818 -2.91955,6.19766 -5.37796,8.75841 -2.45859,2.56113 -5.55733,4.63547 -9.29622,6.2231 -3.73905,1.58795 -8.22069,2.38184 -13.44493,2.38166 -9.01458,1.8e-4 -15.67301,-2.12541 -19.97535,-6.37674 -4.30242,-4.25098 -6.4536,-9.91065 -6.45355,-16.97903 z"
             id="path4507"
             inkscape:connector-curvature="0"
             style="font-size:144px;font-style:normal;font-variant:normal;font-weight:normal;font-stretch:normal;line-height:125%;letter-spacing:0px;word-spacing:0px;fill:#000000;fill-opacity:1;stroke:none;font-family:Pacifico;-inkscape-font-specification:Sans" />
          <path
             d="m 551.0255,718.9865 c -9.6292,0 -18.05469,-1.74142 -25.27649,-5.2243 -7.2219,-3.48288 -13.24009,-8.1694 -18.05463,-14.05956 -4.81458,-5.89013 -8.42552,-12.70224 -10.83277,-20.43632 -2.4073,-7.73399 -3.61094,-15.85216 -3.61092,-24.35454 -2e-5,-5.73644 0.56338,-11.80586 1.69021,-18.20828 1.1268,-6.40227 2.84264,-12.67656 5.14749,-18.82291 2.30483,-6.14614 5.19869,-12.01069 8.68159,-17.59365 3.48284,-5.58273 7.55473,-10.49973 12.21568,-14.75102 4.66086,-4.25102 9.88519,-7.63145 15.67297,-10.14133 5.78766,-2.50958 12.21561,-3.76444 19.28388,-3.76457 5.73642,1.3e-4 11.06317,0.92208 15.98027,2.7658 4.91689,1.84403 9.19366,4.43057 12.8303,7.75965 3.63642,3.32936 6.47906,7.35003 8.52792,12.06202 2.04864,4.71227 3.07302,9.9878 3.07313,15.82662 -1.1e-4,6.35124 -1.56227,12.70237 -4.68652,19.0534 -3.12444,6.35122 -7.45243,12.34382 -12.98395,17.97779 -5.53174,5.63415 -12.11334,10.65358 -19.74486,15.05834 -7.63167,4.40487 -15.9035,7.83653 -24.81551,10.29499 1.53651,2.76585 3.04747,5.0707 4.53286,6.91453 1.48529,1.84392 2.99625,3.27805 4.53287,4.30238 1.53649,1.02442 3.14988,1.74147 4.84017,2.15118 1.69016,0.40979 3.50843,0.61467 5.45482,0.61462 6.14617,5e-5 12.62534,-1.2292 19.43753,-3.68775 6.812,-2.45846 13.44482,-5.53159 19.89851,-9.21938 6.45345,-3.68769 12.54848,-7.70836 18.2851,-12.06203 5.73637,-4.35354 10.60215,-8.47663 14.59736,-12.36933 l 19.82167,20.58995 c -9.01466,9.32188 -18.59257,17.56809 -28.73373,24.73868 -4.40496,3.07315 -9.1427,6.09507 -14.21323,9.06573 -5.07078,2.9707 -10.39752,5.60847 -15.98026,7.91332 -5.58295,2.30485 -11.37068,4.14873 -17.36317,5.53163 -5.9927,1.3829 -12.06212,2.07434 -18.20829,2.07434 z M 530.58918,646.768 c 3.68771,7e-5 7.70838,-0.94747 12.06205,-2.84264 4.35352,-1.89501 8.3998,-4.32791 12.13884,-7.29869 3.73889,-2.9706 6.88886,-6.19738 9.44987,-9.68034 2.56087,-3.48279 3.84132,-6.86322 3.84141,-10.14134 -9e-5,-4.60957 -0.8452,-8.39977 -2.53532,-11.37056 -1.69031,-2.97057 -3.76468,-4.45592 -6.22309,-4.45605 -4.40489,1.3e-4 -8.16946,0.81963 -11.29375,2.4585 -3.1244,1.63913 -5.73657,3.7647 -7.83646,6.37674 -2.10004,2.61227 -3.79027,5.58297 -5.07068,8.91209 -1.28052,3.32931 -2.25367,6.68415 -2.91945,10.06449 -0.66592,3.38052 -1.10126,6.65853 -1.30609,9.83402 -0.20499,3.17564 -0.30737,5.89022 -0.30733,8.14378 z"
             id="path4509"
             inkscape:connector-curvature="0"
             style="font-size:144px;font-style:normal;font-variant:normal;font-weight:normal;font-stretch:normal;line-height:125%;letter-spacing:0px;word-spacing:0px;fill:#000000;fill-opacity:1;stroke:none;font-family:Pacifico;-inkscape-font-specification:Sans" />
          <path
             d="m 620.17088,686.87232 c -2e-5,-6.76084 0.40973,-14.57169 1.22925,-23.43259 0.81948,-8.86079 1.84386,-17.8753 3.07313,-27.04353 1.22923,-9.16807 2.61213,-18.00332 4.14873,-26.50574 1.53653,-8.5022 3.02188,-15.77526 4.45603,-21.81922 1.12678,-4.71198 3.30357,-8.65583 6.53039,-11.83154 3.22676,-3.17542 7.60596,-4.7632 13.13763,-4.76335 5.53157,1.5e-4 9.37299,1.69037 11.52424,5.07067 2.15111,3.38059 3.22671,7.88782 3.22678,13.52177 -7e-5,1.53668 -0.15363,3.61105 -0.46098,6.22307 -0.30737,2.61228 -0.6915,5.48054 -1.15241,8.60476 -0.46104,3.12446 -0.94761,6.35124 -1.45974,9.68036 -0.51224,3.32931 -0.99883,6.40244 -1.45974,9.21938 -0.46102,2.81714 -0.84516,5.27562 -1.15242,7.37551 -0.30736,2.10007 -0.46104,3.50858 -0.46097,4.22554 l 3.07313,0 c 0.61456,-1.12671 1.58771,-2.94498 2.91948,-5.45479 1.33161,-2.50962 2.86818,-5.40348 4.60968,-8.6816 1.74138,-3.27789 3.61085,-6.73516 5.60846,-10.3718 1.99747,-3.63642 3.86693,-7.1193 5.60847,-10.44863 1.74134,-3.3291 3.32912,-6.27419 4.76333,-8.83525 1.43404,-2.5608 2.50964,-4.4559 3.22681,-5.68528 3.27789,-5.5315 7.01687,-9.32168 11.21691,-11.37059 4.19984,-2.0486 8.86075,-3.07297 13.98274,-3.07312 5.12175,1.5e-4 9.19364,2.15135 12.21567,6.45358 3.02178,4.30251 4.53274,10.24389 4.53287,17.82414 -1.3e-4,1.12693 -0.23062,3.02204 -0.69146,5.68528 -0.46111,2.66351 -1.05012,5.83907 -1.76704,9.52671 -0.71721,3.68786 -1.5111,7.73414 -2.38167,12.13884 -0.87085,4.40492 -1.66474,8.91217 -2.38169,13.52177 -0.71718,4.60979 -1.30619,9.16824 -1.76704,13.67543 -0.4611,4.50732 -0.69157,8.65603 -0.69146,12.44617 -1.1e-4,6.35117 0.79378,11.5755 2.38169,15.67294 1.58765,4.09755 4.07176,6.1463 7.45232,6.14626 1.53642,4e-5 3.30349,-0.46093 5.30115,-1.3829 1.99739,-0.92191 4.14859,-2.12555 6.45358,-3.61092 2.3047,-1.48531 4.66075,-3.20115 7.06818,-5.14749 2.40713,-1.94626 4.78881,-3.94381 7.14502,-5.99261 5.42903,-4.81451 11.11431,-10.2437 17.05587,-16.28757 l 2.61215,34.41904 -7.68281,5.83893 c -4.2001,3.1756 -8.47687,6.35115 -12.8303,9.52671 -4.35376,3.17558 -8.88662,6.01822 -13.5986,8.52792 -4.71226,2.50973 -9.62927,4.55848 -14.75102,6.14626 -5.12201,1.58778 -10.49997,2.38166 -16.13392,2.38166 -5.63418,0 -10.3719,-4.07187 -14.21322,-12.21567 -3.84152,-8.14376 -5.76221,-20.05214 -5.76212,-35.72513 -9e-5,-6.14619 0.40966,-12.77901 1.22925,-19.89848 0.81941,-7.11935 1.84379,-14.77654 3.07313,-22.97164 l -2.4585,0 -40.25797,79.90134 c -2.04882,4.19995 -4.35365,7.06818 -6.91456,8.60476 -2.56097,1.53655 -5.53167,2.30482 -8.91206,2.30482 -4.19997,0 -7.58043,-0.89631 -10.14133,-2.68896 -2.56096,-1.79266 -4.53289,-4.19996 -5.91577,-7.22186 -1.38293,-3.0219 -2.30486,-6.45356 -2.76581,-10.29499 -0.46099,-3.84138 -0.69148,-7.81082 -0.69146,-11.90837 z"
             id="path4511"
             inkscape:connector-curvature="0"
             style="font-size:144px;font-style:normal;font-variant:normal;font-weight:normal;font-stretch:normal;line-height:125%;letter-spacing:0px;word-spacing:0px;fill:#000000;fill-opacity:1;stroke:none;font-family:Pacifico;-inkscape-font-specification:Sans" />
          <path
             d="m 743.09601,718.9865 c 0,-1.63897 0.23049,-4.53284 0.69147,-8.68157 0.46095,-4.14871 1.07557,-9.16816 1.84387,-15.05834 0.76828,-5.89013 1.71582,-12.42051 2.84264,-19.59118 1.12681,-7.17059 2.35606,-14.52047 3.68776,-22.04969 1.33168,-7.52909 2.7658,-15.00703 4.30238,-22.43385 1.53655,-7.42662 3.12433,-14.39238 4.76335,-20.89727 1.63898,-6.50468 3.30359,-12.26677 4.99382,-17.28636 1.69021,-5.0193 3.35482,-8.91193 4.99384,-11.67788 1.43411,-2.35593 3.12431,-4.1998 5.07066,-5.53164 1.94628,-1.33152 4.07187,-2.30469 6.37674,-2.91945 2.30481,-0.6145 4.71209,-0.99863 7.22186,-1.15244 2.50966,-0.15341 4.99378,-0.23033 7.45232,-0.23048 3.58526,1.5e-4 6.17181,1.07575 7.75967,3.2268 1.58771,2.15133 2.3816,4.40496 2.38167,6.76088 -7e-5,1.22938 -0.28178,3.17568 -0.84512,5.83893 -0.56346,2.66351 -1.25493,5.53176 -2.07436,8.60476 -0.81957,3.07326 -1.63907,5.99272 -2.4585,8.75841 -0.81957,2.76594 -1.43417,4.81469 -1.84388,6.14626 l -8.60476,24.58502 c 5.73646,-0.92184 11.26807,-1.56207 16.59489,-1.92069 5.32669,-0.35844 11.16563,-1.02429 17.51685,-1.99753 6.35104,-0.97308 13.52165,-2.61208 21.51189,-4.917 7.99003,-2.30476 17.51672,-5.91568 28.58009,-10.8328 l 0,29.50204 c -6.76102,3.68784 -13.54749,6.53048 -20.35946,8.52794 -6.81222,1.99759 -12.98409,3.45733 -18.51561,4.37919 -6.45367,1.12689 -12.75358,1.74152 -18.89975,1.84388 2.56087,6.6585 4.8145,13.57303 6.76089,20.74362 1.74136,6.1463 3.30352,12.984 4.68651,20.51314 1.38282,7.52918 2.07428,15.08395 2.07437,22.66431 -9e-5,1.3317 -0.12806,4.43042 -0.38414,9.29622 -0.25619,4.86576 -0.87081,10.57665 -1.84388,17.13268 -0.97324,6.55599 -2.50981,13.49613 -4.60968,20.82046 -2.10006,7.32422 -4.96832,14.03388 -8.60476,20.129 -3.63661,6.09494 -8.19507,11.13999 -13.67543,15.13515 -5.48046,3.99497 -12.16452,5.9925 -20.05216,5.99259 -7.17066,-9e-5 -13.26569,-2.10005 -18.28512,-6.29991 -5.01946,-4.20002 -9.09135,-10.29505 -12.21568,-18.28512 -3.12435,-7.99018 -5.37798,-17.77296 -6.76088,-29.34836 -1.3829,-11.57548 -2.07437,-24.7387 -2.07437,-39.48972 z m 43.94575,-68.6844 c -2.66342,15.87789 -4.91705,31.90936 -6.76088,48.09446 -1.84392,16.18514 -2.76585,32.88246 -2.76583,50.09198 -2e-5,5.63403 0.3585,10.32055 1.0756,14.05957 0.71703,3.73892 1.61335,6.76084 2.68899,9.06574 1.07556,2.30478 2.15114,3.94378 3.22678,4.917 1.07556,0.97309 2.0231,1.45968 2.84264,1.45972 3.38039,-4e-5 6.06938,-1.84392 8.06697,-5.53163 1.99749,-3.6878 3.48281,-8.24626 4.45603,-13.67542 0.97311,-5.42922 1.58774,-11.29377 1.84388,-17.59365 0.25603,-6.29993 0.38407,-12.06203 0.38414,-17.28636 -7e-5,-2.97068 -0.23053,-6.32552 -0.69144,-10.06448 -0.46104,-3.73897 -1.02444,-7.60599 -1.69023,-11.60107 -0.66591,-3.99503 -1.4598,-8.04131 -2.38169,-12.13886 -0.92199,-4.09746 -1.84392,-8.09252 -2.7658,-11.98519 -2.25367,-9.01447 -4.7634,-18.28505 -7.52916,-27.81181 z m -9.83401,-122.0032 c -5e-5,-2.35586 0.51215,-5.01924 1.53655,-7.99014 1.02433,-2.97048 2.68895,-5.7619 4.99384,-8.37427 2.30481,-2.61195 5.37792,-4.81436 9.21939,-6.60723 3.84136,-1.79243 8.6303,-2.68877 14.36688,-2.68899 3.58524,2.2e-4 6.96567,0.40997 10.14131,1.22925 3.17549,0.81972 5.94129,2.07458 8.29746,3.76459 2.35596,1.69043 4.22545,3.91844 5.60844,6.68405 1.38282,2.76602 2.07428,6.04402 2.07437,9.83401 -9e-5,3.48307 -0.56349,6.86353 -1.69023,10.14133 -1.12689,3.27818 -2.91954,6.19766 -5.37796,8.75841 -2.45859,2.56113 -5.55733,4.63547 -9.29622,6.2231 -3.73904,1.58795 -8.22069,2.38184 -13.44493,2.38166 -9.01457,1.8e-4 -15.67301,-2.12541 -19.97534,-6.37674 -4.30243,-4.25098 -6.45361,-9.91065 -6.45356,-16.97903 z"
             id="path4513"
             inkscape:connector-curvature="0"
             style="font-size:144px;font-style:normal;font-variant:normal;font-weight:normal;font-stretch:normal;line-height:125%;letter-spacing:0px;word-spacing:0px;fill:#000000;fill-opacity:1;stroke:none;font-family:Pacifico;-inkscape-font-specification:Sans" />
          <path
             d="m 960.3662,603.89785 c 2.97057,5.9415 5.19858,12.21579 6.68404,18.82291 1.48522,6.60732 2.22791,12.93284 2.22802,18.97658 -1.1e-4,6.0439 -0.66596,12.13891 -1.99753,18.2851 -1.33181,6.14632 -3.25252,12.0877 -5.76212,17.82415 -2.50983,5.73655 -5.58296,11.11453 -9.21938,16.13394 -3.63664,5.01945 -7.78535,9.37305 -12.44617,13.06079 -4.66101,3.68775 -9.75726,6.60723 -15.28882,8.75841 -5.5317,2.1512 -11.42186,3.22677 -17.67048,3.22677 -9.01457,0 -16.72299,-1.97191 -23.12528,-5.91576 -6.4024,-3.94384 -11.65232,-9.09133 -15.74981,-15.44246 -4.0975,-6.35111 -7.09381,-13.52174 -8.98889,-21.5119 -1.8951,-7.99009 -2.84264,-16.08265 -2.84264,-24.27772 0,-11.26805 1.6902,-21.7935 5.07065,-31.5764 3.38043,-9.78268 8.2206,-18.28499 14.52055,-25.50695 6.29987,-7.22173 14.00829,-12.90701 23.12529,-17.05587 9.11687,-4.14858 19.36063,-6.22294 30.73128,-6.22309 9.73148,1.5e-4 18.84841,1.51111 27.35083,4.53286 36.08492,13.21752 52.06156,40.64596 59.61866,71.52707 -20.00626,-26.40606 -35.84532,-37.61983 -56.2382,-43.63843 z m -47.47985,85.58662 c 3.48281,5e-5 6.86326,-1.76699 10.14133,-5.30114 3.27792,-3.53406 6.14617,-7.99009 8.60476,-13.36809 2.45842,-5.37794 4.43033,-11.3193 5.91577,-17.82415 1.48526,-6.50471 2.22793,-12.72781 2.22802,-18.66925 -9e-5,-4.71205 -0.35862,-9.09126 -1.0756,-13.13763 -0.71714,-4.04619 -1.79274,-7.55466 -3.22678,-10.52547 -1.43422,-2.97057 -3.27809,-5.32665 -5.53163,-7.06819 -2.25372,-1.74132 -4.9683,-2.61204 -8.14379,-2.61217 -4.20002,1.3e-4 -8.19507,1.79278 -11.98521,5.37798 -3.79025,3.58543 -7.11945,8.1695 -9.98766,13.75225 -2.8683,5.58294 -5.12193,11.75481 -6.76088,18.51561 -1.63905,6.76094 -2.45855,13.26573 -2.45851,19.51434 -4e-5,4.30245 0.40971,8.34873 1.22925,12.13887 0.81946,3.79024 2.09994,7.09386 3.84141,9.91084 1.74141,2.81708 4.04624,5.0707 6.91455,6.76089 2.86819,1.69024 6.29985,2.53536 10.29497,2.53531 z"
             id="path4515"
             inkscape:connector-curvature="0"
             style="font-size:144px;font-style:normal;font-variant:normal;font-weight:normal;font-stretch:normal;line-height:125%;letter-spacing:0px;word-spacing:0px;fill:#000000;fill-opacity:1;stroke:none;font-family:Pacifico;-inkscape-font-specification:Sans"
             sodipodi:nodetypes="cccccccssssssssccccccsccccccccssccccc" />
        </g>
      </g>
    </g>
    <text
       xml:space="preserve"
       style="font-size:40px;font-style:normal;font-variant:normal;font-weight:normal;font-stretch:normal;line-height:125%;letter-spacing:0px;word-spacing:0px;fill:#000000;fill-opacity:1;stroke:none;font-family:PT Sans;-inkscape-font-specification:PT Sans"
       x="595.29645"
       y="475.14865"
       id="text4591"
       sodipodi:linespacing="125%"
       transform="translate(0,659.36218)"><tspan
         sodipodi:role="line"
         id="tspan4593" /></text>
    <g
       id="g3260"
       inkscape:export-xdpi="16.299999"
       inkscape:export-ydpi="16.299999"
       inkscape:export-filename="C:\Users\Jonathan\Documents\ajenjo\press\logoX64.png"
       transform="translate(1.5258789e-5,46)">
      <rect
         y="1061.1387"
         x="474.27649"
         height="353.44699"
         width="353.44699"
         id="rect3258"
         style="opacity:0;fill:#000000;fill-opacity:1;fill-rule:evenodd;stroke:none" />
      <g
         transform="matrix(0.44318871,0,0,0.44318871,100.19261,565.78698)"
         id="g3106"
         inkscape:export-xdpi="90"
         inkscape:export-ydpi="90">
        <path
           style="fill:#a02c2c;fill-opacity:1;stroke:none"
           d="m 1047.4531,1367.1458 c -97.20391,0 -175.99997,78.8274 -175.99997,176.0313 0,97.2039 78.79606,176 175.99997,176 97.2039,0 176,-78.7961 176,-176 0,-97.2039 -78.7961,-176.0313 -176,-176.0313 z m 390.75,0 c -97.2039,0 -176,78.8274 -176,176.0313 0,97.2039 78.7961,176 176,176 97.2039,0 176,-78.7961 176,-176 0,-97.2039 -78.7961,-176.0313 -176,-176.0313 z"
           id="path3108"
           inkscape:connector-curvature="0" />
        <path
           inkscape:connector-curvature="0"
           id="path3110"
           d="m 1059.4797,1370.9175 c -91.22033,0 -165.16598,73.5488 -165.16598,164.2437 0,90.6947 73.94565,164.2144 165.16598,164.2144 91.2203,0 165.1661,-73.5197 165.1661,-164.2144 0,-90.6949 -73.9458,-164.2437 -165.1661,-164.2437 z m 366.6968,0 c -91.2203,0 -165.1661,73.5488 -165.1661,164.2437 0,90.6947 73.9458,164.2144 165.1661,164.2144 91.2204,0 165.166,-73.5197 165.166,-164.2144 0,-90.6949 -73.9456,-164.2437 -165.166,-164.2437 z"
           style="fill:#d18757;fill-opacity:1;stroke:none" />
        <path
           style="fill:#a02c2c;fill-opacity:1;stroke:none"
           d="m 1065.6781,1367.1458 c -88.12946,0 -159.56954,78.8273 -159.56954,176.0312 0,48.602 17.86002,92.602 46.73622,124.4515 28.87621,31.8495 148.25962,164.1817 177.13582,196.0313 28.8763,31.8495 68.7687,51.5485 112.8334,51.5485 44.0647,0 83.9571,-19.699 112.8333,-51.5485 28.8762,-31.8496 148.2667,-164.1818 177.15,-196.0313 28.8834,-31.8495 46.7504,-75.8495 46.7504,-124.4515 0,-97.2039 -71.4685,-176.0312 -159.5979,-176.0312 -88.1295,0 -266.1422,0 -354.2717,0 z"
           id="path3112"
           inkscape:connector-curvature="0"
           sodipodi:nodetypes="ssssssssss" />
        <path
           inkscape:connector-curvature="0"
           style="fill:#ffffff;fill-opacity:1;stroke:none"
           d="m 1419.9782,1387.1427 c 78.3262,0 141.4366,69.6357 141.4366,156.0312 0,43.1978 -15.8072,82.0598 -41.4223,110.3126 -28.9643,31.9465 -148.3477,164.2787 -177.1359,196.0312 -25.6152,28.2528 -60.8493,45.6875 -100.0143,45.6875 -39.165,0 -74.3991,-17.4347 -100.0143,-45.6875 -28.7892,-31.7536 -148.16113,-164.0811 -177.13579,-196.0312 -25.62234,-28.2537 -41.45074,-67.1169 -41.45074,-110.3126 0,-86.3912 63.13878,-156.0312 141.46503,-156.0312 l 354.2717,0 z"
           id="path3114" />
        <g
           id="g3116">
          <g
             transform="translate(-1.7616,0)"
             id="g3118">
            <g
               id="g3120">
              <path
                 sodipodi:nodetypes="ssscscs"
                 inkscape:connector-curvature="0"
                 id="path3122"
                 d="m 1309.4398,1197.4088 c 56.8361,-43.9855 124.5925,-71.8492 181.31,-78.2799 4.8787,-0.5531 9.6757,-0.9477 14.3771,-1.1803 11.7607,-0.5819 22.9228,-0.1503 33.2676,1.3478 -65.5753,11.466 -83.8338,40.5163 -147.5144,89.7991 -63.6742,49.2775 -124.238,134.6373 -133.5229,181.0987 -19.8006,-42.1444 -21.8699,-135.5535 52.0826,-192.7854 z"
                 style="fill:#1a1a1a;fill-opacity:1;stroke:none" />
              <path
                 style="fill:#1a1a1a;fill-opacity:1;stroke:none"
                 d="m 1317.2356,1197.2066 c 54.6193,-30.2612 116.4857,-45.2351 166.0405,-43.2625 4.2626,0.1697 8.434,0.4647 12.502,0.8862 10.1762,1.0544 19.7044,2.9 28.3898,5.5535 -57.8266,1.1809 -77.3446,23.7145 -138.5413,57.6202 -61.1907,33.9021 -124.4784,99.2001 -138.5911,137.8709 -11.4343,-38.8072 -0.8679,-119.2938 70.2001,-158.6683 z"
                 id="path3124"
                 inkscape:connector-curvature="0"
                 sodipodi:nodetypes="ssscscs" />
            </g>
            <g
               id="g3126"
               transform="matrix(-1,0,0,1,2489.1795,0)">
              <path
                 style="fill:#1a1a1a;fill-opacity:1;stroke:none"
                 d="m 1309.4398,1197.4088 c 56.8361,-43.9855 124.5925,-71.8492 181.31,-78.2799 4.8787,-0.5531 9.6757,-0.9477 14.3771,-1.1803 11.7607,-0.5819 22.9228,-0.1503 33.2676,1.3478 -65.5753,11.466 -83.8338,40.5163 -147.5144,89.7991 -63.6742,49.2775 -124.238,134.6373 -133.5229,181.0987 -19.8006,-42.1444 -21.8699,-135.5535 52.0826,-192.7854 z"
                 id="path3128"
                 inkscape:connector-curvature="0"
                 sodipodi:nodetypes="ssscscs" />
              <path
                 sodipodi:nodetypes="ssscscs"
                 inkscape:connector-curvature="0"
                 id="path3130"
                 d="m 1317.2356,1197.2066 c 54.6193,-30.2612 116.4857,-45.2351 166.0405,-43.2625 4.2626,0.1697 8.434,0.4647 12.502,0.8862 10.1762,1.0544 19.7044,2.9 28.3898,5.5535 -57.8266,1.1809 -77.3446,23.7145 -138.5413,57.6202 -61.1907,33.9021 -124.4784,99.2001 -138.5911,137.8709 -11.4343,-38.8072 -0.8679,-119.2938 70.2001,-158.6683 z"
                 style="fill:#1a1a1a;fill-opacity:1;stroke:none" />
            </g>
          </g>
          <g
             id="g3132">
            <g
               transform="translate(898.79619,0)"
               id="g3134">
              <g
                 id="g3136">
                <path
                   transform="matrix(2.8965517,0,0,2.8965517,-563.66949,446.01101)"
                   d="m 313.37312,306.03885 c 0,32.03658 -25.97078,58.00737 -58.00737,58.00737 -32.03658,0 -58.00736,-25.97079 -58.00736,-58.00737 0,-32.03658 25.97078,-58.00737 58.00736,-58.00737 32.03659,0 58.00737,25.97079 58.00737,58.00737 z"
                   sodipodi:ry="58.007366"
                   sodipodi:rx="58.007366"
                   sodipodi:cy="306.03885"
                   sodipodi:cx="255.36575"
                   id="path3138"
                   style="fill:#1a1a1a;fill-opacity:1;stroke:none"
                   sodipodi:type="arc" />
                <path
                   sodipodi:type="arc"
                   style="fill:#ffffff;fill-opacity:1;stroke:none"
                   id="path3140"
                   sodipodi:cx="255.36575"
                   sodipodi:cy="306.03885"
                   sodipodi:rx="58.007366"
                   sodipodi:ry="58.007366"
                   d="m 313.37312,306.03885 c 0,32.03658 -25.97078,58.00737 -58.00737,58.00737 -32.03658,0 -58.00736,-25.97079 -58.00736,-58.00737 0,-32.03658 25.97078,-58.00737 58.00736,-58.00737 32.03659,0 58.00737,25.97079 58.00737,58.00737 z"
                   transform="matrix(2.6551724,0,0,2.6551724,-488.0277,519.88246)" />
              </g>
              <g
                 id="g3142">
                <path
                   sodipodi:type="arc"
                   style="fill:#1a1a1a;fill-opacity:1;stroke:none"
                   id="path3144"
                   sodipodi:cx="255.36575"
                   sodipodi:cy="306.03885"
                   sodipodi:rx="58.007366"
                   sodipodi:ry="58.007366"
                   d="m 313.37312,306.03885 c 0,32.03658 -25.97078,58.00737 -58.00737,58.00737 -32.03658,0 -58.00736,-25.97079 -58.00736,-58.00737 0,-32.03658 25.97078,-58.00737 58.00736,-58.00737 32.03659,0 58.00737,25.97079 58.00737,58.00737 z"
                   transform="matrix(2.8965517,0,0,2.8965517,-227.62682,446.01101)" />
                <path
                   sodipodi:type="arc"
                   style="fill:#ffffff;fill-opacity:1;stroke:none"
                   id="path3146"
                   sodipodi:cx="255.36575"
                   sodipodi:cy="306.03885"
                   sodipodi:rx="58.007366"
                   sodipodi:ry="58.007366"
                   d="m 313.37312,306.03885 c 0,32.03658 -25.97078,58.00737 -58.00737,58.00737 -32.03658,0 -58.00736,-25.97079 -58.00736,-58.00737 0,-32.03658 25.97078,-58.00737 58.00736,-58.00737 32.03659,0 58.00737,25.97079 58.00737,58.00737 z"
                   transform="matrix(2.6551724,0,0,2.6551724,-179.98859,519.88246)" />
              </g>
            </g>
            <g
               id="g3148">
              <g
                 id="g3150"
                 transform="translate(898.7962,0)">
                <path
                   transform="matrix(1.696108,0,0,1.696108,-236.07247,808.67877)"
                   d="m 313.37312,306.03885 c 0,32.03658 -25.97078,58.00737 -58.00737,58.00737 -32.03658,0 -58.00736,-25.97079 -58.00736,-58.00737 0,-32.03658 25.97078,-58.00737 58.00736,-58.00737 32.03659,0 58.00737,25.97079 58.00737,58.00737 z"
                   sodipodi:ry="58.007366"
                   sodipodi:rx="58.007366"
                   sodipodi:cy="306.03885"
                   sodipodi:cx="255.36575"
                   id="path3152"
                   style="fill:#a05a2c;fill-opacity:1;stroke:none"
                   sodipodi:type="arc" />
                <path
                   sodipodi:type="arc"
                   style="fill:#a05a2c;fill-opacity:1;stroke:none"
                   id="path3154"
                   sodipodi:cx="255.36575"
                   sodipodi:cy="306.03885"
                   sodipodi:rx="58.007366"
                   sodipodi:ry="58.007366"
                   d="m 313.37312,306.03885 c 0,32.03658 -25.97078,58.00737 -58.00737,58.00737 -32.03658,0 -58.00736,-25.97079 -58.00736,-58.00737 0,-32.03658 25.97078,-58.00737 58.00736,-58.00737 32.03659,0 58.00737,25.97079 58.00737,58.00737 z"
                   transform="matrix(1.696108,0,0,1.696108,57.880558,808.67877)" />
              </g>
              <path
                 transform="matrix(0.85846001,0,0,0.85846001,1170.5834,1065.0316)"
                 d="m 313.37312,306.03885 c 0,32.03658 -25.97078,58.00737 -58.00737,58.00737 -32.03658,0 -58.00736,-25.97079 -58.00736,-58.00737 0,-32.03658 25.97078,-58.00737 58.00736,-58.00737 32.03659,0 58.00737,25.97079 58.00737,58.00737 z"
                 sodipodi:ry="58.007366"
                 sodipodi:rx="58.007366"
                 sodipodi:cy="306.03885"
                 sodipodi:cx="255.36575"
                 id="path3156"
                 style="fill:#000000;fill-opacity:1;stroke:#d89970;stroke-width:10.83335304;stroke-miterlimit:4;stroke-opacity:1;stroke-dasharray:none"
                 sodipodi:type="arc" />
              <path
                 sodipodi:type="arc"
                 style="fill:#000000;fill-opacity:1;stroke:none"
                 id="path3158"
                 sodipodi:cx="255.36575"
                 sodipodi:cy="306.03885"
                 sodipodi:rx="58.007366"
                 sodipodi:ry="58.007366"
                 d="m 313.37312,306.03885 c 0,32.03658 -25.97078,58.00737 -58.00737,58.00737 -32.03658,0 -58.00736,-25.97079 -58.00736,-58.00737 0,-32.03658 25.97078,-58.00737 58.00736,-58.00737 32.03659,0 58.00737,25.97079 58.00737,58.00737 z"
                 transform="matrix(0.85846001,0,0,0.85846001,1170.5834,1065.0316)" />
              <path
                 sodipodi:type="arc"
                 style="fill:#000000;fill-opacity:1;stroke:#d89970;stroke-width:10.83335304;stroke-miterlimit:4;stroke-opacity:1;stroke-dasharray:none"
                 id="path3160"
                 sodipodi:cx="255.36575"
                 sodipodi:cy="306.03885"
                 sodipodi:rx="58.007366"
                 sodipodi:ry="58.007366"
                 d="m 313.37312,306.03885 c 0,32.03658 -25.97078,58.00737 -58.00737,58.00737 -32.03658,0 -58.00736,-25.97079 -58.00736,-58.00737 0,-32.03658 25.97078,-58.00737 58.00736,-58.00737 32.03659,0 58.00737,25.97079 58.00737,58.00737 z"
                 transform="matrix(0.85846001,0,0,0.85846001,876.63035,1065.0316)" />
              <path
                 transform="matrix(0.85846001,0,0,0.85846001,876.63035,1065.0316)"
                 d="m 313.37312,306.03885 c 0,32.03658 -25.97078,58.00737 -58.00737,58.00737 -32.03658,0 -58.00736,-25.97079 -58.00736,-58.00737 0,-32.03658 25.97078,-58.00737 58.00736,-58.00737 32.03659,0 58.00737,25.97079 58.00737,58.00737 z"
                 sodipodi:ry="58.007366"
                 sodipodi:rx="58.007366"
                 sodipodi:cy="306.03885"
                 sodipodi:cx="255.36575"
                 id="path3162"
                 style="fill:#000000;fill-opacity:1;stroke:none"
                 sodipodi:type="arc" />
              <path
                 sodipodi:type="arc"
                 style="fill:#ffffff;fill-opacity:1;stroke:none"
                 id="path3164"
                 sodipodi:cx="255.36575"
                 sodipodi:cy="306.03885"
                 sodipodi:rx="58.007366"
                 sodipodi:ry="58.007366"
                 d="m 313.37312,306.03885 c 0,32.03658 -25.97078,58.00737 -58.00737,58.00737 -32.03658,0 -58.00736,-25.97079 -58.00736,-58.00737 0,-32.03658 25.97078,-58.00737 58.00736,-58.00737 32.03659,0 58.00737,25.97079 58.00737,58.00737 z"
                 transform="matrix(0.2894945,0,0,0.2894945,988.92047,1206.153)" />
              <path
                 transform="matrix(0.2894945,0,0,0.2894945,1348.8819,1206.153)"
                 d="m 313.37312,306.03885 c 0,32.03658 -25.97078,58.00737 -58.00737,58.00737 -32.03658,0 -58.00736,-25.97079 -58.00736,-58.00737 0,-32.03658 25.97078,-58.00737 58.00736,-58.00737 32.03659,0 58.00737,25.97079 58.00737,58.00737 z"
                 sodipodi:ry="58.007366"
                 sodipodi:rx="58.007366"
                 sodipodi:cy="306.03885"
                 sodipodi:cx="255.36575"
                 id="path3166"
                 style="fill:#ffffff;fill-opacity:1;stroke:none"
                 sodipodi:type="arc" />
            </g>
          </g>
          <path
             sodipodi:nodetypes="ccccccc"
             inkscape:connector-curvature="0"
             id="path3168"
             d="m 1012.8181,1133.7989 c 122.4063,0 221.6291,118.1736 221.6291,264.0025 l 16.7881,0 c 0,-145.8289 99.1964,-264.0025 221.6029,-264.0025 l -16.7881,0 -426.4439,0 z"
             style="fill:#d38d5f;fill-opacity:1;stroke:none" />
          <path
             style="fill:#ff9955;fill-opacity:1;stroke:none"
             d="m 1242.8281,1379.6016 c -23.216,0 -42.1067,18.5181 -42.7059,41.5896 -2e-4,0.01 3e-4,0.018 0,0.027 -0.01,0.056 -0.014,0.1065 -0.014,0.1634 0,0.045 0.011,0.1012 0.014,0.1497 -0.01,0.2629 -0.014,0.5256 -0.014,0.7896 0,2.5162 38.1713,65.7265 42.7195,65.7265 4.5491,0 42.7195,-63.2147 42.7195,-65.7265 0,-0.264 -0.01,-0.5267 -0.014,-0.7896 0,-0.049 0.014,-0.104 0.014,-0.1497 0,-0.057 -0.01,-0.1073 -0.014,-0.1634 -2e-4,-0.01 3e-4,-0.018 0,-0.027 -0.5991,-23.0715 -19.4899,-41.5896 -42.7059,-41.5896 z"
             id="path3170"
             inkscape:connector-curvature="0"
             sodipodi:nodetypes="sccscssscsccs" />
        </g>
        <g
           id="g3172"
           transform="translate(0,-34)"
           style="fill:#cb7842;fill-opacity:1">
          <path
             sodipodi:nodetypes="cscsc"
             inkscape:connector-curvature="0"
             id="path3174"
             d="m 1242.8281,1821.9272 c 0,0 12.5573,-25.9708 12.5573,-56.1411 0,-30.1703 -12.5573,-56.1411 -12.5573,-56.1411 0,0 -12.5573,25.9708 -12.5573,56.1411 0,30.1703 12.5573,56.1411 12.5573,56.1411 z"
             style="fill:#cb7842;fill-opacity:1;stroke:none" />
          <path
             style="fill:#cb7842;fill-opacity:1;stroke:none"
             d="m 1242.8281,1659.2399 c 0,0 12.5573,-25.9708 12.5573,-56.1411 0,-30.1703 -12.5573,-56.1411 -12.5573,-56.1411 0,0 -12.5573,25.9708 -12.5573,56.1411 0,30.1703 12.5573,56.1411 12.5573,56.1411 z"
             id="path3176"
             inkscape:connector-curvature="0"
             sodipodi:nodetypes="cscsc" />
          <path
             style="fill:#cb7842;fill-opacity:1;stroke:none"
             d="m 1286.3593,1815.9805 c 0,0 -3.5524,-28.6278 6.1359,-57.2002 9.6883,-28.5724 29.9204,-49.1353 29.9204,-49.1353 0,0 3.5524,28.6277 -6.1359,57.2001 -9.6883,28.5724 -29.9204,49.1354 -29.9204,49.1354 z"
             id="path3178"
             inkscape:connector-curvature="0"
             sodipodi:nodetypes="cscsc" />
          <path
             sodipodi:nodetypes="cscsc"
             inkscape:connector-curvature="0"
             id="path3180"
             d="m 1338.6017,1653.2932 c 0,0 -3.5524,-28.6277 6.1359,-57.2002 9.6883,-28.5724 29.9203,-49.1353 29.9203,-49.1353 0,0 3.5525,28.6277 -6.1358,57.2002 -9.6884,28.5724 -29.9204,49.1353 -29.9204,49.1353 z"
             style="fill:#cb7842;fill-opacity:1;stroke:none" />
          <path
             style="fill:#cb7842;fill-opacity:1;stroke:none"
             d="m 1410.0257,1634.7148 c 0,0 6.3864,-28.1315 25.2069,-51.7119 18.8205,-23.5804 44.8358,-36.0452 44.8358,-36.0452 0,0 -6.3863,28.1315 -25.2068,51.7119 -18.8206,23.5804 -44.8359,36.0452 -44.8359,36.0452 z"
             id="path3182"
             inkscape:connector-curvature="0"
             sodipodi:nodetypes="cscsc" />
          <path
             sodipodi:nodetypes="cscsc"
             inkscape:connector-curvature="0"
             id="path3184"
             d="m 1199.297,1815.9805 c 0,0 3.5525,-28.6278 -6.1359,-57.2002 -9.6883,-28.5724 -29.9203,-49.1353 -29.9203,-49.1353 0,0 -3.5525,28.6277 6.1358,57.2001 9.6884,28.5724 29.9204,49.1354 29.9204,49.1354 z"
             style="fill:#cb7842;fill-opacity:1;stroke:none" />
          <path
             style="fill:#cb7842;fill-opacity:1;stroke:none"
             d="m 1147.0546,1653.2932 c 0,0 3.5525,-28.6277 -6.1359,-57.2002 -9.6883,-28.5724 -29.9203,-49.1353 -29.9203,-49.1353 0,0 -3.5525,28.6277 6.1359,57.2002 9.6883,28.5724 29.9203,49.1353 29.9203,49.1353 z"
             id="path3186"
             inkscape:connector-curvature="0"
             sodipodi:nodetypes="cscsc" />
          <path
             sodipodi:nodetypes="cscsc"
             inkscape:connector-curvature="0"
             id="path3188"
             d="m 1075.6306,1634.7148 c 0,0 -6.3864,-28.1315 -25.2069,-51.7119 -18.8205,-23.5804 -44.8358,-36.0452 -44.8358,-36.0452 0,0 6.3863,28.1315 25.2068,51.7119 18.8206,23.5804 44.8359,36.0452 44.8359,36.0452 z"
             style="fill:#cb7842;fill-opacity:1;stroke:none" />
        </g>
      </g>
    </g>
  </g>
</svg>
