<?xml version="1.0" encoding="UTF-8" standalone="no"?>
<!-- Generator: Adobe Illustrator 14.0.0, SVG Export Plug-In . SVG Version: 6.00 Build 43363)  -->

<svg
   xmlns:dc="http://purl.org/dc/elements/1.1/"
   xmlns:cc="http://creativecommons.org/ns#"
   xmlns:rdf="http://www.w3.org/1999/02/22-rdf-syntax-ns#"
   xmlns:svg="http://www.w3.org/2000/svg"
   xmlns="http://www.w3.org/2000/svg"
   xmlns:xlink="http://www.w3.org/1999/xlink"
   xmlns:sodipodi="http://sodipodi.sourceforge.net/DTD/sodipodi-0.dtd"
   xmlns:inkscape="http://www.inkscape.org/namespaces/inkscape"
   version="1.1"
   id="Layer_1"
   x="0px"
   y="0px"
   width="250"
   height="162.76601"
   viewBox="0 0 250 162.766"
   enable-background="new 0 0 687.336 162.766"
   xml:space="preserve"
   inkscape:version="0.91 r13725"
   sodipodi:docname="docker material.svg"><metadata
     id="metadata55"><rdf:RDF><cc:Work
         rdf:about=""><dc:format>image/svg+xml</dc:format><dc:type
           rdf:resource="http://purl.org/dc/dcmitype/StillImage" /><dc:title /></cc:Work></rdf:RDF></metadata><defs
     id="defs53"><defs
       id="defs5"><rect
         height="275"
         width="800"
         y="-56.234001"
         x="-56.164001"
         id="SVGID_1_" /></defs><clipPath
       id="SVGID_2_"><use
         id="use9"
         overflow="visible"
         xlink:href="#SVGID_1_"
         style="overflow:visible"
         x="0"
         y="0"
         width="100%"
         height="100%" /></clipPath><clipPath
       id="SVGID_2_-4"><use
         xlink:href="#SVGID_1_"
         overflow="visible"
         id="use9-4" /></clipPath></defs><sodipodi:namedview
     pagecolor="#ffffff"
     bordercolor="#666666"
     borderopacity="1"
     objecttolerance="10"
     gridtolerance="10"
     guidetolerance="10"
     inkscape:pageopacity="0"
     inkscape:pageshadow="2"
     inkscape:window-width="1366"
     inkscape:window-height="715"
     id="namedview51"
     showgrid="false"
     inkscape:zoom="3.3545088"
     inkscape:cx="125"
     inkscape:cy="81.383003"
     inkscape:window-x="-8"
     inkscape:window-y="22"
     inkscape:window-maximized="1"
     inkscape:current-layer="Layer_1"
     showguides="false" /><path
     style="clip-rule:evenodd;opacity:1;fill:#008bb8;fill-opacity:1;fill-rule:evenodd"
     clip-path="url(#SVGID_2_)"
     d="m 140.19922,4.9941406 0,22.0019534 22.18555,0 0,-22.0019534 -22.18555,0 z m 94.38867,21.7343754 -2.68945,3.08789 c -5.408,6.198 -7.0143,16.509688 -6.2793,24.429688 0.544,5.822 2.38795,11.730156 6.00195,16.410156 -2.747,1.636 -5.86548,2.936141 -8.64648,3.869141 -5.662,1.904 -11.91515,3.830196 -17.7832,4.960937 -4.65895,0.897754 -8.66095,1.138939 -12.94727,1.664063 l -155.349609,0 c -1.204,12.812 0.571203,25.810579 5.908203,37.517579 l 2.298828,4.63867 0.259766,0.43945 c 15.789,26.587 43.517172,37.79102 73.742192,37.79102 58.5,0 106.7472,-25.9143 128.9082,-80.654298 14.812,0.771001 29.96008,-3.578562 37.20508,-17.601562 l 1.84961,-3.582031 -3.51172,-2.009766 c -8.572,-4.903 -19.98013,-5.572281 -29.70313,-2.738281 -1.196,-10.246 -7.98264,-19.230063 -16.05664,-25.664063 l -3.20703,-2.558593 z m -145.583984,3.652343 0,22.001953 22.185544,0 0,-22.001953 -22.185544,0 z m 25.599614,0 0,22.001953 22.18554,0 0,-22.001953 -22.18554,0 z m 25.5957,0 0,22.001953 22.18555,0 0,-22.001953 -22.18555,0 z m -76.789064,25.384766 0,22.001953 22.181641,0 0,-22.001953 -22.181641,0 z m 25.59375,0 0,22.001953 22.185544,0 0,-22.001953 -22.185544,0 z m 25.599614,0 0,22.001953 22.18554,0 0,-22.001953 -22.18554,0 z m 25.5957,0 0,22.001953 22.18555,0 0,-22.001953 -22.18555,0 z m 25.59766,0 0,22.001953 22.18164,0 0,-22.001953 -22.18164,0 z m -55.99415,57.673825 c 3.38,0 6.1211,2.71741 6.1211,6.06641 0,3.355 -2.7411,6.06836 -6.1211,6.06836 -3.382,0 -6.12109,-2.71336 -6.12109,-6.06836 0,-3.349 2.73909,-6.06641 6.12109,-6.06641 z m 0,1.7168 c -2.421,0 -4.38476,1.95161 -4.38476,4.34961 0,2.402 1.96376,4.34961 4.38476,4.34961 2.419,0 4.37891,-1.94861 4.37891,-4.34961 0,-0.592 -0.11603,-1.15297 -0.33203,-1.66797 -0.302,0.554 -0.89136,0.92383 -1.56836,0.92383 -0.989,0 -1.78906,-0.79444 -1.78906,-1.77344 0,-0.655 0.36158,-1.22916 0.89258,-1.53516 -0.491,-0.188 -1.02304,-0.29687 -1.58204,-0.29687 z m -11.837886,14.60547 c 4.629996,10.588 12.950426,20.28006 28.107426,27.41406 -2.309,0.087 -4.63375,0.12891 -6.96875,0.12891 -31.662012,-0.191 -48.758254,-10.79917 -62.656254,-24.57617 4.167,0.218 8.139156,0.33007 11.910156,0.33007 3.27,0 6.381703,-0.081 9.345703,-0.24804 7.864,-0.439 14.632719,-1.45483 20.261719,-3.04883 z"
     id="path11"
     inkscape:connector-curvature="0"
     transform="matrix(0.99787595,0,0,0.99787595,-36.456666,-1.7057617)" /></svg>