<?xml version="1.0" encoding="UTF-8" standalone="no"?>
<svg xmlns="http://www.w3.org/2000/svg"
   xmlns:dc="http://purl.org/dc/elements/1.1/"
   xmlns:cc="http://creativecommons.org/ns#"
   xmlns:rdf="http://www.w3.org/1999/02/22-rdf-syntax-ns#"
   width="200.00006" height="105.06409">
  <title>Cencosud</title>
  <metadata>
    <rdf:RDF>
      <cc:Work rdf:about="">
        <dc:format>image/svg+xml</dc:format>
        <dc:type rdf:resource="http://purl.org/dc/dcmitype/StillImage"/>
        <dc:title>Cencosud</dc:title>
        <cc:license rdf:resource="http://creativecommons.org/licenses/by-sa/3.0/"/>
      </cc:Work>
      <cc:License rdf:about="http://creativecommons.org/licenses/by-sa/3.0/">
        <cc:permits
           rdf:resource="http://creativecommons.org/ns#Reproduction" />
        <cc:permits
           rdf:resource="http://creativecommons.org/ns#Distribution" />
        <cc:requires
           rdf:resource="http://creativecommons.org/ns#Notice" />
        <cc:requires
           rdf:resource="http://creativecommons.org/ns#Attribution" />
        <cc:permits
           rdf:resource="http://creativecommons.org/ns#DerivativeWorks" />
        <cc:requires
           rdf:resource="http://creativecommons.org/ns#ShareAlike" />
      </cc:License>
    </rdf:RDF>
  </metadata>
   <g transform="matrix(1.25,0,0,-1.25,-32.478687,771.24195)">
   <g transform="matrix(2.0497332,0,0,2.0497332,-32.700912,-639.82126)">
   <path
         style="fill:#007cc1;fill-opacity:1;fill-rule:nonzero;stroke:none"
         d="m 100.125,-0.03125 c -22.293336,0 -41.363146,14.201867 -48.84375,33.875 l -0.3125,0.71875 0.8125,0 5.59375,0 0.3125,0 0.15625,-0.3125 C 64.835208,17.826036 81.142052,6.3125 100.125,6.3125 c 9.95567,0 19.13627,3.1807121 26.65625,8.5625 -0.26656,0.82499 -0.40625,1.650526 -0.40625,2.5625 0,4.694241 3.7771,8.5625 8.46875,8.5625 0.88932,0 1.74654,-0.245913 2.5625,-0.5 1.94634,2.712179 3.64377,5.645266 4.96875,8.75 l 0.15625,0.3125 0.34375,0 5.65625,0 0.8125,0 -0.3125,-0.71875 c -1.65595,-4.420969 -3.95889,-8.64263 -6.71875,-12.40625 0.65492,-1.209579 1.1875,-2.532491 1.1875,-4 0,-4.725054 -3.84006,-8.5625 -8.5625,-8.5625 -1.51136,0 -2.86331,0.4989024 -4.09375,1.1875 C 122.22523,3.771837 111.61249,-0.03125 100.125,-0.03125 z m 94.125,31 0,0.46875 0,8.71875 -6.40625,0 c -1.61976,0 -3.1736,0.343264 -4.625,0.96875 -0.0205,0.0077 -0.0733,-0.0077 -0.0937,0 l 0,0.0625 c -1.40564,0.599795 -2.67367,1.500378 -3.75,2.5625 l -0.0937,0 c -1.09015,1.067885 -1.98894,2.335641 -2.625,3.78125 -0.6101,1.4379 -0.90625,3.041184 -0.90625,4.71875 0,1.640708 0.29876,3.153111 0.90625,4.625 0.6445,1.459441 1.51621,2.826047 2.625,3.9375 1.11038,1.10505 2.37663,1.922312 3.84375,2.5625 l 0.0937,0.0625 c 1.47053,0.610706 2.98242,0.90625 4.625,0.90625 1.64258,0 3.18592,-0.29562 4.65625,-0.90625 l 0.0625,0 0,-0.0625 c 1.46841,-0.640751 2.70443,-1.453531 3.78125,-2.5625 1.11058,-1.113246 1.95576,-2.472757 2.5625,-3.9375 0.6461,-1.474501 1.03125,-2.980885 1.03125,-4.625 l 0,-20.8125 0,-0.46875 -0.5625,0 -4.5625,0 -0.5625,0 z m -182.1875,9.1875 c -1.542795,0 -3.0659964,0.364293 -4.5625,0.96875 -1.4756361,0.575206 -2.8208343,1.445824 -4,2.625 C 2.317735,44.929586 1.450001,46.212384 0.875,47.6875 0.30087756,49.153523 0,50.680216 0,52.25 c 0,1.54038 0.30142825,3.097885 0.875,4.5625 0.5750087,1.472452 1.4431013,2.818109 2.625,4 1.1770423,1.174386 2.5284365,2.016548 4,2.625 1.4947311,0.569161 3.023964,0.90625 4.5625,0.90625 1.540982,0 3.036331,-0.335706 4.5,-0.90625 1.504946,-0.607863 2.883496,-1.448667 4.0625,-2.625 L 22.15625,59.21875 22.5625,58.8125 22.25,58.40625 19.03125,55.21875 18.625,54.8125 18.25,55.21875 16.625,56.8125 c -0.604595,0.635424 -1.276586,1.122196 -2.0625,1.4375 -0.800683,0.319402 -1.637575,0.46875 -2.5,0.46875 -1.795937,0 -3.2759644,-0.619727 -4.5625,-1.90625 C 6.862932,56.175437 6.3816359,55.445817 6.0625,54.65625 5.7443784,53.85257 5.59375,53.073966 5.59375,52.25 c 0,-0.823966 0.1509972,-1.69965 0.46875,-2.5 0.3180448,-0.786877 0.8042074,-1.457659 1.4375,-2.0625 0.6398036,-0.639804 1.3051465,-1.05862 2.09375,-1.375 0.800012,-0.319915 1.644789,-0.46875 2.46875,-0.46875 0.823961,0 1.606571,0.148887 2.40625,0.46875 0.790645,0.316252 1.515983,0.734735 2.15625,1.375 l 1.625,1.59375 0.375,0.40625 0.40625,-0.40625 L 22.25,46.09375 22.5625,45.6875 22.15625,45.375 20.625,43.75 c -1.181125,-1.181123 -2.553635,-2.05046 -4.0625,-2.625 -1.465462,-0.605942 -2.954764,-0.96875 -4.5,-0.96875 z m 24.09375,0 c -1.544019,0 -3.124811,0.36122 -4.625,0.96875 -1.476353,0.575488 -2.758895,1.446388 -3.9375,2.625 -1.178884,1.178894 -2.04972,2.461667 -2.625,3.9375 -0.570539,1.463667 -0.875,3.023964 -0.875,4.5625 0,1.540969 0.305967,3.065459 0.875,4.5625 0.575132,1.47276 1.445186,2.822848 2.625,4 1.145274,1.145263 2.470685,2.017393 3.9375,2.625 1.471149,0.609861 3.014318,0.90625 4.625,0.90625 1.610682,0 3.093634,-0.296235 4.5625,-0.90625 1.472386,-0.607684 2.792516,-1.480018 3.9375,-2.625 L 46.25,59.21875 46.65625,58.8125 46.25,58.40625 l -3.1875,-3.1875 -0.40625,-0.40625 -0.3125,0.40625 -1.625,1.59375 c -1.029684,1.027287 -2.221557,1.622448 -3.59375,1.84375 -1.053308,0.151812 -1.999826,-0.157955 -2.96875,-0.5 L 46.25,46.09375 46.65625,45.6875 46.25,45.375 44.65625,43.75 c -1.180564,-1.180559 -2.490433,-2.050178 -4,-2.625 -1.468946,-0.608939 -2.955981,-0.96875 -4.5,-0.96875 z m 24.03125,0 c -1.645426,0 -3.183034,0.322031 -4.65625,0.96875 -1.466315,0.611629 -2.792996,1.514417 -3.90625,2.625 -1.074521,1.077208 -1.921134,2.320221 -2.5625,3.78125 -0.613089,1.438617 -0.875,3.041747 -0.875,4.71875 l 0,11.53125 0,0.5625 0.46875,0 4.625,0 0.5,0 0,-0.5625 0,-11.53125 c 0,-0.897964 0.153233,-1.74181 0.46875,-2.5 0.352738,-0.801451 0.805982,-1.493493 1.375,-2.0625 0.604019,-0.606403 1.30317,-1.058031 2.0625,-1.375 0.792443,-0.347833 1.608565,-0.46875 2.5,-0.46875 0.891435,0 1.773095,0.121326 2.5625,0.46875 0.792151,0.316867 1.434832,0.776998 2,1.375 l 0.0625,0.0625 c 0.5975,0.564704 1.055073,1.208487 1.375,2 0.344811,0.755296 0.46875,1.608568 0.46875,2.5 l 0,11.53125 0,0.5625 0.5625,0 4.5625,0 0.5625,0 0,-0.5625 0,-11.53125 c 0,-1.680896 -0.382423,-3.278417 -1.03125,-4.71875 C 70.702787,46.063126 69.864558,44.829641 68.75,43.75 67.637043,42.639725 66.372773,41.736731 64.90625,41.125 63.462439,40.475822 61.864826,40.15625 60.1875,40.15625 z m 25.9375,0 c -1.545236,0 -3.065996,0.364293 -4.5625,0.96875 -1.478302,0.575206 -2.823134,1.445465 -4,2.625 -1.176061,1.178741 -2.080847,2.461359 -2.65625,3.9375 -0.571087,1.465076 -0.875,2.992127 -0.875,4.5625 0,1.540969 0.304461,3.098833 0.875,4.5625 0.575413,1.473477 1.480555,2.81898 2.65625,4 1.174745,1.174745 2.525755,2.016548 4,2.625 1.494731,0.569161 3.021518,0.90625 4.5625,0.90625 1.538536,0 3.005081,-0.335706 4.46875,-0.90625 1.504946,-0.607863 2.820996,-1.448667 4,-2.625 l 0.09375,0 1.5,-1.59375 0.40625,-0.40625 -0.40625,-0.40625 -3.125,-3.1875 -0.375,-0.40625 -0.40625,0.40625 -1.59375,1.59375 c -0.607589,0.636064 -1.305446,1.12217 -2.09375,1.4375 -0.794656,0.31889 -1.606325,0.46875 -2.46875,0.46875 -1.795937,0 -3.278954,-0.620316 -4.5625,-1.90625 -0.640861,-0.63609 -1.120777,-1.366811 -1.4375,-2.15625 -0.320248,-0.803014 -0.5,-1.582284 -0.5,-2.40625 0,-0.823966 0.180129,-1.700316 0.5,-2.5 0.315642,-0.786749 0.706677,-1.458581 1.34375,-2.0625 l 0.09375,0 c 0.636809,-0.639189 1.27152,-1.05862 2.0625,-1.375 0.796672,-0.319658 1.676039,-0.46875 2.5,-0.46875 0.823961,0 1.574988,0.148733 2.375,0.46875 0.790645,0.316252 1.544241,0.734121 2.1875,1.375 l 1.59375,1.59375 0.40625,0.40625 0.375,-0.40625 3.125,-3.1875 0.40625,-0.40625 -0.40625,-0.3125 -1.5,-1.625 C 93.506375,42.568877 92.102615,41.69954 90.59375,41.125 89.128288,40.519058 87.667795,40.15625 86.125,40.15625 z m 24,0 c -1.64599,0 -3.18374,0.322338 -4.65625,0.96875 -1.46956,0.609195 -2.70135,1.511164 -3.8125,2.625 -1.07464,1.074647 -2.014669,2.319735 -2.65625,3.78125 -0.610315,1.438412 -0.875,3.044206 -0.875,4.71875 0,1.642578 0.267385,3.152804 0.875,4.625 0.640902,1.457315 1.58528,2.829146 2.65625,3.9375 1.10889,1.108892 2.34663,1.920186 3.8125,2.5625 l 0,0.0625 c 1.47083,0.610835 3.01424,0.90625 4.65625,0.90625 1.67645,0 3.27738,-0.293136 4.71875,-0.90625 l 0,-0.0625 c 1.46608,-0.642416 2.73516,-1.453915 3.84375,-2.5625 1.11413,-1.111453 2.04715,-2.473526 2.65625,-3.9375 0.64316,-1.473912 0.9375,-2.978426 0.9375,-4.625 0,-1.678437 -0.29144,-3.278571 -0.9375,-4.71875 -0.60971,-1.468124 -1.53841,-2.703709 -2.65625,-3.78125 -1.11085,-1.113528 -2.37399,-2.015728 -3.84375,-2.625 -1.44309,-0.648845 -3.03841,-0.96875 -4.71875,-0.96875 z m 21.28125,0 c -1.02959,0 -2.01418,0.251093 -2.9375,0.65625 -0.88376,0.370527 -1.67819,0.834429 -2.34375,1.5 -0.66556,0.665571 -1.19108,1.494788 -1.59375,2.40625 -0.36817,0.888563 -0.5625,1.851939 -0.5625,2.875 0,1.023061 0.1976,1.984389 0.5625,2.90625 l 0,0.0625 c 0.40213,0.872196 0.93752,1.618139 1.59375,2.3125 0.66113,0.658373 1.46439,1.223557 2.34375,1.625 0.92045,0.368196 1.91444,0.5625 2.9375,0.5625 l 9.28125,0 c 0.57281,0 0.93088,0.180881 1.28125,0.53125 0.35411,0.356158 0.5625,0.748896 0.5625,1.28125 0,0.571492 -0.21453,0.933288 -0.5625,1.28125 -0.35029,0.352316 -0.70844,0.5625 -1.28125,0.5625 l -13.90625,0 -0.5625,0 0,0.5 0,4.5625 0,0.5625 0.5625,0 13.90625,0 c 1.02306,0 2.01662,-0.191128 2.90625,-0.5625 0.90866,-0.402647 1.64725,-0.931253 2.3125,-1.59375 0.69717,-0.699893 1.22383,-1.517354 1.59375,-2.40625 0.40531,-0.92368 0.65625,-1.876658 0.65625,-2.90625 0,-1.029592 -0.24769,-1.982825 -0.65625,-2.875 -0.36971,-0.927035 -0.88598,-1.737349 -1.59375,-2.40625 -0.64293,-0.642928 -1.44006,-1.135159 -2.3125,-1.5 -0.0349,-0.0146 -0.0585,-0.07838 -0.0937,-0.09375 l 0,0.09375 c -0.87305,-0.387535 -1.81016,-0.65625 -2.8125,-0.65625 l -9.28125,0 c -0.53069,0 -0.92979,-0.115256 -1.28125,-0.46875 -0.36464,-0.391889 -0.46875,-0.845694 -0.46875,-1.375 0,-0.529306 0.1134,-0.925912 0.46875,-1.28125 0.35146,-0.353468 0.75056,-0.46875 1.28125,-0.46875 l 13.9375,0 0.5625,0 0,-0.5625 0,-4.5625 0,-0.5625 -0.5625,0 -13.9375,0 z m 18.5,0 0,0.5625 0,11.53125 c 0,1.643142 0.26734,3.155365 0.875,4.625 0.64301,1.458723 1.48875,2.826354 2.5625,3.9375 1.10871,1.106049 2.47351,1.922492 3.9375,2.5625 l 0,0.0625 c 1.47033,0.61063 2.97996,0.90625 4.625,0.90625 1.67454,0 3.27563,-0.29352 4.71875,-0.90625 l 0,-0.0625 c 1.46152,-0.640085 2.73534,-1.456758 3.84375,-2.5625 1.11028,-1.112965 1.95554,-2.469556 2.5625,-3.9375 C 173.67753,55.402753 174,53.896574 174,52.25 l 0,-11.53125 0,-0.5625 -0.46875,0 -4.65625,0 -0.46875,0 0,0.5625 0,11.53125 c 0,0.89238 -0.21304,1.677749 -0.5625,2.46875 -0.31766,0.794151 -0.77314,1.49188 -1.375,2.09375 -0.56871,0.571056 -1.1962,1.0848 -2,1.4375 -0.79533,0.318122 -1.66726,0.46875 -2.5625,0.46875 -0.87086,0 -1.69774,-0.16989 -2.46875,-0.46875 -0.024,-0.01024 -0.0699,0.01024 -0.0937,0 -0.74862,-0.34937 -1.40382,-0.87172 -2,-1.4375 -0.55389,-0.594672 -0.99682,-1.308358 -1.3438,-2.09375 -0.31812,-0.79533 -0.5,-1.570786 -0.5,-2.46875 l 0,-11.53125 0,-0.5625 -0.5625,0 -4.5625,0 -0.46875,0 z M 35.84375,45.8125 c 0.780953,0.03674 1.529577,0.252149 2.25,0.5 -0.402992,0.394988 -0.800286,0.728072 -1.375,1.28125 C 35.860692,48.451808 34.9602,49.354857 34,50.3125 l -2.625,2.75 c -0.524386,0.526028 -0.861409,0.830599 -1.21875,1.1875 -0.227168,-0.653251 -0.46875,-1.295624 -0.46875,-2 0,-1.793212 0.558037,-3.279179 1.84375,-4.5625 1.026864,-1.026877 2.168763,-1.65216 3.5,-1.84375 0.267785,-0.03713 0.552182,-0.0435 0.8125,-0.03125 z m 74.28125,0.03125 c 0.89143,0 1.77408,0.11938 2.5625,0.46875 0.79123,0.314126 1.43483,0.776998 2,1.375 l 0.0937,0 c 0.59591,0.565421 1.02415,1.269424 1.34375,2.0625 0.34243,0.752888 0.5,1.608568 0.5,2.5 0,0.891432 -0.15436,1.675674 -0.5,2.46875 -0.32054,0.79305 -0.74172,1.551845 -1.34375,2.15625 -0.56902,0.569007 -1.28995,1.0223 -2.09375,1.375 -0.79197,0.317865 -1.66453,0.46875 -2.5625,0.46875 -0.89524,0 -1.67678,-0.151013 -2.46875,-0.46875 -0.80591,-0.353648 -1.48479,-0.861987 -2.09375,-1.4375 -0.55472,-0.597592 -1.09002,-1.309562 -1.4375,-2.09375 l 0.0625,0 c -0.31812,-0.79533 -0.46875,-1.570786 -0.46875,-2.46875 0,-0.897964 0.15353,-1.744884 0.46875,-2.5 l -0.0625,0 c 0.35549,-0.804653 0.86848,-1.493493 1.4375,-2.0625 0.60461,-0.60461 1.30053,-1.06008 2.09375,-1.375 0.78842,-0.34937 1.58006,-0.46875 2.46875,-0.46875 z m 77.71875,0 6.40625,0 0,6.40625 c 0,0.889614 -0.12138,1.677109 -0.46875,2.46875 -0.32055,0.795432 -0.83678,1.495415 -1.4375,2.09375 -0.5687,0.571056 -1.19619,1.0848 -2,1.4375 -0.7532,0.316841 -1.60383,0.46875 -2.5,0.46875 -0.8744,0 -1.69903,-0.168302 -2.46875,-0.46875 -0.0238,-0.01024 -0.0707,0.01024 -0.0937,0 -0.77994,-0.349985 -1.46949,-0.874717 -2.0625,-1.4375 -0.55281,-0.591522 -1.02787,-1.308025 -1.375,-2.09375 -0.31812,-0.79533 -0.46875,-1.573501 -0.46875,-2.46875 0,-0.897964 0.15368,-1.745242 0.46875,-2.5 0.35531,-0.806651 0.80547,-1.49298 1.375,-2.0625 0.60538,-0.602997 1.26917,-1.057672 2.0625,-1.375 l 0.0937,0 c 0.78941,-0.347321 1.57458,-0.46875 2.46875,-0.46875 z M 50.5625,70.5625 50.90625,71.21875 C 58.371338,90.959196 77.368754,105 99.71875,105 c 22.30291,0 41.49852,-14.107656 49,-33.78125 l 0.21875,-0.65625 -0.71875,0 -5.75,0 -0.40625,0 -0.0937,0.34375 C 134.91608,87.232498 118.63347,98.75 99.71875,98.75 80.756334,98.75 64.493342,87.290205 57.46875,70.90625 L 57.375,70.5625 l -0.40625,0 -5.59375,0 -0.8125,0 z"
         transform="matrix(0.39041671,0,0,-0.39041671,28.63,613.148)" />
		 <path
         style="fill:#f9a41e;fill-opacity:1;fill-rule:nonzero;stroke:none"
         d="m 134.9375,12.875 c -2.49485,0 -4.5625,1.976464 -4.5625,4.46875 0,2.492286 2.06773,4.5 4.5625,4.5 2.49725,0 4.46875,-2.007714 4.46875,-4.5 0,-2.492286 -1.97141,-4.46875 -4.46875,-4.46875 z"
         transform="matrix(0.39041671,0,0,-0.39041671,28.63,613.148)" /></g></g></svg>