<?xml version="1.0" encoding="UTF-8" standalone="no"?>
<!-- Created with Inkscape (http://www.inkscape.org/) -->

<svg
   xmlns:dc="http://purl.org/dc/elements/1.1/"
   xmlns:cc="http://creativecommons.org/ns#"
   xmlns:rdf="http://www.w3.org/1999/02/22-rdf-syntax-ns#"
   xmlns:svg="http://www.w3.org/2000/svg"
   xmlns="http://www.w3.org/2000/svg"
   xmlns:sodipodi="http://sodipodi.sourceforge.net/DTD/sodipodi-0.dtd"
   xmlns:inkscape="http://www.inkscape.org/namespaces/inkscape"
   id="svg2"
   sodipodi:version="0.32"
   inkscape:version="0.48.5 r10040"
   width="400"
   height="400"
   version="1.0"
   sodipodi:docname="EnelLogoWhite.svg"
   inkscape:output_extension="org.inkscape.output.svg.inkscape">
  <metadata
     id="metadata7">
    <rdf:RDF>
      <cc:Work
         rdf:about="">
        <dc:format>image/svg+xml</dc:format>
        <dc:type
           rdf:resource="http://purl.org/dc/dcmitype/StillImage" />
      </cc:Work>
    </rdf:RDF>
  </metadata>
  <defs
     id="defs5">
    <inkscape:perspective
       sodipodi:type="inkscape:persp3d"
       inkscape:vp_x="0 : 526.18109 : 1"
       inkscape:vp_y="0 : 1000 : 0"
       inkscape:vp_z="744.09448 : 526.18109 : 1"
       inkscape:persp3d-origin="372.04724 : 350.78739 : 1"
       id="perspective9" />
  </defs>
  <sodipodi:namedview
     inkscape:window-height="750"
     inkscape:window-width="1280"
     inkscape:pageshadow="2"
     inkscape:pageopacity="1"
     guidetolerance="10.0"
     gridtolerance="10.0"
     objecttolerance="10.0"
     borderopacity="1.0"
     bordercolor="#666666"
     pagecolor="#b0b0b0"
     id="base"
     showgrid="false"
     inkscape:zoom="0.61826503"
     inkscape:cx="252.18461"
     inkscape:cy="42.474273"
     inkscape:window-x="-8"
     inkscape:window-y="30"
     inkscape:current-layer="svg2"
     inkscape:window-maximized="0" />
  <path
     style="fill:#ffffff;fill-opacity:1"
     d="m 99.711859,107.05215 c -0.136471,0 -0.824282,0.62372 -1.508239,1.38078 -2.827222,3.12939 -6.829956,13.06856 -8.008533,19.88326 -0.720372,4.1653 -0.813351,14.80065 -0.169943,17.9714 0.708021,3.48919 2.306682,7.29311 6.07544,14.36013 3.219163,4.21536 4.765886,9.00314 3.611275,14.84871 0.0014,4.54144 0.15914,8.66195 0.361131,9.38931 0.1979,0.71264 0.56666,1.29582 0.80722,1.29582 0.57395,0 1.98506,-1.51669 3.16518,-3.42009 4.31513,-6.95989 7.07385,-16.48698 7.07385,-24.36549 0,-6.78232 -1.13309,-11.05474 -6.11793,-22.836 -1.52773,-3.61066 -3.11564,-7.65545 -3.50506,-8.9857 -1.659946,-5.6703 -2.473331,-13.22266 -1.869363,-17.35537 0.173573,-1.18772 0.221435,-2.16676 0.08497,-2.16676 z m 42.549311,9.34683 c -0.35811,-0.0216 -1.07719,0.34904 -2.20925,1.06214 -12.45506,7.84558 -22.16595,23.17468 -23.26086,36.72879 -0.14611,1.80874 -0.0279,4.58378 0.33989,7.81735 0.90216,7.93242 0.22542,10.92228 -4.69466,20.41432 -2.77067,5.34531 -2.8384,5.54533 -2.18801,6.03295 0.80591,0.60422 1.5018,0.41145 3.80246,-0.97716 7.20346,-4.34778 13.41434,-11.17808 17.52531,-19.33095 2.78773,-5.52862 3.28837,-8.30516 4.24856,-23.06967 0.9221,-14.17896 1.77994,-18.23613 5.24697,-24.89655 1.35516,-2.60337 1.78645,-3.74522 1.18959,-3.78122 z m -85.884612,0.78598 c -0.08296,-0.01 -0.153019,0.068 -0.254913,0.16994 -1.484623,1.48463 -1.189993,15.98357 0.446098,22.34743 0.820927,3.19313 2.166179,6.7029 4.163588,10.79134 3.035204,6.21265 5.536141,9.19846 11.55608,13.78656 9.868886,7.52161 11.771078,9.97871 15.719668,20.3506 0.361732,0.95018 0.955776,2.244 1.338296,2.86778 0.592303,0.9659 0.800503,1.07531 1.380782,0.76474 1.35514,-0.72525 1.511474,-1.63675 1.486995,-8.47588 -0.03542,-9.90403 -0.993721,-15.38187 -3.696246,-21.07285 -2.393604,-5.04043 -5.064676,-8.24641 -15.231084,-18.31128 -10.342874,-10.23958 -12.844261,-13.42293 -15.018655,-19.0123 -1.311623,-3.37159 -1.641735,-4.17688 -1.890609,-4.20608 z m 122.634652,25.42763 -2.93151,0.19119 c -9.53722,0.61795 -22.4379,6.77115 -30.10104,14.36012 -5.08794,5.0387 -7.00395,8.13305 -10.30275,16.59062 -1.14889,2.94554 -2.65582,6.1986 -3.35637,7.24379 -1.74442,2.60262 -4.92417,5.59011 -9.96286,9.34683 -4.48909,3.34697 -4.82125,3.84697 -3.18642,4.99206 0.88175,0.6176 2.16682,0.47233 7.4987,-0.91344 9.47076,-2.46147 16.58543,-6.16208 21.73138,-11.27992 4.13311,-4.11055 6.42636,-7.57654 11.95969,-18.05638 4.03336,-7.63896 5.00148,-9.15128 7.71114,-12.29958 1.88817,-2.19382 6.70231,-6.73674 9.75044,-9.19812 l 1.1896,-0.97717 z m -157.302892,2.10304 c -0.230677,0.003 -0.424856,0.30874 -0.424856,0.80722 0,1.41657 1.041302,4.85659 2.20925,7.32876 4.593554,9.72312 14.827283,20.70255 22.814761,24.49294 3.633217,1.72411 5.952622,2.438 11.959694,3.67501 8.725697,1.79684 10.677192,2.75785 17.291634,8.47587 2.123063,1.83535 4.411466,3.71194 5.077028,4.16359 1.480926,1.00498 1.674402,1.00494 2.166765,0.085 0.507944,-0.94911 0.03331,-2.87437 -1.763152,-7.09509 -2.600594,-6.11012 -5.770834,-10.68543 -11.131224,-16.0808 -5.561198,-5.59747 -9.296982,-7.62169 -20.860424,-11.30117 -11.441869,-3.64079 -13.682832,-4.54963 -18.353774,-7.51994 -2.036101,-1.29479 -8.204925,-6.13683 -8.560847,-6.71272 -0.137682,-0.22277 -0.28645,-0.32059 -0.424855,-0.31864 z m 210.006262,11.40737 -0.16994,0.78598 c -0.81367,3.47683 -14.70002,69.37377 -14.70002,69.76134 14.62269,0.33417 27.90627,0.20898 42.44311,0.27616 l 2.20925,-10.85507 c -9.48675,0.11623 -18.1277,0.18707 -28.06174,-0.0425 1.13903,-6.54112 2.86935,-12.97383 4.18484,-19.47964 l 25.02401,-0.0212 2.16676,-11.81099 c -7.87059,0.0298 -16.16154,-0.0713 -24.81158,-0.21243 1.10731,-5.68333 2.39931,-11.32798 3.59003,-16.99423 l 28.06173,-0.10625 2.14552,-11.27993 c -14.65511,-0.008 -27.74089,0.0879 -42.08197,-0.0212 z m 154.49884,0 -14.67877,70.52608 c 4.31654,-0.007 8.92902,0.0296 13.57415,0.0212 4.80465,-23.45319 9.91012,-47.11096 14.8912,-70.52608 -4.64888,0.0164 -9.05637,-0.002 -13.78658,-0.0212 z m -34.60451,17.46158 c -5.00048,-0.003 -7.77859,0.66955 -12.04466,2.95275 -8.04864,4.30759 -14.58248,12.66318 -16.46317,21.05161 -1.2108,5.40072 -1.03309,12.99607 0.40361,17.27039 0.81878,2.43587 3.4443,6.09815 5.71431,7.98729 3.43307,2.85703 7.58642,4.62559 12.36331,5.26821 0.66512,0.0895 3.93943,0.11352 7.26504,0.0425 6.0409,-0.12904 7.68118,-0.38401 12.83064,-1.91185 l 2.29423,-0.67977 0.53107,-3.01648 c 0.7074,-5.1515 0.92148,-5.93889 1.06214,-7.13758 0.0269,-0.22951 -2.41714,0.62705 -4.41851,1.14711 -5.60366,1.45618 -7.34361,1.85117 -12.3633,1.67818 -5.16263,-0.17789 -7.68218,-0.88967 -9.81417,-2.76156 -1.67317,-1.46906 -3.55257,-5.47025 -3.82371,-8.13599 l -0.23367,-2.14552 18.67242,0 18.67242,0 0.19118,-0.95593 c 0.11229,-0.52259 0.39232,-3.37046 0.61604,-6.33035 0.54637,-7.22828 0.18226,-10.09421 -1.76315,-14.02025 -3.49205,-7.04721 -9.70182,-10.29785 -19.69207,-10.30275 z m -47.86002,0.12745 c -5.80076,0.23391 -10.77094,2.08692 -15.14611,5.52313 0.25245,-1.38922 0.42769,-2.83736 0.63729,-4.31229 -4.55131,0.0696 -7.75511,0.0366 -13.12805,0.0425 l -10.87631,51.98112 13.17053,-0.0425 c 1.3565,-5.74266 5.92015,-26.72977 9.21937,-35.32676 3.3442,-6.15558 9.77588,-8.86378 14.99742,-6.30911 2.6656,1.30416 3.43079,2.78744 3.42009,6.62775 -0.005,1.60529 -0.10998,3.66219 -0.23367,4.5672 -1.70026,10.19215 -3.83781,20.31377 -5.73556,30.46216 5.25787,0.0611 8.98929,-0.12819 13.48918,0.0637 l 5.77804,-26.46852 c 0.74213,-4.01403 1.12032,-10.27995 0.82846,-13.53166 -1.24066,-8.40558 -7.98175,-13.3984 -16.42068,-13.27672 z m -122.86832,4.60969 c -2.60688,0.0645 -5.40655,0.37631 -8.60333,0.93468 -10.88436,1.90116 -15.57328,4.32539 -24.49294,12.61822 -6.77182,6.29593 -9.00926,7.38499 -20.15941,9.85666 -1.85035,0.41018 -3.71844,1.03753 -4.14234,1.38078 -0.68665,0.55602 -0.7023,0.67178 -0.25492,1.21084 0.98834,1.19087 5.20145,2.52609 11.17371,3.50506 3.85551,0.632 11.17641,0.37113 15.69842,-0.55231 7.8805,-1.60928 12.62281,-4.10866 22.26245,-11.70478 10.32836,-8.13882 14.9785,-10.58243 23.21838,-12.19336 1.8905,-0.36961 3.52028,-0.73749 3.61127,-0.82847 0.7304,-0.73041 -5.02226,-2.67465 -10.85507,-3.67501 -2.4423,-0.41886 -4.84934,-0.61679 -7.45622,-0.55231 z m 169.39004,5.28946 c 0.41729,-0.0111 0.83836,0.002 1.27457,0.0425 3.93939,0.0153 7.01872,1.05335 8.19972,5.28946 0.5331,1.53705 0.73423,5.55168 0.31864,6.22414 -7.04145,0.0606 -14.79476,0.10442 -22.92097,0.0425 -0.0677,-0.15581 0.1518,-0.55258 0.42485,-1.18959 0.84825,-1.97885 3.18597,-5.56108 4.54596,-6.75521 2.73886,-2.24932 5.23622,-3.57553 8.15723,-3.65376 z M 1.4639339,184.22722 c -0.06347,-4.7e-4 -0.113204,0.007 -0.127456,0.0212 -0.46979097,0.46979 0.961738,2.21663 4.057373,4.94957 5.7432621,5.07038 11.5616431,8.61051 18.6936601,11.36489 5.321311,2.0551 7.021619,2.28633 15.422268,2.12428 7.2668,-0.14017 7.649657,-0.18644 11.662294,-1.31705 3.638441,-1.02517 4.62791,-1.15687 8.114748,-1.14711 3.515695,0.01 4.501609,0.1486 8.475875,1.27457 2.470452,0.69991 5.423812,1.58081 6.564023,1.95433 2.706577,0.88666 3.42701,0.78971 3.56879,-0.4461 0.09571,-0.8343 -0.451374,-1.52453 -3.972403,-5.03454 -2.246468,-2.23942 -5.024434,-4.6527 -6.16041,-5.37442 -3.29601,-2.09406 -8.356899,-4.52331 -12.172121,-5.84177 -6.268519,-2.16627 -14.303997,-2.46924 -23.537017,-0.87096 -5.186918,0.89789 -16.078911,1.25214 -20.159411,0.65853 -1.583894,-0.23041 -4.5506841,-0.89308 -6.6065101,-1.46575 -1.798848,-0.50108 -3.379398,-0.84645 -3.823703,-0.84972 z m 54.0204271,23.60074 c -6.187243,-0.0216 -7.459415,0.0839 -10.090328,0.7435 -5.300331,1.32881 -7.839667,2.60524 -18.587445,9.41056 -9.879158,6.25532 -12.882587,7.56933 -21.3277651,9.32559 -2.800525,0.58239 -5.22214297,1.18602 -5.37442697,1.33829 -0.402322,0.40233 0.294636,0.83693 3.20766197,2.01807 3.614002,1.46535 8.4843731,2.54025 12.9581041,2.84653 2.090385,0.14312 4.198327,0.27228 4.673415,0.2974 2.878467,0.15226 10.925125,-0.72169 14.126458,-1.52948 6.235183,-1.57331 10.03356,-3.63749 17.312878,-9.4318 2.185402,-1.73957 4.913986,-3.61706 6.054196,-4.18483 2.540629,-1.26508 7.317285,-2.5145 12.596977,-3.27139 2.185398,-0.31329 4.476221,-0.72419 5.077028,-0.91344 2.927787,-0.92224 0.862566,-2.60393 -5.756797,-4.7159 -5.086841,-1.62301 -7.189551,-1.90623 -14.869956,-1.9331 z m 108.869319,2.65535 c -3.4518,0.0654 -6.96482,0.92222 -13.4042,3.05896 -6.42999,2.13362 -6.50646,2.16458 -10.45146,2.16677 -4.04636,0.002 -8.79003,-0.77032 -13.87154,-2.25174 -2.85476,-0.83224 -3.05896,-0.82934 -3.05896,0.0425 0,1.21965 0.89972,2.55832 3.2289,4.73714 6.18545,5.7862 16.85202,10.58277 25.08774,11.27993 2.18576,0.18503 9.02501,-0.11511 12.10839,-0.53107 3.07751,-0.41519 6.61872,-1.25717 10.87631,-2.54914 2.69587,-0.81806 3.89831,-0.96722 9.02819,-1.12587 7.7136,-0.23855 14.12387,0.42803 17.54655,1.82688 0.64718,0.26451 0.64718,0.2664 0,-0.84971 -2.26235,-3.90149 -13.68207,-11.22676 -20.3506,-13.04307 -3.89177,-1.06001 -9.68114,-2.18234 -13.19177,-2.57038 -1.23888,-0.13694 -2.39695,-0.21298 -3.54755,-0.19119 z m -47.18024,8.24221 c -0.20682,-0.20896 -5.73458,6.62035 -7.28628,9.00694 -3.60743,5.54835 -5.29129,10.60837 -5.84177,17.52531 -0.55871,7.02027 2.06612,20.24218 5.52312,27.82806 4.773,10.47366 13.24322,17.15966 24.87531,19.62834 0.38007,0.0807 2.07199,0.16915 3.75998,0.19118 l 3.0802,0.0425 -4.80087,-4.92833 c -5.83554,-6.00488 -8.6844,-9.92038 -12.00217,-16.50565 -4.12536,-8.18815 -6.42395,-16.31924 -7.66865,-27.08456 -0.48088,-4.15904 -0.56872,-6.81424 -0.40362,-13.80782 0.11254,-4.76668 0.371,-9.38386 0.55232,-10.23903 0.18133,-0.85515 0.27557,-1.59314 0.21243,-1.65693 z m -32.586451,0.97716 c -0.138353,-10e-5 -0.205114,4.77772 -0.1487,10.6214 0.110415,11.43697 -0.140052,15.10253 -1.486995,21.60392 -1.703298,8.2215 -4.03246,15.08791 -6.967637,20.58427 -3.220822,6.03127 -5.996769,9.71847 -12.150878,16.03831 l -4.291045,4.39726 3.122691,0 c 3.992021,0 8.7255,-1.17528 12.596977,-3.12269 7.67788,-3.86209 12.581445,-9.24578 16.378195,-17.99265 2.965555,-6.83199 4.071275,-11.30858 4.694657,-18.84236 0.907533,-10.96789 -0.769607,-18.21104 -6.117924,-26.38355 -1.624595,-2.48245 -5.234912,-6.9036 -5.629341,-6.90391 z"
     id="path2450"
     inkscape:connector-curvature="0" />
</svg>
