<?xml version="1.0" encoding="UTF-8" standalone="no"?>
<!-- Created with Inkscape (http://www.inkscape.org/) -->

<svg
   xmlns:dc="http://purl.org/dc/elements/1.1/"
   xmlns:cc="http://creativecommons.org/ns#"
   xmlns:rdf="http://www.w3.org/1999/02/22-rdf-syntax-ns#"
   xmlns:svg="http://www.w3.org/2000/svg"
   xmlns="http://www.w3.org/2000/svg"
   xmlns:sodipodi="http://sodipodi.sourceforge.net/DTD/sodipodi-0.dtd"
   xmlns:inkscape="http://www.inkscape.org/namespaces/inkscape"
   width="225.68288mm"
   height="135.67946mm"
   viewBox="0 0 799.66374 480.75399"
   id="svg2"
   version="1.1"
   inkscape:version="0.91 r13725"
   sodipodi:docname="San Francisco Ferreteria.svg">
  <defs
     id="defs4" />
  <sodipodi:namedview
     id="base"
     pagecolor="#ffffff"
     bordercolor="#666666"
     borderopacity="1.0"
     inkscape:pageopacity="0.0"
     inkscape:pageshadow="2"
     inkscape:zoom="1"
     inkscape:cx="399.83187"
     inkscape:cy="240.37699"
     inkscape:document-units="px"
     inkscape:current-layer="g4348"
     showgrid="false"
     inkscape:window-width="1366"
     inkscape:window-height="715"
     inkscape:window-x="-8"
     inkscape:window-y="22"
     inkscape:window-maximized="1"
     fit-margin-top="0"
     fit-margin-left="0"
     fit-margin-right="0"
     fit-margin-bottom="0" />
  <metadata
     id="metadata7">
    <rdf:RDF>
      <cc:Work
         rdf:about="">
        <dc:format>image/svg+xml</dc:format>
        <dc:type
           rdf:resource="http://purl.org/dc/dcmitype/StillImage" />
        <dc:title></dc:title>
      </cc:Work>
    </rdf:RDF>
  </metadata>
  <g
     inkscape:label="Capa 1"
     inkscape:groupmode="layer"
     id="layer1"
     transform="translate(-37.460142,-192.27428)">
    <g
       id="g4348"
       transform="matrix(1.7975824,0,0,1.7975824,613.04452,-499.41518)">
      <g
         id="g4376"
         transform="matrix(1.7921596,0,0,1.7921596,233.22936,-628.83368)">
        <g
           transform="matrix(0.55630273,0,0,0.55630273,-341.03834,277.82603)"
           id="g4258">
          <path
             style="opacity:1;fill:#dc1a21;fill-opacity:1;stroke:none;stroke-width:20;stroke-linecap:square;stroke-linejoin:miter;stroke-miterlimit:4;stroke-dasharray:none;stroke-dashoffset:0;stroke-opacity:1"
             d="m 57.941406,721.13086 0,21.58984 145.703124,0 0,-21.58984 -145.703124,0 z m 300.498044,0 0,21.58984 145.70313,0 0,-21.58984 -145.70313,0 z"
             id="rect3355"
             inkscape:connector-curvature="0" />
          <path
             style="opacity:1;fill:#034a90;fill-opacity:1;stroke:none;stroke-width:20;stroke-linecap:square;stroke-linejoin:miter;stroke-miterlimit:4;stroke-dasharray:none;stroke-dashoffset:0;stroke-opacity:1"
             d="m 281.04198,551.12174 -87.89671,67.86436 -135.203536,0 0,95.63857 446.200486,0 0,-95.63857 -99.79753,0 -35.406,0 -87.89671,-67.86436 z"
             id="path4237"
             inkscape:connector-curvature="0" />
          <path
             style="opacity:1;fill:#dc1a21;fill-opacity:1;stroke:none;stroke-width:20;stroke-linecap:square;stroke-linejoin:miter;stroke-miterlimit:4;stroke-dasharray:none;stroke-dashoffset:0;stroke-opacity:1"
             d="m 281.04198,517.2743 -95.32519,73.60725 -127.775056,0 0,21.59933 132.984306,0 90.11594,-69.57532 90.1159,69.57532 33.18681,0 99.79753,0 0,-21.59933 -127.77505,0 z"
             id="path4251"
             inkscape:connector-curvature="0" />
          <g
             transform="scale(1.0002072,0.99979285)"
             style="font-style:normal;font-variant:normal;font-weight:bold;font-stretch:normal;font-size:30.85067558px;line-height:125%;font-family:Quicksand;-inkscape-font-specification:'Quicksand, Bold';text-align:start;letter-spacing:0px;word-spacing:0px;writing-mode:lr-tb;text-anchor:start;fill:#034a90;fill-opacity:1;stroke:none;stroke-width:1px;stroke-linecap:butt;stroke-linejoin:miter;stroke-opacity:1"
             id="text3351">
            <path
               d="m 209.22918,742.38115 q -0.49361,0.49361 -1.20318,0.49361 -0.70957,0 -1.20318,-0.49361 -0.49361,-0.49362 -0.49361,-1.20318 l 0,-18.2019 q 0,-0.70957 0.49361,-1.20318 0.49361,-0.49361 1.20318,-0.49361 l 10.08817,0 q 0.67872,0 1.17233,0.52446 0.52446,0.49362 0.52446,1.20318 0,0.67872 -0.52446,1.20318 -0.49361,0.49361 -1.17233,0.49361 l -8.36053,0 0,5.64567 7.18821,0 q 0.67871,0 1.17232,0.52446 0.52446,0.49361 0.52446,1.20318 0,0.67871 -0.49361,1.20318 -0.49361,0.49361 -1.20317,0.49361 l -7.18821,0 0,7.40416 q 0,0.70956 -0.52446,1.20318 z"
               style=""
               id="path4396" />
            <path
               d="m 238.49152,734.76103 q 0,0.67871 -0.46276,1.11062 -0.43191,0.40106 -1.17232,0.40106 l -9.81052,0 q 0.27766,1.32658 1.04893,2.03615 0.98722,1.14147 2.86911,1.38828 1.91274,0.21595 3.30102,-0.77127 0.46276,-0.49361 1.23403,-0.49361 0.77127,0 1.07977,0.40106 0.86382,0.95637 0,2.00529 -2.22125,2.03615 -5.46057,2.03615 -3.20847,-0.0308 -5.39887,-2.28295 -2.15954,-2.2521 -2.19039,-5.42972 0.0308,-3.17762 2.19039,-5.42972 2.1904,-2.28295 5.27547,-2.28295 3.08507,0 5.18291,2.03614 2.1287,2.0053 2.3138,5.12121 l 0,0.15426 z m -7.43501,-4.3808 q -1.78934,0.0925 -2.86911,1.11063 -1.07978,1.01807 -1.29573,2.15954 l 8.73074,0 q -0.27766,-1.07977 -1.51168,-2.09784 -1.20318,-1.01807 -3.05422,-1.17233 z"
               style=""
               id="path4398" />
            <path
               d="m 246.74022,729.30046 q 0.70957,-0.83297 1.9436,-1.32658 1.23402,-0.52446 2.2521,-0.49361 1.01807,0 1.48083,0.46276 0.49361,0.46276 0.49361,1.14147 0,0.64787 -0.49361,1.14148 -0.46276,0.49361 -1.14148,0.49361 -2.86911,0 -4.53505,4.65845 l 0,5.86163 q 0,0.67871 -0.49361,1.17233 -0.49361,0.46276 -1.20317,0.46276 -0.67872,0 -1.17233,-0.46276 -0.46276,-0.49362 -0.46276,-1.17233 l 0,-12.15517 q 0,-0.67871 0.46276,-1.14147 0.49361,-0.46276 1.17233,-0.46276 0.70956,0 1.20317,0.46276 0.49361,0.46276 0.49361,1.14147 l 0,0.21596 z"
               style=""
               id="path4400" />
            <path
               d="m 260.29765,729.30046 q 0.70957,-0.83297 1.94359,-1.32658 1.23403,-0.52446 2.2521,-0.49361 1.01807,0 1.48083,0.46276 0.49362,0.46276 0.49362,1.14147 0,0.64787 -0.49362,1.14148 -0.46276,0.49361 -1.14147,0.49361 -2.86911,0 -4.53505,4.65845 l 0,5.86163 q 0,0.67871 -0.49361,1.17233 -0.49361,0.46276 -1.20318,0.46276 -0.67871,0 -1.17232,-0.46276 -0.46276,-0.49362 -0.46276,-1.17233 l 0,-12.15517 q 0,-0.67871 0.46276,-1.14147 0.49361,-0.46276 1.17232,-0.46276 0.70957,0 1.20318,0.46276 0.49361,0.46276 0.49361,1.14147 l 0,0.21596 z"
               style=""
               id="path4402" />
            <path
               d="m 284.40601,734.76103 q 0,0.67871 -0.46276,1.11062 -0.43191,0.40106 -1.17233,0.40106 l -9.81051,0 q 0.27765,1.32658 1.04892,2.03615 0.98722,1.14147 2.86911,1.38828 1.91274,0.21595 3.30103,-0.77127 0.46276,-0.49361 1.23402,-0.49361 0.77127,0 1.07978,0.40106 0.86381,0.95637 0,2.00529 -2.22125,2.03615 -5.46057,2.03615 -3.20847,-0.0308 -5.39887,-2.28295 -2.15955,-2.2521 -2.1904,-5.42972 0.0309,-3.17762 2.1904,-5.42972 2.1904,-2.28295 5.27546,-2.28295 3.08507,0 5.18292,2.03614 2.12869,2.0053 2.3138,5.12121 l 0,0.15426 z m -7.43502,-4.3808 q -1.78933,0.0925 -2.86911,1.11063 -1.07977,1.01807 -1.29573,2.15954 l 8.73074,0 q -0.27765,-1.07977 -1.51168,-2.09784 -1.20317,-1.01807 -3.05422,-1.17233 z"
               style=""
               id="path4404" />
            <path
               d="m 294.5366,727.44942 q 0.70956,0 1.20317,0.49361 0.52446,0.49361 0.52446,1.20318 0,0.67871 -0.52446,1.20317 -0.49361,0.49361 -1.20317,0.49361 l -0.77127,0 0,8.60734 q 0.70957,0 1.20318,0.52446 0.49361,0.49361 0.49361,1.20318 0,0.70956 -0.49361,1.20318 -0.49361,0.49361 -1.20318,0.49361 -1.41913,0 -2.4372,-0.98723 -0.98722,-1.01807 -0.98722,-2.4372 l 0,-8.60734 -0.89467,0 q -0.70957,0 -1.20318,-0.49361 -0.49361,-0.49361 -0.49361,-1.20317 0,-0.70957 0.49361,-1.20318 0.49361,-0.49361 1.20318,-0.49361 l 0.89467,0 0,-4.47335 q 0,-0.70957 0.49361,-1.20318 0.52446,-0.49361 1.23402,-0.49361 0.70957,0 1.20318,0.49361 0.49361,0.49361 0.49361,1.20318 l 0,4.47335 0.77127,0 z"
               style=""
               id="path4406" />
            <path
               d="m 315.49771,734.76103 q 0,0.67871 -0.46276,1.11062 -0.43191,0.40106 -1.17233,0.40106 l -9.81052,0 q 0.27766,1.32658 1.04893,2.03615 0.98722,1.14147 2.86911,1.38828 1.91274,0.21595 3.30102,-0.77127 0.46276,-0.49361 1.23403,-0.49361 0.77127,0 1.07977,0.40106 0.86382,0.95637 0,2.00529 -2.22125,2.03615 -5.46057,2.03615 -3.20847,-0.0308 -5.39886,-2.28295 -2.15955,-2.2521 -2.1904,-5.42972 0.0309,-3.17762 2.1904,-5.42972 2.19039,-2.28295 5.27546,-2.28295 3.08507,0 5.18291,2.03614 2.1287,2.0053 2.31381,5.12121 l 0,0.15426 z m -7.43502,-4.3808 q -1.78934,0.0925 -2.86911,1.11063 -1.07977,1.01807 -1.29573,2.15954 l 8.73074,0 q -0.27765,-1.07977 -1.51168,-2.09784 -1.20318,-1.01807 -3.05422,-1.17233 z"
               style=""
               id="path4408" />
            <path
               d="m 323.7464,729.30046 q 0.70957,-0.83297 1.9436,-1.32658 1.23402,-0.52446 2.2521,-0.49361 1.01807,0 1.48083,0.46276 0.49361,0.46276 0.49361,1.14147 0,0.64787 -0.49361,1.14148 -0.46276,0.49361 -1.14148,0.49361 -2.86911,0 -4.53505,4.65845 l 0,5.86163 q 0,0.67871 -0.49361,1.17233 -0.49361,0.46276 -1.20317,0.46276 -0.67872,0 -1.17233,-0.46276 -0.46276,-0.49362 -0.46276,-1.17233 l 0,-12.15517 q 0,-0.67871 0.46276,-1.14147 0.49361,-0.46276 1.17233,-0.46276 0.70956,0 1.20317,0.46276 0.49361,0.46276 0.49361,1.14147 l 0,0.21596 z"
               style=""
               id="path4410" />
            <path
               d="m 334.46557,727.97388 q 0.49361,-0.49361 1.20317,-0.49361 0.70957,0 1.17233,0.49361 0.49361,0.46276 0.49361,1.20318 l 0,12.03176 q 0,0.70956 -0.49361,1.20318 -0.46276,0.46276 -1.17233,0.46276 -0.67871,0 -1.17232,-0.49361 -0.49361,-0.49362 -0.49361,-1.17233 l 0,-12.03176 q 0,-0.74042 0.46276,-1.20318 z m 2.86911,-5.02866 0,0.64786 q 0,0.70957 -0.49361,1.20318 -0.46276,0.49361 -1.17233,0.49361 -0.67871,0 -1.17232,-0.49361 -0.49361,-0.49361 -0.49361,-1.20318 l 0,-0.64786 q 0,-0.67872 0.49361,-1.17233 0.49361,-0.49361 1.17232,-0.49361 0.70957,0 1.17233,0.49361 0.49361,0.46276 0.49361,1.17233 z"
               style=""
               id="path4412" />
            <path
               d="m 348.29583,742.87476 q -3.11592,0 -5.24461,-2.2521 -2.09785,-2.2521 -2.09785,-5.42972 0,-3.20847 2.09785,-5.46057 2.12869,-2.28295 5.24461,-2.28295 2.1904,0 4.10314,1.35743 0.15426,-0.58617 0.58617,-0.95637 0.43191,-0.40106 1.04892,-0.40106 0.64786,0 1.11062,0.49361 0.49361,0.49361 0.49361,1.17232 l 0,12.12432 q 0,0.67871 -0.49361,1.17233 -0.46276,0.46276 -1.11062,0.46276 -0.61701,0 -1.04892,-0.37021 -0.43191,-0.37021 -0.58617,-0.95637 -1.88189,1.32658 -4.10314,1.32658 z m -4.04144,-7.68182 q 0,1.85104 1.11063,3.11592 1.14147,1.26487 2.89996,1.26487 1.78934,0 2.93082,-1.26487 1.17232,-1.26488 1.17232,-3.11592 0,-1.85104 -1.17232,-3.14677 -1.17233,-1.29573 -2.93082,-1.29573 -1.72764,0 -2.86911,1.29573 -1.14148,1.26488 -1.14148,3.14677 z"
               style=""
               id="path4414" />
          </g>
          <g
             style="font-style:normal;font-variant:normal;font-weight:bold;font-stretch:normal;font-size:50px;line-height:125%;font-family:serif;-inkscape-font-specification:'serif, Bold';text-align:start;letter-spacing:0px;word-spacing:0px;writing-mode:lr-tb;text-anchor:start;fill:#ffffff;fill-opacity:1;stroke:none;stroke-width:1px;stroke-linecap:butt;stroke-linejoin:miter;stroke-opacity:1"
             id="text3347">
            <path
               d="m 99.132797,649.48358 0.268555,11.03516 -1.000977,0 q -0.708007,-4.15039 -3.491211,-6.66504 -2.758789,-2.53906 -5.981445,-2.53906 -2.490234,0 -3.955078,1.34277 -1.44043,1.31836 -1.44043,3.05176 0,1.09863 0.512696,1.95312 0.708007,1.14746 2.270507,2.27051 1.147461,0.80566 5.297852,2.85645 5.810547,2.85644 7.836914,5.3955 2.00195,2.53907 2.00195,5.81055 0,4.15039 -3.247067,7.15332 -3.222656,2.97852 -8.203125,2.97852 -1.5625,0 -2.954102,-0.31739 -1.391601,-0.31738 -3.491211,-1.19629 -1.171875,-0.48828 -1.928711,-0.48828 -0.634765,0 -1.342773,0.48828 -0.708008,0.48829 -1.147461,1.48926 l -0.90332,0 0,-12.5 0.90332,0 q 1.074219,5.27344 4.125977,8.05664 3.076171,2.75879 6.616211,2.75879 2.734375,0 4.345703,-1.48926 1.635742,-1.48925 1.635742,-3.46679 0,-1.17188 -0.634766,-2.27051 -0.610351,-1.09863 -1.879883,-2.0752 -1.269531,-1.00097 -4.492187,-2.58789 -4.516602,-2.22168 -6.494141,-3.78418 -1.977539,-1.5625 -3.051758,-3.49121 -1.049804,-1.92871 -1.049804,-4.24804 0,-3.95508 2.905273,-6.73829 2.905274,-2.7832 7.324219,-2.7832 1.611328,0 3.125,0.39063 1.147461,0.29297 2.783203,1.09863 1.660156,0.78125 2.319336,0.78125 0.634766,0 1.000977,-0.39063 0.366211,-0.39062 0.683593,-1.87988 l 0.732422,0 z"
               style=""
               id="path4417" />
            <path
               d="m 124.27928,673.92206 -11.69433,0 -1.39161,3.22265 q -0.68359,1.61133 -0.68359,2.66114 0,1.3916 1.12305,2.05078 0.65918,0.39062 3.24707,0.58594 l 0,0.90332 -11.01074,0 0,-0.90332 q 1.78222,-0.26856 2.92968,-1.46485 1.14746,-1.2207 2.83203,-5.00488 l 11.84082,-26.41602 0.46387,0 11.93848,27.14844 q 1.70898,3.85742 2.80762,4.8584 0.83007,0.75684 2.34375,0.87891 l 0,0.90332 -16.01563,0 0,-0.90332 0.65918,0 q 1.92871,0 2.70996,-0.53711 0.53711,-0.39063 0.53711,-1.12305 0,-0.43945 -0.14648,-0.90332 -0.0488,-0.21973 -0.73243,-1.83106 l -1.75781,-4.12597 z m -0.83008,-1.80664 -4.93164,-11.40137 -5.07812,11.40137 10.00976,0 z"
               style=""
               id="path4419" />
            <path
               d="m 152.06248,650.24042 16.33301,20.53222 0,-14.23339 q 0,-2.97852 -0.85449,-4.02832 -1.17187,-1.41602 -3.93066,-1.36719 l 0,-0.90332 10.9375,0 0,0.90332 q -2.09961,0.26855 -2.83203,0.70801 -0.70801,0.41503 -1.12305,1.3916 -0.39063,0.95215 -0.39063,3.2959 l 0,27.56347 -0.83007,0 -22.3877,-27.56347 0,21.04492 q 0,2.85644 1.29395,3.85742 1.31835,1.00098 3.00292,1.00098 l 0.78125,0 0,0.90332 -11.74316,0 0,-0.90332 q 2.73438,-0.0244 3.80859,-1.12305 1.07422,-1.09863 1.07422,-3.73535 l 0,-23.36426 -0.708,-0.87891 q -1.04981,-1.31836 -1.85547,-1.7334 -0.80567,-0.41503 -2.31934,-0.46386 l 0,-0.90332 11.74316,0 z"
               style=""
               id="path4421" />
            <path
               d="m 201.98924,652.14471 0,13.59864 0.95215,0 q 2.19727,0 3.58887,-0.65918 1.3916,-0.65918 2.34375,-2.22168 0.97656,-1.5625 1.26953,-4.22364 l 0.85449,0 0,16.62598 -0.85449,0 q -0.46387,-4.71191 -2.53906,-6.20117 -2.05078,-1.51367 -4.66309,-1.51367 l -0.95215,0 0,10.13183 q 0,2.53907 0.26856,3.17383 0.29297,0.63477 1.09863,1.12305 0.83008,0.46387 2.22168,0.46387 l 1.09863,0 0,0.90332 -17.30957,0 0,-0.90332 1.09864,0 q 1.44042,0 2.31933,-0.5127 0.63477,-0.3418 0.97656,-1.17187 0.26856,-0.58594 0.26856,-3.07618 l 0,-21.77734 q 0,-2.53906 -0.26856,-3.17383 -0.26855,-0.63476 -1.09863,-1.09863 -0.80566,-0.48828 -2.19726,-0.48828 l -1.09864,0 0,-0.90332 27.92969,0 0,9.49707 -1.00098,0 q -0.34179,-3.34473 -1.75781,-4.95606 -1.3916,-1.61133 -4.05273,-2.2705 -1.46485,-0.36622 -5.41993,-0.36622 l -3.07617,0 z"
               style=""
               id="path4423" />
            <path
               d="m 232.09178,668.258 0,9.27734 q 0,2.68555 0.31738,3.39355 0.3418,0.6836 1.17188,1.09864 0.83008,0.41504 3.10059,0.41504 l 0,0.90332 -16.94336,0 0,-0.90332 q 2.29492,0 3.10058,-0.41504 0.83008,-0.43946 1.14746,-1.12305 0.3418,-0.68359 0.3418,-3.36914 l 0,-21.48438 q 0,-2.68554 -0.3418,-3.36914 -0.31738,-0.708 -1.14746,-1.12304 -0.83008,-0.41504 -3.10058,-0.41504 l 0,-0.90332 15.38086,0 q 6.00585,0 8.78906,0.83008 2.7832,0.83007 4.54101,3.07617 1.75782,2.22168 1.75782,5.22461 0,3.66211 -2.63672,6.05468 -1.68457,1.51368 -4.71192,2.27051 l 7.95899,11.20606 q 1.5625,2.17285 2.22168,2.70996 1.00097,0.75683 2.31933,0.83008 l 0,0.90332 -10.4248,0 -10.66895,-15.08789 -2.17285,0 z m 0,-16.23536 0,14.50196 1.3916,0 q 3.39356,0 5.07813,-0.61035 1.68457,-0.63477 2.63672,-2.2461 0.97656,-1.63574 0.97656,-4.24805 0,-3.78417 -1.78223,-5.59082 -1.75781,-1.80664 -5.68847,-1.80664 l -2.61231,0 z"
               style=""
               id="path4425" />
            <path
               d="m 275.74413,673.92206 -11.69434,0 -1.3916,3.22265 q -0.6836,1.61133 -0.6836,2.66114 0,1.3916 1.12305,2.05078 0.65918,0.39062 3.24707,0.58594 l 0,0.90332 -11.01074,0 0,-0.90332 q 1.78223,-0.26856 2.92969,-1.46485 1.14746,-1.2207 2.83203,-5.00488 l 11.84082,-26.41602 0.46387,0 11.93847,27.14844 q 1.70899,3.85742 2.80762,4.8584 0.83008,0.75684 2.34375,0.87891 l 0,0.90332 -16.01563,0 0,-0.90332 0.65918,0 q 1.92871,0 2.70996,-0.53711 0.53711,-0.39063 0.53711,-1.12305 0,-0.43945 -0.14648,-0.90332 -0.0488,-0.21973 -0.73242,-1.83106 l -1.75781,-4.12597 z m -0.83008,-1.80664 -4.93164,-11.40137 -5.07813,11.40137 10.00977,0 z"
               style=""
               id="path4427" />
            <path
               d="m 303.52733,650.24042 16.33301,20.53222 0,-14.23339 q 0,-2.97852 -0.8545,-4.02832 -1.17187,-1.41602 -3.93066,-1.36719 l 0,-0.90332 10.9375,0 0,0.90332 q -2.09961,0.26855 -2.83203,0.70801 -0.70801,0.41503 -1.12305,1.3916 -0.39062,0.95215 -0.39062,3.2959 l 0,27.56347 -0.83008,0 -22.3877,-27.56347 0,21.04492 q 0,2.85644 1.29395,3.85742 1.31836,1.00098 3.00293,1.00098 l 0.78125,0 0,0.90332 -11.74317,0 0,-0.90332 q 2.73438,-0.0244 3.8086,-1.12305 1.07422,-1.09863 1.07422,-3.73535 l 0,-23.36426 -0.70801,-0.87891 q -1.04981,-1.31836 -1.85547,-1.7334 -0.80566,-0.41503 -2.31934,-0.46386 l 0,-0.90332 11.74317,0 z"
               style=""
               id="path4429" />
            <path
               d="m 360.58299,649.48358 0,11.47461 -0.95215,0 q -1.07421,-4.49219 -4.0039,-6.88476 -2.92969,-2.39258 -6.64063,-2.39258 -3.10058,0 -5.68847,1.78222 -2.58789,1.78223 -3.78418,4.66309 -1.53809,3.68652 -1.53809,8.20312 0,4.44336 1.12305,8.10547 1.12304,3.6377 3.51562,5.51758 2.39258,1.85547 6.20117,1.85547 3.125,0 5.7129,-1.36719 2.6123,-1.36718 5.49316,-4.71191 l 0,2.85644 q -2.7832,2.90528 -5.81055,4.22364 -3.00293,1.29394 -7.03125,1.29394 -5.29785,0 -9.42383,-2.12402 -4.10156,-2.12402 -6.34765,-6.10352 -2.22168,-3.97949 -2.22168,-8.47168 0,-4.73632 2.46582,-8.98437 2.49023,-4.24805 6.68945,-6.5918 4.22363,-2.34375 8.95996,-2.34375 3.49121,0 7.37305,1.51367 2.24609,0.87891 2.85644,0.87891 0.78125,0 1.34278,-0.56152 0.58594,-0.58594 0.75683,-1.83106 l 0.95215,0 z"
               style=""
               id="path4431" />
            <path
               d="m 381.65233,682.44257 0,0.90332 -17.30957,0 0,-0.90332 1.09863,0 q 1.44043,0 2.31934,-0.5127 0.63476,-0.3418 0.97656,-1.17187 0.26855,-0.58594 0.26855,-3.07618 l 0,-21.77734 q 0,-2.53906 -0.26855,-3.17383 -0.26856,-0.63476 -1.09863,-1.09863 -0.80567,-0.48828 -2.19727,-0.48828 l -1.09863,0 0,-0.90332 17.30957,0 0,0.90332 -1.09863,0 q -1.44043,0 -2.31934,0.51269 -0.63477,0.3418 -1.00098,1.17188 -0.26855,0.58594 -0.26855,3.07617 l 0,21.77734 q 0,2.53907 0.26855,3.17383 0.29297,0.63477 1.09864,1.12305 0.83007,0.46387 2.22168,0.46387 l 1.09863,0 z"
               style=""
               id="path4433" />
            <path
               d="m 406.2617,649.48358 0.26856,11.03516 -1.00098,0 q -0.70801,-4.15039 -3.49121,-6.66504 -2.75879,-2.53906 -5.98144,-2.53906 -2.49024,0 -3.95508,1.34277 -1.44043,1.31836 -1.44043,3.05176 0,1.09863 0.51269,1.95312 0.70801,1.14746 2.27051,2.27051 1.14746,0.80566 5.29785,2.85645 5.81055,2.85644 7.83692,5.3955 2.00195,2.53907 2.00195,5.81055 0,4.15039 -3.24707,7.15332 -3.22266,2.97852 -8.20313,2.97852 -1.5625,0 -2.9541,-0.31739 -1.3916,-0.31738 -3.49121,-1.19629 -1.17187,-0.48828 -1.92871,-0.48828 -0.63476,0 -1.34277,0.48828 -0.70801,0.48829 -1.14746,1.48926 l -0.90332,0 0,-12.5 0.90332,0 q 1.07422,5.27344 4.12597,8.05664 3.07617,2.75879 6.61621,2.75879 2.73438,0 4.34571,-1.48926 1.63574,-1.48925 1.63574,-3.46679 0,-1.17188 -0.63477,-2.27051 -0.61035,-1.09863 -1.87988,-2.0752 -1.26953,-1.00097 -4.49219,-2.58789 -4.5166,-2.22168 -6.49414,-3.78418 -1.97754,-1.5625 -3.05176,-3.49121 -1.0498,-1.92871 -1.0498,-4.24804 0,-3.95508 2.90527,-6.73829 2.90528,-2.7832 7.32422,-2.7832 1.61133,0 3.125,0.39063 1.14746,0.29297 2.78321,1.09863 1.66015,0.78125 2.31933,0.78125 0.63477,0 1.00098,-0.39063 0.36621,-0.39062 0.68359,-1.87988 l 0.73242,0 z"
               style=""
               id="path4435" />
            <path
               d="m 443.98143,649.48358 0,11.47461 -0.95215,0 q -1.07422,-4.49219 -4.0039,-6.88476 -2.92969,-2.39258 -6.64063,-2.39258 -3.10059,0 -5.68848,1.78222 -2.58789,1.78223 -3.78418,4.66309 -1.53808,3.68652 -1.53808,8.20312 0,4.44336 1.12305,8.10547 1.12304,3.6377 3.51562,5.51758 2.39258,1.85547 6.20117,1.85547 3.125,0 5.71289,-1.36719 2.61231,-1.36718 5.49317,-4.71191 l 0,2.85644 q -2.78321,2.90528 -5.81055,4.22364 -3.00293,1.29394 -7.03125,1.29394 -5.29785,0 -9.42383,-2.12402 -4.10156,-2.12402 -6.34765,-6.10352 -2.22168,-3.97949 -2.22168,-8.47168 0,-4.73632 2.46582,-8.98437 2.49023,-4.24805 6.68945,-6.5918 4.22363,-2.34375 8.95996,-2.34375 3.49121,0 7.37305,1.51367 2.24609,0.87891 2.85644,0.87891 0.78125,0 1.34278,-0.56152 0.58593,-0.58594 0.75683,-1.83106 l 0.95215,0 z"
               style=""
               id="path4437" />
            <path
               d="m 466.05174,649.77655 q 7.91016,-0.29297 12.8418,4.61426 4.95605,4.90722 4.95605,12.28027 0,6.29883 -3.68652,11.08399 -4.88281,6.34765 -13.79394,6.34765 -8.93555,0 -13.81836,-6.05469 -3.85743,-4.78515 -3.85743,-11.35253 0,-7.37305 5.00489,-12.28028 5.02929,-4.93164 12.35351,-4.63867 z m 0.29297,1.5625 q -4.54101,0 -6.90918,4.63867 -1.92871,3.8086 -1.92871,10.9375 0,8.47168 2.97852,12.52442 2.07519,2.83203 5.81054,2.83203 2.51465,0 4.19922,-1.22071 2.14844,-1.5625 3.34473,-4.98046 1.19629,-3.44239 1.19629,-8.95997 0,-6.56738 -1.22071,-9.81445 -1.2207,-3.27148 -3.125,-4.61426 -1.87988,-1.34277 -4.3457,-1.34277 z"
               style=""
               id="path4439" />
          </g>
        </g>
        <g
           transform="translate(5.4675105e-6,0)"
           id="g4358">
          <g
             transform="matrix(0.16744926,0,0,0.16744926,-19.057356,617.22825)"
             id="g4325">
            <path
               style="opacity:1;fill:#e22211;fill-opacity:1;stroke:none;stroke-width:3;stroke-linecap:square;stroke-linejoin:miter;stroke-miterlimit:4;stroke-dasharray:none;stroke-dashoffset:0;stroke-opacity:1"
               d="m -711.28076,461.5491 463.29434,0 0,121.25 -463.29434,0 z"
               id="rect4302" />
            <g
               id="g4320"
               transform="translate(-33.064587,-263.86935)">
              <path
                 id="path4316"
                 d="m -519.52908,808.30356 c 1.46026,-11 2.86765,-21.01177 3.12753,-22.24838 0.2599,-1.23661 4.40716,7.90401 9.21614,20.3125 l 8.74361,22.56088 12.69388,0 12.69387,0 4.28938,-10.3125 c 2.35915,-5.67187 6.48967,-15.90254 9.17894,-22.73482 l 4.88957,-12.42232 0.82156,4.92232 c 0.45185,2.70728 1.83334,12.93795 3.06997,22.73482 l 2.2484,17.8125 21.08535,0 c 19.50457,0 21.03483,-0.164 20.41168,-2.1875 -0.91106,-2.95844 -19.49481,-81.29134 -19.49481,-82.17316 0,-0.38411 -9.68735,-0.54447 -21.52746,-0.35636 l -21.52745,0.34202 -7.58245,20.25574 c -4.17035,11.14066 -7.89058,20.56386 -8.26718,20.94046 -0.3766,0.3766 -4.06142,-8.73848 -8.18851,-20.25574 l -7.5038,-20.94046 -22.38907,-0.32618 -22.38908,-0.32618 -8.55212,39.07618 c -4.70367,21.4919 -8.85003,40.63697 -9.21413,42.54459 l -0.66201,3.46841 21.08659,-0.34341 21.08659,-0.34341 2.65501,-20 z"
                 style="fill:#ffffff"
                 inkscape:connector-curvature="0" />
              <path
                 id="path4314"
                 d="m -352.80401,800.80356 0,-28.125 11.25,0 11.25,0 0,-14.375 0,-14.375 -44.375,0 -44.375,0 0,14.375 0,14.375 11.25,0 11.25,0 0,28.125 0,28.125 21.875,0 21.875,0 0,-28.125 z"
                 style="fill:#ffffff"
                 inkscape:connector-curvature="0" />
              <path
                 id="path4286"
                 d="m -260.94727,825.32377 c 15.22406,-5.52053 23.62404,-14.89998 23.62404,-26.37872 0,-13.31329 -11.11841,-21.2176 -34.82967,-24.76116 -12.15232,-1.81611 -13.2317,-2.19751 -12.89431,-4.55618 0.32331,-2.26032 1.38353,-2.61891 8.69613,-2.94126 6.52903,-0.28782 9.94047,0.28811 15.79311,2.66625 l 7.46518,3.03338 5.7694,-10.94229 c 3.17316,-6.01826 5.76938,-11.28001 5.76938,-11.69278 0,-0.41277 -4.07812,-2.02016 -9.0625,-3.57198 -13.13119,-4.08823 -38.87272,-4.11418 -51.79191,-0.0522 -16.0924,5.05966 -25.33416,14.90389 -25.37503,27.02922 -0.0471,13.9924 10.64634,21.23257 36.069,24.421 10.61673,1.33151 12.99262,2.80544 9.74898,6.04797 -1.66373,1.66315 -4.16479,2.15517 -10.57143,2.07967 -7.78705,-0.0918 -11.9132,-1.28859 -26.15571,-7.58672 -1.62233,-0.7174 -13.95461,22.63408 -12.64503,23.94367 0.4024,0.40239 6.84645,2.09381 14.32013,3.75871 18.05306,4.02166 44.25006,3.78966 56.07024,-0.49655 z"
                 style="fill:#ffffff"
                 inkscape:connector-curvature="0" />
            </g>
          </g>
          <g
             transform="scale(0.92636203,1.0794916)"
             style="font-style:normal;font-variant:normal;font-weight:normal;font-stretch:normal;font-size:21.62281418px;line-height:125%;font-family:serif;-inkscape-font-specification:'serif, Normal';text-align:start;letter-spacing:0px;word-spacing:0px;writing-mode:lr-tb;text-anchor:start;fill:#000000;fill-opacity:1;stroke:none;stroke-width:1px;stroke-linecap:butt;stroke-linejoin:miter;stroke-opacity:1"
             id="text4344">
            <path
               d="m -324.86411,661.88422 -5.5324,-12.0467 0,9.56556 q 0,1.31975 0.28506,1.64705 0.39065,0.44344 1.23529,0.44344 l 0.50678,0 0,0.39065 -4.98338,0 0,-0.39065 0.50679,0 q 0.90799,0 1.28807,-0.54902 0.23228,-0.33785 0.23228,-1.54147 l 0,-9.3544 q 0,-0.95022 -0.21116,-1.37254 -0.14781,-0.30618 -0.54902,-0.50678 -0.39064,-0.21117 -1.26696,-0.21117 l 0,-0.39064 4.05428,0 5.19454,11.20205 5.11008,-11.20205 4.05428,0 0,0.39064 -0.49623,0 q -0.91854,0 -1.29863,0.54902 -0.23228,0.33786 -0.23228,1.54147 l 0,9.3544 q 0,1.31975 0.29562,1.64705 0.39065,0.44344 1.23529,0.44344 l 0.49623,0 0,0.39065 -6.08142,0 0,-0.39065 0.50679,0 q 0.91854,0 1.28808,-0.54902 0.23227,-0.33785 0.23227,-1.54147 l 0,-9.56556 -5.52184,12.0467 -0.34841,0 z"
               style=""
               id="path4443" />
            <path
               d="m -308.34082,660.49056 q -1.48868,1.15082 -1.86877,1.33031 -0.57013,0.26395 -1.21417,0.26395 -1.00301,0 -1.65761,-0.68627 -0.64404,-0.68627 -0.64404,-1.80542 0,-0.70739 0.31674,-1.22473 0.43288,-0.71795 1.49924,-1.35143 1.07692,-0.63348 3.56861,-1.54147 l 0,-0.38009 q 0,-1.44645 -0.46455,-1.9849 -0.454,-0.53846 -1.33031,-0.53846 -0.66516,0 -1.0558,0.35897 -0.40121,0.35897 -0.40121,0.82352 l 0.0211,0.61237 q 0,0.48567 -0.2534,0.74962 -0.24283,0.26395 -0.64403,0.26395 -0.39065,0 -0.64404,-0.27451 -0.24284,-0.27451 -0.24284,-0.74962 0,-0.90799 0.92911,-1.66816 0.9291,-0.76018 2.60783,-0.76018 1.28807,0 2.1116,0.43288 0.62292,0.3273 0.91855,1.02412 0.19004,0.454 0.19004,1.85822 l 0,3.28354 q 0,1.3831 0.0528,1.69984 0.0528,0.30618 0.16893,0.41176 0.1267,0.10558 0.28507,0.10558 0.16892,0 0.29562,-0.0739 0.22172,-0.13725 0.8552,-0.77073 l 0,0.59125 q -1.1825,1.5837 -2.25942,1.5837 -0.51734,0 -0.82352,-0.35897 -0.30618,-0.35897 -0.31674,-1.22473 z m 0,-0.68627 0,-3.68475 q -1.59426,0.63348 -2.05881,0.89743 -0.83409,0.46455 -1.19306,0.97134 -0.35897,0.50678 -0.35897,1.10859 0,0.76018 0.45399,1.26696 0.454,0.49623 1.04525,0.49623 0.80241,0 2.1116,-1.0558 z m 1.04524,-12.59571 -3.11461,3.64251 -0.35897,0 1.10859,-3.64251 2.36499,0 z"
               style=""
               id="path4445" />
            <path
               d="m -297.98341,651.92801 0,3.2941 -0.34841,0 q -0.40121,-1.55203 -1.03469,-2.1116 -0.62292,-0.55958 -1.59426,-0.55958 -0.73906,0 -1.19305,0.39065 -0.454,0.39064 -0.454,0.86576 0,0.59124 0.33786,1.01356 0.3273,0.43288 1.33031,0.91855 l 1.54147,0.74962 q 2.14327,1.04524 2.14327,2.75564 0,1.31975 -1.00301,2.13272 -0.99245,0.80241 -2.22774,0.80241 -0.88687,0 -2.02714,-0.31674 -0.34841,-0.10558 -0.57013,-0.10558 -0.24283,0 -0.38009,0.27451 l -0.34841,0 0,-3.45247 0.34841,0 q 0.29563,1.47812 1.12971,2.22774 0.83408,0.74962 1.86877,0.74962 0.7285,0 1.1825,-0.42232 0.46455,-0.43288 0.46455,-1.03469 0,-0.7285 -0.51734,-1.22473 -0.50679,-0.49622 -2.0377,-1.2564 -1.53091,-0.76018 -2.00602,-1.37254 -0.47511,-0.60181 -0.47511,-1.52036 0,-1.19305 0.81296,-1.99546 0.82353,-0.80241 2.12216,-0.80241 0.57014,0 1.3831,0.24283 0.53846,0.15837 0.71795,0.15837 0.16893,0 0.26395,-0.0739 0.095,-0.0739 0.22172,-0.3273 l 0.34841,0 z"
               style=""
               id="path4447" />
            <path
               d="m -282.20973,658.21003 q -0.39065,1.911 -1.53092,2.94568 -1.14026,1.02413 -2.52336,1.02413 -1.64705,0 -2.87178,-1.3831 -1.22473,-1.3831 -1.22473,-3.73754 0,-2.28053 1.35142,-3.70586 1.36199,-1.42533 3.26243,-1.42533 1.42533,0 2.34388,0.76018 0.91855,0.74961 0.91855,1.56258 0,0.40121 -0.26395,0.6546 -0.2534,0.24283 -0.71795,0.24283 -0.62292,0 -0.93966,-0.4012 -0.17949,-0.22172 -0.24284,-0.84464 -0.0528,-0.62293 -0.42232,-0.95022 -0.36953,-0.31674 -1.02412,-0.31674 -1.05581,0 -1.69984,0.78129 -0.8552,1.03468 -0.8552,2.73452 0,1.73152 0.84464,3.06183 0.8552,1.31975 2.30165,1.31975 1.03468,0 1.85821,-0.70739 0.58069,-0.48567 1.1297,-1.76319 l 0.30619,0.14782 z"
               style=""
               id="path4449" />
            <path
               d="m -279.21126,655.85559 q -0.0106,2.15383 1.04525,3.37856 1.0558,1.22473 2.48113,1.22473 0.95022,0 1.64705,-0.51734 0.70739,-0.5279 1.1825,-1.79486 l 0.3273,0.21116 q -0.22172,1.44645 -1.28808,2.6395 -1.06636,1.1825 -2.67118,1.1825 -1.74207,0 -2.98792,-1.35143 -1.23529,-1.36198 -1.23529,-3.65307 0,-2.48113 1.26697,-3.86423 1.27752,-1.39366 3.19907,-1.39366 1.62594,0 2.67118,1.07692 1.04525,1.06636 1.04525,2.86122 l -6.68323,0 z m 0,-0.61236 4.4766,0 q -0.0528,-0.92911 -0.22172,-1.3092 -0.26395,-0.59125 -0.79185,-0.9291 -0.51734,-0.33786 -1.08747,-0.33786 -0.87632,0 -1.57315,0.68627 -0.68627,0.67571 -0.80241,1.88989 z"
               style=""
               id="path4451" />
            <path
               d="m -268.42097,651.92801 0,2.17495 q 1.21418,-2.17495 2.49169,-2.17495 0.5807,0 0.96078,0.35897 0.38009,0.34842 0.38009,0.81297 0,0.41176 -0.27451,0.69683 -0.2745,0.28506 -0.65459,0.28506 -0.36953,0 -0.83409,-0.35897 -0.45399,-0.36953 -0.67571,-0.36953 -0.19004,0 -0.41176,0.21116 -0.47511,0.43288 -0.9819,1.42533 l 0,4.63497 q 0,0.80241 0.20061,1.21417 0.13725,0.28507 0.48566,0.47511 0.34842,0.19005 1.00302,0.19005 l 0,0.38009 -4.95171,0 0,-0.38009 q 0.73906,0 1.09803,-0.23228 0.26395,-0.16893 0.36953,-0.53846 0.0528,-0.17948 0.0528,-1.02412 l 0,-3.7481 q 0,-1.68928 -0.0739,-2.00602 -0.0633,-0.3273 -0.25339,-0.47511 -0.17948,-0.14782 -0.45399,-0.14782 -0.3273,0 -0.73906,0.15837 l -0.10558,-0.38008 2.92457,-1.1825 0.44343,0 z"
               style=""
               id="path4453" />
            <path
               d="m -255.8147,658.21003 q -0.39064,1.911 -1.53091,2.94568 -1.14026,1.02413 -2.52336,1.02413 -1.64705,0 -2.87178,-1.3831 -1.22473,-1.3831 -1.22473,-3.73754 0,-2.28053 1.35142,-3.70586 1.36199,-1.42533 3.26243,-1.42533 1.42533,0 2.34388,0.76018 0.91855,0.74961 0.91855,1.56258 0,0.40121 -0.26395,0.6546 -0.2534,0.24283 -0.71795,0.24283 -0.62292,0 -0.93966,-0.4012 -0.17949,-0.22172 -0.24284,-0.84464 -0.0528,-0.62293 -0.42232,-0.95022 -0.36953,-0.31674 -1.02413,-0.31674 -1.0558,0 -1.69984,0.78129 -0.85519,1.03468 -0.85519,2.73452 0,1.73152 0.84464,3.06183 0.8552,1.31975 2.30164,1.31975 1.03469,0 1.85821,-0.70739 0.5807,-0.48567 1.12971,-1.76319 l 0.30618,0.14782 z"
               style=""
               id="path4455" />
            <path
               d="m -248.96254,660.49056 q -1.48868,1.15082 -1.86877,1.33031 -0.57014,0.26395 -1.21417,0.26395 -1.00302,0 -1.65761,-0.68627 -0.64404,-0.68627 -0.64404,-1.80542 0,-0.70739 0.31674,-1.22473 0.43288,-0.71795 1.49924,-1.35143 1.07691,-0.63348 3.56861,-1.54147 l 0,-0.38009 q 0,-1.44645 -0.46456,-1.9849 -0.45399,-0.53846 -1.33031,-0.53846 -0.66515,0 -1.0558,0.35897 -0.4012,0.35897 -0.4012,0.82352 l 0.0211,0.61237 q 0,0.48567 -0.25339,0.74962 -0.24283,0.26395 -0.64404,0.26395 -0.39064,0 -0.64404,-0.27451 -0.24283,-0.27451 -0.24283,-0.74962 0,-0.90799 0.9291,-1.66816 0.92911,-0.76018 2.60783,-0.76018 1.28808,0 2.11161,0.43288 0.62292,0.3273 0.91854,1.02412 0.19005,0.454 0.19005,1.85822 l 0,3.28354 q 0,1.3831 0.0528,1.69984 0.0528,0.30618 0.16893,0.41176 0.12669,0.10558 0.28506,0.10558 0.16893,0 0.29563,-0.0739 0.22172,-0.13725 0.8552,-0.77073 l 0,0.59125 q -1.1825,1.5837 -2.25942,1.5837 -0.51734,0 -0.82352,-0.35897 -0.30619,-0.35897 -0.31674,-1.22473 z m 0,-0.68627 0,-3.68475 q -1.59426,0.63348 -2.05882,0.89743 -0.83408,0.46455 -1.19305,0.97134 -0.35897,0.50678 -0.35897,1.10859 0,0.76018 0.45399,1.26696 0.45399,0.49623 1.04524,0.49623 0.80241,0 2.11161,-1.0558 z"
               style=""
               id="path4457" />
            <path
               d="m -232.61874,660.79674 q -0.70739,0.73906 -1.3831,1.06636 -0.67571,0.31674 -1.45701,0.31674 -1.5837,0 -2.7662,-1.31975 -1.18249,-1.33031 -1.18249,-3.41024 0,-2.07993 1.30919,-3.80089 1.30919,-1.73151 3.36801,-1.73151 1.27752,0 2.1116,0.81297 l 0,-1.78431 q 0,-1.65761 -0.0845,-2.03769 -0.0739,-0.38009 -0.24284,-0.51735 -0.16893,-0.13725 -0.42232,-0.13725 -0.27451,0 -0.7285,0.16893 l -0.13726,-0.36953 2.88234,-1.1825 0.47511,0 0,11.18094 q 0,1.69984 0.0739,2.07993 0.0845,0.36953 0.25339,0.51734 0.17949,0.14781 0.41176,0.14781 0.28507,0 0.76018,-0.17949 l 0.11614,0.36954 -2.87178,1.19305 -0.48567,0 0,-1.3831 z m 0,-0.73906 0,-4.98338 q -0.0633,-0.71795 -0.38009,-1.3092 -0.31674,-0.59125 -0.84464,-0.88687 -0.51734,-0.30618 -1.01357,-0.30618 -0.9291,0 -1.65761,0.83408 -0.96078,1.09803 -0.96078,3.20964 0,2.13272 0.92911,3.27298 0.9291,1.12971 2.06937,1.12971 0.96078,0 1.85821,-0.96078 z"
               style=""
               id="path4459" />
            <path
               d="m -227.01243,655.85559 q -0.0106,2.15383 1.04524,3.37856 1.0558,1.22473 2.48113,1.22473 0.95023,0 1.64706,-0.51734 0.70738,-0.5279 1.18249,-1.79486 l 0.3273,0.21116 q -0.22172,1.44645 -1.28808,2.6395 -1.06636,1.1825 -2.67117,1.1825 -1.74208,0 -2.98792,-1.35143 -1.23529,-1.36198 -1.23529,-3.65307 0,-2.48113 1.26696,-3.86423 1.27752,-1.39366 3.19908,-1.39366 1.62593,0 2.67118,1.07692 1.04524,1.06636 1.04524,2.86122 l -6.68322,0 z m 0,-0.61236 4.4766,0 q -0.0528,-0.92911 -0.22172,-1.3092 -0.26395,-0.59125 -0.79185,-0.9291 -0.51735,-0.33786 -1.08748,-0.33786 -0.87631,0 -1.57314,0.68627 -0.68627,0.67571 -0.80241,1.88989 z"
               style=""
               id="path4461" />
            <path
               d="m -207.39564,651.92801 0,3.2941 -0.34842,0 q -0.4012,-1.55203 -1.03468,-2.1116 -0.62293,-0.55958 -1.59426,-0.55958 -0.73906,0 -1.19306,0.39065 -0.45399,0.39064 -0.45399,0.86576 0,0.59124 0.33785,1.01356 0.3273,0.43288 1.33031,0.91855 l 1.54147,0.74962 q 2.14328,1.04524 2.14328,2.75564 0,1.31975 -1.00301,2.13272 -0.99246,0.80241 -2.22774,0.80241 -0.88688,0 -2.02714,-0.31674 -0.34842,-0.10558 -0.57013,-0.10558 -0.24284,0 -0.38009,0.27451 l -0.34842,0 0,-3.45247 0.34842,0 q 0.29562,1.47812 1.1297,2.22774 0.83409,0.74962 1.86877,0.74962 0.72851,0 1.1825,-0.42232 0.46455,-0.43288 0.46455,-1.03469 0,-0.7285 -0.51734,-1.22473 -0.50678,-0.49622 -2.0377,-1.2564 -1.53091,-0.76018 -2.00602,-1.37254 -0.47511,-0.60181 -0.47511,-1.52036 0,-1.19305 0.81297,-1.99546 0.82352,-0.80241 2.12216,-0.80241 0.57013,0 1.3831,0.24283 0.53846,0.15837 0.71794,0.15837 0.16893,0 0.26395,-0.0739 0.095,-0.0739 0.22172,-0.3273 l 0.34842,0 z"
               style=""
               id="path4463" />
            <path
               d="m -196.76372,652.21307 0,5.8597 q 0,1.67873 0.0739,2.05882 0.0845,0.36953 0.25339,0.51734 0.17948,0.14781 0.41176,0.14781 0.3273,0 0.73906,-0.17949 l 0.14781,0.36954 -2.89289,1.19305 -0.47511,0 0,-2.04825 q -1.24585,1.35142 -1.90044,1.69984 -0.6546,0.34841 -1.3831,0.34841 -0.81297,0 -1.41478,-0.46455 -0.59125,-0.47511 -0.82352,-1.21417 -0.23228,-0.73906 -0.23228,-2.09049 l 0,-4.31823 q 0,-0.68627 -0.14781,-0.95022 -0.14781,-0.26395 -0.44344,-0.4012 -0.28507,-0.14782 -1.04524,-0.13726 l 0,-0.39065 3.38912,0 0,6.47207 q 0,1.35142 0.46455,1.77374 0.47511,0.42232 1.14027,0.42232 0.45399,0 1.02413,-0.28506 0.58069,-0.28507 1.37254,-1.08748 l 0,-5.47961 q 0,-0.82352 -0.30618,-1.10859 -0.29563,-0.29562 -1.24585,-0.31674 l 0,-0.39065 3.2941,0 z"
               style=""
               id="path4465" />
            <path
               d="m -180.81056,658.21003 q -0.39065,1.911 -1.53091,2.94568 -1.14027,1.02413 -2.52337,1.02413 -1.64705,0 -2.87178,-1.3831 -1.22473,-1.3831 -1.22473,-3.73754 0,-2.28053 1.35143,-3.70586 1.36198,-1.42533 3.26242,-1.42533 1.42534,0 2.34388,0.76018 0.91855,0.74961 0.91855,1.56258 0,0.40121 -0.26395,0.6546 -0.25339,0.24283 -0.71794,0.24283 -0.62293,0 -0.93967,-0.4012 -0.17948,-0.22172 -0.24283,-0.84464 -0.0528,-0.62293 -0.42232,-0.95022 -0.36953,-0.31674 -1.02413,-0.31674 -1.0558,0 -1.69984,0.78129 -0.8552,1.03468 -0.8552,2.73452 0,1.73152 0.84464,3.06183 0.8552,1.31975 2.30165,1.31975 1.03468,0 1.85821,-0.70739 0.58069,-0.48567 1.12971,-1.76319 l 0.30618,0.14782 z"
               style=""
               id="path4467" />
            <path
               d="m -173.9584,660.49056 q -1.48868,1.15082 -1.86877,1.33031 -0.57013,0.26395 -1.21417,0.26395 -1.00301,0 -1.65761,-0.68627 -0.64404,-0.68627 -0.64404,-1.80542 0,-0.70739 0.31674,-1.22473 0.43288,-0.71795 1.49924,-1.35143 1.07692,-0.63348 3.56861,-1.54147 l 0,-0.38009 q 0,-1.44645 -0.46455,-1.9849 -0.454,-0.53846 -1.33031,-0.53846 -0.66516,0 -1.05581,0.35897 -0.4012,0.35897 -0.4012,0.82352 l 0.0211,0.61237 q 0,0.48567 -0.2534,0.74962 -0.24283,0.26395 -0.64403,0.26395 -0.39065,0 -0.64404,-0.27451 -0.24284,-0.27451 -0.24284,-0.74962 0,-0.90799 0.92911,-1.66816 0.9291,-0.76018 2.60783,-0.76018 1.28807,0 2.1116,0.43288 0.62292,0.3273 0.91855,1.02412 0.19004,0.454 0.19004,1.85822 l 0,3.28354 q 0,1.3831 0.0528,1.69984 0.0528,0.30618 0.16893,0.41176 0.1267,0.10558 0.28507,0.10558 0.16892,0 0.29562,-0.0739 0.22172,-0.13725 0.8552,-0.77073 l 0,0.59125 q -1.1825,1.5837 -2.25942,1.5837 -0.51734,0 -0.82352,-0.35897 -0.30618,-0.35897 -0.31674,-1.22473 z m 0,-0.68627 0,-3.68475 q -1.59426,0.63348 -2.05881,0.89743 -0.83409,0.46455 -1.19306,0.97134 -0.35897,0.50678 -0.35897,1.10859 0,0.76018 0.45399,1.26696 0.454,0.49623 1.04525,0.49623 0.80241,0 2.1116,-1.0558 z"
               style=""
               id="path4469" />
            <path
               d="m -163.601,651.92801 0,3.2941 -0.34841,0 q -0.40121,-1.55203 -1.03469,-2.1116 -0.62292,-0.55958 -1.59426,-0.55958 -0.73906,0 -1.19305,0.39065 -0.454,0.39064 -0.454,0.86576 0,0.59124 0.33786,1.01356 0.3273,0.43288 1.33031,0.91855 l 1.54147,0.74962 q 2.14328,1.04524 2.14328,2.75564 0,1.31975 -1.00301,2.13272 -0.99246,0.80241 -2.22775,0.80241 -0.88687,0 -2.02713,-0.31674 -0.34842,-0.10558 -0.57014,-0.10558 -0.24283,0 -0.38009,0.27451 l -0.34841,0 0,-3.45247 0.34841,0 q 0.29563,1.47812 1.12971,2.22774 0.83408,0.74962 1.86877,0.74962 0.7285,0 1.1825,-0.42232 0.46455,-0.43288 0.46455,-1.03469 0,-0.7285 -0.51734,-1.22473 -0.50679,-0.49622 -2.0377,-1.2564 -1.53091,-0.76018 -2.00602,-1.37254 -0.47511,-0.60181 -0.47511,-1.52036 0,-1.19305 0.81296,-1.99546 0.82353,-0.80241 2.12217,-0.80241 0.57013,0 1.3831,0.24283 0.53845,0.15837 0.71794,0.15837 0.16893,0 0.26395,-0.0739 0.095,-0.0739 0.22172,-0.3273 l 0.34841,0 z"
               style=""
               id="path4471" />
            <path
               d="m -155.96756,660.49056 q -1.48868,1.15082 -1.86877,1.33031 -0.57013,0.26395 -1.21417,0.26395 -1.00301,0 -1.65761,-0.68627 -0.64403,-0.68627 -0.64403,-1.80542 0,-0.70739 0.31674,-1.22473 0.43288,-0.71795 1.49923,-1.35143 1.07692,-0.63348 3.56861,-1.54147 l 0,-0.38009 q 0,-1.44645 -0.46455,-1.9849 -0.45399,-0.53846 -1.33031,-0.53846 -0.66515,0 -1.0558,0.35897 -0.4012,0.35897 -0.4012,0.82352 l 0.0211,0.61237 q 0,0.48567 -0.25339,0.74962 -0.24284,0.26395 -0.64404,0.26395 -0.39065,0 -0.64404,-0.27451 -0.24283,-0.27451 -0.24283,-0.74962 0,-0.90799 0.9291,-1.66816 0.92911,-0.76018 2.60783,-0.76018 1.28808,0 2.1116,0.43288 0.62293,0.3273 0.91855,1.02412 0.19005,0.454 0.19005,1.85822 l 0,3.28354 q 0,1.3831 0.0528,1.69984 0.0528,0.30618 0.16892,0.41176 0.1267,0.10558 0.28507,0.10558 0.16893,0 0.29563,-0.0739 0.22171,-0.13725 0.85519,-0.77073 l 0,0.59125 q -1.18249,1.5837 -2.25941,1.5837 -0.51734,0 -0.82353,-0.35897 -0.30618,-0.35897 -0.31674,-1.22473 z m 0,-0.68627 0,-3.68475 q -1.59426,0.63348 -2.05881,0.89743 -0.83408,0.46455 -1.19305,0.97134 -0.35898,0.50678 -0.35898,1.10859 0,0.76018 0.454,1.26696 0.45399,0.49623 1.04524,0.49623 0.80241,0 2.1116,-1.0558 z"
               style=""
               id="path4473" />
          </g>
        </g>
      </g>
    </g>
  </g>
</svg>
