<?xml version="1.0" encoding="UTF-8" standalone="no"?>
<!-- Created with Inkscape (http://www.inkscape.org/) -->

<svg
   xmlns:dc="http://purl.org/dc/elements/1.1/"
   xmlns:cc="http://creativecommons.org/ns#"
   xmlns:rdf="http://www.w3.org/1999/02/22-rdf-syntax-ns#"
   xmlns:svg="http://www.w3.org/2000/svg"
   xmlns="http://www.w3.org/2000/svg"
   xmlns:xlink="http://www.w3.org/1999/xlink"
   xmlns:sodipodi="http://sodipodi.sourceforge.net/DTD/sodipodi-0.dtd"
   xmlns:inkscape="http://www.inkscape.org/namespaces/inkscape"
   width="558.63037mm"
   height="558.63037mm"
   viewBox="0 0 1979.399 1979.3989"
   id="svg2"
   version="1.1"
   inkscape:version="0.91 r13725"
   sodipodi:docname="General Motors.svg">
  <defs
     id="defs4">
    <linearGradient
       inkscape:collect="always"
       id="linearGradient4401">
      <stop
         style="stop-color:#5e94ca;stop-opacity:1"
         offset="0"
         id="stop4403" />
      <stop
         style="stop-color:#1f4891;stop-opacity:1"
         offset="1"
         id="stop4405" />
    </linearGradient>
    <linearGradient
       inkscape:collect="always"
       id="linearGradient4391">
      <stop
         style="stop-color:#5e94ca;stop-opacity:1"
         offset="0"
         id="stop4393" />
      <stop
         style="stop-color:#000080;stop-opacity:1"
         offset="1"
         id="stop4395" />
    </linearGradient>
    <linearGradient
       inkscape:collect="always"
       id="linearGradient4383">
      <stop
         style="stop-color:#000080;stop-opacity:1"
         offset="0"
         id="stop4385" />
      <stop
         style="stop-color:#5e94ca;stop-opacity:1"
         offset="1"
         id="stop4387" />
    </linearGradient>
    <linearGradient
       inkscape:collect="always"
       id="linearGradient4375">
      <stop
         style="stop-color:#000080;stop-opacity:1;"
         offset="0"
         id="stop4377" />
      <stop
         style="stop-color:#5e94ca;stop-opacity:1"
         offset="1"
         id="stop4379" />
    </linearGradient>
    <linearGradient
       inkscape:collect="always"
       id="linearGradient4285">
      <stop
         style="stop-color:#1b3b91;stop-opacity:1;"
         offset="0"
         id="stop4287" />
      <stop
         style="stop-color:#5e94ca;stop-opacity:1"
         offset="1"
         id="stop4289" />
    </linearGradient>
    <linearGradient
       inkscape:collect="always"
       id="linearGradient4261">
      <stop
         style="stop-color:#4fa3d1;stop-opacity:1"
         offset="0"
         id="stop4263" />
      <stop
         style="stop-color:#ffffff;stop-opacity:1"
         offset="1"
         id="stop4265" />
    </linearGradient>
    <linearGradient
       inkscape:collect="always"
       id="linearGradient3453">
      <stop
         style="stop-color:#4fa3d1;stop-opacity:1"
         offset="0"
         id="stop3455" />
      <stop
         style="stop-color:#ffffff;stop-opacity:1"
         offset="1"
         id="stop3457" />
    </linearGradient>
    <linearGradient
       inkscape:collect="always"
       xlink:href="#linearGradient3453"
       id="linearGradient3459"
       x1="2421.2891"
       y1="162.51845"
       x2="2421.2891"
       y2="402.92645"
       gradientUnits="userSpaceOnUse" />
    <linearGradient
       inkscape:collect="always"
       xlink:href="#linearGradient4261"
       id="linearGradient4267"
       x1="2461.063"
       y1="1005.4059"
       x2="2461.063"
       y2="1166.2905"
       gradientUnits="userSpaceOnUse" />
    <linearGradient
       inkscape:collect="always"
       xlink:href="#linearGradient4285"
       id="linearGradient4291"
       x1="-231.69212"
       y1="-2729.0552"
       x2="973.28638"
       y2="-2729.0552"
       gradientUnits="userSpaceOnUse" />
    <linearGradient
       inkscape:collect="always"
       xlink:href="#linearGradient4375"
       id="linearGradient4381"
       x1="1739.3557"
       y1="169.69737"
       x2="3718.7546"
       y2="169.69737"
       gradientUnits="userSpaceOnUse" />
    <linearGradient
       inkscape:collect="always"
       xlink:href="#linearGradient4383"
       id="linearGradient4389"
       x1="2729.0552"
       y1="1652.0472"
       x2="2729.0552"
       y2="-316.70282"
       gradientUnits="userSpaceOnUse" />
    <linearGradient
       inkscape:collect="always"
       xlink:href="#linearGradient4391"
       id="linearGradient4397"
       x1="1739.3558"
       y1="1159.3969"
       x2="3718.7546"
       y2="1159.3969"
       gradientUnits="userSpaceOnUse" />
    <linearGradient
       inkscape:collect="always"
       xlink:href="#linearGradient4401"
       id="linearGradient4407"
       x1="3718.7546"
       y1="-310.45294"
       x2="3718.7546"
       y2="1658.2971"
       gradientUnits="userSpaceOnUse" />
  </defs>
  <sodipodi:namedview
     id="base"
     pagecolor="#ffffff"
     bordercolor="#666666"
     borderopacity="1.0"
     inkscape:pageopacity="0.0"
     inkscape:pageshadow="2"
     inkscape:zoom="0.16695809"
     inkscape:cx="1388.3232"
     inkscape:cy="552.72952"
     inkscape:document-units="px"
     inkscape:current-layer="layer1"
     showgrid="false"
     showguides="true"
     inkscape:guide-bbox="true"
     inkscape:window-width="1366"
     inkscape:window-height="715"
     inkscape:window-x="-8"
     inkscape:window-y="22"
     inkscape:window-maximized="1"
     fit-margin-top="0"
     fit-margin-left="0"
     fit-margin-right="0"
     fit-margin-bottom="0" />
  <metadata
     id="metadata7">
    <rdf:RDF>
      <cc:Work
         rdf:about="">
        <dc:format>image/svg+xml</dc:format>
        <dc:type
           rdf:resource="http://purl.org/dc/dcmitype/StillImage" />
        <dc:title></dc:title>
      </cc:Work>
    </rdf:RDF>
  </metadata>
  <g
     inkscape:label="Capa 1"
     inkscape:groupmode="layer"
     id="layer1"
     transform="translate(350.9893,1157.6966)">
    <g
       id="g4418"
       transform="translate(-2090.345,-832.5443)">
      <path
         style="opacity:1;fill:url(#linearGradient4407);fill-opacity:1;stroke:none;stroke-width:20;stroke-linecap:square;stroke-linejoin:miter;stroke-miterlimit:4;stroke-dasharray:none;stroke-dashoffset:0;stroke-opacity:1"
         d="m 3718.7547,-325.1524 0,1979.3989 -989.6995,-989.6994 z"
         id="path4325"
         inkscape:connector-curvature="0"
         sodipodi:nodetypes="cccc" />
      <path
         sodipodi:nodetypes="cccc"
         inkscape:connector-curvature="0"
         id="rect4312"
         d="m 1739.3557,-325.15237 1979.3989,0 -989.6994,989.69948 z"
         style="opacity:1;fill:url(#linearGradient4381);fill-opacity:1;stroke:none;stroke-width:20;stroke-linecap:square;stroke-linejoin:miter;stroke-miterlimit:4;stroke-dasharray:none;stroke-dashoffset:0;stroke-opacity:1" />
      <path
         style="opacity:1;fill:url(#linearGradient4389);fill-opacity:1;stroke:none;stroke-width:20;stroke-linecap:square;stroke-linejoin:miter;stroke-miterlimit:4;stroke-dasharray:none;stroke-dashoffset:0;stroke-opacity:1"
         d="m 1739.3557,1654.2466 0,-1979.3989 989.6995,989.6994 z"
         id="path4321"
         inkscape:connector-curvature="0"
         sodipodi:nodetypes="cccc" />
      <path
         sodipodi:nodetypes="cccc"
         inkscape:connector-curvature="0"
         id="path4323"
         d="m 3718.7547,1654.2466 -1979.3989,0 989.6994,-989.69951 z"
         style="opacity:1;fill:url(#linearGradient4397);fill-opacity:1;stroke:none;stroke-width:20;stroke-linecap:square;stroke-linejoin:miter;stroke-miterlimit:4;stroke-dasharray:none;stroke-dashoffset:0;stroke-opacity:1" />
      <rect
         transform="matrix(0,1,-1,0,0,0)"
         y="-3625.2944"
         x="-231.69212"
         height="1792.4785"
         width="1792.4785"
         id="rect3430"
         style="opacity:1;fill:url(#linearGradient4291);fill-opacity:1;stroke:none;stroke-width:20;stroke-linecap:square;stroke-linejoin:miter;stroke-miterlimit:4;stroke-dasharray:none;stroke-dashoffset:0;stroke-opacity:1" />
      <path
         inkscape:connector-curvature="0"
         id="rect3434"
         d="m 3625.2952,704.28711 c -178.9089,60.22407 -429.4035,72.52997 -764.8848,40.5918 -539.165,-51.32909 -781.1454,20.54067 -1027.5937,231.53711 l 0,584.37108 1792.4785,0 0,-856.49999 z"
         style="opacity:1;fill:#1c458e;fill-opacity:1;stroke:none;stroke-width:20;stroke-linecap:square;stroke-linejoin:miter;stroke-miterlimit:4;stroke-dasharray:none;stroke-dashoffset:0;stroke-opacity:1" />
      <path
         inkscape:connector-curvature="0"
         id="path3421"
         d="m 2418.4363,162.7697 c -9.8187,-0.0449 -18.8568,0.17887 -24.5059,0.72656 -15.0276,1.45697 -33.1433,5.08996 -45.5,9.125 -13.1428,4.29177 -31.7722,13.54969 -42.498,21.11914 -11.5096,8.12255 -27.2243,23.83649 -35.3536,35.35156 -2.9221,4.13907 -5.7715,8.77074 -8.5019,13.73438 l 0.7012,0 c -2.2246,3.90381 -4.3367,7.89551 -6.2032,11.83008 -8.7082,18.35722 -13.9568,35.51234 -18.2011,59.49805 -2.0311,11.47872 -2.1471,16.53264 -3.0567,131.93555 -0.5204,65.99999 -0.7755,167.24999 -0.5664,224.99999 l 0.3809,105 0.6621,4.54493 c 0.4513,0.95725 0.7327,3.04682 1.0898,7.17969 0.024,0.27976 0.055,0.55827 0.08,0.83789 l 0.8281,5.6836 c 7.1537,49.04267 21.045,81.00222 45.3418,104.32809 20.8548,20.02139 46.6359,31.0814 81.3008,34.875 13.7632,1.5062 35.7783,0.4491 48.9961,-2.3515 13.8823,-2.9421 26.4221,-7.2884 38.5,-13.3418 16.6255,-8.33271 34.0816,-21.2428 42.6699,-31.5586 l 4.8301,-5.8008 0,0.8594 0,18.5293 0,0.4316 0,18.959 54.1406,0.6875 c 29.7774,0.3785 54.2666,0.5635 54.42,0.4102 0.1533,-0.1534 0.4275,-90.72899 0.6093,-201.27739 l 0.3301,-200.9961 -88.6601,-0.25586 -88.6622,-0.25586 -0.414,6.25586 c -0.2276,3.44047 -0.3789,23.58086 -0.3379,44.75586 l 0.074,38.5 32.25,0.26367 32.25,0.26367 0,65.23633 c 0,38.45645 -0.4404,69.91783 -1.0703,76.64063 -3.5775,38.1946 -19.7366,63.26142 -46.1563,71.60742 -22.9809,7.2597 -49.5304,4.47366 -66.9531,-7.02734 -16.3448,-10.7891 -27.161,-31.87278 -31.0312,-60.48438 -1.0116,-7.4783 -1.2852,-53.0196 -1.2852,-214 0,-10.24431 0.01,-14.77426 0.01,-24.02344 l -0.5117,0.0352 0,-81.30664 c 0,-49.08764 0.1868,-75.19414 1.0664,-91.48438 0.2778,-10.95544 0.6904,-14.41131 1.3105,-17.7207 6.5149,-34.76348 22.7644,-53.00932 52.5899,-59.05273 11.7444,-2.37972 33.6556,-1.61083 43.5371,1.52734 23.2456,7.38236 38.1414,23.66795 44.3847,48.52539 3.437,13.68445 4.1153,23.76843 4.1153,61.22266 l 0,3.02344 0.4883,33.2539 56.0957,0 56.5859,0 -0.4453,-46.75 c -0.3419,-35.9773 -0.8082,-49.05432 -2.0254,-56.75 -4.29,-27.12131 -11.0834,-48.78301 -21.1797,-67.26367 l 0.5684,0 c -23.4126,-43.18945 -64.3603,-68.93094 -123.545,-77.85938 -8.6402,-1.30343 -27.1764,-2.12236 -43.541,-2.19726 l 0,0 z m 305.9961,14.82031 0,65.23633 1.0625,0 -0.502,67.00781 c -0.373,50.19054 -0.5447,207.80586 -0.373,350.25586 l 0.3125,259 55,0 55,0 0.5,-275.75586 0.2714,-149.49022 -0.2714,0.0195 0.1172,-62.38672 c 0.053,-28.21611 0.2076,-51.48006 0.373,-58.49609 l 0.01,-5.40039 31.8046,198.7539 c 17.4923,109.31517 37.3967,233.40586 44.2325,275.75586 6.7269,41.67482 12.1444,75.53232 12.3281,77.02152 l 0.1797,0.7578 c 0.6677,0.4053 21.8407,0.621 47.6758,0.4805 l 47.7207,-0.2598 12.1425,-73.00002 c 6.6793,-40.15 25.076,-150.85 40.8809,-246 15.805,-95.15 31.1125,-187.175 34.0176,-204.5 l 5.2832,-31.5 0,2.18164 0.031,-0.18164 0.1016,57.25 0.1016,57.25 -0.1856,0 0.068,161.25 0.057,133.74805 0.061,0 0,72 0,71.99997 55.5,0 54.1738,0 0.6269,-101.24802 c 0.3446,-55.6875 0.3441,-213.6375 0,-351 l -0.5683,-225.51367 1.2676,0 0,-65.23633 -82.9805,0 -82.9805,0 -0.5332,2.25 c -0.189,0.79735 -4.4531,28.14437 -9.8574,62.98633 l 0.6172,0 c -14.204,90.39542 -69.0415,444.36421 -72.4844,468.21094 -0.6312,4.3717 -1.2876,7.5217 -1.459,7 -0.1727,-0.5216 -10.6707,-69.57227 -23.33,-153.44727 -21.2385,-140.71343 -42.8181,-282.92827 -48.8106,-321.76367 l 0.5645,0 c -5.4469,-36.11236 -9.7461,-64.65541 -9.7461,-64.80273 0,-0.2388 -37.8,-0.4336 -84,-0.4336 l -84,0 z"
         style="opacity:1;fill:url(#linearGradient3459);fill-opacity:1" />
      <rect
         y="1005.5603"
         x="2234.6777"
         height="160.76976"
         width="988.755"
         id="rect3437"
         style="opacity:1;fill:url(#linearGradient4267);fill-opacity:1;stroke:none;stroke-width:20;stroke-linecap:square;stroke-linejoin:miter;stroke-miterlimit:4;stroke-dasharray:none;stroke-dashoffset:0;stroke-opacity:1" />
    </g>
    <g
       id="g4409">
      <rect
         y="-261.43225"
         x="-1278.536"
         height="168.22841"
         width="328.98001"
         id="rect3443"
         style="opacity:1;fill:#1b3b91;fill-opacity:1;stroke:none;stroke-width:20;stroke-linecap:square;stroke-linejoin:miter;stroke-miterlimit:4;stroke-dasharray:none;stroke-dashoffset:0;stroke-opacity:1" />
      <rect
         style="opacity:1;fill:#5e94ca;fill-opacity:1;stroke:none;stroke-width:20;stroke-linecap:square;stroke-linejoin:miter;stroke-miterlimit:4;stroke-dasharray:none;stroke-dashoffset:0;stroke-opacity:1"
         id="rect3445"
         width="328.98001"
         height="168.22841"
         x="-1278.536"
         y="-93.203751" />
      <rect
         y="75.024757"
         x="-1278.536"
         height="168.22841"
         width="328.98001"
         id="rect3447"
         style="opacity:1;fill:#ffffff;fill-opacity:1;stroke:none;stroke-width:20;stroke-linecap:square;stroke-linejoin:miter;stroke-miterlimit:4;stroke-dasharray:none;stroke-dashoffset:0;stroke-opacity:1" />
      <rect
         style="opacity:1;fill:#4fa3d1;fill-opacity:1;stroke:none;stroke-width:20;stroke-linecap:square;stroke-linejoin:miter;stroke-miterlimit:4;stroke-dasharray:none;stroke-dashoffset:0;stroke-opacity:1"
         id="rect3449"
         width="328.98001"
         height="168.22841"
         x="-1278.536"
         y="243.25327" />
      <rect
         y="-1121.9912"
         x="-1343.5029"
         height="212.13203"
         width="680.59027"
         id="rect4371"
         style="opacity:1;fill:#000080;fill-opacity:1;stroke:none;stroke-width:20;stroke-linecap:square;stroke-linejoin:miter;stroke-miterlimit:4;stroke-dasharray:none;stroke-dashoffset:0;stroke-opacity:1" />
      <rect
         style="opacity:1;fill:#5e94ca;fill-opacity:1;stroke:none;stroke-width:20;stroke-linecap:square;stroke-linejoin:miter;stroke-miterlimit:4;stroke-dasharray:none;stroke-dashoffset:0;stroke-opacity:1"
         id="rect4373"
         width="680.59027"
         height="212.13203"
         x="-1343.5029"
         y="-901.02032" />
      <rect
         style="opacity:1;fill:#1f4891;fill-opacity:1;stroke:none;stroke-width:20;stroke-linecap:square;stroke-linejoin:miter;stroke-miterlimit:4;stroke-dasharray:none;stroke-dashoffset:0;stroke-opacity:1"
         id="rect4399"
         width="680.59027"
         height="212.13203"
         x="-1343.5029"
         y="-684.49121" />
    </g>
  </g>
</svg>
