<?xml version="1.0" encoding="UTF-8" standalone="no"?>
<!-- Created with Inkscape (http://www.inkscape.org/) -->

<svg
   xmlns:dc="http://purl.org/dc/elements/1.1/"
   xmlns:cc="http://creativecommons.org/ns#"
   xmlns:rdf="http://www.w3.org/1999/02/22-rdf-syntax-ns#"
   xmlns:svg="http://www.w3.org/2000/svg"
   xmlns="http://www.w3.org/2000/svg"
   xmlns:sodipodi="http://sodipodi.sourceforge.net/DTD/sodipodi-0.dtd"
   xmlns:inkscape="http://www.inkscape.org/namespaces/inkscape"
   width="590"
   height="150"
   viewBox="0 0 589.99998 150.00001"
   id="svg3796"
   version="1.1"
   inkscape:version="0.91 r13725"
   sodipodi:docname="MUPOR.svg">
  <defs
     id="defs3798">
    <filter
       style="color-interpolation-filters:sRGB"
       inkscape:label="Desaturate"
       x="0"
       y="0"
       width="1"
       height="1"
       inkscape:menu="Color"
       inkscape:menu-tooltip="Render in shades of gray by reducing saturation to zero"
       id="filter4994">
      <feColorMatrix
         type="saturate"
         values="0"
         id="feColorMatrix4996" />
    </filter>
    <filter
       style="color-interpolation-filters:sRGB"
       inkscape:label="Desaturate"
       x="0"
       y="0"
       width="1"
       height="1"
       inkscape:menu="Color"
       inkscape:menu-tooltip="Render in shades of gray by reducing saturation to zero"
       id="filter4982">
      <feColorMatrix
         type="saturate"
         values="0"
         id="feColorMatrix4984" />
    </filter>
    <clipPath
       clipPathUnits="userSpaceOnUse"
       id="clipPath4143">
      <rect
         style="fill:#fafafa;fill-opacity:1;stroke:none"
         id="rect4145"
         width="252.5972"
         height="63.765774"
         x="-285.45432"
         y="192.29041" />
    </clipPath>
  </defs>
  <sodipodi:namedview
     id="base"
     pagecolor="#ffffff"
     bordercolor="#666666"
     borderopacity="1.0"
     inkscape:pageopacity="0.0"
     inkscape:pageshadow="2"
     inkscape:zoom="0.73374034"
     inkscape:cx="507.96441"
     inkscape:cy="-53.88143"
     inkscape:document-units="px"
     inkscape:current-layer="layer1"
     showgrid="false"
     units="px"
     fit-margin-top="0"
     fit-margin-left="0"
     fit-margin-right="0"
     fit-margin-bottom="0"
     inkscape:window-width="1366"
     inkscape:window-height="715"
     inkscape:window-x="-8"
     inkscape:window-y="22"
     inkscape:window-maximized="1" />
  <metadata
     id="metadata3801">
    <rdf:RDF>
      <cc:Work
         rdf:about="">
        <dc:format>image/svg+xml</dc:format>
        <dc:type
           rdf:resource="http://purl.org/dc/dcmitype/StillImage" />
        <dc:title></dc:title>
      </cc:Work>
    </rdf:RDF>
  </metadata>
  <g
     inkscape:label="Capa 1"
     inkscape:groupmode="layer"
     id="layer1"
     transform="translate(-88.672331,-394.06446)">
    <g
       id="g3881"
       transform="matrix(1.4304317,0,0,1.4304317,-33.167375,-238.26457)">
      <path
         transform="matrix(2.0779283,0,0,2.0779283,1835.0412,-193.79487)"
         id="path4614"
         d="m -816.59375,307.375 c -13.18019,0 -23.84375,10.69481 -23.84375,23.875 0,13.18019 10.66356,23.84375 23.84375,23.84375 7.15219,0 13.5948,-3.14101 17.96875,-8.125 l -9.46875,0 c -0.21059,1.1027 -1.17969,1.9375 -2.34375,1.9375 -1.31802,0 -2.375,-1.05698 -2.375,-2.375 0,-1.31802 1.05698,-2.40625 2.375,-2.40625 1.17354,0 2.14395,0.85268 2.34375,1.96875 l 10.1875,0 c 3.24853,-4.07708 5.1875,-9.22554 5.1875,-14.84375 0,-13.18019 -10.69481,-23.875 -23.875,-23.875 z"
         style="fill:#008b00;fill-opacity:1;stroke:none"
         inkscape:connector-curvature="0" />
      <path
         transform="matrix(2.0779283,0,0,2.0779283,1835.0412,-193.79487)"
         inkscape:connector-curvature="0"
         id="path4661"
         d="m -782.78125,317.29289 0,9.28125 0,4 0,6.34375 0,2.53125 c 0,2.37429 1.90696,4.3125 4.28125,4.3125 l 21.84375,0 c 2.37429,0 4.28125,-1.93821 4.28125,-4.3125 l 0,-2.53125 0,-6.40625 0,-3.9375 0,-9.28125 -4.21875,0 0,13.21875 0.0312,0 0,6.375 c 0,0.0106 1.1e-4,0.0206 0,0.0312 l -0.0312,0 c -0.008,0.85098 -0.34815,1.62681 -0.90625,2.1875 -0.5581,0.56069 -1.33461,0.90625 -2.1875,0.90625 l -15.78125,0 c -0.41883,0 -0.82132,-0.0983 -1.1875,-0.25 -0.008,-0.004 -0.0228,0.004 -0.0312,0 -0.17813,-0.0758 -0.34032,-0.17509 -0.5,-0.28125 -0.007,-0.005 -0.0246,0.005 -0.0312,0 -0.15958,-0.10812 -0.30054,-0.24013 -0.4375,-0.375 -0.5581,-0.56069 -0.8978,-1.33652 -0.90625,-2.1875 l -0.0312,0 c -1.1e-4,-0.0106 0,-0.0206 0,-0.0312 l 0,-6.3125 0.0312,0 0,-13.28125 -4.21875,0 z"
         style="fill:#008b00;fill-opacity:1;stroke:none" />
      <path
         transform="matrix(2.0779283,0,0,2.0779283,1835.0412,-193.79487)"
         sodipodi:nodetypes="ccccccccccccccccsssccccccsssccccssccssscc"
         inkscape:connector-curvature="0"
         id="path4684"
         d="m -747.0902,317.29317 0,4.3125 0,2.53125 0,0.15625 0,0.59375 0,1.9375 0,3.65625 0,4 0,9.28125 4.21875,0 0,-19.625 c 0.008,-0.85098 0.34815,-1.62681 0.90625,-2.1875 0.13696,-0.13487 0.27792,-0.26688 0.4375,-0.375 0.007,-0.005 0.0245,0.005 0.0312,0 0.15968,-0.10616 0.32187,-0.20545 0.5,-0.28125 0.008,-0.004 0.0232,0.004 0.0312,0 0.36618,-0.1517 0.76867,-0.25 1.1875,-0.25 l 15.78125,0 c 0.85289,0 1.6294,0.34556 2.1875,0.90625 0.5581,0.56069 0.89825,1.33652 0.90625,2.1875 l 0.0312,0 c 1.1e-4,0.0106 0,0.0206 0,0.0312 l 0,0.0937 c 0,0.0106 1.1e-4,0.0206 0,0.0312 l -0.0312,0 c -0.008,0.85098 -0.34815,1.62681 -0.90625,2.1875 -0.5581,0.56069 -1.33461,0.90625 -2.1875,0.90625 l -15.78125,0 c -0.41883,0 -0.82132,-0.0983 -1.1875,-0.25 -0.008,-0.004 -0.0228,0.004 -0.0312,0 -0.0782,-0.0333 -0.14553,-0.0841 -0.21875,-0.125 l 0,4.125 20.25,0 c 2.37429,0 4.28125,-1.93821 4.28125,-4.3125 l 0,-2.53125 0,-0.15625 0,-2.53125 c 0,-2.37429 -1.90696,-4.3125 -4.28125,-4.3125 l -21.84375,0 c -0.021,0 -0.0416,-3e-4 -0.0625,0 z"
         style="fill:#008b00;fill-opacity:1;stroke:none" />
      <path
         transform="matrix(2.0779283,0,0,2.0779283,1835.0412,-193.79487)"
         inkscape:connector-curvature="0"
         id="path4695"
         d="m -707.11857,317.29289 c -2.37429,0 -4.28125,1.93821 -4.28125,4.3125 l 0,2.53125 0,2.4375 0,3.90625 0,0.0937 0,3.90625 0,2.4375 0,2.53125 c 0,2.37429 1.90696,4.3125 4.28125,4.3125 l 21.84375,0 c 2.37429,0 4.28125,-1.93821 4.28125,-4.3125 l 0,-2.53125 0,-2.4375 0,-3.9375 0,-0.0312 0,-3.9375 0,-2.4375 0,-2.53125 c 0,-2.37429 -1.90696,-4.3125 -4.28125,-4.3125 l -21.84375,0 z m 3.03125,3.75 15.78125,0 c 0.85289,0 1.6294,0.34556 2.1875,0.90625 0.5581,0.56069 0.89825,1.33652 0.90625,2.1875 l 0.0312,0 c 1.1e-4,0.0106 0,0.0206 0,0.0312 l 0,6.34375 0,0.0312 0,6.34375 c 0,0.0106 1.1e-4,0.0206 0,0.0312 l -0.0312,0 c -0.008,0.85098 -0.34815,1.62681 -0.90625,2.1875 -0.5581,0.56069 -1.33461,0.90625 -2.1875,0.90625 l -15.78125,0 c -0.41883,0 -0.82132,-0.0983 -1.1875,-0.25 -0.008,-0.004 -0.0228,0.004 -0.0312,0 -0.17813,-0.0758 -0.34032,-0.17509 -0.5,-0.28125 -0.007,-0.005 -0.0246,0.005 -0.0312,0 -0.15958,-0.10812 -0.30054,-0.24013 -0.4375,-0.375 -0.5581,-0.56069 -0.8978,-1.33652 -0.90625,-2.1875 l -0.0312,0 c -1.1e-4,-0.0106 0,-0.0206 0,-0.0312 l 0,-6.3125 -0.0625,-0.0312 0.0625,-0.0625 0,-6.3125 c 0,-0.0106 -1.1e-4,-0.0206 0,-0.0312 l 0.0312,0 c 0.008,-0.85098 0.34815,-1.62681 0.90625,-2.1875 0.13696,-0.13487 0.27792,-0.26688 0.4375,-0.375 0.007,-0.005 0.0243,0.005 0.0312,0 0.15968,-0.10616 0.32187,-0.20545 0.5,-0.28125 0.008,-0.004 0.0232,0.004 0.0312,0 0.36618,-0.1517 0.76867,-0.25 1.1875,-0.25 z"
         style="fill:#008b00;fill-opacity:1;stroke:none" />
      <path
         transform="matrix(2.0779283,0,0,2.0779283,1835.0412,-193.79487)"
         sodipodi:nodetypes="ccccccccccccccccsssccssccssccscccscccsscc"
         inkscape:connector-curvature="0"
         id="path4699"
         d="m -675.71079,317.29307 0,4.3125 0,2.53125 0,0.15625 0,0.59375 0,1.9375 0,3.65625 0,4 0,9.28125 4.21875,0 0,-19.625 c 0.008,-0.85098 0.34815,-1.62681 0.90625,-2.1875 0.13696,-0.13487 0.27792,-0.26688 0.4375,-0.375 0.007,-0.005 0.0245,0.005 0.0312,0 0.15968,-0.10616 0.32187,-0.20545 0.5,-0.28125 0.008,-0.004 0.0232,0.004 0.0312,0 0.36618,-0.1517 0.76867,-0.25 1.1875,-0.25 l 15.78125,0 c 0.85289,0 1.6294,0.34556 2.1875,0.90625 0.5581,0.56069 0.89825,1.33652 0.90625,2.1875 l 0,0.15625 c -0.008,0.85098 -0.34815,1.62681 -0.90625,2.1875 -0.5581,0.56069 -1.33461,0.90625 -2.1875,0.90625 l -17.21875,0 0,3.75 17.21875,0 c 0.85289,0 1.6294,0.34556 2.1875,0.90625 0.5581,0.56069 0.89825,1.33652 0.90625,2.1875 l 0.0312,0 c 1.1e-4,0.0106 0,0.0206 0,0.0312 l 0,9.5 4.1875,0 0,-9.53125 0,-2.53125 c 0,-0.9063 -0.27436,-1.74183 -0.75,-2.4375 0.47564,-0.69567 0.75,-1.5312 0.75,-2.4375 l 0,-5.21875 c 0,-2.37429 -1.90696,-4.3125 -4.28125,-4.3125 l -21.84375,0 c -0.021,0 -0.0416,-3e-4 -0.0625,0 z"
         style="fill:#008b00;fill-opacity:1;stroke:none" />
      <path
         transform="matrix(2.0779283,0,0,2.0779283,1835.0412,-193.79487)"
         inkscape:connector-curvature="0"
         id="rect4739"
         d="m -827.875,317.29289 c -3.80875,0 -6.875,3.06625 -6.875,6.875 l 0,18.21875 7.6875,0 0,-14.625 c 0,-2.01311 1.64314,-3.625 3.65625,-3.625 l 14.6875,0 c 2.01311,0 3.65625,1.61189 3.65625,3.625 l 0,14.625 7.9375,0 0,-18.21875 c 0,-3.80875 -3.06625,-6.875 -6.875,-6.875 l -23.875,0 z m 8.0625,9.59375 0,15.5 7.875,0 0,-15.5 -7.875,0 z"
         style="fill:#ffffff;fill-opacity:1;stroke:none" />
      <path
         transform="matrix(2.0779283,0,0,2.0779283,1835.0412,-193.79487)"
         id="path4757"
         d="m -797.9375,346.09375 c -0.23294,0.29259 -0.47105,0.59248 -0.71875,0.875 l 151.125,0 0,-0.875 -150.40625,0 z"
         style="fill:#008b00;fill-opacity:1;stroke:none"
         inkscape:connector-curvature="0" />
    </g>
  </g>
</svg>
