<?xml version="1.0" encoding="UTF-8" standalone="no"?>
<!-- Created with Inkscape (http://www.inkscape.org/) -->

<svg
   xmlns:dc="http://purl.org/dc/elements/1.1/"
   xmlns:cc="http://creativecommons.org/ns#"
   xmlns:rdf="http://www.w3.org/1999/02/22-rdf-syntax-ns#"
   xmlns:svg="http://www.w3.org/2000/svg"
   xmlns="http://www.w3.org/2000/svg"
   xmlns:sodipodi="http://sodipodi.sourceforge.net/DTD/sodipodi-0.dtd"
   xmlns:inkscape="http://www.inkscape.org/namespaces/inkscape"
   id="svg3336"
   version="1.1"
   inkscape:version="0.91 r13725"
   width="883.50012"
   height="270.84219"
   viewBox="0 0 883.50013 270.84219"
   sodipodi:docname="Tricot.svg">
  <metadata
     id="metadata3342">
    <rdf:RDF>
      <cc:Work
         rdf:about="">
        <dc:format>image/svg+xml</dc:format>
        <dc:type
           rdf:resource="http://purl.org/dc/dcmitype/StillImage" />
        <dc:title></dc:title>
      </cc:Work>
    </rdf:RDF>
  </metadata>
  <defs
     id="defs3340" />
  <sodipodi:namedview
     pagecolor="#ffffff"
     bordercolor="#666666"
     borderopacity="1"
     objecttolerance="10"
     gridtolerance="10"
     guidetolerance="10"
     inkscape:pageopacity="0"
     inkscape:pageshadow="2"
     inkscape:window-width="1366"
     inkscape:window-height="715"
     id="namedview3338"
     showgrid="false"
     showguides="false"
     fit-margin-top="0"
     fit-margin-left="0"
     fit-margin-right="0"
     fit-margin-bottom="0"
     inkscape:zoom="0.67950422"
     inkscape:cx="378.8003"
     inkscape:cy="152.96605"
     inkscape:window-x="-8"
     inkscape:window-y="22"
     inkscape:window-maximized="1"
     inkscape:current-layer="svg3336" />
  <g
     id="g3414"
     transform="translate(3.1807823,14.443851)"
     style="fill:#e21f27;fill-opacity:1">
    <path
       id="path3410"
       d="m 428.36921,255.99757 c 16.19652,-0.85275 34.87926,-6.67429 49.27221,-15.35323 22.60092,-13.62835 38.81766,-33.30316 48.10122,-58.35843 l 0.86148,-2.325 -19.2969,0 -19.2969,0 -0.57054,1.26559 c -0.94119,2.08769 -5.54481,8.88868 -8.07843,11.93441 -12.98748,15.61248 -31.32732,25.37581 -51.33741,27.32977 -4.48041,0.4375 -14.79159,0.18201 -18.85473,-0.46718 -19.77357,-3.15935 -37.37064,-13.67666 -49.21179,-29.41259 -7.8822,-10.47482 -12.80397,-22.40705 -14.72538,-35.7 -0.64023,-4.42928 -0.72456,-14.8162 -0.15588,-19.2 1.17561,-9.06237 3.73728,-17.44136 7.72428,-25.26535 16.16265,-31.717178 51.94179,-48.044408 86.32785,-39.394308 5.71971,1.43884 9.35253,2.77526 15.04092,5.53315 9.62934,4.66858 19.00647,12.12775 25.72647,20.46451 2.04153,2.53272 5.75067,8.010518 7.13481,10.536998 l 1.0272,1.875 19.13076,0 c 12.96177,0 19.13076,-0.0999 19.13076,-0.30991 0,-0.77994 -2.98989,-8.103 -5.09523,-12.479638 -13.51755,-28.10051 -37.8684,-49.149643 -67.50477,-58.351793 -11.37927,-3.53329 -20.9328,-4.91676 -33.6,-4.8657 -8.88036,0.0358 -13.8114,0.51007 -21.6,2.07752 -26.80086,5.39367 -50.60025,20.4719 -67.23144,42.594843 -22.83594,30.376538 -28.4661,71.015998 -14.76846,106.601148 5.82054,15.12122 13.83408,27.35243 25.57362,39.03353 8.84226,8.79822 16.73076,14.56009 27.69018,20.22524 13.90869,7.1897 29.32509,11.32012 45.3861,12.16001 4.39323,0.22974 6.45504,0.20653 13.2,-0.14859 z"
       style="fill:#e21f27;fill-opacity:1"
       inkscape:connector-curvature="0" />
    <path
       id="path3408"
       d="m 656.21921,256.15642 c 16.56665,-1.00113 30.45869,-4.68955 44.54999,-11.8283 11.35017,-5.75008 20.09556,-12.12385 29.0433,-21.16721 21.59727,-21.82802 33.1203,-50.96637 32.21016,-81.45 -0.62778,-21.02683 -6.80193,-40.69064 -18.22374,-58.040108 -23.18379,-35.215693 -63.68763,-54.248063 -105.65048,-49.644193 -34.7979,3.81777 -66.18483,24.27213 -83.98905,54.734303 -12.50964,21.403388 -17.51007,46.837578 -14.04507,71.438868 1.31766,9.35546 3.31122,16.88863 6.81582,25.75542 7.89624,19.97789 21.34134,37.0938 39.07857,49.74789 17.05995,12.1709 37.20168,19.22155 58.3605,20.42918 6.13803,0.35032 6.4422,0.35094 11.85,0.0242 z"
       style="fill:#e21f27;fill-opacity:1"
       inkscape:connector-curvature="0" />
    <path
       id="path3406"
       d="m 120.71922,233.06091 0,-17.7 -18.38287,0 c -10.819746,0 -19.396966,-0.12716 -20.847726,-0.30907 -13.13996,-1.64761 -25.317334,-11.64231 -29.628604,-24.31798 -1.71664,-5.04713 -1.6408,-2.19042 -1.6408,-61.80609 l 0,-54.866858 26.400004,0 26.399996,0 0,-17.700003 0,-17.7 -26.399996,0 -26.400004,0 0,-26.39429 0,-26.39428 -0.675,-0.16365 c -0.37125,-0.09 -8.37,-0.12633 -17.775002,-0.0807 l -17.1,0.0829 -0.07663,26.475 -0.07663,26.475 -8.8483703,0 -8.84837,0 0,17.7 0,17.700003 8.842555,0 8.8425563,0 0.09828,57.074998 0.09828,57.075 0.664524,3.45 c 2.485317,12.90298 7.167777,23.18511 14.959827,32.85 4.616688,5.72632 11.73226,11.98504 18.23462,16.03883 5.78519,3.60668 14.84202,7.25065 21.609354,8.69443 6.47709,1.38185 7.90875,1.45329 29.775,1.48583 l 20.774996,0.0309 0,-17.7 z"
       style="fill:#e21f27;fill-opacity:1"
       inkscape:connector-curvature="0" />
    <path
       id="path3404"
       d="m 173.8177,192.83442 c 0.004,-50.0879 0.067,-58.50139 0.46632,-62.175 3.43415,-31.592478 19.86544,-52.246638 47.28234,-59.433998 6.34995,-1.66464 15.11132,-2.82254 21.62785,-2.85833 l 1.125,-0.006 0,-17.746523 0,-17.74653 -5.925,0.18895 c -20.4814,0.65316 -38.01723,5.22227 -50.02499,13.03444 -5.52483,3.59442 -10.51563,8.37357 -13.30258,12.73843 -0.60358,0.945333 -1.16492,1.721673 -1.24742,1.725203 -0.0825,0.003 -0.10706,-4.479733 -0.0546,-9.962813 0.0525,-5.48307 0.0126,-10.41066 -0.0886,-10.95019 l -0.18399,-0.98095 -17.68641,0 -17.6864,0 0,106.050001 0,106.05 17.84699,0 17.84699,0 0.005,-57.92649 z"
       style="fill:#e21f27;fill-opacity:1"
       inkscape:connector-curvature="0" />
    <path
       id="path3402"
       d="m 297.26921,144.71091 0,-105.900001 -17.7,0 -17.7,0 -0.0768,105.600001 c -0.0422,58.08 -0.0123,105.76983 0.0665,105.9774 0.11333,0.29852 3.8291,0.36122 17.77677,0.3 l 17.63349,-0.0774 0,-105.9 z"
       style="fill:#e21f27;fill-opacity:1"
       inkscape:connector-curvature="0" />
    <path
       id="path3400"
       d="m 880.3192,233.08001 0,-17.6809 -20.025,-0.12343 c -17.08026,-0.10529 -20.31174,-0.19424 -21.975,-0.60491 -7.49733,-1.85114 -13.56624,-5.34011 -18.83481,-10.828 -4.3749,-4.55697 -7.19127,-9.61657 -8.95179,-16.08186 l -0.85779,-3.15 -0.0862,-55.275 -0.0862,-55.274998 26.5584,0 26.5584,0 0,-17.700003 0,-17.7 -26.54838,0 -26.54835,0 -0.0766,-26.475 -0.0766,-26.475 -17.55,0 -17.55,0 -0.0766,26.475 -0.0766,26.475 -8.84835,0 -8.84838,0 0,17.7 0,17.700003 8.85,0 8.85,0 0,55.634628 c 0,59.89849 -0.0395,58.21899 1.5423,65.55352 1.38624,6.42772 4.83294,15.10965 8.27535,20.84491 7.43814,12.39238 19.01451,22.72669 32.01189,28.57727 6.17997,2.78182 14.56311,5.10099 20.85369,5.76911 1.24671,0.13241 11.54802,0.25871 22.89177,0.28065 l 20.625,0.0399 0,-17.6809 z"
       style="fill:#e21f27;fill-opacity:1"
       inkscape:connector-curvature="0" />
    <path
       id="path3374"
       d="m 297.34658,3.3335293 0.0774,-17.7773803 -17.77739,0.0774 -17.77738,0.0774 -0.0829,17.1000003 c -0.0456,9.4049997 -0.009,17.4067097 0.0824,17.7815897 l 0.1653,0.68159 17.61763,-0.0816 17.61763,-0.0816 0.0774,-17.7773797 z"
       style="fill:#e21f27;fill-opacity:1"
       inkscape:connector-curvature="0" />
  </g>
</svg>
