<?xml version="1.0" encoding="UTF-8" standalone="no"?>
<!-- Created with Inkscape (http://www.inkscape.org/) -->

<svg
   xmlns:dc="http://purl.org/dc/elements/1.1/"
   xmlns:cc="http://creativecommons.org/ns#"
   xmlns:rdf="http://www.w3.org/1999/02/22-rdf-syntax-ns#"
   xmlns:svg="http://www.w3.org/2000/svg"
   xmlns="http://www.w3.org/2000/svg"
   xmlns:sodipodi="http://sodipodi.sourceforge.net/DTD/sodipodi-0.dtd"
   xmlns:inkscape="http://www.inkscape.org/namespaces/inkscape"
   width="400"
   height="400"
   id="svg3819"
   version="1.1"
   inkscape:version="0.48.5 r10040"
   sodipodi:docname="endesaLogoWhite.svg">
  <defs
     id="defs3821">
    <clipPath
       clipPathUnits="userSpaceOnUse"
       id="clipPath4736">
      <rect
         y="-94.679955"
         x="-124.42439"
         height="731.9599"
         width="780.15234"
         id="rect4738"
         style="fill:#f9f9f9;fill-opacity:1;fill-rule:evenodd;stroke:#ffffff;stroke-width:4.943398;stroke-linecap:square;stroke-linejoin:round;stroke-miterlimit:4;stroke-opacity:1;stroke-dasharray:none;stroke-dashoffset:0" />
    </clipPath>
  </defs>
  <sodipodi:namedview
     id="base"
     pagecolor="#b0b0b0"
     bordercolor="#666666"
     borderopacity="1.0"
     inkscape:pageopacity="1"
     inkscape:pageshadow="2"
     inkscape:zoom="0.97227182"
     inkscape:cx="372.01319"
     inkscape:cy="146.24296"
     inkscape:document-units="px"
     inkscape:current-layer="layer1"
     showgrid="false"
     showguides="true"
     inkscape:guide-bbox="true"
     inkscape:window-width="1366"
     inkscape:window-height="715"
     inkscape:window-x="-8"
     inkscape:window-y="22"
     inkscape:window-maximized="1" />
  <metadata
     id="metadata3824">
    <rdf:RDF>
      <cc:Work
         rdf:about="">
        <dc:format>image/svg+xml</dc:format>
        <dc:type
           rdf:resource="http://purl.org/dc/dcmitype/StillImage" />
        <dc:title />
      </cc:Work>
    </rdf:RDF>
  </metadata>
  <g
     inkscape:label="Capa 1"
     inkscape:groupmode="layer"
     id="layer1"
     transform="translate(0,-652.36218)">
    <path
       style="fill:#ffffff;fill-opacity:1;fill-rule:evenodd;stroke:none"
       d="M 8.09375 13.6875 L 6.5 14.4375 C 4.36754 15.42303 2.03304 17.61021 1.0625 19.5625 L 0.28125 21.1875 L 0.28125 136.1875 L 0.28125 251.21875 L 1.0625 252.8125 C 2.0957 254.91037 4.86499 257.34991 6.875 257.96875 C 8.21068 258.37996 16.28075 258.45502 59.75 258.46875 C 108.73592 258.48425 111.10861 258.46775 112.40625 257.875 C 114.18496 257.06253 116.51043 254.49434 116.96875 252.84375 C 117.46983 251.03916 117.44193 235.85064 116.9375 234.34375 C 116.45246 232.89506 115.17777 231.137 114.0625 230.40625 C 111.5674 228.7714 111.99972 228.81084 74 228.625 L 38.34375 228.4375 L 38.25 187 C 38.1988 164.20041 38.2424 145.20173 38.34375 144.78125 L 38.53125 144 L 68.65625 144 C 87.80542 143.999 99.250518 143.87311 100.03125 143.65625 C 101.79921 143.16515 103.4094 141.99652 104.59375 140.3125 L 105.625 138.84375 L 105.71875 130.625 C 105.78815 125.46468 105.69655 121.98504 105.46875 121.21875 C 104.87956 119.237 103.22071 117.24081 101.28125 116.21875 L 99.5 115.28125 L 68.90625 115.125 L 38.34375 114.96875 L 38.25 79.78125 C 38.1987 60.43898 38.2422 44.26423 38.34375 43.84375 L 38.53125 43.09375 L 74.875 43.09375 C 110.11315 43.09375 111.28717 43.07225 112.53125 42.4375 C 114.2374 41.56708 116.09741 39.46617 116.8125 37.59375 C 117.3143 36.27979 117.3741 34.96267 117.28125 27.78125 C 117.18064 19.99983 117.10406 19.39782 116.40625 18.09375 C 115.47477 16.35301 113.69805 14.75647 112 14.15625 C 110.92509 13.77627 101.72139 13.6875 59.40625 13.6875 L 8.09375 13.6875 z M 149.125 13.6875 C 146.47455 13.6875 143.98594 14.40637 141.84375 15.625 C 142.08998 16.24283 142.25725 17.41855 142.40625 19.34375 C 142.56207 21.35753 143.00029 26.89077 143.375 31.65625 C 143.74968 36.42174 144.1521 41.53619 144.25 43.03125 C 144.3479 44.5263 144.56866 46.91089 144.75 48.3125 C 145.07912 50.85677 145.72191 57.28521 146.4375 65.3125 C 146.64579 67.64852 146.94576 70.53527 147.125 71.75 C 147.3042 72.96473 147.59998 75.66305 147.78125 77.71875 C 147.96253 79.77445 148.36077 83.44553 148.65625 85.875 C 148.95169 88.30446 149.3298 91.66181 149.5 93.34375 C 149.86989 96.99908 150.38753 100.33989 151.03125 103.34375 C 151.29156 104.55848 151.75829 106.94306 152.0625 108.625 C 152.61309 111.66905 153.45134 115.48374 155.28125 123.25 C 156.26986 127.44568 157.1602 131.60708 158.15625 136.65625 C 158.86514 140.24971 160.73645 147.26356 160.9375 147.0625 C 161.0196 146.9804 160.9183 146.31209 160.71875 145.59375 C 159.89858 142.64 160.47787 142.8633 161.375 145.84375 C 163.00512 151.25923 169.20972 169.3222 169.90625 170.6875 C 171.43661 173.68731 173.47313 176.23003 174.625 176.53125 C 174.93553 176.61245 175.58269 176.48965 176.0625 176.28125 C 177.02583 175.86297 179.22784 173.39817 179.5625 172.34375 C 179.67979 171.97419 179.90667 171.65625 180.0625 171.65625 C 180.43891 171.65625 181.52309 169.85654 183.75 165.53125 C 186.00951 161.14255 186.85593 160.22153 188.75 159.9375 C 190.69819 159.64534 191.95245 160.34023 194.71875 163.25 C 195.9506 164.54576 197.34081 165.84189 197.8125 166.15625 C 198.28415 166.4706 199.29357 167.14232 200.0625 167.65625 C 200.83144 168.17017 201.72659 168.59375 202.0625 168.59375 C 202.39838 168.59375 202.97515 168.80792 203.34375 169.0625 C 203.71239 169.31708 204.7439 169.62035 205.625 169.75 C 206.95196 169.94525 207.39427 169.86769 208.1875 169.28125 C 208.71417 168.89185 209.75866 168.48721 210.5 168.375 C 211.25694 168.26044 212.27138 167.7627 212.84375 167.25 C 213.40446 166.74786 214.67512 165.75831 215.65625 165.03125 C 216.63745 164.30419 217.4375 163.60069 217.4375 163.46875 C 217.4375 163.33683 218.86612 162.09019 220.59375 160.71875 C 222.32143 159.3473 224.59228 157.46566 225.65625 156.53125 C 226.72015 155.59684 228.53081 154.05941 229.6875 153.125 C 231.90437 151.33417 235.0275 148.01321 239.21875 142.9375 C 240.60755 141.25557 241.825 139.81215 241.9375 139.71875 C 242.05 139.62535 242.52003 139.01318 242.96875 138.34375 C 243.4175 137.67432 244.35281 136.29376 245.03125 135.28125 C 246.32652 133.34812 247.6875 131.88901 247.6875 132.46875 C 247.6875 132.65656 247.24637 133.4274 246.71875 134.15625 C 246.19113 134.8851 245.32748 136.3159 244.8125 137.34375 C 244.29756 138.3716 243.58861 139.75217 243.21875 140.40625 C 242.95685 140.86949 242.8215 141.10245 242.8125 141.15625 C 242.8434 141.14025 242.96183 141.0149 243.15625 140.75 C 243.4941 140.28964 244.31473 139.2557 244.96875 138.46875 C 245.62284 137.6818 246.5328 136.48942 247 135.8125 C 247.46721 135.13558 248.86535 133.31752 250.09375 131.78125 C 251.32217 130.24499 253.03056 127.71032 253.875 126.125 C 257.08121 120.10544 259.13606 117.1476 261.34375 115.46875 C 263.75344 113.63625 265.19755 114.8733 264.8125 118.46875 C 264.69242 119.59004 264.37814 121.11944 264.125 121.84375 C 263.87193 122.56805 263.65625 123.38909 263.65625 123.6875 C 263.65625 124.74455 264.55678 122.97924 265.625 119.84375 C 266.88774 116.13723 267.0475 116.79246 265.84375 120.75 C 265.36832 122.31295 264.85148 124.03311 264.6875 124.59375 C 264.06277 126.7296 262.30614 131.19357 260.75 134.625 C 257.84092 141.03974 255.66178 146.74902 254.4375 151.09375 C 254.06886 152.40192 253.07921 154.89312 252.25 156.625 C 251.42079 158.35687 250.75 159.97902 250.75 160.21875 C 250.75 160.45847 250.62641 160.79121 250.46875 160.96875 C 249.95659 161.54534 248.377 166.8525 248.375 168 C 248.372 169.76583 247.79986 171.33465 246.15625 174.21875 C 245.31525 175.69453 244.625 177.18277 244.625 177.5 C 244.625 177.81723 244.25074 178.50455 243.78125 179.0625 C 243.31174 179.62045 242.68857 180.76234 242.40625 181.5625 C 242.12395 182.36265 241.16469 184.30664 240.28125 185.90625 C 239.39787 187.50587 238.40401 189.50278 238.0625 190.34375 C 237.72094 191.18472 237.21048 192.13457 236.9375 192.4375 C 236.66451 192.74043 235.90891 194.24661 235.25 195.8125 C 234.59105 197.37838 233.4007 199.87994 232.59375 201.375 C 231.78676 202.87005 231.0062 204.44465 230.875 204.875 C 230.74381 205.30535 230.16004 206.52904 229.5625 207.59375 C 225.55595 214.73281 225.67931 217.256 230.15625 219.53125 C 232.18766 220.56364 232.72368 220.6825 235.21875 220.6875 C 238.28171 220.6935 242.16095 219.8501 246.78125 218.15625 C 248.30757 217.59668 250.15876 216.93189 250.90625 216.6875 C 252.69403 216.10304 256.64879 214.58546 258.375 213.8125 C 259.13051 213.47418 261.19344 212.60981 262.96875 211.90625 C 266.65562 210.44519 274.57735 206.45401 278.09375 204.28125 C 279.40199 203.47295 281.63934 202.17277 283.0625 201.375 C 284.48569 200.57724 288.23684 198.18026 291.40625 196.0625 C 294.57563 193.94473 297.92328 191.77755 298.84375 191.21875 C 299.76423 190.65996 301.56283 189.54495 302.84375 188.75 C 306.24038 186.64206 311.22367 184.44245 311.65625 184.875 C 311.89773 185.11647 311.71415 185.46802 311.03125 186 C 310.48525 186.4253 309.19481 187.5338 308.15625 188.46875 C 303.72899 192.45433 292.75329 201.52552 291 202.65625 C 290.25247 203.13836 288.43259 204.62684 286.9375 205.96875 C 285.44244 207.31066 283.32457 209.19785 282.25 210.15625 C 281.17546 211.11466 280.3125 212.08871 280.3125 212.3125 C 280.3125 212.53628 279.90471 213.19476 279.4375 213.75 C 278.9703 214.30524 278.59375 214.94438 278.59375 215.1875 C 278.59375 215.43062 278.2057 216.05425 277.71875 216.5625 C 276.91971 217.39651 276.85122 217.65111 277.0625 219.1875 C 277.27948 220.76506 277.38727 220.92352 278.59375 221.40625 C 279.30978 221.69275 280.00468 222.0865 280.125 222.28125 C 280.24539 222.47601 280.63229 222.625 280.96875 222.625 C 281.30514 222.625 282.44883 223.10987 283.53125 223.6875 C 285.13286 224.54258 285.77293 224.68716 286.90625 224.53125 C 288.11979 224.36432 291.47732 224.28565 294.75 224.34375 C 295.31068 224.35375 297.24761 224.45977 299.0625 224.5625 C 302.34054 224.74806 302.36208 224.74215 303.25 225.90625 L 304.15625 227.09375 L 303.15625 228 C 302.61069 228.50386 301.90119 229.08698 301.5625 229.28125 C 301.02931 229.58704 300.98724 229.72288 301.375 230.34375 C 301.62131 230.7382 302.01239 230.9662 302.25 230.875 C 302.50671 230.7765 302.91617 231.21329 303.21875 231.9375 C 303.61535 232.88663 303.91601 233.15625 304.59375 233.15625 C 305.86682 233.15625 308.4026 234.43588 309.28125 235.53125 C 311.14524 237.855 311.22091 238.00989 310.875 238.65625 C 310.65031 239.07594 310.64044 239.49901 310.875 239.9375 C 311.41175 240.94046 311.29575 241.93658 310.59375 242.375 C 309.99002 242.75203 310.00653 242.8283 310.90625 244.15625 C 312.50358 246.51381 312.903 246.65774 320.5625 247.3125 L 323.25 247.53125 L 321.90625 248.03125 C 320.41221 248.58312 313.20508 248.65003 311.40625 248.125 C 310.84561 247.96139 309.74756 247.73802 309 247.625 C 307.01585 247.32502 308.24881 247.95342 310.53125 248.40625 C 316.39679 249.56992 319.62048 249.92842 341.625 251.8125 C 343.86759 252.00451 350.99011 252.24395 357.4375 252.34375 C 369.85454 252.536 386.60252 253.08411 388.875 253.375 C 389.62253 253.4707 391.92859 253.56655 394.03125 253.59375 C 396.67646 253.62785 398.09981 253.79521 398.5625 254.15625 C 398.85619 254.10515 399.12945 254.09375 399.4375 254.09375 C 399.62447 254.09375 399.81804 254.07465 400 254.09375 L 400 28.375 C 400 20.23911 393.44839 13.6875 385.3125 13.6875 L 149.125 13.6875 z M 192 279.53125 L 190.9375 280.5625 L 189.875 281.625 L 189.78125 298.28125 C 189.72935 307.43495 189.56258 314.90625 189.40625 314.90625 C 189.24992 314.90625 188.69271 314.32275 188.1875 313.59375 C 186.79813 311.58885 182.91733 307.9915 181.21875 307.125 C 177.68338 305.3215 175.86909 304.9094 171.1875 304.9375 C 167.36037 304.9605 166.44061 305.08775 164.28125 305.84375 C 160.75193 307.07945 158.44429 308.5657 155.21875 311.6875 C 150.18932 316.5552 147.18395 322.3172 145.03125 331.25 C 143.26552 338.5771 142.76652 345.83512 143.5 353.34375 C 145.20369 370.78445 153.26709 382.73685 165.40625 385.78125 C 168.17096 386.47465 173.20333 386.3722 176.125 385.5625 C 179.99774 384.4893 182.89036 382.78575 186.28125 379.59375 C 187.94357 378.02895 189.38791 376.75 189.5 376.75 C 189.6121 376.75 189.71875 377.75125 189.71875 378.96875 C 189.71875 381.01485 189.80065 381.2643 190.875 382.4375 L 192.03125 383.71875 L 197.40625 383.84375 C 203.62417 383.97115 204.76724 383.7947 205.875 382.6875 L 206.6875 381.875 L 206.6875 331.75 L 206.6875 281.625 L 205.75 280.59375 L 204.8125 279.5625 L 198.40625 279.53125 L 192 279.53125 z M 34.21875 304.75 C 31.78436 304.75 29.38233 304.8433 28.03125 305.0625 C 22.88642 305.8974 17.51345 308.4081 12.78125 312.1875 C 8.5218599 315.5893 3.85297 323.1634 2 329.625 C 0.43972996 335.0659 -0.00636 338.4251 0 344.8125 C 0.007 351.38712 0.45510996 354.5818 2.1875 360.625 C 4.07799 367.2198 6.6895599 372.00255 10.84375 376.40625 C 13.71893 379.45405 16.47802 381.45055 20.1875 383.15625 C 25.79545 385.73485 27.93337 386.16525 35.09375 386.21875 C 39.65409 386.25275 41.24448 386.1237 43.59375 385.5625 C 51.23765 383.7393 57.80562 378.65185 61.21875 371.84375 C 62.97546 368.33965 64.70312 363.8169 64.59375 363.0625 C 64.45866 362.1306 61.5796 360.31065 60.6875 360.59375 C 60.33339 360.70615 59.29312 361.83385 58.375 363.09375 C 54.62828 368.23545 51.34835 370.92535 47.0625 372.40625 C 45.10212 373.08355 44.13342 373.1945 40.03125 373.1875 C 34.66515 373.1775 32.50635 372.6205 29.09375 370.4375 C 24.13645 367.2664 19.96185 360.11475 18.875 352.96875 C 18.33562 349.42235 18.25982 348.45845 18.5625 347.96875 C 18.76814 347.63612 23.78048 347.53125 41.75 347.53125 C 67.1593 347.53125 65.95147 347.63736 66.71875 345.3125 C 67.24094 343.7303 66.66647 336.22645 65.65625 331.40625 C 64.07119 323.84315 59.49768 315.4887 54.78125 311.5 C 50.78368 308.1192 45.69327 305.7953 40.625 305.0625 C 39.11602 304.8443 36.65314 304.7491 34.21875 304.75 z M 311.03125 304.875 C 308.0172 304.875 304.94518 305.12555 302.90625 305.65625 C 295.94187 307.46895 290.06441 312.31025 286.9375 318.78125 C 284.82343 323.15625 284.34153 325.2855 284.375 330.375 C 284.4082 335.4189 285.07995 338.20595 286.96875 341.34375 C 288.25934 343.48765 291.49956 346.63172 293.78125 347.96875 C 295.44762 348.94535 302.71157 351.48505 307.1875 352.65625 C 311.5438 353.79615 314.62301 355.2533 316.40625 357 C 318.49589 359.0469 319.24543 360.72785 319.4375 363.71875 C 319.57268 365.82375 319.4768 366.3966 318.6875 368.125 C 317.70974 370.2662 315.86357 372.4201 314.28125 373.25 C 313.11403 373.8622 307.38706 375.0625 305.625 375.0625 C 302.79688 375.0625 297.29852 373.34815 294.4375 371.59375 C 291.94671 370.06635 289.91156 367.8078 288.53125 365.0625 L 287.1875 362.40625 L 285.6875 362.5625 C 283.62517 362.795 282.46875 363.62205 282.46875 364.84375 C 282.46875 365.37925 282.86411 367.1564 283.34375 368.8125 C 285.48889 376.2195 289.8328 381.1066 296.90625 384.0625 C 301.52545 385.9927 303.10709 386.25905 310 386.15625 C 315.83291 386.06925 316.47626 385.97655 319.15625 385.09375 C 323.07159 383.80405 325.52323 382.52995 328 380.46875 C 333.79224 375.64835 336.84375 368.88065 336.84375 360.84375 C 336.84375 350.29415 330.96752 341.5995 322.0625 339 C 305.47178 334.1568 303.99933 333.46485 302.21875 329.53125 C 300.89025 326.59645 301.54848 322.92435 303.875 320.28125 C 306.13238 317.71675 309.30459 316.6134 314.375 316.625 C 321.23867 316.641 326.57383 319.19125 329.09375 323.65625 C 330.45931 326.07595 331.2247 326.54945 332.875 326.09375 C 334.74144 325.57845 335.29998 324.53355 334.84375 322.40625 C 333.18227 314.65885 326.71106 307.8831 318.90625 305.6875 C 317.01174 305.1545 314.04531 304.8767 311.03125 304.875 z M 244.46875 304.90625 C 240.28981 304.93225 239.20939 305.04935 237.09375 305.65625 C 232.20367 307.05915 227.47087 309.79175 223.75 313.34375 C 218.39002 318.46035 214.98304 324.83935 213.09375 333.28125 C 212.38339 336.45535 212.3125 337.69475 212.3125 344.65625 C 212.3125 352.62012 212.47153 354.37685 213.875 359.78125 C 215.89964 367.57775 220.95018 375.47745 226.625 379.78125 C 229.6639 382.08585 234.4928 384.38685 238.40625 385.40625 C 242.72898 386.53215 251.63742 386.6044 255.78125 385.5625 C 260.14301 384.4657 264.27067 382.27615 267.34375 379.40625 C 271.5709 375.45865 273.00956 373.2209 275.6875 366.5 L 277.09375 363 L 275.8125 361.875 C 274.27337 360.5442 273.1575 360.189 272.40625 360.8125 C 272.10386 361.0635 270.97932 362.43865 269.90625 363.84375 C 264.62524 370.75895 259.77063 373.375 252.21875 373.375 C 248.56659 373.375 245.45158 372.66745 242.6875 371.28125 C 236.33905 368.09765 231.09782 358.8834 230.75 350.25 L 230.65625 347.71875 L 253.8125 347.625 L 276.96875 347.53125 L 278.03125 346.3125 C 278.97407 345.2387 279.0625 344.8898 279.0625 342.9375 C 279.0625 339.7241 278.15715 333.19885 277.1875 329.53125 C 275.98049 324.96595 274.3712 321.2105 272.15625 317.8125 C 267.89727 311.2786 263.21839 307.82915 255.71875 305.65625 C 253.37479 304.97715 252.30604 304.90625 246.4375 304.90625 L 244.46875 304.90625 z M 368.46875 305.59375 C 364.26671 305.61875 363.31951 305.756 361.3125 306.375 C 357.22088 307.6368 354.26599 309.3369 351.59375 312 C 348.80418 314.7799 347.5379 316.5418 345.6875 320.25 C 343.52983 324.574 343.49803 325.56335 345.46875 326.78125 C 347.23213 327.87115 348.17359 327.68615 349.46875 326.03125 C 351.38789 323.57915 354.93134 320.1867 356.53125 319.25 C 357.37222 318.7576 358.9799 318.1025 360.09375 317.8125 C 362.69059 317.1362 368.05096 317.1424 370.625 317.8125 C 375.07765 318.9722 379.04473 323.1259 380.5 328.125 C 381.39815 331.2104 382.01029 337.6875 381.40625 337.6875 C 381.25868 337.6875 379.70894 337.2412 377.9375 336.6875 C 372.6094 335.022 365.48283 334.5041 360.25 335.4375 C 353.1786 336.6989 346.04903 342.15962 342.90625 348.71875 C 335.94894 363.23925 341.53413 380.89485 354.5 385.34375 C 356.69107 386.09555 357.65205 386.2321 361.34375 386.25 C 364.86504 386.267 366.11968 386.1442 368.34375 385.5 C 372.12413 384.4051 375.81656 382.16435 378.78125 379.21875 C 380.14783 377.86105 381.35255 376.75 381.4375 376.75 C 381.5224 376.75 381.68625 377.82855 381.78125 379.15625 C 381.93443 381.29695 382.052 381.70865 383 382.65625 L 384.0625 383.71875 L 390.1875 383.71875 L 396.28125 383.71875 L 397.21875 382.78125 L 398.15625 381.84375 L 398.28125 359 C 398.38546 335.58692 398.13331 328.0621 397.125 324.25 C 395.89572 319.6024 392.54714 314.084 389.375 311.4375 C 387.03664 309.4866 382.69704 307.1968 379.8125 306.375 C 377.40237 305.6883 376.34344 305.59385 370.46875 305.59375 L 368.46875 305.59375 z M 113.3125 306.40625 C 110.35319 306.43625 107.38884 306.683 105.625 307.125 C 100.36155 308.444 96.14451 310.95955 92.09375 315.21875 C 91.00424 316.36435 89.95319 317.20005 89.78125 317.09375 C 89.60931 316.98755 89.46875 315.5429 89.46875 313.875 C 89.46875 311.005 89.40635 310.8002 88.46875 309.75 L 87.5 308.625 L 80.59375 308.53125 C 72.65331 308.40915 71.86575 308.50915 70.65625 309.71875 L 69.75 310.59375 L 69.75 346.1875 L 69.75 381.75 L 70.5 382.6875 C 71.8579 384.4138 72.7135 384.5924 80.21875 384.5 L 87.09375 384.40625 L 88.1875 383.28125 L 89.3125 382.1875 L 89.46875 354.96875 L 89.625 327.75 L 92.78125 324.71875 C 97.35811 320.33385 100.34044 319.0064 105.5 319 C 109.41114 319 111.82717 319.8397 113.9375 322 C 114.78267 322.8652 115.77972 324.17865 116.125 324.90625 C 117.6258 328.06895 117.68616 329.35967 117.6875 356.03125 C 117.6885 380.19905 117.7032 381.3758 118.3125 382.375 C 119.48334 384.295 120.61959 384.5625 127.6875 384.5625 C 134.55412 384.5625 135.49843 384.37985 137.03125 382.71875 L 137.875 381.78125 L 138 356.59375 C 138.0814 335.58037 137.998 330.6613 137.5625 327.0625 C 136.72754 320.1596 134.92182 316.20495 130.90625 312.40625 C 128.28612 309.92775 124.26609 307.73345 120.96875 306.96875 C 119.21563 306.56225 116.27181 306.37635 113.3125 306.40625 z M 34.34375 317.625 C 38.59704 317.625 40.74683 318.4453 43.28125 321 C 45.54318 323.2801 46.97981 326.61835 47.8125 331.46875 C 48.46268 335.25595 48.48013 335.5326 47.9375 335.6875 C 47.7039 335.7545 41.03684 335.76775 33.125 335.71875 L 18.71875 335.625 L 18.96875 334.1875 C 19.82633 328.6496 22.20446 323.39795 25 320.84375 C 27.51935 318.54195 30.1674 317.6204 34.34375 317.625 z M 176.03125 317.625 L 177 317.625 C 182.01934 317.625 184.8767 319.2835 188.03125 324 L 189.71875 326.53125 L 189.71875 346.3125 L 189.71875 366.09375 L 187.1875 368.8125 C 183.68219 372.5856 181.38252 373.8121 177.46875 373.9375 C 175.88026 373.9885 174.2172 373.87155 173.75 373.71875 C 167.73799 371.74645 163.87226 366.2408 161.96875 356.8125 C 161.25786 353.2914 160.94076 341.86815 161.4375 337.65625 C 162.58629 327.91545 166.03835 321.51995 171.65625 318.71875 C 173.38717 317.85565 173.99675 317.6576 176.03125 317.625 z M 246.65625 317.65625 C 250.883 317.61525 252.79496 318.42545 255.46875 321.15625 C 257.11686 322.83945 257.66098 323.72105 258.40625 325.78125 C 259.57639 329.01575 259.92899 330.48925 260.21875 333.34375 L 260.46875 335.65625 L 245.65625 335.65625 C 236.80983 335.65625 230.8125 335.5 230.8125 335.3125 C 230.8125 333.9447 232.51433 328.1364 233.5625 325.875 C 235.20234 322.3371 237.29024 320.07245 240.09375 318.78125 C 241.91356 317.94305 242.71628 317.7864 245.78125 317.6875 C 246.08458 317.6775 246.37447 317.65925 246.65625 317.65625 z M 369.96875 346.96875 C 372.81002 346.94175 377.09335 347.64775 379.46875 348.59375 L 381.5 349.40625 L 381.59375 359 L 381.6875 368.59375 L 380.0625 369.78125 C 379.17192 370.44105 377.32804 371.551 375.9375 372.25 C 373.51049 373.4699 373.23918 373.532 369.46875 373.625 C 365.62014 373.72 365.50771 373.71 363.75 372.6875 C 361.36623 371.3004 359.20009 368.33895 358.40625 365.40625 C 357.52746 362.15975 357.79 356.8569 358.96875 354.3125 C 360.85826 350.2339 364.61173 347.47325 368.84375 347.03125 C 369.1811 346.99625 369.56286 346.97275 369.96875 346.96875 z "
       transform="translate(0,652.36218)"
       id="path3037" />
  </g>
</svg>
