<?xml version="1.0" encoding="UTF-8" standalone="no"?>
<!-- Generator: Adobe Illustrator 16.0.0, SVG Export Plug-In . SVG Version: 6.00 Build 0)  -->

<svg
   xmlns:dc="http://purl.org/dc/elements/1.1/"
   xmlns:cc="http://creativecommons.org/ns#"
   xmlns:rdf="http://www.w3.org/1999/02/22-rdf-syntax-ns#"
   xmlns:svg="http://www.w3.org/2000/svg"
   xmlns="http://www.w3.org/2000/svg"
   xmlns:sodipodi="http://sodipodi.sourceforge.net/DTD/sodipodi-0.dtd"
   xmlns:inkscape="http://www.inkscape.org/namespaces/inkscape"
   version="1.1"
   id="Layer_1"
   x="0px"
   y="0px"
   width="886.5863"
   height="305.76904"
   viewBox="0 0 886.58633 305.76905"
   xml:space="preserve"
   inkscape:version="0.91 r13725"
   sodipodi:docname="COPEC.svg"><metadata
     id="metadata3395"><rdf:RDF><cc:Work
         rdf:about=""><dc:format>image/svg+xml</dc:format><dc:type
           rdf:resource="http://purl.org/dc/dcmitype/StillImage" /><dc:title></dc:title></cc:Work></rdf:RDF></metadata><defs
     id="defs3393" /><sodipodi:namedview
     pagecolor="#ffffff"
     bordercolor="#666666"
     borderopacity="1"
     objecttolerance="10"
     gridtolerance="10"
     guidetolerance="10"
     inkscape:pageopacity="0"
     inkscape:pageshadow="2"
     inkscape:window-width="1366"
     inkscape:window-height="715"
     id="namedview3391"
     showgrid="false"
     fit-margin-top="10"
     fit-margin-left="10"
     fit-margin-right="10"
     fit-margin-bottom="10"
     inkscape:zoom="0.67673803"
     inkscape:cx="392.44751"
     inkscape:cy="24.073849"
     inkscape:window-x="-8"
     inkscape:window-y="22"
     inkscape:window-maximized="1"
     inkscape:current-layer="Layer_1" /><g
     id="g3418"
     transform="matrix(4.9726639,0,0,4.9726639,-39.637131,-326.37585)"><path
       style="clip-rule:evenodd;fill:#cc2131;fill-rule:evenodd"
       d="m 177.941,100.251 c 0.01,-1.749 1.465,-3.055 3.178,-3.073 1.697,-0.019 3.141,1.256 3.133,3.005 -0.008,1.766 -1.465,3.071 -3.162,3.09 -1.713,0.017 -3.156,-1.256 -3.149,-3.022 l 0,0 z m 3.151,2.732 c 1.523,-0.017 2.734,-1.199 2.742,-2.787 0.008,-1.562 -1.191,-2.727 -2.715,-2.711 -1.543,0.017 -2.754,1.208 -2.76,2.77 -0.009,1.588 1.19,2.745 2.733,2.728 l 0,0 z"
       id="path3351"
       inkscape:connector-curvature="0" /><path
       style="clip-rule:evenodd;fill:#cc2131;fill-rule:evenodd"
       d="m 180.385,98.878 1.084,0 c 0.15,0 0.271,0.024 0.363,0.074 0.17,0.094 0.254,0.271 0.254,0.531 0,0.242 -0.061,0.409 -0.182,0.502 -0.121,0.093 -0.287,0.139 -0.494,0.139 l -1.025,0 0,-1.246 0,0 z m 0,3.224 0,-1.564 1.01,0 c 0.182,0 0.314,0.021 0.398,0.066 0.148,0.081 0.229,0.241 0.24,0.479 l 0.025,0.609 c 0.006,0.143 0.014,0.238 0.023,0.287 0.008,0.051 0.02,0.091 0.035,0.122 l 0.545,0 0,-0.082 c -0.068,-0.032 -0.117,-0.107 -0.143,-0.224 -0.018,-0.067 -0.027,-0.172 -0.033,-0.311 l -0.016,-0.489 c -0.006,-0.212 -0.043,-0.365 -0.107,-0.459 -0.064,-0.095 -0.16,-0.171 -0.289,-0.229 0.146,-0.084 0.26,-0.195 0.34,-0.335 0.082,-0.139 0.123,-0.317 0.123,-0.536 0,-0.419 -0.154,-0.707 -0.463,-0.862 -0.162,-0.081 -0.367,-0.122 -0.617,-0.122 l -1.518,0 0,3.649 0.447,0 0,0.001 z"
       id="path3353"
       inkscape:connector-curvature="0" /><path
       style="clip-rule:evenodd;fill:#cc2131;fill-rule:evenodd"
       d="m 23.804,78.818 c 0.279,-0.964 1.043,-1.736 2.162,-1.736 l 16.583,-0.029 1.56,-9.348 -22.95,0 c -3.807,0 -5.549,2.369 -5.876,4.445 l -4.317,24.318 c -0.516,3.113 0.646,6.627 4.744,6.601 l 22.331,0 1.564,-9.3 -17.219,0.002 c -0.778,-0.08 -1.033,-0.665 -0.928,-1.41 l 2.346,-13.543 0,0 z m 28.385,13.543 c -0.104,0.745 0.15,1.331 0.929,1.41 l 10.644,-0.002 c 1.119,0 1.872,-0.922 2.151,-1.887 l 0.125,-0.707 0,0 2.269,-12.787 c 0.105,-0.746 -0.148,-1.306 -0.926,-1.385 L 56.688,76.932 c -1.119,0 -1.871,0.922 -2.15,1.887 l -2.349,13.542 0,0 z m 22.302,6.263 c -0.327,2.076 -2.069,4.445 -5.875,4.445 l -22.174,0 c -4.097,0.026 -5.26,-3.487 -4.744,-6.601 L 46.015,72.15 c 0.327,-2.077 2.07,-4.445 5.876,-4.445 l 22.173,0 c 3.938,0 5.407,3.276 4.743,6.6 l -4.316,24.319 0,0 z m 31.478,-4.069 -18.213,-0.077 -1.649,8.584 -9.843,0 2.166,-11.887 0,0 4.284,-23.515 27.363,-0.014 c 3.938,0 5.41,3.326 4.746,6.65 l -2.979,15.813 c -0.444,2.819 -3.053,4.446 -5.875,4.446 l 0,0 z m 17.82,-2.194 c -0.104,0.745 0.152,1.331 0.93,1.41 l 22.461,-0.002 -1.875,9.169 -27.264,0.12 c -4.096,0.026 -5.264,-3.537 -4.748,-6.65 l 4.318,-24.318 c 0.328,-2.076 2.07,-4.445 5.875,-4.445 l 22.174,0 c 3.939,0 5.406,3.276 4.744,6.601 l -2.883,15.418 -23.279,-0.002 -0.453,2.699 0,0 z m 25.393,4.108 c -0.516,3.113 0.646,6.627 4.744,6.601 l 22.332,0 1.562,-9.3 -17.219,0.002 c -0.777,-0.08 -1.033,-0.665 -0.928,-1.41 l 0.205,-1.186 0,0 2.143,-12.357 c 0.279,-0.964 1.043,-1.736 2.162,-1.736 l 16.582,-0.029 1.561,-9.348 -22.951,0 c -3.807,0 -5.549,2.369 -5.877,4.445 l -4.316,24.318 0,0 z M 89.331,85.165 101.149,85.162 c 1.117,0 1.871,-0.922 2.15,-1.887 l 1.023,-4.896 c 0.104,-0.745 -0.148,-1.306 -0.926,-1.385 L 90.89,76.98 l -1.559,8.185 0,0 z m 50.026,-3.458 0.551,-3.319 c 0.105,-0.746 -0.148,-1.306 -0.928,-1.385 l -10.691,-0.071 c -1.119,0 -1.871,0.922 -2.15,1.887 l -0.498,2.867 13.716,0.021 0,0 z"
       id="path3355"
       inkscape:connector-curvature="0" /><path
       d="m 9.982,110.705 0,14.022 3.253,0 0,-4.828 3.095,0 c 1.676,0 5.284,-0.28 5.284,-4.667 0,-3.466 -2.405,-4.527 -5.205,-4.527 l -6.427,0 0,0 z m 3.253,2.724 2.543,0 c 0.729,0 2.326,-0.08 2.326,1.823 0,1.362 -0.789,1.924 -2.326,1.924 l -2.543,0 0,-3.747 0,0 z"
       id="path3357"
       inkscape:connector-curvature="0" /><path
       d="m 29.056,114.171 -0.355,0 c -1.321,0 -2.76,0.38 -3.529,2.043 l 0,-1.663 -2.997,0 0,10.177 2.997,0 0,-4.166 c 0,-3.566 1.38,-4.367 3.095,-4.367 0.256,0 0.533,0 0.789,0.02 l 0,-2.044 0,0 z"
       id="path3359"
       inkscape:connector-curvature="0" /><path
       d="m 29.341,114.551 0,10.177 2.997,0 0,-10.177 -2.997,0 0,0 z m 0,-1.462 2.997,0 0,-2.384 -2.997,0 0,2.384 0,0 z"
       id="path3361"
       inkscape:connector-curvature="0" /><path
       d="m 33.629,114.551 0,10.177 2.997,0 0,-5.85 c 0,-2.003 1.045,-2.664 1.813,-2.664 1.223,0 1.518,1.021 1.518,2.524 l 0,5.989 2.997,0 0,-5.85 c 0,-2.023 1.006,-2.664 1.833,-2.664 1.34,0 1.499,1.463 1.499,2.524 l 0,5.989 2.997,0 0,-6.189 c 0,-1.343 -0.177,-4.367 -3.411,-4.367 -0.67,0 -2.109,0.06 -3.431,2.043 -0.295,-0.861 -1.064,-2.043 -2.938,-2.043 -0.848,0 -1.951,0.26 -3.075,1.862 l 0,-1.482 -2.799,0 0,0.001 z"
       id="path3363"
       inkscape:connector-curvature="0" /><path
       d="m 57.591,121.783 c -0.256,0.901 -1.163,1.282 -2.03,1.282 -1.952,0 -2.386,-1.703 -2.405,-2.685 l 7.688,0 -0.02,-0.562 c -0.04,-1.241 -0.296,-5.648 -5.165,-5.648 -3.273,0 -5.619,1.923 -5.619,5.448 0,5.192 4.062,5.493 5.382,5.493 1.853,0 4.416,-0.444 5.205,-3.329 l -3.036,0 0,0.001 z m -4.435,-3.105 c 0.059,-1.042 0.69,-2.464 2.464,-2.464 0.729,0 2.07,0.28 2.109,2.464 l -4.573,0 0,0 z"
       id="path3365"
       inkscape:connector-curvature="0" /><path
       d="m 67.912,114.171 -0.355,0 c -1.321,0 -2.76,0.38 -3.529,2.043 l 0,-1.663 -2.997,0 0,10.177 2.997,0 0,-4.166 c 0,-3.566 1.38,-4.367 3.095,-4.367 0.256,0 0.532,0 0.789,0.02 l 0,-2.044 0,0 z"
       id="path3367"
       inkscape:connector-curvature="0" /><path
       d="m 71.056,117.837 c 0,-1.503 1.301,-1.623 1.833,-1.623 0.335,0 1.577,0.02 1.617,1.342 0,0.101 0,0.181 0,0.281 -0.059,1.001 -0.848,0.801 -3.056,1.142 -1.814,0.301 -3.726,0.861 -3.726,3.185 0,0.842 0.295,2.949 3.489,2.949 1.222,0 2.563,-0.385 3.352,-1.386 l 0.059,0 0.256,1.001 3.154,0 0,-0.18 c -0.572,-0.141 -0.611,-0.821 -0.591,-1.924 l 0.059,-4.647 c 0.02,-1.182 -0.079,-3.806 -4.594,-3.806 -1.084,0 -4.573,0.12 -4.711,3.666 l 2.859,0 0,0 z m 3.469,2.684 c 0,2.044 -1.459,2.545 -2.188,2.545 -0.552,0 -1.538,-0.221 -1.538,-1.183 0,-1.142 1.124,-1.362 1.755,-1.462 1.163,-0.2 1.064,-0.141 1.971,-0.541 l 0,0.641 0,0 z"
       id="path3369"
       inkscape:connector-curvature="0" /><path
       d="m 89.853,121.783 c -0.256,0.901 -1.163,1.282 -2.03,1.282 -1.952,0 -2.386,-1.703 -2.405,-2.685 l 7.688,0 -0.02,-0.562 c -0.04,-1.241 -0.296,-5.648 -5.165,-5.648 -3.273,0 -5.619,1.923 -5.619,5.448 0,5.192 4.062,5.493 5.382,5.493 1.853,0 4.416,-0.444 5.205,-3.329 l -3.036,0 0,0.001 z m -4.436,-3.105 c 0.059,-1.042 0.69,-2.464 2.464,-2.464 0.729,0 2.07,0.28 2.109,2.464 l -4.573,0 0,0 z"
       id="path3371"
       inkscape:connector-curvature="0" /><path
       d="m 96.565,114.551 -2.878,0 0,10.177 2.997,0 0,-5.729 c 0,-0.44 0.039,-2.784 2.011,-2.784 1.596,0 1.695,1.623 1.695,2.624 l 0,5.89 2.996,0 0,-6.391 c 0,-3.786 -1.99,-4.166 -3.352,-4.166 -1.34,0 -2.662,0.48 -3.47,1.603 l 0,-1.224 0.001,0 z"
       id="path3373"
       inkscape:connector-curvature="0" /><path
       d="m 109.191,121.522 c 0.08,2.144 1.873,3.59 4.988,3.59 4.021,0 4.791,-1.927 4.791,-3.47 0,-2.524 -2.207,-2.845 -3.924,-3.104 -1.084,-0.16 -2.504,-0.241 -2.504,-1.442 0,-0.821 1.184,-0.882 1.695,-0.882 0.395,0 1.459,-0.04 1.578,1.142 l 2.721,0 c -0.059,-1.362 -0.848,-3.185 -4.494,-3.185 -4.24,0 -4.613,2.203 -4.613,3.125 0,2.464 2.068,2.925 3.547,3.145 1.5,0.221 2.879,0.361 2.879,1.543 0,0.781 -0.887,1.082 -1.576,1.082 -1.203,0 -1.953,-0.441 -2.012,-1.543 l -3.076,0 0,-10e-4 z"
       id="path3375"
       inkscape:connector-curvature="0" /><path
       d="m 126.689,121.783 c -0.258,0.901 -1.164,1.282 -2.031,1.282 -1.951,0 -2.387,-1.703 -2.406,-2.685 l 7.689,0 -0.02,-0.562 c -0.039,-1.241 -0.297,-5.648 -5.166,-5.648 -3.271,0 -5.617,1.923 -5.617,5.448 0,5.192 4.061,5.493 5.381,5.493 1.854,0 4.416,-0.444 5.205,-3.329 l -3.035,0 0,0.001 z m -4.437,-3.105 c 0.061,-1.042 0.691,-2.464 2.465,-2.464 0.73,0 2.07,0.28 2.109,2.464 l -4.574,0 0,0 z"
       id="path3377"
       inkscape:connector-curvature="0" /><path
       d="m 137.01,114.171 -0.355,0 c -1.322,0 -2.76,0.38 -3.529,2.043 l 0,-1.663 -2.996,0 0,10.177 2.996,0 0,-4.166 c 0,-3.566 1.381,-4.367 3.096,-4.367 0.256,0 0.531,0 0.789,0.02 l 0,-2.044 -0.001,0 z"
       id="path3379"
       inkscape:connector-curvature="0" /><polygon
       points="143.484,124.728 147.152,114.551 143.898,114.551 141.828,121.683 141.828,121.683 139.758,114.551 136.502,114.551 140.172,124.728 "
       id="polygon3381" /><path
       d="m 147.949,114.551 0,10.177 2.996,0 0,-10.177 -2.996,0 0,0 z m 0,-1.462 2.996,0 0,-2.384 -2.996,0 0,2.384 0,0 z"
       id="path3383"
       inkscape:connector-curvature="0" /><path
       d="m 159.098,120.882 c -0.02,0.701 -0.375,2.184 -1.971,2.184 -0.611,0 -2.248,-0.24 -2.248,-3.626 0,-3.045 1.637,-3.226 2.287,-3.226 0.887,0 1.695,0.32 1.912,1.963 l 2.879,0 c -0.178,-1.862 -1.242,-4.006 -4.674,-4.006 -4.455,0 -5.52,3.064 -5.52,5.488 0,3.526 2.07,5.453 5.342,5.453 3.826,0 4.832,-2.648 4.949,-4.23 l -2.956,0 0,0 z"
       id="path3385"
       inkscape:connector-curvature="0" /><path
       d="m 162.773,114.551 0,10.177 2.998,0 0,-10.177 -2.998,0 0,0 z m 0,-1.462 2.998,0 0,-2.384 -2.998,0 0,2.384 0,0 z"
       id="path3387"
       inkscape:connector-curvature="0" /><path
       d="m 172.068,125.112 c 3.115,0 5.48,-1.747 5.48,-5.493 0,-3.706 -2.346,-5.448 -5.48,-5.448 -2.799,0 -5.48,1.441 -5.48,5.448 0,3.746 2.365,5.493 5.48,5.493 l 0,0 z m 0,-2.047 c -2.129,0 -2.365,-2.144 -2.365,-3.446 0,-3.245 1.695,-3.405 2.365,-3.405 0.75,0 2.367,0.16 2.367,3.405 0.001,1.282 -0.197,3.446 -2.367,3.446 l 0,0 z"
       id="path3389"
       inkscape:connector-curvature="0" /></g></svg>