<?xml version="1.0" encoding="UTF-8" standalone="no"?>
<!-- Created with Inkscape (http://www.inkscape.org/) -->

<svg
   xmlns:dc="http://purl.org/dc/elements/1.1/"
   xmlns:cc="http://creativecommons.org/ns#"
   xmlns:rdf="http://www.w3.org/1999/02/22-rdf-syntax-ns#"
   xmlns:svg="http://www.w3.org/2000/svg"
   xmlns="http://www.w3.org/2000/svg"
   xmlns:sodipodi="http://sodipodi.sourceforge.net/DTD/sodipodi-0.dtd"
   xmlns:inkscape="http://www.inkscape.org/namespaces/inkscape"
   width="512"
   height="145"
   id="svg3211"
   version="1.1"
   inkscape:version="0.48.5 r10040"
   sodipodi:docname="logoImatechHorisontal512.svg">
  <defs
     id="defs3213" />
  <sodipodi:namedview
     id="base"
     pagecolor="#000000"
     bordercolor="#666666"
     borderopacity="1.0"
     inkscape:pageopacity="0"
     inkscape:pageshadow="2"
     inkscape:zoom="0.42398786"
     inkscape:cx="-134.34136"
     inkscape:cy="72.5"
     inkscape:document-units="px"
     inkscape:current-layer="layer1"
     showgrid="false"
     inkscape:window-width="1366"
     inkscape:window-height="715"
     inkscape:window-x="-8"
     inkscape:window-y="22"
     inkscape:window-maximized="1" />
  <metadata
     id="metadata3216">
    <rdf:RDF>
      <cc:Work
         rdf:about="">
        <dc:format>image/svg+xml</dc:format>
        <dc:type
           rdf:resource="http://purl.org/dc/dcmitype/StillImage" />
      </cc:Work>
    </rdf:RDF>
  </metadata>
  <g
     inkscape:label="Capa 1"
     inkscape:groupmode="layer"
     id="layer1"
     transform="translate(0,-907.36218)">
    <g
       id="text4159"
       style="font-size:116.19239807000001000px;font-style:normal;font-variant:normal;font-weight:200;font-stretch:normal;text-align:start;line-height:125%;letter-spacing:0px;word-spacing:0px;writing-mode:lr-tb;text-anchor:start;fill:#000000;fill-opacity:1;stroke:none;font-family:Lato Hairline;-inkscape-font-specification:Lato Hairline Ultra-Light;opacity:0.8"
       transform="translate(-138.28572,393.88695)">
      <path
         inkscape:connector-curvature="0"
         id="path3346"
         d="m 291.47841,564.16909 0,56.93314 -1.39354,0 0,-56.93314 z m 2.55661,-21.14781 c -2e-5,0.81328 -0.33925,1.5396 -1.01768,2.17896 -0.67847,0.63953 -1.42429,0.95925 -2.23747,0.95917 -0.89122,8e-5 -1.65595,-0.31964 -2.29421,-0.95917 -0.63827,-0.63936 -0.9574,-1.36568 -0.95739,-2.17896 -1e-5,-0.89112 0.31912,-1.65645 0.95739,-2.29597 0.63826,-0.63937 1.40299,-0.95909 2.29421,-0.95917 0.81318,8e-5 1.559,0.3198 2.23747,0.95917 0.67843,0.63952 1.01766,1.40485 1.01768,2.29597 z"
         style="fill:#000000" />
      <path
         inkscape:connector-curvature="0"
         id="path3348"
         d="m 313.98076,621.10223 0,-56.93314 0.3475,0 c 0.54133,6e-5 0.812,0.30974 0.81202,0.92903 l 0.17374,10.74766 c 2.20791,-3.83427 4.89985,-6.89379 8.07582,-9.17859 3.17593,-2.28469 6.62314,-3.42707 10.34164,-3.42713 4.56947,6e-5 8.14256,1.4137 10.71929,4.24091 2.57665,2.82733 4.17468,6.8543 4.79407,12.08092 0.46329,-2.74922 1.26644,-5.15039 2.40945,-7.20352 1.14292,-2.05303 2.52759,-3.75684 4.15403,-5.11143 1.62634,-1.35448 3.43712,-2.36093 5.43234,-3.01934 1.99511,-0.6583 4.05764,-0.98748 6.18761,-0.98754 2.67119,6e-5 5.09127,0.46458 7.26025,1.39355 2.16885,0.92908 4.00858,2.29426 5.51921,4.09552 1.51048,1.80138 2.68241,4.03825 3.51577,6.71064 0.83321,2.67248 1.24986,5.732 1.24994,9.17859 l 0,36.48387 -1.39354,0 0,-36.48387 c -8e-5,-6.54571 -1.40426,-11.55194 -4.21255,-15.0187 -2.80843,-3.46667 -6.78812,-5.20003 -11.93908,-5.20008 -2.28599,5e-5 -4.48445,0.42615 -6.59539,1.2783 -2.11105,0.85225 -3.97975,2.1211 -5.60609,3.80653 -1.62644,1.68554 -2.92365,3.78649 -3.89163,6.30286 -0.96808,2.51646 -1.4521,5.46015 -1.45205,8.83109 l 0,36.48387 -1.39355,0 0,-36.48387 c -4e-5,-3.1771 -0.31976,-6.01441 -0.95916,-8.51196 -0.63949,-2.49745 -1.58861,-4.61791 -2.84737,-6.36136 -1.25884,-1.74336 -2.81786,-3.07012 -4.67706,-3.98029 -1.85927,-0.91006 -3.98977,-1.36512 -6.3915,-1.36517 -3.67832,5e-5 -7.05698,1.17198 -10.13599,3.51577 -3.07904,2.3439 -5.78044,5.58781 -8.10417,9.73175 l 0,43.45513 z"
         style="fill:#000000" />
      <path
         inkscape:connector-curvature="0"
         id="path3350"
         d="m 439.16914,621.10223 c -0.54139,0 -0.81206,-0.30967 -0.81201,-0.92902 l -0.35105,-9.2371 c -1.62643,1.70441 -3.25282,3.24392 -4.87917,4.61855 -1.62643,1.37463 -3.34974,2.53651 -5.16994,3.48563 -1.82027,0.94912 -3.77643,1.6849 -5.86848,2.20733 -2.09212,0.52243 -4.41587,0.78364 -6.97126,0.78364 -1.70442,0 -3.41828,-0.26121 -5.14157,-0.78364 -1.72333,-0.52243 -3.28235,-1.35513 -4.67706,-2.4981 -1.39473,-1.14296 -2.52765,-2.6151 -3.39875,-4.41643 -0.87112,-1.80131 -1.30668,-3.99859 -1.30667,-6.59185 -1e-5,-2.55776 0.74581,-4.85315 2.23747,-6.88616 1.49163,-2.03296 3.77697,-3.76573 6.85602,-5.1983 3.07901,-1.43252 6.96178,-2.56544 11.64831,-3.39876 4.68648,-0.83326 10.24351,-1.32673 16.6711,-1.48041 l 0,-7.32231 c -4e-5,-2.98089 -0.32922,-5.65273 -0.98754,-8.01553 -0.6584,-2.36271 -1.62643,-4.35787 -2.9041,-5.9855 -1.27775,-1.62752 -2.88463,-2.87686 -4.82066,-3.74802 -1.9361,-0.87106 -4.18303,-1.30662 -6.74078,-1.30667 -2.0141,5e-5 -3.83433,0.2134 -5.4607,0.64003 -1.62641,0.42675 -3.07846,0.94977 -4.35615,1.56907 -1.27773,0.61941 -2.39114,1.29727 -3.34025,2.03358 -0.94914,0.73642 -1.77238,1.41428 -2.46973,2.03358 -0.69737,0.6194 -1.25881,1.14183 -1.6843,1.56729 -0.42552,0.42556 -0.7352,0.63831 -0.92903,0.63827 -0.15603,4e-5 -0.34988,-0.11579 -0.58153,-0.3475 l -0.23403,-0.23403 c 2.78944,-2.94306 5.67521,-5.1888 8.65734,-6.73723 2.98209,-1.54833 6.44821,-2.32252 10.39838,-2.32258 2.90525,6e-5 5.41339,0.46458 7.52442,1.39355 2.11096,0.92908 3.86382,2.2653 5.25859,4.00865 1.39468,1.74346 2.42122,3.86391 3.07962,6.36136 0.65832,2.49755 0.98749,5.31477 0.98754,8.45168 l 0,37.64693 z m -24.05191,-0.23403 c 2.67359,0 5.09485,-0.30967 7.2638,-0.92902 2.16888,-0.61936 4.16345,-1.45205 5.98372,-2.4981 1.8202,-1.04604 3.51455,-2.25637 5.08306,-3.63101 1.56844,-1.37462 3.08786,-2.81722 4.55827,-4.32779 l 0,-17.54516 c -12.20033,0.38771 -21.25362,1.90832 -27.1599,4.56181 -5.90632,2.65355 -8.85947,6.40098 -8.85946,11.24231 -10e-6,2.28358 0.37763,4.2486 1.13292,5.89508 0.75527,1.64649 1.7428,3.00221 2.96261,4.06716 1.21978,1.06496 2.6145,1.85865 4.18417,2.38108 1.56964,0.52243 3.18657,0.78364 4.85081,0.78364 z"
         style="fill:#000000" />
      <path
         inkscape:connector-curvature="0"
         id="path3352"
         d="m 472.37304,622.03126 c -3.33318,0 -5.94828,-0.91011 -7.84533,-2.73035 -1.89708,-1.82023 -2.84561,-4.82125 -2.84559,-9.00307 l 0,-42.52965 -9.41085,0 c -0.54371,6e-5 -0.81556,-0.1926 -0.81556,-0.57798 l 0,-0.35105 10.22641,-0.23048 0.46451,-22.88885 c -1e-5,-0.19377 0.0485,-0.37816 0.14538,-0.55316 0.0969,-0.17486 0.24229,-0.26232 0.43615,-0.2624 l 0.3475,0 0,23.70441 19.40322,0 0,1.15951 -19.40322,0 0,42.52965 c -1e-5,1.93608 0.24229,3.57193 0.72691,4.90754 0.48459,1.33564 1.153,2.42009 2.00522,3.25338 0.85218,0.83329 1.83971,1.44318 2.9626,1.82969 1.12285,0.3865 2.32373,0.57975 3.60265,0.57975 1.62636,0 3.04945,-0.25176 4.26928,-0.75528 1.21976,-0.50351 2.25575,-1.04545 3.10799,-1.6258 0.85216,-0.58034 1.53948,-1.12227 2.06194,-1.6258 0.5224,-0.50351 0.89945,-0.75527 1.13115,-0.75527 0.15598,0 0.31082,0.078 0.46451,0.23403 l 0.23403,0.23048 c -0.58156,0.77538 -1.28838,1.5017 -2.12045,2.17896 -0.83214,0.67727 -1.74226,1.25821 -2.73035,1.74282 -0.98816,0.48461 -2.0342,0.86224 -3.13813,1.13292 -1.10399,0.27067 -2.19731,0.406 -3.27997,0.406 z"
         style="fill:#000000" />
      <path
         inkscape:connector-curvature="0"
         id="path3354"
         d="m 518.47697,563.24006 c 2.9809,6e-5 5.76916,0.53254 8.36481,1.59744 2.59556,1.06501 4.85194,2.64294 6.76914,4.73379 1.91711,2.09095 3.41762,4.65642 4.50153,7.6964 1.08382,3.04007 1.62575,6.53633 1.6258,10.4888 -5e-5,0.19388 -0.0674,0.33867 -0.20211,0.43437 -0.1348,0.0958 -0.29909,0.14365 -0.49289,0.14361 l -43.92319,0 c -0.0756,0.54374 -0.11348,1.06735 -0.11347,1.57084 -1e-5,0.50355 -1e-5,1.02598 0,1.5673 -1e-5,4.72554 0.56143,8.89907 1.68431,12.52061 1.12286,3.62157 2.72029,6.66218 4.7923,9.12185 2.07197,2.45969 4.57007,4.32838 7.49428,5.60608 2.92417,1.27772 6.16749,1.91657 9.72998,1.91657 3.21492,0 5.97482,-0.34868 8.2797,-1.04604 2.3048,-0.69736 4.22195,-1.47214 5.75146,-2.32435 1.52943,-0.85219 2.6913,-1.62697 3.48564,-2.32434 0.79423,-0.69736 1.3072,-1.04604 1.53892,-1.04605 0.15597,10e-6 0.31081,0.078 0.46451,0.23403 l 0.23403,0.23049 c -0.65958,0.81556 -1.63766,1.6589 -2.93424,2.53001 -1.29666,0.87111 -2.82613,1.67426 -4.5884,2.40944 -1.76236,0.73519 -3.68956,1.33563 -5.78161,1.80132 -2.09212,0.4657 -4.24213,0.69855 -6.45001,0.69855 -3.90999,0 -7.41453,-0.68791 -10.51363,-2.06372 -3.09914,-1.37581 -5.7237,-3.36093 -7.87369,-5.95536 -2.15002,-2.59441 -3.80596,-5.77036 -4.96782,-9.52786 -1.16189,-3.75746 -1.74282,-8.01787 -1.74282,-12.78123 0,-4.18178 0.56202,-8.00604 1.68608,-11.4728 1.12405,-3.46667 2.75103,-6.43932 4.88095,-8.91796 2.12989,-2.47854 4.73436,-4.40515 7.81341,-5.77984 3.07901,-1.37457 6.57468,-2.06189 10.48703,-2.06195 z m 0,1.15952 c -3.40883,5e-5 -6.4784,0.55203 -9.20873,1.65594 -2.73037,1.10401 -5.08308,2.65357 -7.05813,4.64869 -1.97509,1.99521 -3.55361,4.40643 -4.73557,7.23365 -1.18197,2.82732 -1.94671,5.94535 -2.2942,9.35412 l 43.28138,0 c -5e-5,-3.68062 -0.50356,-6.94404 -1.51055,-9.79026 -1.00709,-2.84614 -2.41127,-5.23785 -4.21255,-7.17515 -1.80136,-1.9372 -3.92181,-3.40934 -6.36136,-4.41643 -2.43962,-1.00699 -5.07305,-1.51051 -7.90029,-1.51056 z"
         style="fill:#000000" />
      <path
         inkscape:connector-curvature="0"
         id="path3356"
         d="m 592.37374,569.51278 c -0.1537,0.15607 -0.30854,0.23408 -0.46451,0.23403 -0.23171,5e-5 -0.66727,-0.28126 -1.30667,-0.84393 -0.63949,-0.56256 -1.56911,-1.17305 -2.78886,-1.83146 -1.21983,-0.6583 -2.74989,-1.2682 -4.59018,-1.82969 -1.84036,-0.56138 -4.05715,-0.8421 -6.65036,-0.84215 -3.68068,5e-5 -6.97305,0.65841 -9.87713,1.97507 -2.90412,1.31677 -5.36321,3.19551 -7.37727,5.63622 -2.01409,2.44082 -3.5536,5.40402 -4.61855,8.8896 -1.06496,3.48567 -1.59744,7.3974 -1.59743,11.73519 -1e-5,4.49151 0.53247,8.47061 1.59743,11.93731 1.06495,3.46673 2.58496,6.39092 4.56005,8.77258 1.97505,2.38168 4.34726,4.19246 7.11664,5.43234 2.76933,1.23989 5.85841,1.85983 9.26724,1.85983 3.02108,0 5.57709,-0.34868 7.66803,-1.04604 2.09086,-0.69736 3.81417,-1.47214 5.16993,-2.32435 1.35568,-0.85219 2.38222,-1.62697 3.07963,-2.32434 0.69731,-0.69736 1.16183,-1.04604 1.39354,-1.04605 0.15597,10e-6 0.31081,0.078 0.46452,0.23403 l 0.23403,0.23049 c -0.58158,0.85339 -1.43378,1.71563 -2.55661,2.58674 -1.12291,0.87111 -2.45913,1.66481 -4.00865,2.38108 -1.5496,0.71627 -3.29301,1.30726 -5.23022,1.77295 -1.93728,0.4657 -4.00868,0.69855 -6.2142,0.69855 -3.68069,0 -6.99256,-0.65895 -9.93565,-1.97685 -2.94312,-1.31789 -5.45067,-3.22559 -7.52265,-5.7231 -2.072,-2.49749 -3.67002,-5.54697 -4.79407,-9.14845 -1.12406,-3.60144 -1.68608,-7.70701 -1.68608,-12.31672 0,-4.4158 0.56202,-8.4345 1.68608,-12.05609 1.12405,-3.62151 2.75103,-6.71 4.88095,-9.26547 2.1299,-2.55536 4.73436,-4.53989 7.81341,-5.95358 3.07901,-1.41358 6.57469,-2.1204 10.48703,-2.12046 3.44659,6e-5 6.51558,0.55145 9.20696,1.65417 2.6913,1.10284 5.00619,2.52652 6.94467,4.27105 z"
         style="fill:#000000" />
      <path
         inkscape:connector-curvature="0"
         id="path3358"
         d="m 607.86584,621.10223 0,-83.65866 1.39354,0 0,38.57596 c 1.31671,-1.93602 2.79771,-3.68829 4.44303,-5.25682 1.64528,-1.56842 3.41706,-2.91468 5.31532,-4.03879 1.89822,-1.124 3.89338,-1.98565 5.9855,-2.58497 2.09205,-0.5992 4.24087,-0.89883 6.44646,-0.89889 6.31405,6e-5 11.0301,1.87821 14.14819,5.63446 3.11798,3.75635 4.677,9.00429 4.67705,15.74384 l 0,36.48387 -1.39354,0 0,-36.48387 c -5e-5,-3.1771 -0.34873,-6.01441 -1.04604,-8.51196 -0.69742,-2.49745 -1.77242,-4.61791 -3.22501,-6.36136 -1.45269,-1.74336 -3.27292,-3.07012 -5.4607,-3.98029 -2.18787,-0.91006 -4.75451,-1.36512 -7.69995,-1.36517 -4.45369,5e-5 -8.55867,1.19089 -12.31495,3.5725 -3.75631,2.38172 -7.0481,5.66464 -9.87536,9.84877 l 0,43.28138 z"
         style="fill:#000000" />
    </g>
    <path
       id="path4163"
       d="m 62.46068,1051.9732 -62.4499,-36.0555 0,-72.11102 62.4499,-36.0555 62.45,36.0555 0,72.11102 z"
       style="fill:#1976d2;fill-opacity:1;stroke:none"
       inkscape:connector-curvature="0" />
    <path
       sodipodi:nodetypes="ccccc"
       inkscape:connector-curvature="0"
       id="path4165"
       d="m 62.46068,979.86218 -62.4499,-36.0555 62.4499,-36.0555 62.45,36.0555 z"
       style="fill:#2196f3;fill-opacity:1;stroke:none" />
    <path
       sodipodi:nodetypes="ccccc"
       inkscape:connector-curvature="0"
       style="fill:#1e88e5;fill-opacity:1;stroke:none"
       d="m 62.46068,1051.9732 0,-72.11102 62.45,-36.0555 0,72.11102 z"
       id="path4167" />
    <path
       inkscape:connector-curvature="0"
       style="fill:#1e88e5;fill-opacity:1;fill-rule:evenodd;stroke:none"
       d="m 62.46068,939.86218 -34.641,20 0,40 34.641,20.00002 34.641,-20.00002 0,-40 z"
       id="path4169" />
    <path
       style="fill:#2196f3;fill-opacity:1;stroke:none"
       d="m 62.46068,979.86217 -34.641,20.00001 34.641,20.00002 34.641,-20.00002 z"
       id="path4171"
       inkscape:connector-curvature="0"
       sodipodi:nodetypes="ccccc" />
    <path
       id="path4173"
       d="m 62.46068,939.86218 0,39.99999 34.641,20.00001 0,-40 z"
       style="fill:#1976d2;fill-opacity:1;stroke:none"
       inkscape:connector-curvature="0"
       sodipodi:nodetypes="ccccc" />
  </g>
</svg>
