<?xml version="1.0" encoding="UTF-8" standalone="no"?>
<!-- Generator: Adobe Illustrator 16.0.0, SVG Export Plug-In . SVG Version: 6.00 Build 0)  -->

<svg
   xmlns:dc="http://purl.org/dc/elements/1.1/"
   xmlns:cc="http://creativecommons.org/ns#"
   xmlns:rdf="http://www.w3.org/1999/02/22-rdf-syntax-ns#"
   xmlns:svg="http://www.w3.org/2000/svg"
   xmlns="http://www.w3.org/2000/svg"
   xmlns:sodipodi="http://sodipodi.sourceforge.net/DTD/sodipodi-0.dtd"
   xmlns:inkscape="http://www.inkscape.org/namespaces/inkscape"
   version="1.1"
   id="Layer_1"
   x="0px"
   y="0px"
   width="4251.0366"
   height="692.17468"
   viewBox="-0.5 -0.5 4251.0365 692.1747"
   xml:space="preserve"
   inkscape:version="0.91 r13725"
   sodipodi:docname="ProtonMail.svg"><metadata
     id="metadata3370"><rdf:RDF><cc:Work
         rdf:about=""><dc:format>image/svg+xml</dc:format><dc:type
           rdf:resource="http://purl.org/dc/dcmitype/StillImage" /><dc:title></dc:title></cc:Work></rdf:RDF></metadata><defs
     id="defs3368" /><sodipodi:namedview
     pagecolor="#ffffff"
     bordercolor="#666666"
     borderopacity="1"
     objecttolerance="10"
     gridtolerance="10"
     guidetolerance="10"
     inkscape:pageopacity="0"
     inkscape:pageshadow="2"
     inkscape:window-width="1366"
     inkscape:window-height="715"
     id="namedview3366"
     showgrid="false"
     fit-margin-top="10"
     fit-margin-left="10"
     fit-margin-right="10"
     fit-margin-bottom="10"
     inkscape:zoom="0.18553375"
     inkscape:cx="2094.7369"
     inkscape:cy="178.16038"
     inkscape:window-x="-8"
     inkscape:window-y="22"
     inkscape:window-maximized="1"
     inkscape:current-layer="Layer_1" /><g
     id="Layer_1_1_"
     transform="translate(-1.916632,-37.667357)" /><g
     id="g3338"
     transform="translate(10,9.9991732)"><path
       stroke-miterlimit="10"
       d="m 823.495,470.975 -65.25,0 0,189.75 -71.25,0 0,-516.75 135,0 c 125.25,0 201.75,51 201.75,159.75 0,120.75 -83.25,167.25 -200.25,167.25 z m 6,-271.5 -71.25,0 0,215.25 71.25,0 c 68.25,0 118.5,-21.749 118.5,-110.25 0,-77.25 -49.5,-105 -118.5,-105 z"
       id="path3340"
       inkscape:connector-curvature="0"
       style="fill:#333366;stroke:#333366;stroke-width:20;stroke-miterlimit:10" /><path
       stroke-miterlimit="10"
       d="m 1107.743,660.725 0,-395.25 60,0 8.25,75.75 c 22.5,-55.5 57,-84.75 103.5,-84.75 12.75,0 27,1.5 39,4.5 l -12.75,67.5 c -12,-3 -20.25,-4.5 -34.5,-4.5 -49.5,0 -81,50.25 -94.5,105 l 0,231.75 -69,0 z"
       id="path3342"
       inkscape:connector-curvature="0"
       style="fill:#333366;stroke:#333366;stroke-width:20;stroke-miterlimit:10" /><path
       stroke-miterlimit="10"
       d="m 1520.988,247.475 c 112.5,0 175.499,81 175.499,206.25 0,122.25 -64.499,207 -176.249,207 -112.5,0 -176.25,-81 -176.25,-206.25 0,-122.25 64.5,-207 177,-207 z m 0,55.5 c -66,0 -102.75,48 -102.75,151.5 0,102.75 36,150.75 102,150.75 66,0 102,-48 102,-151.5 0,-102.749 -36,-150.75 -101.25,-150.75 z"
       id="path3344"
       inkscape:connector-curvature="0"
       style="fill:#333366;stroke:#333366;stroke-width:20;stroke-miterlimit:10" /><path
       stroke-miterlimit="10"
       d="m 1999.487,633.725 c -24,18 -55.5,27 -88.5,27 -73.5,0 -106.5,-46.5 -106.5,-114.75 l 0,-237 -63,0 0,-52.5 63,0 0,-89.25 69,-8.25 0,97.5 99.75,0 -8.25,52.5 -91.5,0 0,236.25 c 0,39.75 12.75,58.5 47.25,58.5 17.25,0 33,-5.25 52.5,-17.25 l 26.25,47.25 z"
       id="path3346"
       inkscape:connector-curvature="0"
       style="fill:#333366;stroke:#333366;stroke-width:20;stroke-miterlimit:10" /><path
       stroke-miterlimit="10"
       d="m 2206.485,247.475 c 112.5,0 175.5,81 175.5,206.25 0,122.25 -64.5,207 -176.25,207 -112.5,0 -176.25,-81 -176.25,-206.25 0,-122.25 64.5,-207 177,-207 z m 0,55.5 c -66,0 -102.75,48 -102.75,151.5 0,102.75 36,150.75 102,150.75 66,0 102,-48 102,-151.5 0,-102.749 -36,-150.75 -101.25,-150.75 z"
       id="path3348"
       inkscape:connector-curvature="0"
       style="fill:#333366;stroke:#333366;stroke-width:20;stroke-miterlimit:10" /><path
       stroke-miterlimit="10"
       d="m 2553.735,660.725 -69,0 0,-395.25 59.25,0 5.25,54 c 32.25,-40.5 79.5,-63 126,-63 76.5,0 107.25,43.5 107.25,117 l 0,287.249 -69,0 0,-282.748 c 0,-47.25 -16.5,-67.5 -61.5,-67.5 -42.75,0 -77.25,33 -98.25,63.75 l 0,286.499 z"
       id="path3350"
       inkscape:connector-curvature="0"
       style="fill:#333366;stroke:#333366;stroke-width:20;stroke-miterlimit:10" /><path
       stroke-miterlimit="10"
       d="m 3320.979,660.725 -22.5,-264.749 c -6,-72.75 -8.25,-155.25 -8.25,-171.75 l -3,0 -115.5,381.75 -68.25,0 -120,-381.75 -3,0 c 0,17.25 -1.5,105 -6.75,171.75 l -20.25,264.749 -67.5,0 42.75,-516.75 96,0 113.25,377.25 3,0 109.5,-377.25 96.75,0 42.75,516.75 -69,0 z"
       id="path3352"
       inkscape:connector-curvature="0"
       style="fill:#333366;stroke:#333366;stroke-width:20;stroke-miterlimit:10" /><path
       stroke-miterlimit="10"
       d="m 3762.72,562.475 c 0,31.5 9,42.75 29.25,50.25 l -16.5,48 c -35.25,-4.5 -60.75,-20.25 -72.75,-55.5 -27.75,37.5 -69.75,55.5 -117.75,55.5 -79.5,0 -128.25,-48.75 -128.25,-122.25 0,-81.75 66,-127.5 186,-127.5 l 51,0 0,-30.749 c 0,-55.5 -27.75,-76.5 -85.5,-76.5 -26.25,0 -63,6 -103.5,20.25 l -18,-51 c 48.75,-18 93,-25.5 132,-25.5 100.5,0 144,48.75 144,129 l 0,185.999 z m -69,-8.25 0,-97.5 -47.25,0 c -84.75,0 -114,30.75 -114,78.75 0,48.75 21.75,73.5 71.25,73.5 37.5,0 67.5,-20.25 90,-54.75 z"
       id="path3354"
       inkscape:connector-curvature="0"
       style="fill:#333366;stroke:#333366;stroke-width:20;stroke-miterlimit:10" /><path
       stroke-miterlimit="10"
       d="m 3923.212,175.475 c -28.5,0 -48,-20.25 -48,-47.25 0,-26.25 19.5,-46.5 48,-46.5 28.5,0 48.75,20.25 48.75,46.5 0,27 -20.25,47.25 -48.75,47.25 z m -34.5,485.25 0,-395.25 69,0 0,395.25 -69,0 z"
       id="path3356"
       inkscape:connector-curvature="0"
       style="fill:#333366;stroke:#333366;stroke-width:20;stroke-miterlimit:10" /><path
       stroke-miterlimit="10"
       d="m 4217.956,647.225 c -17.25,8.25 -36,13.5 -56.25,13.5 -47.25,0 -81,-27 -81,-94.5 l 0,-468.75 69,-8.25 0,483 c 0,22.5 7.5,31.5 24.75,31.5 9.75,0 18,-1.5 25.5,-4.5 l 18,48 z"
       id="path3358"
       inkscape:connector-curvature="0"
       style="fill:#333366;stroke:#333366;stroke-width:20;stroke-miterlimit:10" /><g
       id="g3360"><path
         stroke-miterlimit="10"
         d="m 238.688,0.021 c 0,0 -197.877,-6.5 -238.688,213 l 0,149.5 c 0,0 1.688,16 46.688,48.501 45,32.5 161.5,124 192,124 30.5,0 147,-91.5 192,-124 45,-32.501 46.688,-48.501 46.688,-48.501 l 0,-149.5 c -40.811,-219.5 -238.688,-213 -238.688,-213 z m 135.5,294.5 -135.5,0 -135.5,0 0,-81.5 c 27.5,-109 135.5,-110.5 135.5,-110.5 0,0 108,1.5 135.5,110.5 l 0,81.5 z"
         id="path3362"
         inkscape:connector-curvature="0"
         style="fill:#333366;stroke:#ffffff;stroke-miterlimit:10" /><path
         stroke-miterlimit="10"
         d="m 238.688,568.688 c 0,0 -30.667,-3 -54.667,-19.666 C 160.021,532.356 0,418.021 0,418.021 l 0,226.334 c 0,0 1.355,26.332 30.355,26.332 29,0 208.333,0 208.333,0 0,0 179.333,0 208.333,0 29,0 30.354,-26.332 30.354,-26.332 l 0,-226.334 c 0,0 -160.022,114.334 -184.022,131 -23.999,16.667 -54.665,19.667 -54.665,19.667 z"
         id="path3364"
         inkscape:connector-curvature="0"
         style="fill:#333366;stroke:#ffffff;stroke-miterlimit:10" /></g></g></svg>