<?xml version="1.0" encoding="UTF-8" standalone="no"?>
<!-- Created with Inkscape (http://www.inkscape.org/) -->

<svg
   xmlns:dc="http://purl.org/dc/elements/1.1/"
   xmlns:cc="http://creativecommons.org/ns#"
   xmlns:rdf="http://www.w3.org/1999/02/22-rdf-syntax-ns#"
   xmlns:svg="http://www.w3.org/2000/svg"
   xmlns="http://www.w3.org/2000/svg"
   xmlns:sodipodi="http://sodipodi.sourceforge.net/DTD/sodipodi-0.dtd"
   xmlns:inkscape="http://www.inkscape.org/namespaces/inkscape"
   width="744.01892"
   height="166.58797"
   viewBox="0 0 744.01893 166.58796"
   id="svg2"
   version="1.1"
   inkscape:version="0.91 r13725"
   sodipodi:docname="LEMA - OTECNYA.svg">
  <defs
     id="defs4">
    <marker
       inkscape:stockid="Arrow1Lstart"
       orient="auto"
       refY="0"
       refX="0"
       id="Arrow1Lstart"
       style="overflow:visible"
       inkscape:isstock="true">
      <path
         id="path5036"
         d="M 0,0 5,-5 -12.5,0 5,5 0,0 Z"
         style="fill:#ffffff;fill-opacity:1;fill-rule:evenodd;stroke:#000000;stroke-width:1pt;stroke-opacity:1"
         transform="matrix(0.8,0,0,0.8,10,0)"
         inkscape:connector-curvature="0" />
    </marker>
  </defs>
  <sodipodi:namedview
     id="base"
     pagecolor="#ffffff"
     bordercolor="#666666"
     borderopacity="1.0"
     inkscape:pageopacity="0.0"
     inkscape:pageshadow="2"
     inkscape:zoom="1.6276468"
     inkscape:cx="372.00946"
     inkscape:cy="83.293977"
     inkscape:document-units="px"
     inkscape:current-layer="layer1"
     showgrid="false"
     inkscape:window-width="1366"
     inkscape:window-height="715"
     inkscape:window-x="-8"
     inkscape:window-y="22"
     inkscape:window-maximized="1"
     showguides="true"
     units="px"
     inkscape:guide-bbox="true"
     fit-margin-top="5"
     fit-margin-left="5"
     fit-margin-right="5"
     fit-margin-bottom="5"
     borderlayer="true" />
  <metadata
     id="metadata7">
    <rdf:RDF>
      <cc:Work
         rdf:about="">
        <dc:format>image/svg+xml</dc:format>
        <dc:type
           rdf:resource="http://purl.org/dc/dcmitype/StillImage" />
        <dc:title></dc:title>
      </cc:Work>
    </rdf:RDF>
  </metadata>
  <g
     inkscape:label="Capa 1"
     inkscape:groupmode="layer"
     id="layer1"
     transform="translate(-482.246,-317.86137)">
    <g
       id="g3429">
      <g
         id="g3417">
        <g
           id="g3413"
           transform="translate(0,-3.1001269e-6)">
          <path
             inkscape:connector-curvature="0"
             id="circle3355-0"
             d="m 609.40078,445.01567 a 68.252448,79.131358 45 0 0 7.69249,-104.21518 68.252448,79.131358 45 0 0 -104.21835,7.69271 68.252448,79.131358 45 0 0 -11.66255,14.44262 68.252448,79.131358 45 0 1 89.76866,3.97985 68.252448,79.131358 45 0 1 3.97348,89.76913 68.252448,79.131358 45 0 0 14.44604,-11.66601 z"
             style="opacity:1;fill:#66bb6a;fill-opacity:1" />
          <path
             inkscape:connector-curvature="0"
             style="opacity:1;fill:#ef6c00;fill-opacity:1"
             d="m 512.87613,348.48913 a 68.252448,79.131358 45 0 0 -7.69251,104.21517 68.252448,79.131358 45 0 0 104.21836,-7.6927 68.252448,79.131358 45 0 0 11.66259,-14.44272 68.252448,79.131358 45 0 1 -89.76869,-3.97976 68.252448,79.131358 45 0 1 -3.97349,-89.76913 68.252448,79.131358 45 0 0 -14.44604,11.66591 z"
             id="path3360-8" />
        </g>
        <g
           id="g4195"
           transform="translate(11.791109,5.8043819)">
          <path
             d="m 718.06247,365.34354 -30.65614,0 0,74.33543 -29.30365,0 0,-74.33543 -30.80642,0 0,-23.40189 90.76621,0 0,23.40189 z"
             style="font-style:normal;font-variant:normal;font-weight:normal;font-stretch:normal;font-size:medium;line-height:125%;font-family:Raleway;-inkscape-font-specification:Raleway;letter-spacing:0px;word-spacing:0px;fill:#ef6c00;fill-opacity:1;stroke:none;stroke-width:1px;stroke-linecap:butt;stroke-linejoin:miter;stroke-opacity:1"
             id="path3908-7"
             inkscape:connector-curvature="0" />
          <path
             d="m 804.62796,416.27706 0,23.40191 -76.03922,0 0,-97.73732 74.68673,0 0,23.40189 -45.38311,0 0,13.76584 38.77099,0 0,21.75009 -38.77099,0 0,15.41759 46.7356,0 z"
             style="font-style:normal;font-variant:normal;font-weight:normal;font-stretch:normal;font-size:medium;line-height:125%;font-family:Raleway;-inkscape-font-specification:Raleway;letter-spacing:0px;word-spacing:0px;fill:#66bb6a;fill-opacity:1;stroke:none;stroke-width:1px;stroke-linecap:butt;stroke-linejoin:miter;stroke-opacity:1"
             id="path3910-6"
             inkscape:connector-curvature="0" />
          <path
             d="m 810.77983,389.98449 q 0,-8.94791 3.45633,-17.62036 3.45631,-8.67249 10.06844,-15.5554 6.76238,-6.88293 16.22972,-11.15034 9.61761,-4.26739 21.78987,-4.26739 14.27614,0 24.94567,5.91931 10.66954,5.78166 15.77889,15.41771 l -22.391,14.5918 q -1.35245,-3.57911 -3.6066,-5.91931 -2.10386,-2.34019 -4.65852,-3.71678 -2.55469,-1.37657 -5.40989,-1.9272 -2.85523,-0.55065 -5.25964,-0.55065 -5.56019,0 -9.61759,2.3402 -3.90717,2.20252 -6.61213,5.9193 -2.55466,3.57913 -3.75689,8.25949 -1.20217,4.54283 -1.20217,9.08547 0,5.09332 1.35244,9.77376 1.50277,4.68042 4.20773,8.25941 2.85521,3.57922 6.76238,5.78163 4.05744,2.06484 9.16677,2.06484 2.5547,0 5.25963,-0.55048 2.70497,-0.68829 5.10936,-2.06484 2.55466,-1.51436 4.50824,-3.71679 2.10385,-2.34021 3.30606,-5.64407 l 23.89375,13.07762 q -2.25413,5.36849 -6.91267,9.63599 -4.50825,4.26751 -10.36896,7.15819 -5.86076,2.89094 -12.47284,4.40507 -6.61211,1.51436 -12.92367,1.51436 -11.12035,0 -20.43741,-4.2675 -9.31705,-4.40505 -16.07945,-11.56326 -6.61207,-7.15819 -10.36896,-16.24368 -3.75689,-9.08548 -3.75689,-18.4461 z"
             style="font-style:normal;font-variant:normal;font-weight:normal;font-stretch:normal;font-size:medium;line-height:125%;font-family:Raleway;-inkscape-font-specification:Raleway;letter-spacing:0px;word-spacing:0px;fill:#66bb6a;fill-opacity:1;stroke:none;stroke-width:1px;stroke-linecap:butt;stroke-linejoin:miter;stroke-opacity:1"
             id="path3912-6"
             inkscape:connector-curvature="0" />
          <path
             d="m 944.26872,391.63619 0,48.04278 -29.30362,0 0,-97.73732 22.8418,0 42.82841,49.69454 0,-49.69454 29.30369,0 0,97.73732 -23.2927,0 -42.37758,-48.04278 z"
             style="font-style:normal;font-variant:normal;font-weight:normal;font-stretch:normal;font-size:medium;line-height:125%;font-family:Raleway;-inkscape-font-specification:Raleway;letter-spacing:0px;word-spacing:0px;fill:#66bb6a;fill-opacity:1;stroke:none;stroke-width:1px;stroke-linecap:butt;stroke-linejoin:miter;stroke-opacity:1"
             id="path3914-5"
             inkscape:connector-curvature="0" />
          <path
             d="m 1048.8461,341.94165 19.085,42.26109 19.5357,-42.26109 31.8583,0 -36.8174,65.38771 0,32.34961 -29.1533,0 0,-32.62495 -36.2163,-65.11237 31.708,0 z"
             style="font-style:normal;font-variant:normal;font-weight:normal;font-stretch:normal;font-size:medium;line-height:125%;font-family:Raleway;-inkscape-font-specification:Raleway;letter-spacing:0px;word-spacing:0px;fill:#66bb6a;fill-opacity:1;stroke:none;stroke-width:1px;stroke-linecap:butt;stroke-linejoin:miter;stroke-opacity:1"
             id="path3916-4"
             inkscape:connector-curvature="0" />
          <path
             d="m 1106.2348,439.67897 39.8229,-97.73732 23.7434,0 39.6727,97.73732 -30.9568,0 -6.4617,-19.1344 -28.402,0 -6.3116,19.1344 -31.1069,0 z m 51.6946,-69.7927 -9.9181,32.7627 19.3854,0 -9.4673,-32.7627 z"
             style="font-style:normal;font-variant:normal;font-weight:normal;font-stretch:normal;font-size:medium;line-height:125%;font-family:Raleway;-inkscape-font-specification:Raleway;letter-spacing:0px;word-spacing:0px;fill:#66bb6a;fill-opacity:1;stroke:none;stroke-width:1px;stroke-linecap:butt;stroke-linejoin:miter;stroke-opacity:1"
             id="path3918-3"
             inkscape:connector-curvature="0" />
        </g>
      </g>
      <g
         transform="translate(8.9999996e-6,0)"
         id="g3395">
        <path
           inkscape:connector-curvature="0"
           id="path3347"
           style="font-style:normal;font-variant:normal;font-weight:normal;font-stretch:normal;font-size:medium;line-height:125%;font-family:'Yu Gothic';-inkscape-font-specification:'Yu Gothic';letter-spacing:0px;word-spacing:0px;fill:#666666;fill-opacity:1;stroke:none;stroke-width:1px;stroke-linecap:butt;stroke-linejoin:miter;stroke-opacity:1"
           d="m 838.10427,459.97657 -2.56922,0.69364 q -1.66128,-5.71832 -7.57242,-5.71832 -4.30778,0 -6.79972,3.2652 -2.29878,2.97759 -2.29878,7.85001 0,5.56606 2.95557,8.61133 2.45332,2.52079 6.14293,2.52079 6.2202,0 7.84287,-5.81983 l 2.53057,0.82899 q -2.47262,6.97027 -10.41207,6.97027 -5.50546,0 -8.80873,-3.89117 -3.01352,-3.53589 -3.01352,-9.16963 0,-6.49655 3.8828,-10.13396 3.20669,-3.01142 7.93945,-3.01142 4.09529,0 6.83836,2.11476 2.35672,1.81025 3.34191,4.88934 z" />
        <path
           inkscape:connector-curvature="0"
           id="path3349"
           style="font-style:normal;font-variant:normal;font-weight:normal;font-stretch:normal;font-size:medium;line-height:125%;font-family:'Yu Gothic';-inkscape-font-specification:'Yu Gothic';letter-spacing:0px;word-spacing:0px;fill:#666666;fill-opacity:1;stroke:none;stroke-width:1px;stroke-linecap:butt;stroke-linejoin:miter;stroke-opacity:1"
           d="m 844.76877,453.42925 9.44622,0 q 9.73596,0 9.73596,6.47965 0,2.55464 -1.81583,4.24645 -1.62266,1.53955 -4.52027,2.09784 l 7.05085,12.43483 -2.87829,0 -6.62587,-12.07954 q -0.46362,0.0339 -1.52607,0.0339 l -6.29748,0 0,12.04571 -2.56922,0 0,-25.25877 z m 2.56922,1.91175 0,9.4234 6.45201,0 q 7.4372,0 7.4372,-4.82166 0,-2.47005 -1.87378,-3.56973 -1.75789,-1.03201 -5.33161,-1.03201 l -6.68382,0 z" />
        <path
           inkscape:connector-curvature="0"
           id="path3351"
           style="font-style:normal;font-variant:normal;font-weight:normal;font-stretch:normal;font-size:medium;line-height:125%;font-family:'Yu Gothic';-inkscape-font-specification:'Yu Gothic';letter-spacing:0px;word-spacing:0px;fill:#666666;fill-opacity:1;stroke:none;stroke-width:1px;stroke-linecap:butt;stroke-linejoin:miter;stroke-opacity:1"
           d="m 889.02495,453.42925 0,1.97942 -15.14485,0 0,8.83127 11.43591,0 0,1.97942 -11.43591,0 0,10.48924 15.43461,0 0,1.97942 -18.04246,0 0,-25.25877 17.7527,0 z" />
        <path
           inkscape:connector-curvature="0"
           id="path3353"
           style="font-style:normal;font-variant:normal;font-weight:normal;font-stretch:normal;font-size:medium;line-height:125%;font-family:'Yu Gothic';-inkscape-font-specification:'Yu Gothic';letter-spacing:0px;word-spacing:0px;fill:#666666;fill-opacity:1;stroke:none;stroke-width:1px;stroke-linecap:butt;stroke-linejoin:miter;stroke-opacity:1"
           d="m 905.83108,453.42925 9.52349,25.25877 -2.7624,0 -3.05214,-8.34064 -10.8757,0 -3.12942,8.34064 -2.60785,0 9.5428,-25.25877 3.36122,0 z m 3.11011,15.07406 -2.39536,-6.58116 q -1.29427,-3.43437 -2.29877,-6.69958 l -0.36704,0 q -1.04313,3.38363 -2.24082,6.66575 l -2.37603,6.61499 9.67802,0 z" />
        <path
           inkscape:connector-curvature="0"
           id="path3355"
           style="font-style:normal;font-variant:normal;font-weight:normal;font-stretch:normal;font-size:medium;line-height:125%;font-family:'Yu Gothic';-inkscape-font-specification:'Yu Gothic';letter-spacing:0px;word-spacing:0px;fill:#666666;fill-opacity:1;stroke:none;stroke-width:1px;stroke-linecap:butt;stroke-linejoin:miter;stroke-opacity:1"
           d="m 948.83162,453.42925 0,25.25877 -2.49194,0 0,-15.90304 0.0387,-7.47782 -0.44431,0 q -0.57952,1.72566 -2.72375,7.34248 l -6.49065,16.03838 -3.36123,0 -6.39405,-16.03838 q -1.41017,-3.51898 -2.78171,-7.34248 l -0.42498,0 q -0.0194,0.72749 -0.0194,1.52264 l 0.0579,5.98902 0,15.8692 -2.37605,0 0,-25.25877 4.38506,0 6.25883,15.83538 q 1.54539,3.85732 2.83966,7.41014 l 0.40567,0 q 2.2215,-5.80292 2.83966,-7.30863 l 6.3361,-15.93689 4.34642,0 z" />
        <path
           inkscape:connector-curvature="0"
           id="path3357"
           style="font-style:normal;font-variant:normal;font-weight:normal;font-stretch:normal;font-size:medium;line-height:125%;font-family:'Yu Gothic';-inkscape-font-specification:'Yu Gothic';letter-spacing:0px;word-spacing:0px;fill:#666666;fill-opacity:1;stroke:none;stroke-width:1px;stroke-linecap:butt;stroke-linejoin:miter;stroke-opacity:1"
           d="m 967.82062,452.97247 q 5.52478,0 8.7701,3.87425 2.93625,3.51897 2.93625,9.18654 0,6.49656 -3.76689,10.11705 -3.16806,3.02834 -7.93946,3.02834 -5.52477,0 -8.7701,-3.89117 -2.93624,-3.51898 -2.93624,-9.16963 0,-6.49655 3.80552,-10.13396 3.16806,-3.01142 7.90082,-3.01142 z m 0,1.97942 q -4.30778,0 -6.74178,3.24828 -2.20218,2.94376 -2.20218,7.86693 0,5.61681 2.83966,8.62825 2.37604,2.50387 6.1043,2.50387 4.3271,0 6.76109,-3.26519 2.18287,-2.94375 2.18287,-7.86693 0,-5.63374 -2.82034,-8.61133 -2.35672,-2.50388 -6.12362,-2.50388 z" />
        <path
           inkscape:connector-curvature="0"
           id="path3359"
           style="font-style:normal;font-variant:normal;font-weight:normal;font-stretch:normal;font-size:medium;line-height:125%;font-family:'Yu Gothic';-inkscape-font-specification:'Yu Gothic';letter-spacing:0px;word-spacing:0px;fill:#666666;fill-opacity:1;stroke:none;stroke-width:1px;stroke-linecap:butt;stroke-linejoin:miter;stroke-opacity:1"
           d="m 1003.8862,458.82614 -2.6078,0.72748 q -1.642,-4.63557 -6.64521,-4.63557 -3.11011,0 -4.81003,1.38729 -1.48745,1.20118 -1.48745,3.11293 0,2.26703 1.62266,3.43438 1.41018,0.98126 4.71345,1.69182 l 1.15905,0.2876 q 5.35093,1.18427 7.22473,3.12986 1.4681,1.50572 1.4681,4.17878 0,3.41746 -2.8976,5.32921 -2.58854,1.70873 -6.83837,1.70873 -4.09529,0 -6.79973,-1.81024 -2.37604,-1.60723 -3.39986,-4.43255 l 2.60785,-0.86282 q 1.56471,5.19386 7.5531,5.19386 3.74757,0 5.58271,-1.55647 1.4681,-1.26886 1.4681,-3.3667 0,-2.33471 -1.5647,-3.50206 -1.50672,-1.1166 -5.31225,-1.9625 l -1.0045,-0.25377 q -4.88731,-1.09968 -6.72246,-2.96067 -1.50675,-1.53956 -1.50675,-4.14495 0,-2.92684 2.5692,-4.78783 2.434,-1.75948 6.33612,-1.75948 6.93494,0 9.29164,5.85367 z" />
        <path
           inkscape:connector-curvature="0"
           id="path3361"
           style="font-style:normal;font-variant:normal;font-weight:normal;font-stretch:normal;font-size:medium;line-height:125%;font-family:'Yu Gothic';-inkscape-font-specification:'Yu Gothic';letter-spacing:0px;word-spacing:0px;fill:#666666;fill-opacity:1;stroke:none;stroke-width:1px;stroke-linecap:butt;stroke-linejoin:miter;stroke-opacity:1"
           d="m 1007.2088,479.44934 q 0,0 0,0 z" />
        <path
           inkscape:connector-curvature="0"
           id="path3363"
           style="font-style:normal;font-variant:normal;font-weight:normal;font-stretch:normal;font-size:medium;line-height:125%;font-family:'Yu Gothic';-inkscape-font-specification:'Yu Gothic';letter-spacing:0px;word-spacing:0px;fill:#666666;fill-opacity:1;stroke:none;stroke-width:1px;stroke-linecap:butt;stroke-linejoin:miter;stroke-opacity:1"
           d="m 1040.7052,453.42925 0,1.97942 -15.1449,0 0,8.83127 11.4359,0 0,1.97942 -11.4359,0 0,10.48924 15.4347,0 0,1.97942 -18.0425,0 0,-25.25877 17.7527,0 z" />
        <path
           inkscape:connector-curvature="0"
           id="path3365"
           style="font-style:normal;font-variant:normal;font-weight:normal;font-stretch:normal;font-size:medium;line-height:125%;font-family:'Yu Gothic';-inkscape-font-specification:'Yu Gothic';letter-spacing:0px;word-spacing:0px;fill:#666666;fill-opacity:1;stroke:none;stroke-width:1px;stroke-linecap:butt;stroke-linejoin:miter;stroke-opacity:1"
           d="m 1066.436,453.42925 -9.1758,12.13031 9.736,13.12846 -3.0522,0 -7.0315,-9.69409 q -0.792,-1.11659 -1.2363,-1.70873 -0.5216,0.79516 -1.217,1.74257 l -6.9157,9.66025 -2.9362,0 9.6201,-13.06079 -8.944,-12.19798 2.9942,0 6.2975,8.72976 1.3136,1.75949 q 0.2704,-0.33837 0.6954,-0.96434 0.4443,-0.64288 0.5988,-0.86283 l 6.3361,-8.66208 2.917,0 z" />
        <path
           inkscape:connector-curvature="0"
           id="path3367"
           style="font-style:normal;font-variant:normal;font-weight:normal;font-stretch:normal;font-size:medium;line-height:125%;font-family:'Yu Gothic';-inkscape-font-specification:'Yu Gothic';letter-spacing:0px;word-spacing:0px;fill:#666666;fill-opacity:1;stroke:none;stroke-width:1px;stroke-linecap:butt;stroke-linejoin:miter;stroke-opacity:1"
           d="m 1073.1004,453.42925 9.2918,0 q 5.1964,0 7.6883,2.0471 2.1249,1.74257 2.1249,4.8555 0,3.51898 -2.917,5.39689 -2.6271,1.67489 -7.1281,1.67489 l -6.4519,0 0,11.28439 -2.608,0 0,-25.25877 z m 2.608,1.91175 0,10.18472 6.2974,0 q 7.4758,0 7.4758,-5.16003 0,-5.02469 -7.244,-5.02469 l -6.5292,0 z" />
        <path
           inkscape:connector-curvature="0"
           id="path3369"
           style="font-style:normal;font-variant:normal;font-weight:normal;font-stretch:normal;font-size:medium;line-height:125%;font-family:'Yu Gothic';-inkscape-font-specification:'Yu Gothic';letter-spacing:0px;word-spacing:0px;fill:#666666;fill-opacity:1;stroke:none;stroke-width:1px;stroke-linecap:butt;stroke-linejoin:miter;stroke-opacity:1"
           d="m 1117.0476,453.42925 0,1.97942 -15.1449,0 0,8.83127 11.4359,0 0,1.97942 -11.4359,0 0,10.48924 15.4346,0 0,1.97942 -18.0425,0 0,-25.25877 17.7528,0 z" />
        <path
           inkscape:connector-curvature="0"
           id="path3371"
           style="font-style:normal;font-variant:normal;font-weight:normal;font-stretch:normal;font-size:medium;line-height:125%;font-family:'Yu Gothic';-inkscape-font-specification:'Yu Gothic';letter-spacing:0px;word-spacing:0px;fill:#666666;fill-opacity:1;stroke:none;stroke-width:1px;stroke-linecap:butt;stroke-linejoin:miter;stroke-opacity:1"
           d="m 1123.7893,453.42925 9.4463,0 q 9.7359,0 9.7359,6.47965 0,2.55464 -1.8158,4.24645 -1.6227,1.53955 -4.5203,2.09784 l 7.0509,12.43483 -2.8784,0 -6.6258,-12.07954 q -0.4636,0.0339 -1.5261,0.0339 l -6.2975,0 0,12.04571 -2.5692,0 0,-25.25877 z m 2.5692,1.91175 0,9.4234 6.4521,0 q 7.4372,0 7.4372,-4.82166 0,-2.47005 -1.8739,-3.56973 -1.7578,-1.03201 -5.3315,-1.03201 l -6.6839,0 z" />
        <path
           inkscape:connector-curvature="0"
           id="path3373"
           style="font-style:normal;font-variant:normal;font-weight:normal;font-stretch:normal;font-size:medium;line-height:125%;font-family:'Yu Gothic';-inkscape-font-specification:'Yu Gothic';letter-spacing:0px;word-spacing:0px;fill:#666666;fill-opacity:1;stroke:none;stroke-width:1px;stroke-linecap:butt;stroke-linejoin:miter;stroke-opacity:1"
           d="m 1168.8376,453.42925 0,1.97942 -9.2918,0 0,23.27935 -2.6078,0 0,-23.27935 -9.2531,0 0,-1.97942 21.1527,0 z" />
        <path
           inkscape:connector-curvature="0"
           id="path3375"
           style="font-style:normal;font-variant:normal;font-weight:normal;font-stretch:normal;font-size:medium;line-height:125%;font-family:'Yu Gothic';-inkscape-font-specification:'Yu Gothic';letter-spacing:0px;word-spacing:0px;fill:#666666;fill-opacity:1;stroke:none;stroke-width:1px;stroke-linecap:butt;stroke-linejoin:miter;stroke-opacity:1"
           d="m 1184.5618,452.97247 q 5.5248,0 8.7701,3.87425 2.9363,3.51897 2.9363,9.18654 0,6.49656 -3.7669,10.11705 -3.168,3.02834 -7.9395,3.02834 -5.5247,0 -8.77,-3.89117 -2.9362,-3.51898 -2.9362,-9.16963 0,-6.49655 3.8054,-10.13396 3.1681,-3.01142 7.9008,-3.01142 z m 0,1.97942 q -4.3077,0 -6.7417,3.24828 -2.2022,2.94376 -2.2022,7.86693 0,5.61681 2.8397,8.62825 2.376,2.50387 6.1042,2.50387 4.3272,0 6.7611,-3.26519 2.183,-2.94375 2.183,-7.86693 0,-5.63374 -2.8204,-8.61133 -2.3568,-2.50388 -6.1237,-2.50388 z" />
        <path
           inkscape:connector-curvature="0"
           id="path3377"
           style="font-style:normal;font-variant:normal;font-weight:normal;font-stretch:normal;font-size:medium;line-height:125%;font-family:'Yu Gothic';-inkscape-font-specification:'Yu Gothic';letter-spacing:0px;word-spacing:0px;fill:#666666;fill-opacity:1;stroke:none;stroke-width:1px;stroke-linecap:butt;stroke-linejoin:miter;stroke-opacity:1"
           d="m 1220.6275,458.82614 -2.6079,0.72748 q -1.642,-4.63557 -6.6452,-4.63557 -3.1101,0 -4.81,1.38729 -1.4874,1.20118 -1.4874,3.11293 0,2.26703 1.6226,3.43438 1.4102,0.98126 4.7135,1.69182 l 1.159,0.2876 q 5.3509,1.18427 7.2247,3.12986 1.4681,1.50572 1.4681,4.17878 0,3.41746 -2.8976,5.32921 -2.5885,1.70873 -6.8384,1.70873 -4.0952,0 -6.7996,-1.81024 -2.3761,-1.60723 -3.4,-4.43255 l 2.608,-0.86282 q 1.5646,5.19386 7.5531,5.19386 3.7475,0 5.5826,-1.55647 1.4681,-1.26886 1.4681,-3.3667 0,-2.33471 -1.5647,-3.50206 -1.5067,-1.1166 -5.3122,-1.9625 l -1.0045,-0.25377 q -4.8873,-1.09968 -6.7224,-2.96067 -1.5068,-1.53956 -1.5068,-4.14495 0,-2.92684 2.5692,-4.78783 2.434,-1.75948 6.336,-1.75948 6.9351,0 9.2918,5.85367 z" />
      </g>
    </g>
  </g>
</svg>
