<?xml version="1.0" encoding="UTF-8" standalone="no"?>
<!-- Created with Inkscape (http://www.inkscape.org/) -->

<svg
   xmlns:dc="http://purl.org/dc/elements/1.1/"
   xmlns:cc="http://creativecommons.org/ns#"
   xmlns:rdf="http://www.w3.org/1999/02/22-rdf-syntax-ns#"
   xmlns:svg="http://www.w3.org/2000/svg"
   xmlns="http://www.w3.org/2000/svg"
   xmlns:sodipodi="http://sodipodi.sourceforge.net/DTD/sodipodi-0.dtd"
   xmlns:inkscape="http://www.inkscape.org/namespaces/inkscape"
   width="744.01892"
   height="157.78204"
   viewBox="0 0 744.01892 157.78204"
   id="svg2"
   version="1.1"
   inkscape:version="0.91 r13725"
   sodipodi:docname="OTECNYA.svg">
  <defs
     id="defs4">
    <marker
       inkscape:stockid="Arrow1Lstart"
       orient="auto"
       refY="0"
       refX="0"
       id="Arrow1Lstart"
       style="overflow:visible"
       inkscape:isstock="true">
      <path
         id="path5036"
         d="M 0,0 5,-5 -12.5,0 5,5 0,0 Z"
         style="fill:#ffffff;fill-opacity:1;fill-rule:evenodd;stroke:#000000;stroke-width:1pt;stroke-opacity:1"
         transform="matrix(0.8,0,0,0.8,10,0)"
         inkscape:connector-curvature="0" />
    </marker>
  </defs>
  <sodipodi:namedview
     id="base"
     pagecolor="#ffffff"
     bordercolor="#666666"
     borderopacity="1.0"
     inkscape:pageopacity="0.0"
     inkscape:pageshadow="2"
     inkscape:zoom="1.6276468"
     inkscape:cx="372.00946"
     inkscape:cy="78.891022"
     inkscape:document-units="px"
     inkscape:current-layer="layer1"
     showgrid="false"
     inkscape:window-width="1366"
     inkscape:window-height="715"
     inkscape:window-x="-8"
     inkscape:window-y="22"
     inkscape:window-maximized="1"
     showguides="true"
     units="px"
     inkscape:guide-bbox="true"
     fit-margin-top="5"
     fit-margin-left="5"
     fit-margin-right="5"
     fit-margin-bottom="5"
     borderlayer="true" />
  <metadata
     id="metadata7">
    <rdf:RDF>
      <cc:Work
         rdf:about="">
        <dc:format>image/svg+xml</dc:format>
        <dc:type
           rdf:resource="http://purl.org/dc/dcmitype/StillImage" />
        <dc:title></dc:title>
      </cc:Work>
    </rdf:RDF>
  </metadata>
  <g
     inkscape:label="Capa 1"
     inkscape:groupmode="layer"
     id="layer1"
     transform="translate(-482.24599,-317.86137)">
    <path
       style="opacity:1;fill:#66bb6a;fill-opacity:1"
       d="m 609.40078,445.01567 a 68.252448,79.131358 45 0 0 7.69249,-104.21518 68.252448,79.131358 45 0 0 -104.21835,7.69271 68.252448,79.131358 45 0 0 -11.66255,14.44262 68.252448,79.131358 45 0 1 89.76866,3.97985 68.252448,79.131358 45 0 1 3.97348,89.76913 68.252448,79.131358 45 0 0 14.44604,-11.66601 z"
       id="circle3355-0"
       inkscape:connector-curvature="0" />
    <path
       id="path3360-8"
       d="m 512.87613,348.48913 a 68.252448,79.131358 45 0 0 -7.69251,104.21517 68.252448,79.131358 45 0 0 104.21836,-7.6927 68.252448,79.131358 45 0 0 11.66259,-14.44272 68.252448,79.131358 45 0 1 -89.76869,-3.97976 68.252448,79.131358 45 0 1 -3.97349,-89.76913 68.252448,79.131358 45 0 0 -14.44604,11.66591 z"
       style="opacity:1;fill:#ef6c00;fill-opacity:1"
       inkscape:connector-curvature="0" />
    <g
       id="g4195"
       transform="translate(11.791109,5.8043819)">
      <path
         d="m 718.06247,365.34354 -30.65614,0 0,74.33543 -29.30365,0 0,-74.33543 -30.80642,0 0,-23.40189 90.76621,0 0,23.40189 z"
         style="font-style:normal;font-variant:normal;font-weight:normal;font-stretch:normal;font-size:medium;line-height:125%;font-family:Raleway;-inkscape-font-specification:Raleway;letter-spacing:0px;word-spacing:0px;fill:#ef6c00;fill-opacity:1;stroke:none;stroke-width:1px;stroke-linecap:butt;stroke-linejoin:miter;stroke-opacity:1"
         id="path3908-7"
         inkscape:connector-curvature="0" />
      <path
         d="m 804.62796,416.27706 0,23.40191 -76.03922,0 0,-97.73732 74.68673,0 0,23.40189 -45.38311,0 0,13.76584 38.77099,0 0,21.75009 -38.77099,0 0,15.41759 46.7356,0 z"
         style="font-style:normal;font-variant:normal;font-weight:normal;font-stretch:normal;font-size:medium;line-height:125%;font-family:Raleway;-inkscape-font-specification:Raleway;letter-spacing:0px;word-spacing:0px;fill:#66bb6a;fill-opacity:1;stroke:none;stroke-width:1px;stroke-linecap:butt;stroke-linejoin:miter;stroke-opacity:1"
         id="path3910-6"
         inkscape:connector-curvature="0" />
      <path
         d="m 810.77983,389.98449 q 0,-8.94791 3.45633,-17.62036 3.45631,-8.67249 10.06844,-15.5554 6.76238,-6.88293 16.22972,-11.15034 9.61761,-4.26739 21.78987,-4.26739 14.27614,0 24.94567,5.91931 10.66954,5.78166 15.77889,15.41771 l -22.391,14.5918 q -1.35245,-3.57911 -3.6066,-5.91931 -2.10386,-2.34019 -4.65852,-3.71678 -2.55469,-1.37657 -5.40989,-1.9272 -2.85523,-0.55065 -5.25964,-0.55065 -5.56019,0 -9.61759,2.3402 -3.90717,2.20252 -6.61213,5.9193 -2.55466,3.57913 -3.75689,8.25949 -1.20217,4.54283 -1.20217,9.08547 0,5.09332 1.35244,9.77376 1.50277,4.68042 4.20773,8.25941 2.85521,3.57922 6.76238,5.78163 4.05744,2.06484 9.16677,2.06484 2.5547,0 5.25963,-0.55048 2.70497,-0.68829 5.10936,-2.06484 2.55466,-1.51436 4.50824,-3.71679 2.10385,-2.34021 3.30606,-5.64407 l 23.89375,13.07762 q -2.25413,5.36849 -6.91267,9.63599 -4.50825,4.26751 -10.36896,7.15819 -5.86076,2.89094 -12.47284,4.40507 -6.61211,1.51436 -12.92367,1.51436 -11.12035,0 -20.43741,-4.2675 -9.31705,-4.40505 -16.07945,-11.56326 -6.61207,-7.15819 -10.36896,-16.24368 -3.75689,-9.08548 -3.75689,-18.4461 z"
         style="font-style:normal;font-variant:normal;font-weight:normal;font-stretch:normal;font-size:medium;line-height:125%;font-family:Raleway;-inkscape-font-specification:Raleway;letter-spacing:0px;word-spacing:0px;fill:#66bb6a;fill-opacity:1;stroke:none;stroke-width:1px;stroke-linecap:butt;stroke-linejoin:miter;stroke-opacity:1"
         id="path3912-6"
         inkscape:connector-curvature="0" />
      <path
         d="m 944.26872,391.63619 0,48.04278 -29.30362,0 0,-97.73732 22.8418,0 42.82841,49.69454 0,-49.69454 29.30369,0 0,97.73732 -23.2927,0 -42.37758,-48.04278 z"
         style="font-style:normal;font-variant:normal;font-weight:normal;font-stretch:normal;font-size:medium;line-height:125%;font-family:Raleway;-inkscape-font-specification:Raleway;letter-spacing:0px;word-spacing:0px;fill:#66bb6a;fill-opacity:1;stroke:none;stroke-width:1px;stroke-linecap:butt;stroke-linejoin:miter;stroke-opacity:1"
         id="path3914-5"
         inkscape:connector-curvature="0" />
      <path
         d="m 1048.8461,341.94165 19.085,42.26109 19.5357,-42.26109 31.8583,0 -36.8174,65.38771 0,32.34961 -29.1533,0 0,-32.62495 -36.2163,-65.11237 31.708,0 z"
         style="font-style:normal;font-variant:normal;font-weight:normal;font-stretch:normal;font-size:medium;line-height:125%;font-family:Raleway;-inkscape-font-specification:Raleway;letter-spacing:0px;word-spacing:0px;fill:#66bb6a;fill-opacity:1;stroke:none;stroke-width:1px;stroke-linecap:butt;stroke-linejoin:miter;stroke-opacity:1"
         id="path3916-4"
         inkscape:connector-curvature="0" />
      <path
         d="m 1106.2348,439.67897 39.8229,-97.73732 23.7434,0 39.6727,97.73732 -30.9568,0 -6.4617,-19.1344 -28.402,0 -6.3116,19.1344 -31.1069,0 z m 51.6946,-69.7927 -9.9181,32.7627 19.3854,0 -9.4673,-32.7627 z"
         style="font-style:normal;font-variant:normal;font-weight:normal;font-stretch:normal;font-size:medium;line-height:125%;font-family:Raleway;-inkscape-font-specification:Raleway;letter-spacing:0px;word-spacing:0px;fill:#66bb6a;fill-opacity:1;stroke:none;stroke-width:1px;stroke-linecap:butt;stroke-linejoin:miter;stroke-opacity:1"
         id="path3918-3"
         inkscape:connector-curvature="0" />
    </g>
  </g>
</svg>
