<?xml version="1.0" encoding="UTF-8" standalone="no"?>
<!-- Created with Inkscape (http://www.inkscape.org/) -->

<svg
   xmlns:dc="http://purl.org/dc/elements/1.1/"
   xmlns:cc="http://creativecommons.org/ns#"
   xmlns:rdf="http://www.w3.org/1999/02/22-rdf-syntax-ns#"
   xmlns:svg="http://www.w3.org/2000/svg"
   xmlns="http://www.w3.org/2000/svg"
   xmlns:sodipodi="http://sodipodi.sourceforge.net/DTD/sodipodi-0.dtd"
   xmlns:inkscape="http://www.inkscape.org/namespaces/inkscape"
   width="400"
   height="400"
   id="svg2"
   version="1.1"
   inkscape:version="0.48.5 r10040"
   sodipodi:docname="schaffnerLogoWhite.svg">
  <defs
     id="defs4">
    <clipPath
       clipPathUnits="userSpaceOnUse"
       id="clipPath2998">
      <rect
         style="opacity:0.8;fill:#000000;fill-opacity:1;fill-rule:evenodd;stroke:none"
         id="rect3000"
         width="487"
         height="501"
         x="96"
         y="288.36218" />
    </clipPath>
    <filter
       inkscape:label="Desaturate"
       x="0"
       y="0"
       width="1"
       height="1"
       inkscape:menu="Color"
       inkscape:menu-tooltip="Render in shades of gray by reducing saturation to zero"
       color-interpolation-filters="sRGB"
       id="filter3815">
      <feColorMatrix
         type="saturate"
         values="0"
         id="feColorMatrix3817" />
    </filter>
    <clipPath
       clipPathUnits="userSpaceOnUse"
       id="clipPath3031">
      <rect
         style="opacity:0.3;fill:#ffffff;fill-opacity:1;fill-rule:evenodd;stroke:none"
         id="rect3033"
         width="74.246208"
         height="74.953323"
         x="-400.22241"
         y="864.97888" />
    </clipPath>
  </defs>
  <sodipodi:namedview
     id="base"
     pagecolor="#969696"
     bordercolor="#666666"
     borderopacity="1.0"
     inkscape:pageopacity="1"
     inkscape:pageshadow="2"
     inkscape:zoom="1.375"
     inkscape:cx="212.72727"
     inkscape:cy="200"
     inkscape:document-units="px"
     inkscape:current-layer="layer1"
     showgrid="false"
     showguides="true"
     inkscape:guide-bbox="true"
     inkscape:window-width="1366"
     inkscape:window-height="715"
     inkscape:window-x="-8"
     inkscape:window-y="22"
     inkscape:window-maximized="1" />
  <metadata
     id="metadata7">
    <rdf:RDF>
      <cc:Work
         rdf:about="">
        <dc:format>image/svg+xml</dc:format>
        <dc:type
           rdf:resource="http://purl.org/dc/dcmitype/StillImage" />
        <dc:title />
      </cc:Work>
    </rdf:RDF>
  </metadata>
  <g
     inkscape:label="Capa 1"
     inkscape:groupmode="layer"
     id="layer1"
     transform="translate(0,-652.36218)">
    <g
       id="g3082"
       transform="translate(-1.2507364e-7,1.8264238)">
      <path
         inkscape:connector-curvature="0"
         id="path3035"
         d="m 177.2547,664.63535 c -31.36421,4.68898 -61.62876,19.16171 -85.758715,43.29166 -24.163904,24.1639 -38.479979,54.36416 -43.154222,85.75871 l 31.609785,0 c 4.387761,-23.38715 15.59146,-45.68947 33.671282,-63.7693 18.04936,-18.0493 40.31245,-29.29328 63.63187,-33.67129 l 0,-31.60978 z m 45.62803,0.13721 0,31.47235 c 23.31947,4.42378 45.58256,15.75942 63.63187,33.80872 18.04935,18.04931 29.26786,40.33655 33.67129,63.63187 l 31.47235,0 c -4.67425,-31.39451 -18.99032,-61.59481 -43.15423,-85.75871 -24.12995,-24.12995 -54.29177,-38.45214 -85.62128,-43.15423 z m -45.62803,54.8361 c -17.41531,4.1169 -33.96907,12.9417 -47.55211,26.52473 -13.60863,13.60859 -22.44912,30.11187 -26.52473,47.55211 l 16.07976,0 c 3.75478,-13.45149 10.88331,-26.13846 21.43968,-36.69483 10.5277,-10.5277 23.16519,-17.57179 36.5574,-21.30225 l 0,-16.07976 z m 45.62803,0 0,16.07976 c 13.34503,3.77093 25.89698,10.91669 36.41997,21.43968 10.5277,10.5277 17.67667,23.18511 21.43968,36.5574 l 16.21719,0 c -4.0756,-17.44024 -12.9161,-33.94352 -26.52473,-47.55211 -13.57969,-13.57969 -30.12008,-22.40505 -47.55211,-26.52473 z m -69.54152,64.45647 c -4.27887,4e-5 -8.18366,0.77768 -11.68187,2.19894 -3.49825,1.4214 -6.14978,3.44139 -7.97117,6.18453 -1.82142,2.74322 -2.74868,5.77784 -2.74868,8.9332 0,2.87115 0.71,5.37953 2.19895,7.69629 1.48891,2.31681 3.83601,4.34621 6.87169,5.90965 2.34178,1.2224 6.39153,2.46946 12.23161,3.84815 5.84004,1.37874 9.56377,2.36976 11.26958,3.02355 2.65979,0.99497 4.61571,2.24675 5.77221,3.71071 1.15638,1.464 1.78661,3.12364 1.78665,5.08506 -4e-5,1.93304 -0.72429,3.7254 -1.92408,5.35991 -1.19987,1.63456 -2.90251,2.91008 -5.35992,3.84814 -2.45749,0.93812 -5.31181,1.51177 -8.52089,1.51177 -3.61392,0 -6.86672,-0.68751 -9.75781,-1.92407 -2.89112,-1.23655 -5.0861,-2.80607 -6.45939,-4.81018 -1.37328,-2.00407 -2.23539,-4.56931 -2.61124,-7.6963 l -7.97116,0.68717 c 0.11566,4.17879 1.36158,7.95788 3.57328,11.26958 2.21169,3.31174 5.18206,5.77266 9.07064,7.42143 3.88851,1.64877 8.81462,2.4738 14.56797,2.4738 4.53902,0 8.60324,-0.83924 12.23162,-2.4738 3.62829,-1.63456 6.30894,-3.92951 8.24603,-6.8717 1.937,-2.94218 3.0235,-6.15699 3.02354,-9.48293 -4e-5,-3.35436 -0.98517,-6.22309 -2.74867,-8.79577 -1.76364,-2.57259 -4.408,-4.78217 -8.1086,-6.45939 -2.54422,-1.13703 -7.31825,-2.46471 -14.15568,-3.98558 -6.83752,-1.52079 -11.02493,-2.94808 -12.64392,-4.39788 -1.64793,-1.44972 -2.47381,-3.25158 -2.47381,-5.49735 0,-2.58679 1.10849,-4.90069 3.43585,-6.73425 2.32732,-1.83348 6.04375,-2.74864 11.13214,-2.74868 4.88596,4e-5 8.63129,1.00531 11.13214,3.02354 2.50081,2.01837 3.96416,5.11935 4.39788,9.07063 l 8.1086,-0.68717 c -0.14469,-3.66699 -1.22397,-6.85823 -3.16098,-9.7578 -1.93709,-2.89948 -4.64662,-5.10436 -8.24603,-6.59682 -3.59949,-1.49234 -7.79402,-2.33634 -12.50648,-2.33638 z m 80.8111,1.09947 0,62.5324 7.69629,0 0,-24.73809 c 0,-3.55333 0.50704,-6.36515 1.37434,-8.38347 0.86731,-2.01827 2.35964,-3.63046 4.39788,-4.81018 2.03821,-1.17969 4.14646,-1.78659 6.45939,-1.78664 3.09347,5e-5 5.45523,0.86304 7.14656,2.61124 1.69125,1.74829 2.6112,4.54588 2.61125,8.38347 l 0,28.72367 7.83372,0 0,-28.72367 c -4e-5,-4.43457 -0.56508,-7.83906 -1.6492,-10.17011 -1.08421,-2.33097 -2.84468,-4.17548 -5.35992,-5.49735 -2.51533,-1.32178 -5.52172,-1.92403 -8.9332,-1.92407 -5.55096,4e-5 -10.23801,2.03424 -13.88082,6.18452 l 0,-22.40172 -7.69629,0 z m -25.83756,16.21719 c -3.96087,4e-5 -7.62659,0.9152 -10.99471,2.74868 -3.36816,1.83356 -5.91093,4.57898 -7.55886,8.24604 -1.64793,3.66707 -2.47381,7.89195 -2.47381,12.78134 0,7.56154 1.94149,13.40329 5.77222,17.45409 3.83073,4.05085 8.95251,6.04708 15.25516,6.04708 5.03052,0 9.18898,-1.45569 12.64391,-4.39788 3.45484,-2.94218 5.62093,-7.02948 6.45939,-12.23161 l -7.69629,-0.96203 c -0.54935,3.83763 -1.79548,6.67318 -3.84815,8.52089 -2.05271,1.84778 -4.63172,2.74868 -7.6963,2.74868 -3.8163,0 -6.97482,-1.36559 -9.3455,-4.12301 -2.37072,-2.75739 -3.43584,-7.11028 -3.43584,-13.19365 0,-5.99805 1.11583,-10.42202 3.57328,-13.19364 2.45749,-2.7716 5.68844,-4.12298 9.62036,-4.12302 2.60197,4e-5 4.89837,0.80138 6.73426,2.33638 1.83581,1.53508 2.98792,3.83007 3.71072,6.87169 l 7.69629,-1.23691 c -0.89629,-4.57669 -3.00433,-8.09501 -6.18453,-10.5824 -3.18023,-2.48731 -7.23002,-3.71067 -12.2316,-3.71071 z M 48.341763,839.1761 c 4.674243,31.39455 18.990318,61.59481 43.154222,85.75871 24.163905,24.16392 54.364165,38.48 85.758715,43.15426 l 0,-31.47235 C 153.93493,932.23767 131.67219,920.9947 113.62283,902.9454 95.543008,884.86557 84.339309,862.56325 79.951548,839.1761 l -31.609785,0 z m 54.836097,0 c 4.07561,17.44024 12.9161,33.94347 26.52473,47.55211 13.56681,13.5668 30.14903,22.29502 47.55211,26.38729 l 0,-15.94232 C 163.88241,893.42944 151.225,886.39863 140.6973,875.87093 130.14093,865.31456 123.0124,852.62759 119.25762,839.1761 l -16.07976,0 z m 177.56452,0 c -3.76301,13.37229 -10.91198,26.0297 -21.43968,36.5574 -10.49379,10.49379 -23.09552,17.64791 -36.41997,21.43968 l 0,15.94232 c 17.40313,-4.09227 33.9853,-12.82049 47.55211,-26.38729 13.60863,-13.60864 22.44913,-30.11187 26.52473,-47.55211 l -16.21719,0 z m 39.44351,0 c -4.40343,23.29532 -15.62194,45.58256 -33.67129,63.63187 -18.04931,18.0493 -40.31209,29.38086 -63.63187,33.80875 l 0,31.47235 c 31.3463,-4.69542 61.49191,-19.02485 85.62128,-43.15426 24.16391,-24.1639 38.47998,-54.3642 43.15423,-85.75871 l -31.47235,0 z"
         style="fill:#ffffff;fill-opacity:1;fill-rule:evenodd;stroke:none" />
      <g
         transform="matrix(1.4838674,0,0,1.4838674,454.42188,-148.0588)"
         id="g3076">
        <text
           xml:space="preserve"
           style="font-size:55.56682968px;font-style:normal;font-variant:normal;font-weight:bold;font-stretch:normal;text-align:start;line-height:125%;letter-spacing:0px;word-spacing:0px;writing-mode:lr-tb;text-anchor:start;fill:#ffffff;fill-opacity:1;stroke:none;font-family:Aparajita;-inkscape-font-specification:Aparajita Bold"
           x="-328.86316"
           y="747.88342"
           id="text3065"
           sodipodi:linespacing="125%"
           transform="scale(0.93778926,1.0663377)"><tspan
             sodipodi:role="line"
             id="tspan3067"
             x="-328.86316"
             y="747.88342">SCHAFFNER</tspan></text>
        <g
           transform="matrix(0.14118504,0,0,0.14118504,-16.378295,749.75625)"
           style="font-size:144px;font-style:normal;font-variant:normal;font-weight:normal;font-stretch:normal;text-align:start;line-height:125%;letter-spacing:0px;word-spacing:0px;writing-mode:lr-tb;text-anchor:start;fill:#ffffff;fill-opacity:1;stroke:none;font-family:Impact;-inkscape-font-specification:Impact"
           id="text3069">
          <path
             d="m -199.03018,98.783066 c 16.07805,1.08e-4 29.30851,5.343854 39.6914,16.031254 10.38271,10.68758 15.57411,23.29694 15.57422,37.82812 -1.1e-4,14.81254 -5.27354,27.49221 -15.82031,38.03906 -10.54696,10.54688 -23.22663,15.82032 -38.03906,15.82032 -14.90629,0 -27.60941,-5.26172 -38.10938,-15.78516 -10.5,-10.52341 -15.75,-23.21481 -15.75,-38.07422 0,-10.45306 2.77734,-20.05071 8.33203,-28.79297 5.55468,-8.74209 12.50389,-15.10537 20.84766,-19.08984 8.34371,-3.98427 16.10152,-5.976456 23.27344,-5.976564 z m 2.67187,10.476564 c -13.21879,1e-4 -23.92972,4.35947 -32.13281,13.07812 -8.20314,8.71883 -12.3047,18.82038 -12.30469,30.30469 -1e-5,11.90629 4.24217,22.1016 12.72657,30.58594 8.48434,8.48439 18.67964,12.72657 30.58593,12.72656 11.85931,1e-5 22.03117,-4.24217 30.51563,-12.72656 8.48428,-8.48434 12.72646,-18.67965 12.72656,-30.58594 -1e-4,-8.20306 -2.13291,-15.76165 -6.39844,-22.67578 -4.26571,-6.91398 -9.75008,-12.09366 -16.45312,-15.53906 -6.7032,-3.44522 -13.12507,-5.16787 -19.26563,-5.16797 z m -24.96093,72.14062 0,-57.16406 27.07031,0 c 6.70306,8e-5 11.57805,1.55868 14.625,4.67578 3.0468,3.11726 4.57023,6.94929 4.57031,11.4961 -8e-5,4.40631 -1.27742,7.94537 -3.83203,10.61718 -2.55476,2.67193 -6.41023,4.47662 -11.56641,5.41407 2.34369,0.89067 4.20697,2.0977 5.58985,3.62109 1.38274,1.52348 3.57414,4.81645 6.57422,9.87891 l 6.67968,11.46093 -14.27343,0 -4.78125,-9.21093 c -2.85944,-5.48434 -5.37897,-9.22262 -7.5586,-11.21485 -2.17974,-1.99214 -5.02739,-2.98823 -8.54297,-2.98828 l -3.02343,0 0,23.41406 z m 11.53125,-32.48437 9.42187,0 c 4.73432,6e-5 8.0976,-0.62104 10.08984,-1.86328 1.99213,-1.24213 2.98822,-3.26947 2.98829,-6.08203 -7e-5,-2.53119 -0.98445,-4.42962 -2.95313,-5.69532 -1.96881,-1.26555 -4.94537,-1.89836 -8.92969,-1.89843 l -10.61718,0 z"
             id="path3074"
             inkscape:connector-curvature="0"
             style="fill:#ffffff" />
        </g>
      </g>
    </g>
  </g>
</svg>
