<?xml version="1.0" encoding="UTF-8" standalone="no"?>
<!-- Generator: Adobe Illustrator 17.0.1, SVG Export Plug-In . SVG Version: 6.00 Build 0)  -->

<svg
   xmlns:dc="http://purl.org/dc/elements/1.1/"
   xmlns:cc="http://creativecommons.org/ns#"
   xmlns:rdf="http://www.w3.org/1999/02/22-rdf-syntax-ns#"
   xmlns:svg="http://www.w3.org/2000/svg"
   xmlns="http://www.w3.org/2000/svg"
   xmlns:sodipodi="http://sodipodi.sourceforge.net/DTD/sodipodi-0.dtd"
   xmlns:inkscape="http://www.inkscape.org/namespaces/inkscape"
   version="1.1"
   id="Layer_1"
   x="0px"
   y="0px"
   width="1136.051"
   height="217.181"
   viewBox="0 0 1136.0511 217.181"
   enable-background="new 0 0 1202.918 515.865"
   xml:space="preserve"
   inkscape:version="0.91 r13725"
   sodipodi:docname="Visual Studio 2015 (Imagotype).svg"><metadata
     id="metadata3413"><rdf:RDF><cc:Work
         rdf:about=""><dc:format>image/svg+xml</dc:format><dc:type
           rdf:resource="http://purl.org/dc/dcmitype/StillImage" /><dc:title></dc:title></cc:Work></rdf:RDF></metadata><defs
     id="defs3411" /><sodipodi:namedview
     pagecolor="#ffffff"
     bordercolor="#666666"
     borderopacity="1"
     objecttolerance="10"
     gridtolerance="10"
     guidetolerance="10"
     inkscape:pageopacity="0"
     inkscape:pageshadow="2"
     inkscape:window-width="1366"
     inkscape:window-height="715"
     id="namedview3409"
     showgrid="false"
     fit-margin-top="10"
     fit-margin-left="10"
     fit-margin-right="10"
     fit-margin-bottom="10"
     inkscape:zoom="1.0659732"
     inkscape:cx="426.37093"
     inkscape:cy="108.5905"
     inkscape:window-x="-8"
     inkscape:window-y="22"
     inkscape:window-maximized="1"
     inkscape:current-layer="Layer_1" /><g
     id="g3508"
     transform="translate(-38.289,-82.184)"
     style="fill:#662d91;fill-opacity:1"><path
       style="fill:#662d91;fill-opacity:1"
       inkscape:connector-curvature="0"
       id="path3361"
       d="m 406.725,131.716 -43.691,118.213 -15.168,0 -42.948,-118.213 15.414,0 32.727,93.728 c 1.094,3.296 1.897,6.789 2.392,10.466 l 0.327,0 c 0.276,-2.688 1.18,-6.232 2.721,-10.635 l 33.385,-93.559 14.841,0 z" /><path
       style="fill:#662d91;fill-opacity:1"
       inkscape:connector-curvature="0"
       id="path3363"
       d="m 499.824,227.342 c 0,7.311 -2.822,13.238 -8.449,17.803 -5.637,4.563 -13.129,6.842 -22.467,6.842 -7.969,0 -14.947,-1.708 -20.936,-5.11 l 0,-14.507 c 6.645,5.386 13.955,8.073 21.93,8.073 10.713,0 16.074,-3.926 16.074,-11.785 0,-3.182 -1.051,-5.785 -3.137,-7.787 -2.09,-2.005 -6.84,-4.715 -14.258,-8.126 -7.479,-3.186 -12.756,-6.604 -15.83,-10.257 -3.08,-3.651 -4.615,-8.507 -4.615,-14.547 0,-6.98 2.803,-12.81 8.408,-17.483 5.607,-4.668 12.721,-7.004 21.35,-7.004 6.646,0 12.664,1.324 18.053,3.956 l 0,13.602 c -5.498,-4.009 -11.869,-6.019 -19.123,-6.019 -4.451,0 -8.037,1.097 -10.76,3.3 -2.719,2.195 -4.076,5.031 -4.076,8.493 0,3.733 1.041,6.605 3.129,8.613 2.086,2.006 6.402,4.377 12.943,7.127 8.02,3.408 13.654,6.98 16.893,10.717 3.242,3.736 4.871,8.436 4.871,14.099 z" /><path
       style="fill:#662d91;fill-opacity:1"
       inkscape:connector-curvature="0"
       id="path3365"
       d="m 582.371,249.929 -13.519,0 0,-13.359 -0.326,0 c -5.605,10.284 -14.26,15.416 -25.969,15.416 -20.168,0 -30.248,-12.004 -30.248,-36.025 l 0,-50.444 13.514,0 0,48.302 c 0,17.752 6.816,26.624 20.443,26.624 6.709,0 12.148,-2.431 16.32,-7.292 4.18,-4.868 6.266,-11.196 6.266,-19 l 0,-48.634 13.519,0 0,84.412 z" /><path
       style="fill:#662d91;fill-opacity:1"
       inkscape:connector-curvature="0"
       id="path3367"
       d="m 663.258,249.929 -13.516,0 0,-13.189 -0.334,0 c -5.879,10.161 -14.533,15.246 -25.965,15.246 -8.131,0 -14.65,-2.211 -19.537,-6.635 -4.895,-4.427 -7.33,-10.373 -7.33,-17.847 0,-15.72 9.283,-24.898 27.854,-27.532 l 25.313,-3.547 c 0,-14.287 -5.799,-21.434 -17.398,-21.434 -10.162,0 -19.338,3.438 -27.531,10.308 l 0,-13.85 c 2.473,-1.87 6.705,-3.665 12.697,-5.404 5.986,-1.723 11.31,-2.593 15.99,-2.593 19.838,0 29.758,10.521 29.758,31.573 l 0,54.904 z m -13.516,-42.708 -20.443,2.892 c -6.982,0.99 -11.871,2.648 -14.678,4.98 -2.801,2.338 -4.201,6.125 -4.201,11.341 0,4.226 1.516,7.625 4.533,10.184 3.021,2.547 6.898,3.825 11.619,3.825 6.711,0 12.248,-2.365 16.615,-7.083 4.367,-4.727 6.555,-10.642 6.555,-17.721 l 0,-8.418 z" /><path
       style="fill:#662d91;fill-opacity:1"
       inkscape:connector-curvature="0"
       id="path3369"
       d="m 696.846,249.929 -13.523,0 0,-124.976 13.523,0 0,124.976 z" /><path
       style="fill:#662d91;fill-opacity:1"
       inkscape:connector-curvature="0"
       id="path3371"
       d="m 803.912,220.091 c 0,9.939 -3.518,17.745 -10.555,23.406 -7.033,5.657 -16.592,8.489 -28.684,8.489 -4.395,0 -9.357,-0.724 -14.881,-2.184 -5.525,-1.46 -9.436,-2.982 -11.746,-4.577 l 0,-16.401 c 3.354,3.023 7.762,5.551 13.232,7.584 5.467,2.032 10.565,3.048 15.289,3.048 15.172,0 22.756,-5.905 22.756,-17.725 0,-4.94 -1.625,-9.188 -4.869,-12.731 -3.238,-3.549 -9.893,-8.203 -19.947,-13.974 -9.725,-5.498 -16.541,-10.717 -20.443,-15.663 -3.9,-4.947 -5.852,-10.967 -5.852,-18.048 0,-9.347 3.492,-16.943 10.469,-22.799 6.977,-5.848 15.992,-8.783 27.041,-8.783 10.602,0 18.357,1.409 23.244,4.207 l 0,15.497 c -6.156,-4.83 -14.152,-7.248 -23.986,-7.248 -6.543,0 -11.885,1.628 -16.037,4.901 -4.147,3.274 -6.221,7.6 -6.221,12.984 0,3.901 0.615,7.029 1.852,9.395 1.236,2.361 3.324,4.699 6.264,7.005 2.941,2.311 7.902,5.416 14.885,9.319 10.441,5.82 17.748,11.317 21.922,16.483 4.177,5.167 6.267,11.105 6.267,17.815 z" /><path
       style="fill:#662d91;fill-opacity:1"
       inkscape:connector-curvature="0"
       id="path3373"
       d="m 857.74,249.101 c -3.246,1.814 -7.475,2.72 -12.693,2.72 -14.73,0 -22.094,-8.296 -22.094,-24.892 l 0,-49.952 -14.508,0 0,-11.46 14.508,0 0,-20.611 13.514,-4.371 0,24.982 21.273,0 0,11.46 -21.273,0 0,47.646 c 0,5.657 0.967,9.683 2.895,12.079 1.92,2.387 5.135,3.578 9.641,3.578 3.35,0 6.264,-0.909 8.738,-2.716 l 0,11.537 z" /><path
       style="fill:#662d91;fill-opacity:1"
       inkscape:connector-curvature="0"
       id="path3375"
       d="m 939.406,249.929 -13.516,0 0,-13.359 -0.334,0 c -5.603,10.284 -14.258,15.416 -25.967,15.416 -20.174,0 -30.252,-12.004 -30.252,-36.025 l 0,-50.444 13.516,0 0,48.302 c 0,17.752 6.815,26.624 20.447,26.624 6.699,0 12.141,-2.431 16.32,-7.292 4.172,-4.868 6.27,-11.196 6.27,-19 l 0,-48.634 13.516,0 0,84.412 z" /><path
       style="fill:#662d91;fill-opacity:1"
       inkscape:connector-curvature="0"
       id="path3377"
       d="m 1031.912,249.929 -13.518,0 0,-14.349 -0.322,0 c -6.272,10.94 -15.945,16.406 -29.023,16.406 -10.666,0 -19.156,-3.838 -25.475,-11.499 -6.322,-7.669 -9.479,-17.903 -9.479,-30.706 0,-13.953 3.504,-25.168 10.512,-33.639 7.008,-8.454 16.387,-12.689 28.146,-12.689 11.547,0 19.975,4.566 25.318,13.683 l 0.322,0 0,-52.183 13.518,0 0,124.976 z m -13.518,-38.169 0,-12.452 c 0,-6.973 -2.326,-12.773 -6.963,-17.389 -4.642,-4.617 -10.295,-6.927 -16.941,-6.927 -8.139,0 -14.592,3.014 -19.371,9.025 -4.787,6.021 -7.172,14.361 -7.172,25.023 0,9.674 2.252,17.32 6.762,22.959 4.494,5.633 10.574,8.442 18.213,8.442 7.42,0 13.52,-2.688 18.303,-8.073 4.773,-5.389 7.169,-12.254 7.169,-20.608 z" /><path
       style="fill:#662d91;fill-opacity:1"
       inkscape:connector-curvature="0"
       id="path3379"
       d="m 1164.34,207.391 c 0,13.408 -3.809,24.189 -11.418,32.356 -7.613,8.16 -17.82,12.239 -30.627,12.239 -12.473,0 -22.43,-3.969 -29.887,-11.907 -7.441,-7.941 -11.164,-18.4 -11.164,-31.369 0,-13.96 3.822,-24.992 11.459,-33.093 7.631,-8.11 18.16,-12.164 31.574,-12.164 12.527,0 22.338,3.918 29.428,11.746 7.088,7.835 10.635,18.559 10.635,32.192 z m -13.852,0.499 c 0,-10.613 -2.35,-18.743 -7.049,-24.4 -4.699,-5.664 -11.416,-8.497 -20.152,-8.497 -8.688,0 -15.557,2.901 -20.609,8.7 -5.057,5.795 -7.58,13.972 -7.58,24.518 0,10.116 2.537,18.013 7.617,23.702 5.08,5.69 11.939,8.529 20.572,8.529 8.791,0 15.523,-2.794 20.193,-8.401 4.67,-5.607 7.008,-13.661 7.008,-24.151 z" /><path
       style="fill:#662d91;fill-opacity:1"
       inkscape:connector-curvature="0"
       id="path3381"
       d="m 433.635,137.71 c 0,2.533 -0.879,4.639 -2.635,6.312 -1.77,1.679 -3.852,2.515 -6.27,2.515 -2.483,0 -4.574,-0.808 -6.271,-2.434 -1.709,-1.617 -2.559,-3.75 -2.559,-6.393 0,-2.363 0.838,-4.414 2.51,-6.144 1.678,-1.738 3.789,-2.601 6.32,-2.601 2.522,0 4.647,0.849 6.354,2.559 1.699,1.699 2.551,3.764 2.551,6.186 z m -2.307,112.284 -13.531,0 0,-84.487 13.531,0 0,84.487 z" /><path
       style="fill:#662d91;fill-opacity:1"
       inkscape:connector-curvature="0"
       id="path3383"
       d="m 1068.146,137.71 c 0,2.533 -0.879,4.639 -2.635,6.312 -1.77,1.679 -3.852,2.515 -6.271,2.515 -2.477,0 -4.572,-0.808 -6.268,-2.434 -1.707,-1.617 -2.563,-3.75 -2.563,-6.393 0,-2.363 0.842,-4.414 2.52,-6.144 1.668,-1.738 3.777,-2.601 6.311,-2.601 2.525,0 4.65,0.849 6.355,2.559 1.7,1.699 2.551,3.764 2.551,6.186 z m -2.308,112.284 -13.523,0 0,-84.487 13.523,0 0,84.487 z" /><path
       style="fill:#662d91;fill-opacity:1"
       inkscape:connector-curvature="0"
       id="path3385"
       d="m 196.176,92.184 -78.257,78.255 -49.913,-38.819 -19.717,9.862 0,98.592 19.717,9.857 49.913,-38.822 78.257,78.256 49.299,-19.713 0,-157.753 -49.299,-19.715 z m -128.17,128.163 0,-59.149 29.579,29.582 -29.579,29.567 z m 76.057,-29.568 52.113,-40.537 0,81.071 -52.113,-40.534 z" /></g></svg>