<?xml version="1.0" encoding="UTF-8" standalone="no"?>
<!-- Created with Inkscape (http://www.inkscape.org/) -->

<svg
   xmlns:dc="http://purl.org/dc/elements/1.1/"
   xmlns:cc="http://creativecommons.org/ns#"
   xmlns:rdf="http://www.w3.org/1999/02/22-rdf-syntax-ns#"
   xmlns:svg="http://www.w3.org/2000/svg"
   xmlns="http://www.w3.org/2000/svg"
   xmlns:sodipodi="http://sodipodi.sourceforge.net/DTD/sodipodi-0.dtd"
   xmlns:inkscape="http://www.inkscape.org/namespaces/inkscape"
   id="svg3336"
   version="1.1"
   inkscape:version="0.91 r13725"
   width="900"
   height="900"
   viewBox="0 0 900 900"
   sodipodi:docname="Productos Fernandez.svg">
  <metadata
     id="metadata3342">
    <rdf:RDF>
      <cc:Work
         rdf:about="">
        <dc:format>image/svg+xml</dc:format>
        <dc:type
           rdf:resource="http://purl.org/dc/dcmitype/StillImage" />
        <dc:title></dc:title>
      </cc:Work>
    </rdf:RDF>
  </metadata>
  <defs
     id="defs3340" />
  <sodipodi:namedview
     pagecolor="#ffffff"
     bordercolor="#666666"
     borderopacity="1"
     objecttolerance="10"
     gridtolerance="10"
     guidetolerance="10"
     inkscape:pageopacity="0"
     inkscape:pageshadow="2"
     inkscape:window-width="1366"
     inkscape:window-height="715"
     id="namedview3338"
     showgrid="false"
     inkscape:zoom="0.16"
     inkscape:cx="1248.3626"
     inkscape:cy="1082.6523"
     inkscape:window-x="-8"
     inkscape:window-y="22"
     inkscape:window-maximized="1"
     inkscape:current-layer="svg3336" />
  <g
     id="g3404"
     transform="matrix(3.2599699,0,0,3.2599699,-806.75307,-43.390021)">
    <path
       sodipodi:nodetypes="ssssssssssssssssssssssssssssssssssssssssscsssscsscsssss"
       inkscape:connector-curvature="0"
       id="path3397"
       d="m 392.07625,208.6146 c -0.41777,-0.19217 -0.89395,-0.69564 -1.15459,-1.22076 -0.43304,-0.87244 -0.4452,-2.16206 -0.51172,-54.23586 -0.0494,-38.75936 0.003,-53.720951 0.19133,-54.727711 0.39627,-2.11602 1.13095,-3.19314 2.70526,-3.9662 1.32181,-0.64908 1.34878,-0.65206 5.71553,-0.63059 3.26908,0.016 5.18763,0.1478 7.52656,0.51678 13.28098,2.09513 25.74768,5.969061 37.31796,11.596271 4.89778,2.38203 5.84231,3.14449 6.30988,5.09356 0.43942,1.83172 0.16297,21.14981 -0.30942,21.6222 -0.75639,0.7564 -1.97894,0.59692 -5.81586,-0.75873 -6.57678,-2.32368 -12.57301,-4.25398 -18.60971,-5.99087 -7.40897,-2.13171 -7.48639,-2.14699 -7.81058,-1.54122 -0.17189,0.32119 -0.2508,4.5369 -0.2508,13.39874 0,11.44678 0.0417,12.97177 0.36287,13.29301 0.32005,0.32004 1.71662,0.36326 11.83458,0.36627 12.33405,0.004 12.1453,-0.014 13.06587,1.226 0.46934,0.63225 0.48408,0.89245 0.48408,8.54398 0,7.43005 -0.027,7.94593 -0.46182,8.81556 -0.30789,0.61578 -0.76973,1.07761 -1.38551,1.38551 -0.87978,0.43988 -1.45608,0.4649 -12.12323,0.52628 -10.12415,0.0583 -11.22726,0.10129 -11.4882,0.44824 -0.22426,0.29818 -0.28864,3.85332 -0.28864,15.93813 0,16.81642 0.0304,16.38994 -1.22886,17.21506 -1.71957,1.12672 -13.56843,3.028 -20.59294,3.30438 -2.09033,0.0822 -2.94567,0.0286 -3.48204,-0.21803 z m -52.05389,-6.47716 c -5.22438,-1.88626 -7.53665,-2.85085 -11.11998,-4.63886 -4.27538,-2.13332 -5.9287,-3.09778 -6.79433,-3.96342 -1.57498,-1.57496 -1.48283,1.06677 -1.48283,-42.51058 0,-29.22673 0.0693,-39.61819 0.2696,-40.41358 0.58014,-2.30394 4.15202,-4.63872 11.73817,-7.67276 11.76215,-4.704171 29.41169,-9.010871 36.92803,-9.010871 6.42219,0 10.37076,1.99707 12.48836,6.316201 1.67858,3.42369 1.6166,2.22756 1.6166,31.19845 0,28.70107 0.0499,27.65415 -1.49389,31.31474 -3.05628,7.24671 -10.03854,12.12128 -18.82694,13.1438 -2.06121,0.23981 -2.82058,0.22666 -5.06608,-0.0878 -3.11888,-0.43671 -5.7548,-1.20733 -7.96758,-2.32932 -1.76985,-0.89742 -2.31877,-0.99459 -2.52864,-0.44765 -0.0771,0.20089 -0.14017,6.85934 -0.14017,14.79654 l 0,14.4313 -0.67498,0.67498 c -1.05739,1.05739 -2.1449,0.93193 -6.94534,-0.80124 z m 14.85886,-48.67973 c 0.48785,-0.33151 1.163,-1.00218 1.50034,-1.49037 l 0.61334,-0.88764 0.0628,-14.25837 c 0.0607,-13.78032 0.0476,-14.28817 -0.3905,-15.14703 -0.84746,-1.66115 -2.64455,-2.80256 -4.41858,-2.80644 -0.32432,-6.5e-4 -1.1179,0.26192 -1.7635,0.58366 -1.2972,0.64641 -2.19888,1.76873 -2.59112,3.2252 -0.16375,0.60794 -0.24922,5.35123 -0.25007,13.87614 -9.3e-4,13.99445 0.0224,14.2987 1.23862,15.89336 1.37352,1.80077 4.14848,2.26868 5.99862,1.01149 z"
       style="fill:#010101" />
    <path
       inkscape:connector-curvature="0"
       id="path3399"
       d="M 385.51161,55.206419 A 138.03764,96.14196 0 0 0 247.47255,151.34706 138.03764,96.14196 0 0 0 385.51161,247.48964 138.03764,96.14196 0 0 0 523.54872,151.34706 138.03764,96.14196 0 0 0 385.51161,55.206419 Z m 0,29.00196 a 96.396858,67.139534 0 0 1 96.39649,67.138681 96.396858,67.139534 0 0 1 -96.39649,67.14062 96.396858,67.139534 0 0 1 -96.39843,-67.14062 96.396858,67.139534 0 0 1 96.39843,-67.138681 z"
       style="opacity:1;fill:#e12425;fill-opacity:1;stroke:none;stroke-width:20;stroke-linecap:square;stroke-linejoin:miter;stroke-miterlimit:4;stroke-dasharray:none;stroke-dashoffset:0;stroke-opacity:1" />
  </g>
</svg>
