<?xml version="1.0" encoding="UTF-8" standalone="no"?>
<svg
   xmlns:dc="http://purl.org/dc/elements/1.1/"
   xmlns:cc="http://creativecommons.org/ns#"
   xmlns:rdf="http://www.w3.org/1999/02/22-rdf-syntax-ns#"
   xmlns:svg="http://www.w3.org/2000/svg"
   xmlns="http://www.w3.org/2000/svg"
   xmlns:sodipodi="http://sodipodi.sourceforge.net/DTD/sodipodi-0.dtd"
   xmlns:inkscape="http://www.inkscape.org/namespaces/inkscape"
   width="1907.8474"
   height="574.70184"
   viewBox="0 0 1907.8474 574.70184"
   version="1.1"
   id="svg2"
   inkscape:version="0.91 r13725"
   sodipodi:docname="tdoee.svg">
  <title
     id="title3669">tdoee</title>
  <metadata
     id="metadata20">
    <rdf:RDF>
      <cc:Work
         rdf:about="">
        <dc:format>image/svg+xml</dc:format>
        <dc:type
           rdf:resource="http://purl.org/dc/dcmitype/StillImage" />
        <dc:title>tdoee</dc:title>
        <dc:creator>
          <cc:Agent>
            <dc:title></dc:title>
          </cc:Agent>
        </dc:creator>
        <dc:publisher>
          <cc:Agent>
            <dc:title>Jon Dotsoy &lt;hi@jon.soy&gt;</dc:title>
          </cc:Agent>
        </dc:publisher>
        <dc:source>http://tdoee.com/</dc:source>
        <dc:subject>
          <rdf:Bag>
            <rdf:li>tdoee</rdf:li>
          </rdf:Bag>
        </dc:subject>
        <dc:contributor>
          <cc:Agent>
            <dc:title>Jon Dotsoy &lt;hi@jon.soy&gt;
</dc:title>
          </cc:Agent>
        </dc:contributor>
        <cc:license
           rdf:resource="http://creativecommons.org/licenses/by-nc-nd/4.0/" />
      </cc:Work>
    </rdf:RDF>
  </metadata>
  <sodipodi:namedview
     pagecolor="#ffffff"
     bordercolor="#666666"
     borderopacity="1"
     objecttolerance="10"
     gridtolerance="10"
     guidetolerance="10"
     inkscape:pageopacity="0"
     inkscape:pageshadow="2"
     inkscape:window-width="1303"
     inkscape:window-height="745"
     id="namedview18"
     showgrid="false"
     fit-margin-top="0"
     fit-margin-left="0"
     fit-margin-right="0"
     fit-margin-bottom="0"
     inkscape:zoom="0.61063584"
     inkscape:cx="953.92371"
     inkscape:cy="287.35092"
     inkscape:window-x="-8"
     inkscape:window-y="-8"
     inkscape:window-maximized="1"
     inkscape:current-layer="svg2"
     showguides="true"
     inkscape:snap-to-guides="true"
     inkscape:snap-grids="true"
     inkscape:snap-nodes="true"
     inkscape:snap-global="true"
     inkscape:snap-bbox="false"
     inkscape:snap-intersection-paths="false"
     inkscape:guide-bbox="true" />
  <path
     style="fill:#0571cb;fill-rule:evenodd;stroke:none;stroke-width:1"
     d="M 686.54883 0 L 558.78125 0.04296875 L 558.8418 211.23242 L 557.16016 211.23242 C 538.66066 184.15172 499.14394 167.42219 448.71094 167.43359 C 350.36354 167.46759 263.81011 243.21303 264.69531 374.70312 C 264.72931 495.83932 342.93491 574.70988 440.44531 574.67578 C 493.39431 574.65578 542.98391 552.32793 569.03711 508.48633 L 570.70898 508.48633 L 576.60938 565.86328 L 690.08984 565.82812 L 689.90234 535.77344 A 300 300 0 0 1 605.63281 366.97266 A 300 300 0 0 1 687.27539 116.0625 L 686.54883 0 z M 179.84961 65.447266 L 54.611328 92.580078 L 54.634766 177.05469 L 0 177.07617 L 0.01953125 266.33203 L 54.666016 266.33203 L 54.716797 425.71484 C 54.736897 480.70734 66.517347 518.16483 90.060547 541.26953 C 110.23645 561.17813 144.71034 574.72117 185.89844 574.70117 C 222.03564 574.68977 252.29943 570.70305 269.11133 564.31055 L 268.23242 472.6582 C 258.99102 474.2547 246.38246 475.84719 230.41016 475.86719 C 191.74296 475.88159 179.97317 454.36852 179.95117 407.35352 L 179.9082 266.28906 L 271.5332 266.25781 L 271.51172 176.99219 L 179.88086 177.02539 L 179.84961 65.460938 L 179.84961 65.447266 z M 1322.7559 167.91992 C 1262.3366 167.94092 1215.9026 187.47603 1182.4277 217.48633 A 300 300 0 0 1 1199.6484 282.43164 A 300 300 0 0 1 1149.4395 494.60742 C 1185.4059 545.38202 1248.7112 574.39463 1334.6621 574.36133 C 1390.1384 574.34433 1441.4014 566.35924 1483.4355 550.39844 L 1466.5879 468.32422 C 1432.1357 478.69802 1396.8313 484.27686 1353.1094 484.29688 C 1293.4295 484.31988 1241.3192 460.41301 1237.0957 410.22461 L 1501.8809 410.13281 C 1503.5545 401.36691 1506.0824 383.04112 1506.0625 362.32422 C 1506.0335 265.88102 1455.5611 167.87792 1322.7559 167.91992 z M 1724.541 167.91992 C 1581.6323 167.96832 1516.9546 277.17766 1516.9766 376.00586 C 1517.0192 497.93316 1596.9006 574.41533 1736.4453 574.36133 C 1791.9215 574.34423 1843.1866 566.35924 1885.2207 550.39844 L 1868.3711 468.32422 C 1833.9189 478.69802 1798.6164 484.27687 1754.8945 484.29688 C 1695.2144 484.31957 1643.1044 460.41301 1638.8809 410.22461 L 1903.666 410.13281 C 1905.3397 401.36691 1907.8677 383.04112 1907.8477 362.32422 C 1907.8193 265.88102 1857.3462 167.87792 1724.541 167.91992 z M 1315.2168 248.41992 C 1374.0618 248.40892 1387.5286 297.80717 1387.5312 327.29297 L 1236.2227 327.3457 C 1239.5839 294.6753 1261.4139 248.43992 1315.2168 248.41992 z M 1717.002 248.41992 C 1775.847 248.40852 1789.3139 297.80715 1789.3145 327.29297 L 1638.0078 327.3457 C 1641.369 294.6753 1663.1993 248.43992 1717.002 248.41992 z M 482.37109 259.86523 C 521.87229 259.86523 549.62572 286.94594 557.19922 319.61914 C 558.04742 325.99154 558.88287 334.75582 558.88867 341.13672 L 558.91016 392.12695 C 558.91016 402.48975 558.07244 411.26805 555.55664 420.03125 L 555.55078 420.03125 C 547.98879 454.31255 518.58481 478.21643 481.59961 478.23633 C 428.64211 478.25833 394.16417 436.82153 394.13867 370.67773 C 394.11667 309.31303 424.36439 259.89343 482.37109 259.86523 z "
     id="path4843" />
  <path
     style="opacity:1;fill:#33cc00;fill-opacity:1;stroke:none;stroke-width:10;stroke-linecap:round;stroke-linejoin:round;stroke-miterlimit:4;stroke-dasharray:none;stroke-dashoffset:0;stroke-opacity:1"
     d="M 794.85156 57.035156 L 800.50195 96.738281 A 250 250 0 0 0 655.13477 359.92773 A 250 250 0 0 0 937.86523 572.20703 A 250 250 0 0 0 1150.1465 289.47656 A 250 250 0 0 0 937.10938 77.191406 L 949.08008 161.29883 A 170 170 0 0 1 1070.9453 300.74805 A 170 170 0 0 1 926.59375 493.00586 A 170 170 0 0 1 734.33594 348.6543 A 170 170 0 0 1 812.4707 180.83398 L 817.39453 215.43945 L 887.30469 124.68359 L 794.85156 57.035156 z M 945.66406 210.97266 A 48.25 48.25 0 0 0 931.3418 212.65625 A 48.25 48.25 0 0 0 897.5332 271.92969 A 48.25 48.25 0 0 0 956.80664 305.73633 A 48.25 48.25 0 0 0 990.61328 246.46484 A 48.25 48.25 0 0 0 945.66406 210.97266 z M 825.59961 267.40625 A 31.5 31.5 0 0 0 816.25 268.50586 A 31.5 31.5 0 0 0 794.17773 307.20117 A 31.5 31.5 0 0 0 832.875 329.27344 A 31.5 31.5 0 0 0 854.94531 290.57812 A 31.5 31.5 0 0 0 825.59961 267.40625 z M 999.0332 333.58203 L 811.78125 384.80859 C 811.78125 384.80859 855.71161 480.61041 932.84961 459.50781 C 1009.9878 438.40521 999.0332 333.58203 999.0332 333.58203 z "
     id="path4853" />
</svg>
