<?xml version="1.0" encoding="UTF-8" standalone="no"?>
<!-- Created with Inkscape (http://www.inkscape.org/) -->

<svg
   xmlns:dc="http://purl.org/dc/elements/1.1/"
   xmlns:cc="http://creativecommons.org/ns#"
   xmlns:rdf="http://www.w3.org/1999/02/22-rdf-syntax-ns#"
   xmlns:svg="http://www.w3.org/2000/svg"
   xmlns="http://www.w3.org/2000/svg"
   xmlns:sodipodi="http://sodipodi.sourceforge.net/DTD/sodipodi-0.dtd"
   xmlns:inkscape="http://www.inkscape.org/namespaces/inkscape"
   width="400"
   height="400"
   id="svg2"
   version="1.1"
   inkscape:version="0.48.5 r10040"
   sodipodi:docname="chilectraLogoWhite.svg">
  <defs
     id="defs4">
    <clipPath
       clipPathUnits="userSpaceOnUse"
       id="clipPath2998">
      <rect
         style="opacity:0.8;fill:#000000;fill-opacity:1;fill-rule:evenodd;stroke:none"
         id="rect3000"
         width="487"
         height="501"
         x="96"
         y="288.36218" />
    </clipPath>
    <filter
       inkscape:label="Desaturate"
       x="0"
       y="0"
       width="1"
       height="1"
       inkscape:menu="Color"
       inkscape:menu-tooltip="Render in shades of gray by reducing saturation to zero"
       color-interpolation-filters="sRGB"
       id="filter3815">
      <feColorMatrix
         type="saturate"
         values="0"
         id="feColorMatrix3817" />
    </filter>
  </defs>
  <sodipodi:namedview
     id="base"
     pagecolor="#969696"
     bordercolor="#666666"
     borderopacity="1.0"
     inkscape:pageopacity="1"
     inkscape:pageshadow="2"
     inkscape:zoom="1"
     inkscape:cx="76.5"
     inkscape:cy="165.02428"
     inkscape:document-units="px"
     inkscape:current-layer="layer1"
     showgrid="false"
     showguides="true"
     inkscape:guide-bbox="true"
     inkscape:window-width="1366"
     inkscape:window-height="715"
     inkscape:window-x="-8"
     inkscape:window-y="22"
     inkscape:window-maximized="1" />
  <metadata
     id="metadata7">
    <rdf:RDF>
      <cc:Work
         rdf:about="">
        <dc:format>image/svg+xml</dc:format>
        <dc:type
           rdf:resource="http://purl.org/dc/dcmitype/StillImage" />
        <dc:title />
      </cc:Work>
    </rdf:RDF>
  </metadata>
  <g
     inkscape:label="Capa 1"
     inkscape:groupmode="layer"
     id="layer1"
     transform="translate(0,-652.36218)">
    <g
       id="g3808"
       transform="matrix(1.0039688,0,0,1.0039688,-173.52382,365.26774)"
       style="stroke-width:4.91875029;stroke-miterlimit:4;stroke-dasharray:none;filter:url(#filter3815)">
      <g
         transform="matrix(1.0063939,0,0,1.0012723,-367.14908,-2.3127193)"
         id="g3778"
         style="stroke-width:4.89998388;stroke-miterlimit:4;stroke-dasharray:none">
        <path
           transform="scale(1,-1)"
           style="fill:#f9f9f9;fill-opacity:1;fill-rule:evenodd;stroke:#ffffff;stroke-opacity:1"
           d="m 539,-683.36218 391,0 0,77 -391,0 z"
           id="rect3008" />
        <path
           style="fill:none;stroke:#ffffff;stroke-opacity:1"
           d="m 539,290.36218 391,0 0,316 -391,0 z"
           id="rect3002" />
      </g>
      <g
         transform="scale(1.043952,0.95789844)"
         style="font-size:90.93702698px;font-style:normal;font-variant:normal;font-weight:bold;font-stretch:normal;text-align:start;line-height:125%;letter-spacing:0px;word-spacing:0px;writing-mode:lr-tb;text-anchor:start;fill:#ffffff;fill-opacity:1;stroke:none;font-family:Miriam;-inkscape-font-specification:Miriam Bold"
         id="text3004">
        <path
           d="m 235.41346,497.93058 8.75569,1.06011 c -0.76599,5.41531 -2.75024,9.57067 -5.95276,12.4661 -3.27104,2.96389 -7.37368,4.44584 -12.30791,4.44584 -6.54944,0 -11.66409,-2.2923 -15.34396,-6.87689 -3.04715,-3.81679 -4.57072,-9.01839 -4.57072,-15.60483 0,-9.9055 3.16925,-16.61958 9.50776,-20.14224 3.18589,-1.76312 6.66873,-2.6447 10.44854,-2.64474 9.91291,4e-5 15.7676,4.92505 17.5641,14.77504 l -8.57807,1.19333 c -1.35617,-5.60028 -4.26455,-8.40043 -8.72516,-8.40046 -7.35794,3e-5 -11.03689,5.0009 -11.03688,15.00261 -1e-5,10.0591 3.54851,15.08865 10.64558,15.08864 5.43007,10e-6 8.628,-3.45416 9.59379,-10.36251 z"
           style=""
           id="path3883" />
        <path
           d="m 249.33098,514.94519 0,-59.20009 9.00822,0 0,20.59182 c 2.33669,-3.80195 6.17568,-5.70295 11.51699,-5.70299 6.93051,4e-5 11.52065,2.45422 13.77044,7.36254 1.04897,2.27938 1.57348,5.50506 1.57352,9.67705 l 0,27.27167 -9.00823,0 0,-27.27167 c -3e-5,-6.14051 -2.60499,-9.21078 -7.8149,-9.21082 -1.89084,4e-5 -3.67065,0.48986 -5.33944,1.46946 -1.66882,0.97967 -2.86909,2.32841 -3.60079,4.04621 -0.73174,1.71786 -1.0976,4.154 -1.09759,7.30843 l 0,23.65839 z"
           style=""
           id="path3885" />
        <path
           d="m 295.02151,465.61918 0,-9.87408 9.00545,0 0,9.87408 z m 0,49.32601 0,-43.39546 9.00545,0 0,43.39546 z"
           style=""
           id="path3887" />
        <path
           d="m 313.14064,514.94519 0,-59.20009 9.00823,0 0,59.20009 z"
           style=""
           id="path3889" />
        <path
           d="m 360.37694,499.75942 8.92775,1.06567 c -2.55505,10.05169 -8.97496,15.07754 -19.25973,15.07754 -6.7141,0 -11.912,-2.09989 -15.59373,-6.29966 -3.49118,-3.97589 -5.23676,-9.31163 -5.23676,-16.00722 0,-6.6382 1.68176,-12.03314 5.04528,-16.18484 3.66322,-4.51795 8.79359,-6.77694 15.39113,-6.77698 6.44948,4e-5 11.44665,2.23498 14.99151,6.70483 3.28207,4.10729 4.92312,9.38105 4.92317,15.82128 -0.006,0.4496 -0.0333,1.38391 -0.0833,2.80293 l -30.99873,0 c 0.21275,3.26548 1.25899,6.08321 3.13872,8.4532 2.04992,2.58462 4.87134,3.87693 8.46429,3.87692 4.77883,10e-6 8.20895,-2.84455 10.29036,-8.53367 z m -21.50207,-11.40598 21.29394,0 c -0.30161,-2.65119 -1.13046,-4.789 -2.48656,-6.41344 -2.05922,-2.49207 -4.70673,-3.73813 -7.94256,-3.73816 -3.12302,3e-5 -5.9759,1.14618 -8.55865,3.43844 -1.3284,1.84645 -2.09712,4.08417 -2.30617,6.71316 z"
           style=""
           id="path3891" />
        <path
           d="m 404.49949,497.93058 8.75569,1.06011 c -0.76599,5.41531 -2.75024,9.57067 -5.95276,12.4661 -3.27104,2.96389 -7.37368,4.44584 -12.30791,4.44584 -6.54944,0 -11.66409,-2.2923 -15.34396,-6.87689 -3.04715,-3.81679 -4.57072,-9.01839 -4.57072,-15.60483 0,-9.9055 3.16925,-16.61958 9.50776,-20.14224 3.18589,-1.76312 6.66873,-2.6447 10.44854,-2.64474 9.91291,4e-5 15.7676,4.92505 17.5641,14.77504 l -8.57807,1.19333 c -1.35617,-5.60028 -4.26455,-8.40043 -8.72516,-8.40046 -7.35794,3e-5 -11.03689,5.0009 -11.03688,15.00261 -10e-6,10.0591 3.54851,15.08865 10.64558,15.08864 5.43007,10e-6 8.628,-3.45416 9.59379,-10.36251 z"
           style=""
           id="path3893" />
        <path
           d="m 435.62588,506.85555 1.20166,7.79547 c -2.55874,0.57354 -4.6688,0.86031 -6.33018,0.86031 -5.12114,0 -8.39585,-1.65308 -9.82413,-4.95925 -0.63275,-1.41903 -0.94912,-4.31446 -0.94911,-8.6863 l 0,-23.05618 -5.18126,0 0,-7.25987 5.18126,0 0,-9.8602 8.96382,-4.68173 0,14.54193 7.09613,0 0,7.25987 -7.09613,0 0,23.45025 c -2e-5,1.94079 0.13597,3.18777 0.40795,3.74094 0.37926,0.74376 1.25251,1.11563 2.61977,1.11562 0.76038,1e-5 2.06379,-0.0869 3.91022,-0.26086 z"
           style=""
           id="path3895" />
        <path
           d="m 441.28726,514.94519 0,-43.39546 8.26448,0 0,6.31076 c 1.61699,-4.81767 4.29596,-7.22652 8.03691,-7.22656 2.56424,4e-5 5.31259,0.93342 8.24506,2.80015 l -2.90561,7.7705 c -2.26087,-1.01568 -4.15724,-1.52354 -5.68912,-1.52357 -2.901,3e-5 -4.83992,1.55228 -5.81677,4.65674 -0.75301,2.37558 -1.12951,5.02588 -1.1295,7.95089 l 0,22.65655 z"
           style=""
           id="path3897" />
        <path
           d="m 496.21081,509.80834 c -3.97778,4.06286 -8.82231,6.09429 -14.53361,6.09429 -4.31079,0 -7.81768,-1.01294 -10.5207,-3.03882 -3.09895,-2.30895 -4.64842,-5.56793 -4.64842,-9.77695 0,-4.44027 1.81126,-7.88797 5.4338,-10.34309 1.61699,-1.0971 3.40976,-1.90838 5.37829,-2.43383 1.36168,-0.38665 3.49949,-0.75853 6.41344,-1.11562 5.62063,-0.65677 9.53548,-1.38017 11.74455,-2.17019 0.0166,-0.55686 0.0249,-0.96389 0.025,-1.22108 -3e-5,-2.60679 -0.31085,-4.32832 -0.93246,-5.16461 -2.13137,-1.59661 -4.84734,-2.39494 -8.14792,-2.39498 -2.97316,4e-5 -5.17018,0.48662 -6.59105,1.45975 -1.47456,1.04165 -2.64661,3.19703 -3.51615,6.46616 l -8.6308,-1.10174 c 1.32468,-6.7011 4.65766,-11.01464 9.99896,-12.94066 2.80292,-0.99532 6.06467,-1.493 9.78528,-1.49304 6.90276,4e-5 11.66219,1.57541 14.27829,4.72612 1.18589,1.40983 1.98051,3.13692 2.38388,5.18126 0.25157,1.23406 0.37738,3.46623 0.37742,6.69651 l 0,9.40507 c -0.006,5.49672 0.005,8.4384 0.0305,8.82507 0.22567,3.36352 0.97034,6.52259 2.23402,9.47723 l -8.95828,0 c -0.98059,-1.88527 -1.51528,-3.59755 -1.60405,-5.13685 z m -0.75207,-15.76024 c -1.71139,1.03054 -5.18776,1.93062 -10.42912,2.70025 -2.24791,0.30714 -3.97592,0.61148 -5.18403,0.91303 -1.34691,0.4977 -2.31174,1.14524 -2.89451,1.94263 -0.66791,1.11008 -1.00186,2.21275 -1.00184,3.30801 -2e-5,1.90748 0.73818,3.34595 2.21459,4.3154 1.35982,0.91397 3.09708,1.37095 5.21178,1.37094 5.38012,10e-6 9.06093,-2.049 11.04243,-6.14702 0.69377,-1.46898 1.04066,-3.6956 1.0407,-6.67985 z"
           style=""
           id="path3899" />
      </g>
    </g>
    <g
       transform="translate(420.5918,721.48327)"
       style="font-size:40px;font-style:normal;font-variant:normal;font-weight:normal;font-stretch:normal;text-align:start;line-height:125%;letter-spacing:0px;word-spacing:0px;writing-mode:lr-tb;text-anchor:start;fill:#000000;fill-opacity:1;stroke:none;font-family:Arial;-inkscape-font-specification:Arial"
       id="text3853">
      <path
         d="m -320.52344,368 0,-18.00781 -3.10547,0 0,-2.73438 3.10547,0 0,-2.20703 c 0,-1.3932 0.1237,-2.42836 0.3711,-3.10547 0.33853,-0.91143 0.93424,-1.65036 1.78711,-2.21679 0.85285,-0.56638 2.04751,-0.84958 3.58398,-0.84961 0.98957,3e-5 2.08332,0.11721 3.28125,0.35156 l -0.52734,3.0664 c -0.72918,-0.13018 -1.41929,-0.19528 -2.07032,-0.19531 -1.06771,3e-5 -1.82292,0.22789 -2.26562,0.6836 -0.44272,0.45575 -0.66407,1.30861 -0.66406,2.55859 l 0,1.91406 4.04297,0 0,2.73438 -4.04297,0 0,18.00781 z"
         id="path3858"
         inkscape:connector-curvature="0" />
      <path
         d="m -311.57812,357.62891 c -10e-6,-3.84114 1.0677,-6.68618 3.20312,-8.53516 1.78385,-1.53644 3.95832,-2.30467 6.52344,-2.30469 2.85155,2e-5 5.18227,0.93427 6.99219,2.80274 1.80987,1.8685 2.71482,4.44988 2.71484,7.74414 -2e-5,2.66928 -0.40041,4.76888 -1.20117,6.29883 -0.8008,1.52995 -1.96617,2.7181 -3.4961,3.56445 -1.52996,0.84635 -3.19988,1.26953 -5.00976,1.26953 -2.90366,0 -5.25066,-0.93099 -7.04102,-2.79297 -1.79036,-1.86197 -2.68555,-4.54426 -2.68554,-8.04687 z m 3.61328,0 c -1e-5,2.65625 0.57942,4.64518 1.73828,5.96679 1.15884,1.32162 2.61718,1.98243 4.375,1.98242 1.74478,10e-6 3.1966,-0.66405 4.35547,-1.99218 1.15883,-1.32812 1.73826,-3.35286 1.73828,-6.07422 -2e-5,-2.56509 -0.5827,-4.50845 -1.74805,-5.83008 -1.16538,-1.3216 -2.61394,-1.9824 -4.3457,-1.98242 -1.75782,2e-5 -3.21616,0.65757 -4.375,1.97265 -1.15886,1.31512 -1.73829,3.3008 -1.73828,5.95704 z"
         id="path3860"
         inkscape:connector-curvature="0" />
      <path
         d="m -288.00391,368 0,-20.74219 3.16407,0 0,2.94922 c 1.52343,-2.27862 3.72395,-3.41795 6.60156,-3.41797 1.24999,2e-5 2.39907,0.22463 3.44726,0.67383 1.04816,0.44924 1.83267,1.03843 2.35352,1.76758 0.52081,0.72918 0.8854,1.59507 1.09375,2.59765 0.13019,0.65106 0.19529,1.79038 0.19531,3.41797 l 0,12.75391 -3.51562,0 0,-12.61719 c -2e-5,-1.43228 -0.13674,-2.50324 -0.41016,-3.21289 -0.27345,-0.70962 -0.75848,-1.27602 -1.45508,-1.69922 -0.69662,-0.42316 -1.51368,-0.63474 -2.45117,-0.63476 -1.4974,2e-5 -2.78972,0.47528 -3.87695,1.42578 -1.08725,0.95054 -1.63087,2.75392 -1.63086,5.41015 l 0,11.32813 z"
         id="path3862"
         inkscape:connector-curvature="0" />
      <path
         d="m -258.0625,364.85547 0.50781,3.10547 c -0.98959,0.20833 -1.87501,0.3125 -2.65625,0.3125 -1.27605,0 -2.26563,-0.20183 -2.96875,-0.60547 -0.70313,-0.40365 -1.19792,-0.93424 -1.48437,-1.5918 -0.28646,-0.65755 -0.42969,-2.04101 -0.42969,-4.15039 l 0,-11.93359 -2.57812,0 0,-2.73438 2.57812,0 0,-5.13672 3.49609,-2.10937 0,7.24609 3.53516,0 0,2.73438 -3.53516,0 0,12.1289 c 0,1.00261 0.0618,1.64714 0.18555,1.9336 0.12369,0.28646 0.32551,0.51432 0.60547,0.68359 0.27994,0.16928 0.68033,0.25391 1.20117,0.25391 0.39062,0 0.90494,-0.0456 1.54297,-0.13672 z"
         id="path3864"
         inkscape:connector-curvature="0" />
      <path
         d="m -253.66797,351.26172 0,-4.00391 4.00391,0 0,4.00391 z m 0,16.73828 0,-4.00391 4.00391,0 0,4.00391 z"
         id="path3866"
         inkscape:connector-curvature="0" />
      <path
         d="m -232.125,368 0,-28.63281 5.70313,0 6.77734,20.27343 c 0.62498,1.88803 1.08071,3.30079 1.36719,4.23829 0.3255,-1.04167 0.83331,-2.57161 1.52343,-4.58985 l 6.85547,-19.92187 5.09766,0 0,28.63281 -3.65234,0 0,-23.96484 -8.32032,23.96484 -3.41797,0 -8.28125,-24.375 0,24.375 z"
         id="path3868"
         inkscape:connector-curvature="0" />
      <path
         d="m -199.07812,343.41016 0,-4.04297 3.51562,0 0,4.04297 z m 0,24.58984 0,-20.74219 3.51562,0 0,20.74219 z"
         id="path3870"
         inkscape:connector-curvature="0" />
      <path
         d="m -190.23047,368 0,-20.74219 3.16406,0 0,3.14453 c 0.80729,-1.47133 1.55273,-2.44138 2.23633,-2.91015 0.68359,-0.46873 1.43554,-0.70311 2.25586,-0.70313 1.18489,2e-5 2.38931,0.37763 3.61328,1.13281 l -1.21093,3.26172 c -0.85939,-0.50779 -1.71877,-0.7617 -2.57813,-0.76172 -0.76824,2e-5 -1.45834,0.23114 -2.07031,0.69336 -0.61199,0.46226 -1.04819,1.10354 -1.3086,1.92383 -0.39063,1.25002 -0.58594,2.6172 -0.58593,4.10156 l 0,10.85938 z"
         id="path3872"
         inkscape:connector-curvature="0" />
      <path
         d="m -176.8125,343.41016 0,-4.04297 3.51563,0 0,4.04297 z m 0,24.58984 0,-20.74219 3.51563,0 0,20.74219 z"
         id="path3874"
         inkscape:connector-curvature="0" />
      <path
         d="m -154.39062,365.44141 c -1.3021,1.10677 -2.55536,1.88802 -3.75977,2.34375 -1.20444,0.45573 -2.49676,0.68359 -3.87695,0.68359 -2.27866,0 -4.02996,-0.55664 -5.25391,-1.66992 -1.22396,-1.11328 -1.83594,-2.53581 -1.83594,-4.26758 0,-1.01562 0.23112,-1.94335 0.69336,-2.7832 0.46224,-0.83984 1.06771,-1.51367 1.81641,-2.02149 0.74869,-0.5078 1.59179,-0.89191 2.5293,-1.15234 0.69009,-0.18228 1.73176,-0.35806 3.125,-0.52735 2.83852,-0.33852 4.92837,-0.74217 6.26953,-1.21093 0.013,-0.48176 0.0195,-0.78775 0.0195,-0.91797 -2e-5,-1.43228 -0.33205,-2.44139 -0.9961,-3.02735 -0.89845,-0.79425 -2.23308,-1.19138 -4.0039,-1.1914 -1.65366,2e-5 -2.87436,0.28973 -3.66211,0.86914 -0.78777,0.57944 -1.37045,1.60483 -1.74805,3.07617 l -3.4375,-0.46875 c 0.3125,-1.47134 0.82682,-2.65949 1.54297,-3.56445 0.71614,-0.90493 1.7513,-1.60154 3.10547,-2.08985 1.35416,-0.48826 2.92317,-0.7324 4.70703,-0.73242 1.77082,2e-5 3.20962,0.20836 4.31641,0.625 1.10675,0.41669 1.92055,0.94078 2.4414,1.57227 0.52082,0.63153 0.8854,1.42905 1.09375,2.39258 0.11717,0.59897 0.17576,1.6797 0.17578,3.24218 l 0,4.6875 c -2e-5,3.26824 0.0748,5.33529 0.22461,6.20118 0.14972,0.86588 0.44595,1.69596 0.88868,2.49023 l -3.67188,0 c -0.3646,-0.72917 -0.59897,-1.58203 -0.70312,-2.55859 z m -0.29297,-7.85157 c -1.27606,0.52085 -3.19012,0.96355 -5.74219,1.32813 -1.44532,0.20834 -2.46746,0.44272 -3.06641,0.70312 -0.59896,0.26043 -1.0612,0.64129 -1.38672,1.14258 -0.32552,0.50131 -0.48828,1.05795 -0.48828,1.66992 0,0.93751 0.35481,1.71876 1.06446,2.34375 0.70962,0.62501 1.74803,0.93751 3.11523,0.9375 1.35416,1e-5 2.55858,-0.29622 3.61328,-0.88867 1.05467,-0.59244 1.82941,-1.40299 2.32422,-2.43164 0.37759,-0.79426 0.56639,-1.96614 0.56641,-3.51562 z"
         id="path3876"
         inkscape:connector-curvature="0" />
      <path
         d="m -145.66016,368 0,-20.74219 3.14454,0 0,2.91016 c 0.65103,-1.01561 1.51691,-1.83266 2.59765,-2.45117 1.08072,-0.61847 2.31119,-0.92772 3.69141,-0.92774 1.53644,2e-5 2.79621,0.31903 3.77929,0.95703 0.98306,0.63804 1.67642,1.52997 2.08008,2.67578 1.64061,-2.42185 3.77602,-3.63279 6.40625,-3.63281 2.05727,2e-5 3.6393,0.56968 4.7461,1.70899 1.10674,1.13934 1.66012,2.89389 1.66015,5.26367 l 0,14.23828 -3.49609,0 0,-13.06641 c -3e-5,-1.40623 -0.11396,-2.4186 -0.3418,-3.03711 -0.22789,-0.61847 -0.6413,-1.11651 -1.24023,-1.49414 -0.59899,-0.37758 -1.30211,-0.56638 -2.10938,-0.5664 -1.45835,2e-5 -2.66929,0.48504 -3.63281,1.45508 -0.96356,0.97006 -1.44533,2.5228 -1.44531,4.6582 l 0,12.05078 -3.51563,0 0,-13.47656 c -1e-5,-1.56249 -0.28647,-2.73436 -0.85937,-3.51563 -0.57293,-0.78123 -1.51043,-1.17185 -2.8125,-1.17187 -0.9896,2e-5 -1.90431,0.26043 -2.74414,0.78125 -0.83985,0.52085 -1.44858,1.28257 -1.82617,2.28515 -0.37762,1.00262 -0.56642,2.44793 -0.56641,4.33594 l 0,10.76172 z"
         id="path3878"
         inkscape:connector-curvature="0" />
    </g>
  </g>
</svg>
