<?xml version="1.0" encoding="UTF-8" standalone="no"?>
<svg
   xmlns:dc="http://purl.org/dc/elements/1.1/"
   xmlns:cc="http://creativecommons.org/ns#"
   xmlns:rdf="http://www.w3.org/1999/02/22-rdf-syntax-ns#"
   xmlns:svg="http://www.w3.org/2000/svg"
   xmlns="http://www.w3.org/2000/svg"
   xmlns:sodipodi="http://sodipodi.sourceforge.net/DTD/sodipodi-0.dtd"
   xmlns:inkscape="http://www.inkscape.org/namespaces/inkscape"
   width="140.36009"
   height="100.07552"
   viewBox="0 0 140.36009 100.07552"
   version="1.1"
   id="svg3336"
   inkscape:version="0.91 r13725"
   sodipodi:docname="codefights.svg"
   inkscape:export-filename="C:\Users\Jonathan\Documents\vector-logo\Logos\codefights\codefights.png"
   inkscape:export-xdpi="82.07"
   inkscape:export-ydpi="82.07">
  <metadata
     id="metadata3423">
    <rdf:RDF>
      <cc:Work
         rdf:about="">
        <dc:format>image/svg+xml</dc:format>
        <dc:type
           rdf:resource="http://purl.org/dc/dcmitype/StillImage" />
        <dc:title>Coins 2</dc:title>
      </cc:Work>
    </rdf:RDF>
  </metadata>
  <sodipodi:namedview
     pagecolor="#ffffff"
     bordercolor="#666666"
     borderopacity="1"
     objecttolerance="10"
     gridtolerance="10"
     guidetolerance="10"
     inkscape:pageopacity="0"
     inkscape:pageshadow="2"
     inkscape:window-width="1366"
     inkscape:window-height="715"
     id="namedview3421"
     showgrid="false"
     fit-margin-top="0"
     fit-margin-left="0"
     fit-margin-right="0"
     fit-margin-bottom="0"
     inkscape:zoom="1.8673913"
     inkscape:cx="59.928687"
     inkscape:cy="43.18624"
     inkscape:window-x="-8"
     inkscape:window-y="22"
     inkscape:window-maximized="1"
     inkscape:current-layer="svg3336" />
  <!-- Generator: Sketch 3.3.3 (12072) - http://www.bohemiancoding.com/sketch -->
  <title
     id="title3338">Coins 2</title>
  <desc
     id="desc3340">Created with Sketch.</desc>
  <defs
     id="defs3342" />
  <path
     d="M 130.67919,14.354983 140.36009,0 86.3118,8.993505 70.18004,68.335844 54.0446,8.993505 0,0 l 9.67905,14.354983 33.67815,4.398468 4.18114,12.775215 -21.52439,-2.06128 7.05845,11.482188 18.08012,1.61764 19.00167,57.508296 19.04969,-57.508296 18.08012,-1.61764 7.06029,-11.482188 -21.52624,2.06128 4.18299,-12.775215 33.67815,-4.398468"
     id="Fill-4-Copy"
     inkscape:connector-curvature="0"
     style="fill:#1378ba;fill-rule:evenodd;stroke:none;stroke-width:1" />
  <path
     d="m 105.68046,34.109111 -0.0868,0.144271 -0.72025,2.198333 0.80704,-2.342604"
     id="Fill-13-Copy"
     inkscape:connector-curvature="0"
     style="fill:#f4b782;fill-rule:evenodd;stroke:none;stroke-width:1" />
  <path
     d="m 176.83377,55.318784 c -0.0406,3.70055 -0.29179,7.35602 -0.73872,10.95018 -0.004,0.0577 -0.007,0.11181 -0.0129,0.16771 0.44877,-3.5635 0.70547,-7.1829 0.75718,-10.84919 -0.002,-0.0902 -0.004,-0.18034 -0.006,-0.2687"
     id="Fill-20-Copy"
     inkscape:connector-curvature="0"
     style="fill:#f4b782;fill-rule:evenodd;stroke:none;stroke-width:1" />
  <path
     d="m 73.93776,153.92993 0.1108,0 -0.1108,0 m -0.34351,-0.004 c 0.0425,0 0.0868,0.002 0.12743,0.002 -0.0443,0 -0.0831,-0.002 -0.12743,-0.002 m -0.32503,-0.004 c 0.0406,0 0.0831,0.002 0.12373,0.002 -0.0406,0 -0.0831,-0.002 -0.12373,-0.002 m -0.33427,-0.005 c 0.0406,0.002 0.0886,0.002 0.12927,0.002 -0.0406,0 -0.0886,0 -0.12927,-0.002 m -0.33058,-0.005 c 0.0443,0 0.0887,0.002 0.13297,0.002 -0.0443,0 -0.0886,-0.002 -0.13297,-0.002 m -0.32873,-0.007 c 0.0443,0.002 0.0887,0.002 0.13482,0.004 -0.0443,-0.002 -0.0905,-0.002 -0.13482,-0.004 m -0.33427,-0.009 c 0.048,0.002 0.0942,0.004 0.14221,0.004 -0.048,0 -0.0942,-0.002 -0.14221,-0.004 m -0.32688,-0.009 c 0.048,0.002 0.0923,0.004 0.14036,0.005 -0.0462,-0.002 -0.0923,-0.004 -0.14036,-0.005 m -0.3472,-0.0108 c 0.0536,0.002 0.10896,0.004 0.16252,0.005 -0.0536,-0.002 -0.10896,-0.004 -0.16252,-0.005 m -0.32873,-0.0108 c 0.0536,0.002 0.11266,0.005 0.16622,0.007 -0.0573,-0.004 -0.10897,-0.005 -0.16622,-0.007 m -0.33427,-0.0126 c 0.0572,0.004 0.11635,0.005 0.17545,0.007 -0.0609,-0.002 -0.1145,-0.004 -0.17545,-0.007 m -0.33242,-0.0126 c 0.0609,0.002 0.12189,0.005 0.18283,0.007 -0.0609,-0.002 -0.12189,-0.005 -0.18283,-0.007 m -0.32319,-0.0144 c 0.0628,0.004 0.12004,0.005 0.18099,0.009 -0.061,-0.004 -0.12004,-0.005 -0.18099,-0.009 m -0.32319,-0.0144 c 0.061,0.002 0.11635,0.005 0.17729,0.009 -0.0591,-0.004 -0.11634,-0.007 -0.17729,-0.009 m -0.33796,-0.0162 c 0.0646,0.002 0.12743,0.005 0.19207,0.009 -0.0646,-0.004 -0.12743,-0.007 -0.19207,-0.009 m -0.32688,-0.018 c 0.0646,0.004 0.13112,0.007 0.19576,0.0108 -0.0683,-0.004 -0.12743,-0.007 -0.19576,-0.0108 m -0.3195,-0.018 c 0.061,0.004 0.12928,0.007 0.19022,0.0108 -0.0628,-0.004 -0.12743,-0.007 -0.19022,-0.0108 m -0.32688,-0.0198 c 0.0628,0.004 0.12927,0.009 0.19206,0.0126 -0.0628,-0.004 -0.12927,-0.009 -0.19206,-0.0126 m -0.33058,-0.0198 c 0.0683,0.004 0.13482,0.009 0.2013,0.0126 -0.0665,-0.004 -0.13481,-0.009 -0.2013,-0.0126 m -0.31765,-0.0216 c 0.0646,0.005 0.13113,0.009 0.19576,0.0144 -0.0646,-0.005 -0.13297,-0.009 -0.19576,-0.0144 m -0.31765,-0.0216 c 0.0646,0.005 0.12559,0.009 0.19022,0.0144 -0.0646,-0.005 -0.12558,-0.009 -0.19022,-0.0144 m -0.32318,-0.0216 c 0.0646,0.004 0.12373,0.009 0.18837,0.0126 -0.0646,-0.004 -0.12374,-0.009 -0.18837,-0.0126 m -0.32504,-0.0252 c 0.0646,0.005 0.12743,0.0108 0.19207,0.0144 -0.0628,-0.004 -0.12928,-0.009 -0.19207,-0.0144 m -0.32319,-0.0252 c 0.0628,0.005 0.12743,0.0108 0.19207,0.0162 -0.0628,-0.005 -0.12928,-0.0108 -0.19207,-0.0162 m -0.33058,-0.0271 c 0.0702,0.007 0.13113,0.0108 0.20315,0.018 -0.0665,-0.005 -0.13666,-0.0126 -0.20315,-0.018 m -0.31949,-0.0252 c 0.0683,0.005 0.13297,0.0108 0.2013,0.0162 -0.0665,-0.005 -0.13482,-0.0108 -0.2013,-0.0162 m -0.32134,-0.0288 c 0.0665,0.005 0.13296,0.0126 0.2013,0.018 -0.0683,-0.005 -0.13482,-0.0126 -0.2013,-0.018 m -0.3195,-0.0289 c 0.0665,0.005 0.13112,0.0126 0.19945,0.018 -0.0665,-0.005 -0.13296,-0.0126 -0.19945,-0.018 m -0.32503,-0.0307 c 0.0665,0.007 0.13481,0.0126 0.20314,0.0198 -0.0702,-0.007 -0.13297,-0.0126 -0.20314,-0.0198 m -0.32135,-0.0307 c 0.0665,0.007 0.13851,0.0144 0.205,0.0198 -0.0702,-0.007 -0.13667,-0.0126 -0.205,-0.0198 m -0.33057,-0.0325 c 0.0739,0.007 0.1422,0.0144 0.21607,0.0216 -0.0739,-0.007 -0.14405,-0.0144 -0.21607,-0.0216 m -0.3195,-0.0325 c 0.072,0.007 0.14405,0.0144 0.21792,0.0216 -0.0739,-0.007 -0.14589,-0.0144 -0.21792,-0.0216 m -0.31765,-0.0343 c 0.072,0.007 0.1459,0.0162 0.21608,0.0234 -0.0739,-0.007 -0.14221,-0.0162 -0.21608,-0.0234 m -0.31949,-0.0343 c 0.0702,0.007 0.14405,0.0162 0.21422,0.0234 -0.0702,-0.007 -0.14404,-0.0162 -0.21422,-0.0234 m -0.32504,-0.0361 c 0.0739,0.007 0.14774,0.0162 0.22162,0.0234 -0.0757,-0.007 -0.14405,-0.0162 -0.22162,-0.0234 m -0.31949,-0.0379 c 0.0757,0.009 0.14774,0.018 0.22346,0.0271 -0.0757,-0.009 -0.14775,-0.018 -0.22346,-0.0271 m -0.32319,-0.0379 c 0.0776,0.009 0.15328,0.018 0.23084,0.0271 -0.0812,-0.009 -0.15143,-0.018 -0.23084,-0.0271 m -0.3195,-0.0397 c 0.0757,0.0108 0.15513,0.0198 0.2327,0.0289 -0.0794,-0.009 -0.15329,-0.018 -0.2327,-0.0289 m -0.32134,-0.0397 c 0.0794,0.0108 0.15698,0.0198 0.23639,0.0307 -0.0776,-0.0108 -0.15698,-0.0198 -0.23639,-0.0307 m -0.3195,-0.0397 c 0.0794,0.009 0.16067,0.0198 0.24009,0.0307 -0.0831,-0.0108 -0.15883,-0.0198 -0.24009,-0.0307 m -0.31949,-0.0433 c 0.0794,0.0108 0.16436,0.0216 0.24377,0.0325 l -0.24377,-0.0325 m -0.31765,-0.0415 c 0.0794,0.0108 0.16621,0.0216 0.24562,0.0325 -0.0831,-0.0108 -0.16436,-0.0216 -0.24562,-0.0325 m -0.32504,-0.0451 c 0.0868,0.0126 0.16991,0.0234 0.25486,0.0361 -0.0849,-0.0126 -0.16991,-0.0234 -0.25486,-0.0361 m -0.31395,-0.0433 c 0.0868,0.0108 0.1699,0.0234 0.2567,0.0361 -0.085,-0.0126 -0.1699,-0.0252 -0.2567,-0.0361 m -0.3195,-0.0469 c 0.0849,0.0126 0.1736,0.0252 0.25855,0.0379 -0.0849,-0.0126 -0.1736,-0.0252 -0.25855,-0.0379 m -0.3158,-0.0469 c 0.0887,0.0144 0.1736,0.0271 0.26224,0.0397 -0.0849,-0.0126 -0.17729,-0.0271 -0.26224,-0.0397 m -0.32504,-0.0469 c 0.0942,0.0126 0.18099,0.0271 0.27148,0.0397 -0.0868,-0.0126 -0.18283,-0.0271 -0.27148,-0.0397 m -0.3121,-0.0487 c 0.0887,0.0144 0.18468,0.0289 0.27332,0.0415 -0.0905,-0.0126 -0.18098,-0.0271 -0.27332,-0.0415 m -0.31765,-0.0505 c 0.0942,0.0162 0.18098,0.0289 0.27702,0.0451 -0.096,-0.0162 -0.18284,-0.0289 -0.27702,-0.0451 m -0.3158,-0.0487 c 0.0923,0.0144 0.18837,0.0289 0.28071,0.0433 -0.0942,-0.0144 -0.18653,-0.0289 -0.28071,-0.0433 m -0.31765,-0.0523 c 0.0942,0.0162 0.19022,0.0307 0.28625,0.0469 -0.096,-0.0162 -0.19207,-0.0307 -0.28625,-0.0469 m -0.31765,-0.0523 c 0.0979,0.0162 0.19391,0.0325 0.29179,0.0487 -0.0979,-0.0162 -0.19391,-0.0325 -0.29179,-0.0487 m -0.3158,-0.0541 c 0.0979,0.018 0.19945,0.0343 0.29733,0.0505 -0.0979,-0.0162 -0.19945,-0.0343 -0.29733,-0.0505 m -0.31581,-0.0541 c 0.10158,0.018 0.2013,0.0343 0.30288,0.0523 -0.10158,-0.018 -0.2013,-0.0343 -0.30288,-0.0523 M -27.41988,55.318784 c -0.002,0.0992 -0.002,0.19837 -0.006,0.29755 0.69994,48.386756 36.86202,88.553656 84.19353,96.775306 -47.42758,-8.23788 -83.63214,-48.55447 -84.18803,-97.072856"
     id="Fill-21-Copy"
     inkscape:connector-curvature="0"
     style="fill:#ffe39e;fill-rule:evenodd;stroke:none;stroke-width:1" />
  <path
     d="m 75.10124,153.93174 -0.0646,0 0.0646,0 m 0.3749,-0.002 -0.11081,0 0.11081,0 m 0.3435,-0.004 c -0.0443,0 -0.0831,0.002 -0.12743,0.002 0.0406,0 0.0868,-0.002 0.12743,-0.002 m 0.32504,-0.004 c -0.0406,0 -0.0831,0.002 -0.12374,0.002 0.0406,0 0.0831,-0.002 0.12374,-0.002 m 0.33427,-0.005 c -0.0406,0.002 -0.0887,0.002 -0.12928,0.002 0.0406,0 0.0887,0 0.12928,-0.002 m 0.32873,-0.005 c -0.0425,0 -0.0868,0.002 -0.13113,0.002 0.0443,0 0.0887,-0.002 0.13113,-0.002 m 0.33057,-0.007 c -0.0443,0.002 -0.0886,0.002 -0.13297,0.004 0.0443,-0.002 0.0887,-0.002 0.13297,-0.004 m 0.33427,-0.009 c -0.048,0.002 -0.0942,0.004 -0.1422,0.004 0.048,0 0.0942,-0.002 0.1422,-0.004 m 0.32504,-0.009 c -0.048,0.002 -0.0905,0.004 -0.13851,0.005 0.048,-0.002 0.0905,-0.004 0.13851,-0.005 m 0.3472,-0.0108 c -0.0536,0.002 -0.10712,0.004 -0.16067,0.005 0.0536,-0.002 0.10711,-0.004 0.16067,-0.005 m 0.32873,-0.0108 c -0.0536,0.002 -0.11081,0.005 -0.16437,0.007 0.0536,-0.002 0.11081,-0.005 0.16437,-0.007 m 0.33611,-0.0126 c -0.0591,0.004 -0.11635,0.005 -0.1736,0.007 0.0573,-0.002 0.11451,-0.004 0.1736,-0.007 m 0.33058,-0.0126 c -0.061,0.002 -0.12004,0.005 -0.18099,0.007 0.0609,-0.002 0.12004,-0.005 0.18099,-0.007 m 0.32319,-0.0144 c -0.0609,0.004 -0.1182,0.005 -0.17914,0.009 0.0609,-0.004 0.11819,-0.005 0.17914,-0.009 m 0.32319,-0.0144 c -0.0609,0.002 -0.1145,0.005 -0.17545,0.009 0.061,-0.004 0.1145,-0.007 0.17545,-0.009 m 0.33796,-0.0162 c -0.0609,0.002 -0.12928,0.005 -0.19022,0.009 0.0646,-0.004 0.12558,-0.007 0.19022,-0.009 m 0.32688,-0.018 c -0.0683,0.004 -0.12558,0.007 -0.19391,0.0108 0.0646,-0.004 0.12927,-0.007 0.19391,-0.0108 m 0.3195,-0.018 c -0.0609,0.004 -0.12743,0.007 -0.18837,0.0108 0.0609,-0.004 0.12742,-0.007 0.18837,-0.0108 m 0.32688,-0.0198 c -0.0646,0.005 -0.12743,0.009 -0.19022,0.0126 0.0609,-0.004 0.12928,-0.009 0.19022,-0.0126 m 0.32873,-0.0198 c -0.0628,0.004 -0.13297,0.009 -0.19761,0.0126 0.0683,-0.004 0.13113,-0.009 0.19761,-0.0126 m 0.3195,-0.0198 c -0.0646,0.004 -0.12928,0.007 -0.19392,0.0126 0.0646,-0.005 0.12928,-0.009 0.19392,-0.0126 m 0.3158,-0.0234 c -0.0591,0.005 -0.12374,0.009 -0.18468,0.0144 0.0609,-0.005 0.12558,-0.009 0.18468,-0.0144 m 0.32319,-0.0216 c -0.0628,0.004 -0.12004,0.009 -0.18284,0.0126 0.0609,-0.004 0.12374,-0.009 0.18284,-0.0126 m 0.32688,-0.0252 c -0.0628,0.005 -0.12558,0.0108 -0.19022,0.0144 0.0646,-0.004 0.12558,-0.009 0.19022,-0.0144 m 0.32319,-0.0252 c -0.0628,0.005 -0.12558,0.0108 -0.19022,0.0162 0.0646,-0.005 0.12743,-0.0108 0.19022,-0.0162 m 0.33058,-0.0252 c -0.0665,0.005 -0.13297,0.0108 -0.19946,0.0162 0.0665,-0.005 0.13297,-0.0108 0.19946,-0.0162 m 0.31949,-0.0271 c -0.0683,0.005 -0.13112,0.0108 -0.19945,0.0162 0.0683,-0.005 0.13112,-0.0108 0.19945,-0.0162 m 0.32134,-0.0288 c -0.0665,0.005 -0.13112,0.0126 -0.1976,0.018 0.0665,-0.005 0.13112,-0.0126 0.1976,-0.018 m 0.31765,-0.0289 c -0.0646,0.007 -0.12743,0.0126 -0.19391,0.018 0.0628,-0.005 0.13112,-0.0126 0.19391,-0.018 m 0.32688,-0.0307 c -0.0646,0.007 -0.13666,0.0144 -0.19945,0.0198 0.0665,-0.007 0.13112,-0.0126 0.19945,-0.0198 m 0.32135,-0.0307 c -0.0702,0.007 -0.13113,0.0126 -0.2013,0.0198 0.0665,-0.005 0.13297,-0.0126 0.2013,-0.0198 m 0.32873,-0.0325 c -0.0702,0.007 -0.14036,0.0144 -0.21054,0.0216 0.0739,-0.007 0.13851,-0.0144 0.21054,-0.0216 m 0.31949,-0.0325 c -0.072,0.007 -0.14035,0.0144 -0.21238,0.0216 0.0702,-0.007 0.1422,-0.0144 0.21238,-0.0216 m 0.3158,-0.0343 c -0.0702,0.009 -0.13851,0.0162 -0.20869,0.0234 0.0702,-0.007 0.13852,-0.0144 0.20869,-0.0234 m 0.3195,-0.0343 c -0.0702,0.007 -0.13666,0.0162 -0.20684,0.0234 0.0702,-0.009 0.13666,-0.0162 0.20684,-0.0234 m 0.32503,-0.0361 c -0.0683,0.007 -0.14589,0.0162 -0.21422,0.0234 0.0702,-0.007 0.14405,-0.0162 0.21422,-0.0234 m 0.32135,-0.0379 c -0.0739,0.009 -0.1459,0.018 -0.21792,0.0252 0.072,-0.007 0.14404,-0.0162 0.21792,-0.0252 m 0.32134,-0.0379 c -0.072,0.009 -0.14959,0.018 -0.22162,0.0271 0.0757,-0.009 0.1459,-0.018 0.22162,-0.0271 m 0.31949,-0.0379 c -0.0757,0.009 -0.14959,0.018 -0.2253,0.027 0.0776,-0.009 0.14959,-0.018 0.2253,-0.027 m 0.32319,-0.0397 c -0.0794,0.009 -0.15143,0.018 -0.23085,0.0289 0.0757,-0.0108 0.15514,-0.0198 0.23085,-0.0289 m 0.3195,-0.0415 c -0.0794,0.0108 -0.15513,0.0198 -0.23454,0.0307 0.0794,-0.0108 0.15328,-0.0198 0.23454,-0.0307 m 0.31949,-0.0415 c -0.0794,0.0108 -0.15882,0.0198 -0.23823,0.0307 0.0794,-0.0108 0.15882,-0.0198 0.23823,-0.0307 m 0.31581,-0.0433 c -0.0776,0.0108 -0.15883,0.0216 -0.23824,0.0325 0.0794,-0.0108 0.15882,-0.0216 0.23824,-0.0325 m 0.32503,-0.0433 c -0.0831,0.0108 -0.16436,0.0216 -0.24747,0.0325 0.0794,-0.0108 0.16806,-0.0216 0.24747,-0.0325 m 0.31211,-0.0451 c -0.0813,0.0126 -0.16436,0.0234 -0.24562,0.0343 0.0813,-0.0108 0.16252,-0.0216 0.24562,-0.0343 m 0.32134,-0.0451 c -0.0849,0.0126 -0.16436,0.0234 -0.24931,0.0361 0.0831,-0.0126 0.16621,-0.0252 0.24931,-0.0361 m 0.31396,-0.0469 c -0.085,0.0126 -0.16621,0.0252 -0.25117,0.0379 0.0831,-0.0126 0.16991,-0.0252 0.25117,-0.0379 m 0.32503,-0.0487 c -0.0886,0.0144 -0.17175,0.0271 -0.26039,0.0397 0.0849,-0.0126 0.17544,-0.0271 0.26039,-0.0397 m 0.31211,-0.0469 c -0.0849,0.0126 -0.17729,0.0271 -0.26224,0.0397 0.0849,-0.0126 0.17544,-0.0271 0.26224,-0.0397 m 0.31765,-0.0505 c -0.0887,0.0144 -0.17729,0.0289 -0.26409,0.0415 0.0886,-0.0126 0.17544,-0.0271 0.26409,-0.0415 m 0.31396,-0.0487 c -0.0887,0.0126 -0.17914,0.0271 -0.26594,0.0415 0.0886,-0.0144 0.17729,-0.0289 0.26594,-0.0415 m 0.31764,-0.0523 c -0.0868,0.0144 -0.18283,0.0289 -0.27147,0.0433 0.0942,-0.0144 0.18098,-0.0288 0.27147,-0.0433 m 0.31765,-0.0523 c -0.0942,0.0144 -0.18283,0.0307 -0.27702,0.0451 0.0905,-0.0144 0.18468,-0.0307 0.27702,-0.0451 m 0.3158,-0.0541 c -0.0942,0.0162 -0.18837,0.0325 -0.28255,0.0487 0.0942,-0.0162 0.18652,-0.0325 0.28255,-0.0487 m 0.31581,-0.0541 c -0.0942,0.0162 -0.19207,0.0325 -0.2881,0.0487 0.096,-0.0162 0.19206,-0.0325 0.2881,-0.0487 m 0.31949,-0.0559 c -0.0979,0.018 -0.1976,0.0343 -0.29549,0.0523 0.0979,-0.018 0.19761,-0.0343 0.29549,-0.0523 m 0.31026,-0.0559 c -0.0997,0.018 -0.1976,0.0361 -0.29918,0.0541 0.0979,-0.018 0.2013,-0.0361 0.29918,-0.0541 m 0.31581,-0.0559 c -0.10342,0.018 -0.19946,0.0361 -0.30288,0.0541 0.10157,-0.018 0.2013,-0.0361 0.30288,-0.0541 m 0.31395,-0.0595 c -0.10342,0.0198 -0.20499,0.0379 -0.30841,0.0577 0.10526,-0.0198 0.20314,-0.0379 0.30841,-0.0577"
     id="Fill-23-Copy"
     inkscape:connector-curvature="0"
     style="fill:#ffd099;fill-rule:evenodd;stroke:none;stroke-width:1" />
</svg>
