<?xml version="1.0" encoding="UTF-8" standalone="no"?>
<!-- Generator: Adobe Illustrator 16.0.0, SVG Export Plug-In . SVG Version: 6.00 Build 0)  -->

<svg
   xmlns:dc="http://purl.org/dc/elements/1.1/"
   xmlns:cc="http://creativecommons.org/ns#"
   xmlns:rdf="http://www.w3.org/1999/02/22-rdf-syntax-ns#"
   xmlns:svg="http://www.w3.org/2000/svg"
   xmlns="http://www.w3.org/2000/svg"
   xmlns:sodipodi="http://sodipodi.sourceforge.net/DTD/sodipodi-0.dtd"
   xmlns:inkscape="http://www.inkscape.org/namespaces/inkscape"
   version="1.1"
   id="Layer_1"
   x="0px"
   y="0px"
   width="243.94446"
   height="166.99895"
   viewBox="0 0 243.94446 166.99895"
   enable-background="new 0 0 250 250"
   xml:space="preserve"
   inkscape:version="0.91 r13725"
   sodipodi:docname="laravel.svg"><metadata
     id="metadata9"><rdf:RDF><cc:Work
         rdf:about=""><dc:format>image/svg+xml</dc:format><dc:type
           rdf:resource="http://purl.org/dc/dcmitype/StillImage" /><dc:title></dc:title></cc:Work></rdf:RDF></metadata><defs
     id="defs7" /><sodipodi:namedview
     pagecolor="#ffffff"
     bordercolor="#666666"
     borderopacity="1"
     objecttolerance="10"
     gridtolerance="10"
     guidetolerance="10"
     inkscape:pageopacity="0"
     inkscape:pageshadow="2"
     inkscape:window-width="817"
     inkscape:window-height="480"
     id="namedview5"
     showgrid="false"
     fit-margin-top="0"
     fit-margin-left="0"
     fit-margin-right="0"
     fit-margin-bottom="0"
     inkscape:zoom="0.944"
     inkscape:cx="121.97186"
     inkscape:cy="83.498619"
     inkscape:window-x="0"
     inkscape:window-y="30"
     inkscape:window-maximized="0"
     inkscape:current-layer="Layer_1" /><path
     d="m 243.00986,78.018333 c -1.614,-1.816 -23.947,-29.77 -27.88,-34.511 -3.937,-4.743 -5.854,-3.886 -8.277,-3.533 -2.422,0.354 -30.677,5.097 -33.957,5.652 -3.279,0.555 -5.348,1.866 -3.329,4.693 1.794,2.513 20.369,28.846 24.46,34.646 L 120.18086,102.65633 61.449861,4.4663327 c -2.338,-3.466 -2.824,-4.67699996 -8.145,-4.43699996 -5.321,0.242 -46.0709998,3.62799996 -48.9739998,3.86999996 -2.902,0.243 -6.087,1.534 -3.185,8.3870003 2.901,6.852 49.1819998,106.581997 50.4719998,109.482997 1.289,2.902 4.643,7.611 12.495,5.724 8.046,-1.932 35.945999,-9.214 51.189999,-13.208 8.056,14.589 24.484,44.179 27.522,48.419 4.057,5.66 6.848,4.723 13.076,2.837 4.86,-1.473 76.076,-27.084 79.284,-28.403 3.208,-1.32 5.189,-2.266 3.02,-5.474 -1.595,-2.357 -20.384,-27.525 -30.223,-40.692997 6.74,-1.793 30.704,-8.173 33.261,-8.865 2.976,-0.807 3.38,-2.271 1.767,-4.088 z m -134.253,27.448997 c -0.882,0.189 -42.244999,10.089 -44.450999,10.594 -2.208,0.504 -2.208,0.252 -2.459,-0.505 -0.252,-0.757 -49.178,-101.638997 -49.857,-102.900997 -0.679,-1.261 -0.644,-2.26 0,-2.26 0.644,0 39.062,-3.4350003 40.421,-3.5060003 1.36,-0.071 1.217,0.215 1.717,1.074 0,0 54.188999,93.5339973 55.133999,95.1719973 0.945,1.638 0.377,2.143 -0.505,2.332 z m 116.619,21.858 c 0.659,1.038 1.318,1.699 -0.757,2.453 -2.073,0.755 -70.001,23.68 -71.322,24.246 -1.32,0.566 -2.358,0.754 -4.056,-1.698 -1.698,-2.453 -23.799,-40.699 -23.799,-40.699 l 72.007,-18.735997 c 1.792,-0.566 2.359,-0.943 3.492,0.849 1.131,1.792 23.775,32.547997 24.435,33.584997 z m 4.616,-51.123997 c -1.614,0.354 -28.055,6.914 -28.055,6.914 l -21.622,-29.669 c -0.607,-0.857 -1.112,-1.716 0.401,-1.918 1.514,-0.201 26.088,-4.642 27.198,-4.894 1.109,-0.252 2.069,-0.555 3.431,1.312 1.362,1.868 20.06,25.531 20.765,26.439 0.708,0.909 -0.504,1.464 -2.118,1.816 z"
     id="path3"
     inkscape:connector-curvature="0"
     style="fill:#f0543f" /></svg>