<?xml version="1.0" encoding="UTF-8" standalone="no"?>
<!-- Created with Inkscape (http://www.inkscape.org/) -->

<svg
   xmlns:dc="http://purl.org/dc/elements/1.1/"
   xmlns:cc="http://creativecommons.org/ns#"
   xmlns:rdf="http://www.w3.org/1999/02/22-rdf-syntax-ns#"
   xmlns:svg="http://www.w3.org/2000/svg"
   xmlns="http://www.w3.org/2000/svg"
   xmlns:sodipodi="http://sodipodi.sourceforge.net/DTD/sodipodi-0.dtd"
   xmlns:inkscape="http://www.inkscape.org/namespaces/inkscape"
   width="550"
   height="290"
   viewBox="0 0 550.00001 290"
   id="svg3536"
   version="1.1"
   inkscape:version="0.91 r13725"
   sodipodi:docname="ofac.svg">
  <defs
     id="defs3538" />
  <sodipodi:namedview
     id="base"
     pagecolor="#ffffff"
     bordercolor="#666666"
     borderopacity="1.0"
     inkscape:pageopacity="0.0"
     inkscape:pageshadow="2"
     inkscape:zoom="1.3640919"
     inkscape:cx="107.79656"
     inkscape:cy="141.5155"
     inkscape:document-units="px"
     inkscape:current-layer="layer1"
     showgrid="false"
     units="px"
     inkscape:window-width="1366"
     inkscape:window-height="715"
     inkscape:window-x="-8"
     inkscape:window-y="22"
     inkscape:window-maximized="1" />
  <metadata
     id="metadata3541">
    <rdf:RDF>
      <cc:Work
         rdf:about="">
        <dc:format>image/svg+xml</dc:format>
        <dc:type
           rdf:resource="http://purl.org/dc/dcmitype/StillImage" />
        <dc:title></dc:title>
      </cc:Work>
    </rdf:RDF>
  </metadata>
  <g
     inkscape:label="Capa 1"
     inkscape:groupmode="layer"
     id="layer1"
     transform="translate(0,-762.36218)">
    <g
       id="g3743"
       transform="translate(-132.06714,415.84804)">
      <path
         inkscape:connector-curvature="0"
         id="path3785"
         d="m 275.49041,349.99852 c -78.09461,0 -141.53125,63.40537 -141.53125,141.5 0,78.09461 63.43664,141.53125 141.53125,141.53125 78.09461,0 141.5,-63.43664 141.5,-141.53125 0,-78.09463 -63.40539,-141.5 -141.5,-141.5 z m 0,10 c 72.69021,0 131.5,58.80977 131.5,131.5 0,72.69021 -58.80979,131.53125 -131.5,131.53125 -72.69021,0 -131.53125,-58.84104 -131.53125,-131.53125 0,-72.69023 58.84104,-131.5 131.53125,-131.5 z"
         style="color:#000000;font-style:normal;font-variant:normal;font-weight:normal;font-stretch:normal;font-size:medium;line-height:normal;font-family:Sans;-inkscape-font-specification:Sans;text-indent:0;text-align:start;text-decoration:none;text-decoration-line:none;letter-spacing:normal;word-spacing:normal;text-transform:none;direction:ltr;block-progression:tb;writing-mode:lr-tb;baseline-shift:baseline;text-anchor:start;display:inline;overflow:visible;visibility:visible;fill:#000000;fill-opacity:1;stroke:none;stroke-width:10;marker:none;enable-background:accumulate" />
      <path
         inkscape:connector-curvature="0"
         id="path3787"
         d="m 204.46815,463.21064 c -15.6004,0 -28.29844,12.70818 -28.29844,28.30856 0,15.6004 12.69804,28.29844 28.29844,28.29844 15.60038,0 28.29843,-12.69804 28.29843,-28.29844 0,-15.60038 -12.69805,-28.30856 -28.29843,-28.30856 z m 0,5.00696 c 12.89847,0 23.3016,10.40313 23.3016,23.3016 0,12.89848 -10.40313,23.30162 -23.3016,23.30162 -12.89849,0 -23.30162,-10.40314 -23.30162,-23.30162 0,-12.89847 10.40313,-23.3016 23.30162,-23.3016 z"
         style="color:#000000;font-style:normal;font-variant:normal;font-weight:normal;font-stretch:normal;font-size:medium;line-height:normal;font-family:Sans;-inkscape-font-specification:Sans;text-indent:0;text-align:start;text-decoration:none;text-decoration-line:none;letter-spacing:normal;word-spacing:normal;text-transform:none;direction:ltr;block-progression:tb;writing-mode:lr-tb;baseline-shift:baseline;text-anchor:start;display:inline;overflow:visible;visibility:visible;fill:#000000;fill-opacity:1;stroke:none;stroke-width:15.41441536;marker:none;enable-background:accumulate" />
      <path
         inkscape:connector-curvature="0"
         id="rect3789"
         d="m 237.20562,463.21064 0,5.00117 0,20.75486 0,5.00117 0,25.84981 5,0 0,-25.84981 14.46875,0 0,-5.00117 -14.46875,0 0,-20.75486 25.34375,0 0,-5.00117 -25.34375,0 -5,0 z"
         style="fill:#000000;fill-opacity:1;stroke:none" />
      <path
         sodipodi:nodetypes="ccccccccc"
         inkscape:connector-curvature="0"
         id="rect3798"
         d="m 312.35159,463.21064 -39.41548,56.607 6.09518,0 34.44556,-49.44907 0,49.44907 5.00117,0 0,-56.607 -0.0312,0 z"
         style="fill:#00a8fc;fill-opacity:1;stroke:none" />
      <path
         inkscape:connector-curvature="0"
         id="path3814"
         d="m 349.93611,463.21727 c -15.6004,0 -28.3125,12.71212 -28.3125,28.3125 0,15.6004 12.7121,28.28125 28.3125,28.28125 10.71009,0 20.03915,-5.9812 24.84375,-14.78125 l -5.84375,0 c -4.2181,5.93071 -11.1447,9.78125 -19,9.78125 -12.89849,0 -23.3125,-10.38277 -23.3125,-23.28125 0,-12.89847 10.41401,-23.3125 23.3125,-23.3125 7.8553,0 14.7819,3.85055 19,9.78125 l 5.84375,0 c -4.8046,-8.80304 -14.13366,-14.78125 -24.84375,-14.78125 z"
         style="color:#000000;font-style:normal;font-variant:normal;font-weight:normal;font-stretch:normal;font-size:medium;line-height:normal;font-family:Sans;-inkscape-font-specification:Sans;text-indent:0;text-align:start;text-decoration:none;text-decoration-line:none;letter-spacing:normal;word-spacing:normal;text-transform:none;direction:ltr;block-progression:tb;writing-mode:lr-tb;baseline-shift:baseline;text-anchor:start;display:inline;overflow:visible;visibility:visible;fill:#000000;fill-opacity:1;stroke:none;stroke-width:15.41441536;marker:none;enable-background:accumulate" />
      <path
         d="m 444.3413,487.26513 8.80849,-20.99303 3.26992,0 9.38737,20.99303 -3.45768,0 -2.6754,-6.35805 -9.59076,0 -2.51895,6.35805 -3.22299,0 m 6.6181,-8.62061 7.77587,0 -2.39378,-5.81389 c -0.73014,-1.76611 -1.27252,-3.2172 -1.62715,-4.35326 -0.29206,1.3461 -0.70406,2.68262 -1.236,4.00958 l -2.51894,6.15757"
         style="font-style:normal;font-variant:normal;font-weight:normal;font-stretch:normal;font-size:24px;line-height:125%;font-family:Arial;-inkscape-font-specification:Arial;text-align:start;letter-spacing:0px;word-spacing:0px;writing-mode:lr-tb;text-anchor:start;fill:#000000;fill-opacity:1;stroke:none"
         id="path3881"
         inkscape:connector-curvature="0" />
      <path
         d="m 468.31038,487.26513 0,-20.99303 10.16965,0 c 2.04435,2e-5 3.59848,0.19095 4.6624,0.57279 1.06388,0.37235 1.91396,1.03584 2.55024,1.99048 0.63622,0.95469 0.95435,2.00959 0.95438,3.1647 -3e-5,1.4893 -0.52677,2.74468 -1.58021,3.76616 -1.05349,1.02149 -2.68064,1.67066 -4.88143,1.94751 0.80313,0.35323 1.4133,0.70168 1.83053,1.04534 0.88657,0.74466 1.72621,1.67544 2.51895,2.7924 l 3.98963,5.71365 -3.81754,0 -3.03524,-4.36758 c -0.88661,-1.26015 -1.61673,-2.22435 -2.19039,-2.89262 -0.57369,-0.66826 -1.08998,-1.13604 -1.54891,-1.40336 -0.44852,-0.26729 -0.90746,-0.45346 -1.37681,-0.55847 -0.34422,-0.0668 -0.90746,-0.10021 -1.68973,-0.10021 l -3.52027,0 0,9.32228 -3.03525,0 m 3.03525,-11.72803 6.52422,0 c 1.38723,2e-5 2.47199,-0.12886 3.25429,-0.38664 0.78227,-0.26729 1.3768,-0.68734 1.7836,-1.26015 0.40677,-0.58233 0.61017,-1.21242 0.61018,-1.89024 -1e-5,-0.99283 -0.39637,-1.80906 -1.18907,-2.4487 -0.78229,-0.63961 -2.02351,-0.95942 -3.72365,-0.95944 l -7.25957,0 0,6.94517"
         style="font-style:normal;font-variant:normal;font-weight:normal;font-stretch:normal;font-size:24px;line-height:125%;font-family:Arial;-inkscape-font-specification:Arial;text-align:start;letter-spacing:0px;word-spacing:0px;writing-mode:lr-tb;text-anchor:start;fill:#000000;fill-opacity:1;stroke:none"
         id="path3883"
         inkscape:connector-curvature="0" />
      <path
         d="m 508.80124,485.0169 c 1.40808,0.88784 2.70667,1.53701 3.89576,1.94751 l -0.89181,1.93319 c -1.64802,-0.54415 -3.29081,-1.40335 -4.92837,-2.57759 -1.70017,0.86875 -3.57765,1.30312 -5.63242,1.30312 -2.07566,0 -3.95835,-0.45824 -5.64807,-1.37472 -1.68972,-0.91647 -2.99353,-2.20526 -3.91139,-3.86638 -0.90745,-1.6611 -1.36118,-3.53224 -1.36117,-5.61341 -1e-5,-2.0716 0.45892,-3.95706 1.37681,-5.65638 0.91787,-1.69928 2.22166,-2.99284 3.9114,-3.8807 1.70014,-0.88781 3.59849,-1.33174 5.69501,-1.33175 2.11735,1e-5 4.02612,0.46303 5.72629,1.38903 1.70013,0.91649 2.9935,2.20529 3.88011,3.86638 0.897,1.65158 1.34551,3.51794 1.34552,5.5991 -10e-6,1.72795 -0.28686,3.28405 -0.8605,4.66829 -0.57369,1.37473 -1.43942,2.57282 -2.59717,3.59431 m -6.68069,-3.55134 c 1.7523,0.44869 3.19691,1.11695 4.33385,2.00478 1.78357,-1.48926 2.67538,-3.72794 2.67539,-6.71604 -1e-5,-1.6993 -0.31814,-3.18379 -0.95438,-4.4535 -0.62584,-1.26969 -1.54893,-2.25299 -2.76927,-2.94991 -1.20994,-0.70643 -2.57111,-1.05966 -4.0835,-1.05967 -2.26341,10e-6 -4.14089,0.71123 -5.63243,2.13366 -1.49155,1.41292 -2.23733,3.52749 -2.23732,6.34374 -1e-5,2.73034 0.73533,4.82582 2.20603,6.28645 1.48111,1.46063 3.36901,2.19095 5.66372,2.19095 1.08474,0 2.10692,-0.18615 3.06653,-0.55847 -0.94918,-0.56326 -1.9505,-0.96421 -3.00396,-1.20288 l 0.73534,-2.01911"
         style="font-style:normal;font-variant:normal;font-weight:normal;font-stretch:normal;font-size:24px;line-height:125%;font-family:Arial;-inkscape-font-specification:Arial;text-align:start;letter-spacing:0px;word-spacing:0px;writing-mode:lr-tb;text-anchor:start;fill:#000000;fill-opacity:1;stroke:none"
         id="path3885"
         inkscape:connector-curvature="0" />
      <path
         d="m 531.37786,466.2721 3.03524,0 0,12.129 c -10e-6,2.1098 -0.26077,3.78524 -0.78227,5.02629 -0.52154,1.24106 -1.46549,2.25301 -2.83186,3.03582 -1.35596,0.77328 -3.13957,1.15992 -5.3508,1.15992 -2.14867,0 -3.9062,-0.3389 -5.27257,-1.01672 -1.36639,-0.67781 -2.34164,-1.65634 -2.92574,-2.93558 -0.5841,-1.2888 -0.87615,-3.04537 -0.87615,-5.26973 l 0,-12.129 3.03525,0 0,12.11467 c 0,1.82341 0.18253,3.16948 0.5476,4.03822 0.37548,0.8592 1.01175,1.52269 1.90877,1.99047 0.90744,0.4678 2.01305,0.70168 3.31686,0.70168 2.2321,0 3.82273,-0.463 4.77192,-1.38903 0.94914,-0.92602 1.42373,-2.70647 1.42375,-5.34134 l 0,-12.11467"
         style="font-style:normal;font-variant:normal;font-weight:normal;font-stretch:normal;font-size:24px;line-height:125%;font-family:Arial;-inkscape-font-specification:Arial;text-align:start;letter-spacing:0px;word-spacing:0px;writing-mode:lr-tb;text-anchor:start;fill:#000000;fill-opacity:1;stroke:none"
         id="path3887"
         inkscape:connector-curvature="0" />
      <path
         d="m 539.9986,487.26513 0,-20.99303 3.03524,0 0,20.99303 -3.03524,0"
         style="font-style:normal;font-variant:normal;font-weight:normal;font-stretch:normal;font-size:24px;line-height:125%;font-family:Arial;-inkscape-font-specification:Arial;text-align:start;letter-spacing:0px;word-spacing:0px;writing-mode:lr-tb;text-anchor:start;fill:#000000;fill-opacity:1;stroke:none"
         id="path3889"
         inkscape:connector-curvature="0" />
      <path
         d="m 554.20481,487.26513 0,-18.51568 -7.55683,0 0,-2.47735 18.1802,0 0,2.47735 -7.58812,0 0,18.51568 -3.03525,0"
         style="font-style:normal;font-variant:normal;font-weight:normal;font-stretch:normal;font-size:24px;line-height:125%;font-family:Arial;-inkscape-font-specification:Arial;text-align:start;letter-spacing:0px;word-spacing:0px;writing-mode:lr-tb;text-anchor:start;fill:#000000;fill-opacity:1;stroke:none"
         id="path3891"
         inkscape:connector-curvature="0" />
      <path
         d="m 568.01989,487.26513 0,-20.99303 16.58435,0 0,2.47735 -13.5491,0 0,6.42966 12.68859,0 0,2.46302 -12.68859,0 0,7.14565 14.08105,0 0,2.47735 -17.1163,0"
         style="font-style:normal;font-variant:normal;font-weight:normal;font-stretch:normal;font-size:24px;line-height:125%;font-family:Arial;-inkscape-font-specification:Arial;text-align:start;letter-spacing:0px;word-spacing:0px;writing-mode:lr-tb;text-anchor:start;fill:#000000;fill-opacity:1;stroke:none"
         id="path3893"
         inkscape:connector-curvature="0" />
      <path
         d="m 605.72583,479.90468 3.03524,0.70168 c -0.63628,2.28164 -1.78362,4.0239 -3.44203,5.22678 -1.64803,1.19333 -3.66631,1.78999 -6.05486,1.78999 -2.47202,0 -4.48508,-0.45824 -6.03921,-1.37472 -1.5437,-0.92601 -2.72233,-2.26254 -3.5359,-4.00958 -0.80315,-1.74702 -1.20472,-3.62294 -1.20472,-5.62773 0,-2.18617 0.45373,-4.09071 1.36117,-5.71366 0.91787,-1.63245 2.21646,-2.86874 3.89576,-3.70887 1.68972,-0.84962 3.54634,-1.27445 5.56984,-1.27446 2.29468,1e-5 4.2243,0.53462 5.78888,1.60383 1.56454,1.06924 2.65451,2.57283 3.26992,4.51078 l -2.98831,0.6444 c -0.53196,-1.52745 -1.30381,-2.63963 -2.31554,-3.33655 -1.01177,-0.69689 -2.28428,-1.04534 -3.81754,-1.04535 -1.76275,10e-6 -3.23864,0.38665 -4.4277,1.15991 -1.17864,0.77329 -2.00786,1.81388 -2.48765,3.12174 -0.4798,1.29837 -0.71971,2.63966 -0.71971,4.0239 0,1.78524 0.28163,3.34611 0.84488,4.68262 0.57366,1.327 1.46024,2.31985 2.65974,2.97855 1.19949,0.65873 2.49808,0.98808 3.89576,0.98808 1.70015,0 3.13954,-0.44869 4.3182,-1.34607 1.17862,-0.89739 1.97653,-2.22914 2.39378,-3.99527"
         style="font-style:normal;font-variant:normal;font-weight:normal;font-stretch:normal;font-size:24px;line-height:125%;font-family:Arial;-inkscape-font-specification:Arial;text-align:start;letter-spacing:0px;word-spacing:0px;writing-mode:lr-tb;text-anchor:start;fill:#000000;fill-opacity:1;stroke:none"
         id="path3895"
         inkscape:connector-curvature="0" />
      <path
         d="m 627.5671,466.2721 3.03525,0 0,12.129 c -2e-5,2.1098 -0.26078,3.78524 -0.78228,5.02629 -0.52154,1.24106 -1.46549,2.25301 -2.83185,3.03582 -1.35598,0.77328 -3.13958,1.15992 -5.35081,1.15992 -2.14867,0 -3.90619,-0.3389 -5.27256,-1.01672 -1.3664,-0.67781 -2.34164,-1.65634 -2.92574,-2.93558 -0.5841,-1.2888 -0.87615,-3.04537 -0.87615,-5.26973 l 0,-12.129 3.03525,0 0,12.11467 c -10e-6,1.82341 0.18252,3.16948 0.54759,4.03822 0.37549,0.8592 1.01174,1.52269 1.90877,1.99047 0.90743,0.4678 2.01306,0.70168 3.31687,0.70168 2.23209,0 3.82273,-0.463 4.7719,-1.38903 0.94916,-0.92602 1.42375,-2.70647 1.42376,-5.34134 l 0,-12.11467"
         style="font-style:normal;font-variant:normal;font-weight:normal;font-stretch:normal;font-size:24px;line-height:125%;font-family:Arial;-inkscape-font-specification:Arial;text-align:start;letter-spacing:0px;word-spacing:0px;writing-mode:lr-tb;text-anchor:start;fill:#000000;fill-opacity:1;stroke:none"
         id="path3897"
         inkscape:connector-curvature="0" />
      <path
         d="m 635.71847,487.26513 0,-20.99303 10.16965,0 c 2.04435,2e-5 3.59848,0.19095 4.66238,0.57279 1.0639,0.37235 1.91397,1.03584 2.55024,1.99048 0.63624,0.95469 0.95437,2.00959 0.95438,3.1647 -10e-6,1.4893 -0.52675,2.74468 -1.5802,3.76616 -1.0535,1.02149 -2.68063,1.67066 -4.88143,1.94751 0.80312,0.35323 1.4133,0.70168 1.83053,1.04534 0.88657,0.74466 1.72622,1.67544 2.51895,2.7924 l 3.98963,5.71365 -3.81753,0 -3.03525,-4.36758 c -0.8866,-1.26015 -1.61673,-2.22435 -2.19038,-2.89262 -0.57369,-0.66826 -1.09,-1.13604 -1.54892,-1.40336 -0.44853,-0.26729 -0.90746,-0.45346 -1.37682,-0.55847 -0.34421,-0.0668 -0.90744,-0.10021 -1.68972,-0.10021 l -3.52026,0 0,9.32228 -3.03525,0 m 3.03525,-11.72803 6.52422,0 c 1.38723,2e-5 2.47199,-0.12886 3.25429,-0.38664 0.78226,-0.26729 1.37679,-0.68734 1.78359,-1.26015 0.40678,-0.58233 0.61017,-1.21242 0.61018,-1.89024 -1e-5,-0.99283 -0.39636,-1.80906 -1.18906,-2.4487 -0.7823,-0.63961 -2.02352,-0.95942 -3.72365,-0.95944 l -7.25957,0 0,6.94517"
         style="font-style:normal;font-variant:normal;font-weight:normal;font-stretch:normal;font-size:24px;line-height:125%;font-family:Arial;-inkscape-font-specification:Arial;text-align:start;letter-spacing:0px;word-spacing:0px;writing-mode:lr-tb;text-anchor:start;fill:#000000;fill-opacity:1;stroke:none"
         id="path3899"
         inkscape:connector-curvature="0" />
      <path
         d="m 656.30809,487.26513 8.80849,-20.99303 3.26993,0 9.38737,20.99303 -3.45768,0 -2.6754,-6.35805 -9.59076,0 -2.51894,6.35805 -3.22301,0 m 6.61811,-8.62061 7.77586,0 -2.39377,-5.81389 c -0.73015,-1.76611 -1.27253,-3.2172 -1.62715,-4.35326 -0.29206,1.3461 -0.70407,2.68262 -1.23601,4.00958 l -2.51893,6.15757"
         style="font-style:normal;font-variant:normal;font-weight:normal;font-stretch:normal;font-size:24px;line-height:125%;font-family:Arial;-inkscape-font-specification:Arial;text-align:start;letter-spacing:0px;word-spacing:0px;writing-mode:lr-tb;text-anchor:start;fill:#000000;fill-opacity:1;stroke:none"
         id="path3901"
         inkscape:connector-curvature="0" />
      <path
         d="m 460.12946,508.50906 2.7794,0.78359 c -0.58264,2.54799 -1.63327,4.49363 -3.1519,5.83692 -1.5091,1.33263 -3.35726,1.99894 -5.54448,1.99894 -2.26364,0 -4.10702,-0.51173 -5.53015,-1.53519 -1.41358,-1.03411 -2.49288,-2.52666 -3.23787,-4.47763 -0.73544,-1.95096 -1.10316,-4.04585 -1.10316,-6.28468 0,-2.44136 0.41548,-4.56823 1.24643,-6.38062 0.84051,-1.82301 2.02963,-3.20362 3.56738,-4.14182 1.54729,-0.9488 3.24741,-1.42322 5.10035,-1.42323 2.10125,1e-5 3.86822,0.59703 5.30092,1.79105 1.43267,1.19405 2.43077,2.87316 2.99431,5.03733 l -2.73642,0.71963 c -0.48713,-1.70575 -1.19392,-2.94777 -2.12038,-3.72603 -0.92647,-0.77824 -2.09171,-1.16738 -3.49573,-1.16739 -1.61417,10e-6 -2.96567,0.43179 -4.0545,1.29532 -1.0793,0.86355 -1.83861,2.02561 -2.27796,3.48614 -0.43936,1.44993 -0.65905,2.9478 -0.65903,4.49363 -2e-5,1.99363 0.25787,3.7367 0.77364,5.22923 0.52531,1.4819 1.33717,2.59065 2.43556,3.32624 1.09839,0.73562 2.2875,1.10343 3.56738,1.10343 1.55683,0 2.87491,-0.50107 3.9542,-1.5032 1.07927,-1.00215 1.80995,-2.48936 2.19201,-4.46166"
         style="font-style:normal;font-variant:normal;font-weight:normal;font-stretch:normal;font-size:24px;line-height:125%;font-family:Arial;-inkscape-font-specification:Arial;text-align:start;letter-spacing:0px;word-spacing:0px;writing-mode:lr-tb;text-anchor:start;fill:#000000;fill-opacity:1;stroke:none"
         id="path3903"
         inkscape:connector-curvature="0" />
      <path
         d="m 465.50201,505.31076 c 0,-3.89126 0.93602,-6.93498 2.80807,-9.13117 1.87202,-2.20681 4.28848,-3.31023 7.24936,-3.31025 1.93889,2e-5 3.68676,0.51708 5.24363,1.55119 1.55682,1.03413 2.74117,2.4787 3.55305,4.3337 0.82137,1.84437 1.23208,3.93927 1.2321,6.28468 -2e-5,2.37741 -0.42982,4.50428 -1.28942,6.38062 -0.85962,1.87635 -2.0774,3.2996 -3.65333,4.26974 -1.57596,0.9595 -3.27609,1.43924 -5.10035,1.43924 -1.97711,0 -3.74408,-0.53304 -5.30092,-1.59915 -1.55685,-1.0661 -2.73644,-2.52134 -3.53873,-4.36569 -0.8023,-1.84435 -1.20346,-3.79533 -1.20346,-5.85291 m 2.86537,0.048 c 0,2.82518 0.67814,5.05333 2.0344,6.68447 1.36583,1.62047 3.07549,2.43071 5.12902,2.43071 2.09169,0 3.81091,-0.82089 5.15765,-2.4627 1.35626,-1.64179 2.03438,-3.97122 2.03441,-6.9883 -3e-5,-1.90831 -0.29134,-3.57143 -0.87393,-4.98936 -0.5731,-1.42856 -1.41838,-2.53198 -2.53585,-3.31025 -1.10796,-0.78889 -2.35439,-1.18336 -3.73931,-1.18337 -1.96756,10e-6 -3.6629,0.75695 -5.08602,2.27079 -1.41359,1.50323 -2.12037,4.01922 -2.12037,7.54801"
         style="font-style:normal;font-variant:normal;font-weight:normal;font-stretch:normal;font-size:24px;line-height:125%;font-family:Arial;-inkscape-font-specification:Arial;text-align:start;letter-spacing:0px;word-spacing:0px;writing-mode:lr-tb;text-anchor:start;fill:#000000;fill-opacity:1;stroke:none"
         id="path3905"
         inkscape:connector-curvature="0" />
      <path
         d="m 489.12695,516.72872 0,-23.44361 2.85103,0 11.03166,18.40628 0,-18.40628 2.66479,0 0,23.44361 -2.85104,0 -11.03165,-18.42226 0,18.42226 -2.66479,0"
         style="font-style:normal;font-variant:normal;font-weight:normal;font-stretch:normal;font-size:24px;line-height:125%;font-family:Arial;-inkscape-font-specification:Arial;text-align:start;letter-spacing:0px;word-spacing:0px;writing-mode:lr-tb;text-anchor:start;fill:#000000;fill-opacity:1;stroke:none"
         id="path3907"
         inkscape:connector-curvature="0" />
      <path
         d="m 509.41373,509.19671 2.6218,-0.25587 c 0.12417,1.17272 0.41071,2.13754 0.85962,2.89446 0.45844,0.74628 1.16524,1.35396 2.12036,1.82304 0.95512,0.45843 2.02963,0.68765 3.22354,0.68765 1.06017,0 1.99619,-0.17592 2.80806,-0.52773 0.81184,-0.35181 1.41356,-0.83155 1.80518,-1.43924 0.40113,-0.61833 0.6017,-1.28998 0.60173,-2.01493 -3e-5,-0.73561 -0.19105,-1.37527 -0.57308,-1.91899 -0.38207,-0.55436 -1.01244,-1.01812 -1.89114,-1.39126 -0.56354,-0.24519 -1.80997,-0.62367 -3.7393,-1.1354 -1.92935,-0.52238 -3.28085,-1.01278 -4.05449,-1.47122 -1.00289,-0.58635 -1.75266,-1.3113 -2.24931,-2.17485 -0.48711,-0.87419 -0.73067,-1.84967 -0.73067,-2.92646 0,-1.18335 0.30086,-2.28677 0.90259,-3.31024 0.60173,-1.03411 1.48044,-1.81769 2.63613,-2.35077 1.1557,-0.53301 2.44033,-0.79955 3.85392,-0.79956 1.55683,1e-5 2.92744,0.28253 4.1118,0.84754 1.19389,0.55441 2.1108,1.3753 2.75075,2.46271 0.63991,1.08744 0.98375,2.31878 1.03153,3.69404 l -2.66479,0.22388 c -0.14328,-1.48186 -0.6304,-2.60128 -1.46133,-3.35823 -0.82143,-0.75691 -2.0392,-1.13537 -3.65334,-1.1354 -1.68103,3e-5 -2.90836,0.34651 -3.682,1.03946 -0.76411,0.68231 -1.14615,1.50855 -1.14614,2.47869 -10e-6,0.84224 0.2722,1.5352 0.81663,2.07889 0.53485,0.54373 1.92933,1.10344 4.18342,1.67911 2.26363,0.56506 3.8157,1.0608 4.65622,1.48723 1.22254,0.629 2.12513,1.42858 2.70777,2.39872 0.58261,0.9595 0.87392,2.06825 0.87394,3.32624 -2e-5,1.24736 -0.31998,2.4254 -0.95989,3.53413 -0.63996,1.09809 -1.56165,1.95631 -2.76508,2.57464 -1.19393,0.60768 -2.54064,0.91152 -4.04017,0.91152 -1.90069,0 -3.49575,-0.30917 -4.78515,-0.92751 -1.27987,-0.61834 -2.28753,-1.54585 -3.02297,-2.78253 -0.72589,-1.24733 -1.10794,-2.65459 -1.14614,-4.22176"
         style="font-style:normal;font-variant:normal;font-weight:normal;font-stretch:normal;font-size:24px;line-height:125%;font-family:Arial;-inkscape-font-specification:Arial;text-align:start;letter-spacing:0px;word-spacing:0px;writing-mode:lr-tb;text-anchor:start;fill:#000000;fill-opacity:1;stroke:none"
         id="path3909"
         inkscape:connector-curvature="0" />
      <path
         d="m 535.30229,516.72872 0,-20.67706 -6.91985,0 0,-2.76655 16.64776,0 0,2.76655 -6.9485,0 0,20.67706 -2.77941,0"
         style="font-style:normal;font-variant:normal;font-weight:normal;font-stretch:normal;font-size:24px;line-height:125%;font-family:Arial;-inkscape-font-specification:Arial;text-align:start;letter-spacing:0px;word-spacing:0px;writing-mode:lr-tb;text-anchor:start;fill:#000000;fill-opacity:1;stroke:none"
         id="path3911"
         inkscape:connector-curvature="0" />
      <path
         d="m 547.93855,516.72872 0,-23.44361 9.31244,0 c 1.87203,3e-5 3.29515,0.21325 4.26938,0.63967 0.97422,0.41581 1.75263,1.15675 2.33528,2.22283 0.58261,1.06613 0.87392,2.24417 0.87393,3.53412 -1e-5,1.66315 -0.48235,3.06507 -1.447,4.20579 -0.9647,1.14073 -2.45467,1.86568 -4.46997,2.17485 0.73543,0.39447 1.29417,0.78359 1.67623,1.16737 0.81184,0.83158 1.58072,1.87102 2.30662,3.11836 l 3.65334,6.38062 -3.49574,0 -2.7794,-4.87742 c -0.81187,-1.40724 -1.48046,-2.484 -2.00575,-3.23028 -0.52534,-0.74627 -0.99812,-1.26866 -1.41836,-1.56718 -0.41072,-0.29849 -0.83097,-0.50639 -1.26076,-0.62367 -0.3152,-0.0746 -0.83096,-0.11189 -1.54729,-0.11189 l -3.22354,0 0,10.41048 -2.77941,0 m 2.77941,-13.09706 5.97429,0 c 1.27029,10e-6 2.26362,-0.14392 2.97997,-0.43178 0.71632,-0.2985 1.26074,-0.76758 1.63325,-1.40726 0.37249,-0.6503 0.55874,-1.35394 0.55875,-2.11089 -1e-5,-1.10872 -0.36295,-2.02024 -1.08884,-2.73454 -0.71635,-0.71427 -1.85295,-1.07141 -3.40978,-1.07144 l -6.64764,0 0,7.75591"
         style="font-style:normal;font-variant:normal;font-weight:normal;font-stretch:normal;font-size:24px;line-height:125%;font-family:Arial;-inkscape-font-specification:Arial;text-align:start;letter-spacing:0px;word-spacing:0px;writing-mode:lr-tb;text-anchor:start;fill:#000000;fill-opacity:1;stroke:none"
         id="path3913"
         inkscape:connector-curvature="0" />
      <path
         d="m 582.88167,493.28511 2.77941,0 0,13.54485 c -3e-5,2.35609 -0.2388,4.22711 -0.71635,5.61303 -0.47758,1.38593 -1.34196,2.51601 -2.59315,3.3902 -1.24167,0.86354 -2.87493,1.29532 -4.89978,1.29532 -1.96756,0 -3.57693,-0.37846 -4.82813,-1.1354 -1.25122,-0.75693 -2.14425,-1.84969 -2.67912,-3.27826 -0.53487,-1.43924 -0.8023,-3.40087 -0.8023,-5.88489 l 0,-13.54485 2.77941,0 0,13.52886 c -2e-5,2.03626 0.16713,3.53946 0.50143,4.50961 0.34384,0.95949 0.92646,1.70044 1.74787,2.22283 0.83095,0.5224 1.84338,0.78358 3.03729,0.78358 2.04395,0 3.50051,-0.51705 4.36967,-1.55118 0.86916,-1.03412 1.30374,-3.0224 1.30375,-5.96484 l 0,-13.52886"
         style="font-style:normal;font-variant:normal;font-weight:normal;font-stretch:normal;font-size:24px;line-height:125%;font-family:Arial;-inkscape-font-specification:Arial;text-align:start;letter-spacing:0px;word-spacing:0px;writing-mode:lr-tb;text-anchor:start;fill:#000000;fill-opacity:1;stroke:none"
         id="path3915"
         inkscape:connector-curvature="0" />
      <path
         d="m 605.28883,508.50906 2.77939,0.78359 c -0.58264,2.54799 -1.63327,4.49363 -3.15189,5.83692 -1.50911,1.33263 -3.35728,1.99894 -5.54449,1.99894 -2.26365,0 -4.10703,-0.51173 -5.53016,-1.53519 -1.41358,-1.03411 -2.49286,-2.52666 -3.23785,-4.47763 -0.73545,-1.95096 -1.10317,-4.04585 -1.10317,-6.28468 0,-2.44136 0.41548,-4.56823 1.24643,-6.38062 0.84051,-1.82301 2.02964,-3.20362 3.56738,-4.14182 1.54729,-0.9488 3.24741,-1.42322 5.10036,-1.42323 2.10125,1e-5 3.86822,0.59703 5.30092,1.79105 1.43267,1.19405 2.43076,2.87316 2.9943,5.03733 l -2.73642,0.71963 c -0.48713,-1.70575 -1.19391,-2.94777 -2.12037,-3.72603 -0.92649,-0.77824 -2.09173,-1.16738 -3.49575,-1.16739 -1.61416,10e-6 -2.96565,0.43179 -4.05448,1.29532 -1.0793,0.86355 -1.83861,2.02561 -2.27796,3.48614 -0.43937,1.44993 -0.65905,2.9478 -0.65905,4.49363 0,1.99363 0.25789,3.7367 0.77366,5.22923 0.52531,1.4819 1.33716,2.59065 2.43555,3.32624 1.09838,0.73562 2.28751,1.10343 3.56738,1.10343 1.55684,0 2.8749,-0.50107 3.95421,-1.5032 1.07927,-1.00215 1.80993,-2.48936 2.19201,-4.46166"
         style="font-style:normal;font-variant:normal;font-weight:normal;font-stretch:normal;font-size:24px;line-height:125%;font-family:Arial;-inkscape-font-specification:Arial;text-align:start;letter-spacing:0px;word-spacing:0px;writing-mode:lr-tb;text-anchor:start;fill:#000000;fill-opacity:1;stroke:none"
         id="path3917"
         inkscape:connector-curvature="0" />
      <path
         d="m 626.49252,508.50906 2.7794,0.78359 c -0.58265,2.54799 -1.63328,4.49363 -3.1519,5.83692 -1.50911,1.33263 -3.35727,1.99894 -5.54448,1.99894 -2.26365,0 -4.10703,-0.51173 -5.53016,-1.53519 -1.41358,-1.03411 -2.49286,-2.52666 -3.23785,-4.47763 -0.73545,-1.95096 -1.10317,-4.04585 -1.10317,-6.28468 0,-2.44136 0.41548,-4.56823 1.24643,-6.38062 0.8405,-1.82301 2.02964,-3.20362 3.56738,-4.14182 1.54729,-0.9488 3.24741,-1.42322 5.10035,-1.42323 2.10126,1e-5 3.86823,0.59703 5.30093,1.79105 1.43266,1.19405 2.43076,2.87316 2.9943,5.03733 l -2.73643,0.71963 c -0.48712,-1.70575 -1.19391,-2.94777 -2.12036,-3.72603 -0.92649,-0.77824 -2.09173,-1.16738 -3.49575,-1.16739 -1.61416,10e-6 -2.96565,0.43179 -4.05448,1.29532 -1.0793,0.86355 -1.83862,2.02561 -2.27797,3.48614 -0.43936,1.44993 -0.65904,2.9478 -0.65904,4.49363 0,1.99363 0.25789,3.7367 0.77366,5.22923 0.52531,1.4819 1.33716,2.59065 2.43555,3.32624 1.09838,0.73562 2.28751,1.10343 3.56738,1.10343 1.55684,0 2.8749,-0.50107 3.95421,-1.5032 1.07927,-1.00215 1.80993,-2.48936 2.192,-4.46166"
         style="font-style:normal;font-variant:normal;font-weight:normal;font-stretch:normal;font-size:24px;line-height:125%;font-family:Arial;-inkscape-font-specification:Arial;text-align:start;letter-spacing:0px;word-spacing:0px;writing-mode:lr-tb;text-anchor:start;fill:#000000;fill-opacity:1;stroke:none"
         id="path3919"
         inkscape:connector-curvature="0" />
      <path
         d="m 633.18314,516.72872 0,-23.44361 2.77941,0 0,23.44361 -2.77941,0"
         style="font-style:normal;font-variant:normal;font-weight:normal;font-stretch:normal;font-size:24px;line-height:125%;font-family:Arial;-inkscape-font-specification:Arial;text-align:start;letter-spacing:0px;word-spacing:0px;writing-mode:lr-tb;text-anchor:start;fill:#000000;fill-opacity:1;stroke:none"
         id="path3921"
         inkscape:connector-curvature="0" />
      <path
         d="m 640.00272,505.31076 c 0,-3.89126 0.93601,-6.93498 2.80805,-9.13117 1.87203,-2.20681 4.28849,-3.31023 7.24937,-3.31025 1.93889,2e-5 3.68675,0.51708 5.24362,1.55119 1.55682,1.03413 2.74117,2.4787 3.55305,4.3337 0.82138,1.84437 1.23209,3.93927 1.2321,6.28468 -1e-5,2.37741 -0.42983,4.50428 -1.2894,6.38062 -0.85963,1.87635 -2.07742,3.2996 -3.65334,4.26974 -1.57597,0.9595 -3.27608,1.43924 -5.10036,1.43924 -1.9771,0 -3.74409,-0.53304 -5.30092,-1.59915 -1.55686,-1.0661 -2.73643,-2.52134 -3.53873,-4.36569 -0.8023,-1.84435 -1.20344,-3.79533 -1.20344,-5.85291 m 2.86536,0.048 c -10e-6,2.82518 0.67813,5.05333 2.03441,6.68447 1.36581,1.62047 3.07548,2.43071 5.12899,2.43071 2.09171,0 3.81093,-0.82089 5.15766,-2.4627 1.35625,-1.64179 2.03439,-3.97122 2.03441,-6.9883 -2e-5,-1.90831 -0.29133,-3.57143 -0.87394,-4.98936 -0.57308,-1.42856 -1.41837,-2.53198 -2.53584,-3.31025 -1.10796,-0.78889 -2.35439,-1.18336 -3.7393,-1.18337 -1.96756,10e-6 -3.6629,0.75695 -5.08603,2.27079 -1.41358,1.50323 -2.12037,4.01922 -2.12036,7.54801"
         style="font-style:normal;font-variant:normal;font-weight:normal;font-stretch:normal;font-size:24px;line-height:125%;font-family:Arial;-inkscape-font-specification:Arial;text-align:start;letter-spacing:0px;word-spacing:0px;writing-mode:lr-tb;text-anchor:start;fill:#000000;fill-opacity:1;stroke:none"
         id="path3923"
         inkscape:connector-curvature="0" />
      <path
         d="m 663.62765,516.72872 0,-23.44361 2.85103,0 11.03165,18.40628 0,-18.40628 2.66479,0 0,23.44361 -2.85104,0 -11.03165,-18.42226 0,18.42226 -2.66478,0"
         style="font-style:normal;font-variant:normal;font-weight:normal;font-stretch:normal;font-size:24px;line-height:125%;font-family:Arial;-inkscape-font-specification:Arial;text-align:start;letter-spacing:0px;word-spacing:0px;writing-mode:lr-tb;text-anchor:start;fill:#000000;fill-opacity:1;stroke:none"
         id="path3925"
         inkscape:connector-curvature="0" />
    </g>
  </g>
</svg>
