<?xml version="1.0" encoding="UTF-8" standalone="no"?>
<!-- Generator: Adobe Illustrator 15.1.0, SVG Export Plug-In . SVG Version: 6.00 Build 0)  -->

<svg
   xmlns:dc="http://purl.org/dc/elements/1.1/"
   xmlns:cc="http://creativecommons.org/ns#"
   xmlns:rdf="http://www.w3.org/1999/02/22-rdf-syntax-ns#"
   xmlns:svg="http://www.w3.org/2000/svg"
   xmlns="http://www.w3.org/2000/svg"
   xmlns:sodipodi="http://sodipodi.sourceforge.net/DTD/sodipodi-0.dtd"
   xmlns:inkscape="http://www.inkscape.org/namespaces/inkscape"
   version="1.1"
   id="svg2"
   inkscape:version="0.91 r13725"
   sodipodi:docname="bootstrap.svg"
   x="0px"
   y="0px"
   width="2000"
   height="2008.276"
   viewBox="0 0 2000 2008.276"
   enable-background="new 0 0 2000 2008.275"
   xml:space="preserve"><metadata
     id="metadata14"><rdf:RDF><cc:Work
         rdf:about=""><dc:format>image/svg+xml</dc:format><dc:type
           rdf:resource="http://purl.org/dc/dcmitype/StillImage" /><dc:title></dc:title></cc:Work></rdf:RDF></metadata><defs
     id="defs12" /><sodipodi:namedview
     id="namedview2996"
     bordercolor="#666666"
     inkscape:cx="987.12644"
     pagecolor="#ffffff"
     inkscape:zoom="0.27187511"
     fit-margin-top="0"
     fit-margin-left="0"
     showgrid="false"
     borderopacity="1"
     gridtolerance="10"
     objecttolerance="10"
     inkscape:cy="1004.1385"
     guidetolerance="10"
     inkscape:window-maximized="1"
     inkscape:current-layer="svg2"
     inkscape:window-y="22"
     inkscape:window-x="-8"
     fit-margin-bottom="0"
     fit-margin-right="0"
     inkscape:window-height="715"
     inkscape:window-width="1366"
     inkscape:pageshadow="2"
     inkscape:pageopacity="0" /><g
     id="g4"><path
       d="m 1015.104,864.568 c 51.076,10e-4 89.805,-11.109 116.187,-33.33 26.38,-22.219 39.57,-54.993 39.571,-98.322 -10e-4,-42.772 -13.191,-75.269 -39.571,-97.489 -26.381,-22.774 -65.109,-34.162 -116.187,-34.163 l -179.332,0 0,263.304 179.332,0 0,0 z"
       id="path6"
       inkscape:connector-curvature="0"
       style="fill:#563d7c" /><path
       d="m 1173.387,1123.706 c -32.556,-27.219 -81.668,-40.828 -147.338,-40.829 l -190.277,0 0,325.798 190.276,0 c 65.109,0 113.94,-13.609 146.496,-40.829 33.115,-27.219 49.673,-68.325 49.674,-123.319 0,-53.883 -16.278,-94.157 -48.831,-120.821 z"
       id="path8"
       inkscape:connector-curvature="0"
       style="fill:#563d7c" /><path
       d="M 1676.924,0 323.077,0 C 144.646,0 0,144.646 0,323.077 l 0,1362.122 c 0,178.431 144.646,323.077 323.077,323.077 l 1353.847,0 c 178.431,0 323.076,-144.646 323.076,-323.077 l 0,-1362.122 C 2000,144.646 1855.354,0 1676.924,0 Z M 1423.44,1538.66 c -81.949,58.883 -206.556,88.323 -373.818,88.323 l -537.994,0 0,-1244.029 486.637,0 c 174.56,10e-4 300.849,26.109 378.869,78.325 78.579,52.218 117.87,135.819 117.87,250.806 -10e-4,60.55 -14.313,112.211 -42.938,154.982 -28.626,42.219 -70.162,73.604 -124.605,94.157 69.599,19.999 123.482,56.939 161.651,110.821 38.166,53.884 57.25,119.987 57.251,198.312 0,119.987 -40.975,209.421 -122.923,268.303 z"
       id="path10"
       inkscape:connector-curvature="0"
       style="fill:#563d7c" /></g></svg>