<?xml version="1.0" encoding="UTF-8" standalone="no"?>
<!-- Generator: Adobe Illustrator 16.0.4, SVG Export Plug-In . SVG Version: 6.00 Build 0)  -->

<svg
   xmlns:dc="http://purl.org/dc/elements/1.1/"
   xmlns:cc="http://creativecommons.org/ns#"
   xmlns:rdf="http://www.w3.org/1999/02/22-rdf-syntax-ns#"
   xmlns:svg="http://www.w3.org/2000/svg"
   xmlns="http://www.w3.org/2000/svg"
   xmlns:sodipodi="http://sodipodi.sourceforge.net/DTD/sodipodi-0.dtd"
   xmlns:inkscape="http://www.inkscape.org/namespaces/inkscape"
   version="1.1"
   x="0px"
   y="0px"
   width="122.341"
   height="141.226"
   viewBox="0 0 122.341 141.22599"
   enable-background="new 0 0 821.403 210.419"
   xml:space="preserve"
   id="svg2"
   inkscape:version="0.91 r13725"
   sodipodi:docname="Bitbucket.svg"><metadata
     id="metadata77"><rdf:RDF><cc:Work
         rdf:about=""><dc:format>image/svg+xml</dc:format><dc:type
           rdf:resource="http://purl.org/dc/dcmitype/StillImage" /><dc:title></dc:title></cc:Work></rdf:RDF></metadata><defs
     id="defs75" /><sodipodi:namedview
     pagecolor="#ffffff"
     bordercolor="#666666"
     borderopacity="1"
     objecttolerance="10"
     gridtolerance="10"
     guidetolerance="10"
     inkscape:pageopacity="0"
     inkscape:pageshadow="2"
     inkscape:window-width="1366"
     inkscape:window-height="715"
     id="namedview73"
     showgrid="false"
     fit-margin-top="0"
     fit-margin-left="0"
     fit-margin-right="0"
     fit-margin-bottom="0"
     inkscape:zoom="0.93938928"
     inkscape:cx="406.97568"
     inkscape:cy="105.2105"
     inkscape:window-x="-8"
     inkscape:window-y="22"
     inkscape:window-maximized="1"
     inkscape:current-layer="svg2" /><g
     id="icon"
     transform="translate(0,-69.194)"><g
       id="g62"><path
         display="none"
         d="m 150.858,197.981 c -1.831,-0.955 -3.876,-0.779 -5.335,0.688 -0.299,0.24 -30.129,23.859 -84.584,23.859 -56.827,-0.053 -83.171,-22.385 -84.266,-23.332 -0.287,-0.262 -0.631,-0.49 -0.979,-0.668 -1.592,-0.805 -3.506,-0.629 -4.93,0.449 -1.435,1.07 -2.125,2.859 -1.795,4.615 1.774,9.498 7.675,40.824 9.04,45.34 5.443,18.238 41.185,27.061 83.152,27.08 l 0,0 c 35.27,0 78.827,-7.404 83.25,-27.35 0.6,-2.703 4.017,-20.463 8.692,-45.49 0.38,-2.025 -0.422,-4.226 -2.245,-5.191 z"
         id="path64"
         inkscape:connector-curvature="0"
         style="display:none;fill:#003366" /></g><path
       d="m 61.172,69.194 0,0.002 0,-0.002 C 27.497,69.194 0,78.248 0,89.488 c 0,2.961 7.343,45.415 10.256,62.25 1.306,7.551 20.818,18.621 50.899,18.621 l 0.031,-0.09 0,0.09 c 30.081,0 49.593,-11.07 50.899,-18.621 2.913,-16.836 10.256,-59.29 10.256,-62.25 0.002,-11.24 -27.495,-20.294 -61.169,-20.294 z m -10e-4,87.527 c -10.739,0 -19.445,-8.707 -19.445,-19.445 0,-10.74 8.706,-19.445 19.445,-19.445 10.739,0 19.445,8.705 19.445,19.445 0.001,10.738 -8.705,19.445 -19.445,19.445 z m -0.01,-60.96 C 39.525,95.726 21.992,91.967 21.999,87.363 c 0.007,-4.604 17.554,-8.307 39.189,-8.272 21.636,0.034 39.169,3.793 39.162,8.398 -0.008,4.605 -17.554,8.306 -39.189,8.272 z"
       id="path66"
       inkscape:connector-curvature="0"
       style="fill:#003366" /><path
       d="m 105.137,168.613 c -0.93,0 -1.675,0.658 -1.675,0.658 0,0 -15.064,11.929 -42.291,11.93 -27.227,-0.001 -42.291,-11.93 -42.291,-11.93 0,0 -0.746,-0.658 -1.675,-0.658 -1.111,0 -2.164,0.746 -2.164,2.393 0,0.174 0.017,0.348 0.049,0.518 2.338,12.514 4.046,21.393 4.346,22.744 2.041,9.205 20.048,16.151 41.733,16.152 l 0,0 0.001,0 10e-4,0 0,0 c 21.686,-10e-4 39.692,-6.947 41.733,-16.152 0.3,-1.352 2.008,-10.23 4.346,-22.744 0.032,-0.17 0.049,-0.344 0.049,-0.518 0.002,-1.647 -1.051,-2.393 -2.162,-2.393 z"
       id="path68"
       inkscape:connector-curvature="0"
       style="fill:#003366" /><circle
       cx="61.152"
       cy="137.27"
       r="9.7449999"
       id="circle70"
       style="fill:#003366" /></g><g
     id="GUIDES"
     transform="translate(0,-69.194)" /></svg>