<?xml version="1.0" encoding="UTF-8" standalone="no"?>
<!-- Created with Inkscape (http://www.inkscape.org/) -->

<svg
   xmlns:dc="http://purl.org/dc/elements/1.1/"
   xmlns:cc="http://creativecommons.org/ns#"
   xmlns:rdf="http://www.w3.org/1999/02/22-rdf-syntax-ns#"
   xmlns:svg="http://www.w3.org/2000/svg"
   xmlns="http://www.w3.org/2000/svg"
   xmlns:sodipodi="http://sodipodi.sourceforge.net/DTD/sodipodi-0.dtd"
   xmlns:inkscape="http://www.inkscape.org/namespaces/inkscape"
   width="286.83984"
   height="220"
   viewBox="0 0 286.83984 219.99999"
   id="svg6820"
   version="1.1"
   inkscape:version="0.91 r13725"
   sodipodi:docname="CITT Slogan.svg">
  <defs
     id="defs6822" />
  <sodipodi:namedview
     id="base"
     pagecolor="#ffffff"
     bordercolor="#666666"
     borderopacity="1.0"
     inkscape:pageopacity="0.0"
     inkscape:pageshadow="2"
     inkscape:zoom="3.1035516"
     inkscape:cx="49.642456"
     inkscape:cy="109.23966"
     inkscape:document-units="px"
     inkscape:current-layer="layer1"
     showgrid="false"
     fit-margin-top="10"
     fit-margin-left="10"
     fit-margin-right="10"
     fit-margin-bottom="10"
     units="px"
     inkscape:window-width="1366"
     inkscape:window-height="715"
     inkscape:window-x="-8"
     inkscape:window-y="22"
     inkscape:window-maximized="1" />
  <metadata
     id="metadata6825">
    <rdf:RDF>
      <cc:Work
         rdf:about="">
        <dc:format>image/svg+xml</dc:format>
        <dc:type
           rdf:resource="http://purl.org/dc/dcmitype/StillImage" />
        <dc:title></dc:title>
      </cc:Work>
    </rdf:RDF>
  </metadata>
  <g
     inkscape:label="Capa 1"
     inkscape:groupmode="layer"
     id="layer1"
     transform="translate(25.122406,-377.2453)">
    <g
       id="g7484">
      <path
         d="m 58.707367,487.94302 c 2.01238,0 3.706684,0.68811 5.079763,2.05962 1.371504,1.36835 2.054895,3.06423 2.054895,5.07189 0,11.16257 -3.933431,20.76782 -11.797143,28.81261 -8.052668,7.86687 -17.65635,11.79715 -28.811044,11.79715 -11.160992,0 -20.6749188,-3.93028 -28.5339074,-11.79715 -7.8684366,-8.04479 -11.7987166,-17.65004 -11.7987166,-28.81261 l 0,-66.94391 c 0,-11.15626 3.93028,-20.75995 11.7987166,-28.81104 7.8589886,-8.04795 17.3729154,-12.07428 28.5339074,-12.07428 11.154694,0 20.670196,4.02633 28.537057,12.07428 8.046371,7.86686 12.07113,17.37921 12.07113,28.53391 0,2.01709 -0.683391,3.70353 -2.054895,5.07661 -1.373079,1.36993 -3.067383,2.05805 -5.079763,2.05805 -2.010806,0 -3.703535,-0.68812 -5.075039,-2.05805 -1.368355,-1.37308 -2.054895,-3.05952 -2.054895,-5.07661 l 0,0.27713 c 0,-1.28017 -0.140142,-2.56035 -0.414128,-3.8421 -0.273986,-1.27703 -0.410979,-2.10214 -0.410979,-2.4706 -1.095944,-4.93962 -3.383884,-8.96123 -6.859098,-12.07428 -4.93962,-5.30178 -11.068088,-7.95818 -18.385403,-7.95818 -7.501548,0 -13.716621,2.6564 -18.6562415,7.95818 -4.9380461,4.93962 -7.40864377,11.07124 -7.40864377,18.38698 l 0,66.94391 c 0,7.13623 2.47059767,13.35603 7.40864377,18.65781 5.3033605,4.93963 11.5215825,7.4118 18.6562415,7.4118 7.317315,0 13.445783,-2.47217 18.385403,-7.4118 5.117554,-5.48444 7.684205,-11.70266 7.684205,-18.65781 0,-2.00766 0.68654,-3.70354 2.054895,-5.07189 1.371504,-1.37151 3.064233,-2.05962 5.075039,-2.05962"
         style="fill:#00283f;fill-opacity:1;fill-rule:nonzero;stroke:none"
         id="path3788"
         inkscape:connector-curvature="0" />
      <path
         d="m 208.28213,524.36411 c -1.46755,-0.97627 -3.0107,-1.62503 -4.64043,-1.95097 -6.51269,-0.32438 -11.80503,-2.60602 -15.8723,-6.8402 -4.5617,-4.557 -6.8402,-10.17371 -6.8402,-16.84858 l 0,-65.20551 1.68171,0 13.21588,0 c 1.95254,0 3.5004,-0.64875 4.64046,-1.9557 1.13845,-1.13845 1.71005,-2.60286 1.71005,-4.39952 0,-1.94939 -0.5716,-3.49411 -1.71005,-4.63414 -1.14006,-1.30222 -2.68792,-1.95569 -4.64046,-1.95569 l -13.21588,0 -1.68171,0 0,-10.98936 c 0,-1.62502 -0.65347,-3.09257 -1.95255,-4.39638 -1.30694,-1.30221 -2.85166,-1.95568 -4.63887,-1.95568 -1.62974,0 -3.25949,0.65347 -4.88608,1.95568 -1.30379,1.30381 -1.95255,2.77136 -1.95255,4.39638 l 0,10.98936 -14.87396,0 c -0.48971,-0.10237 -1.00462,-0.16534 -1.56204,-0.16534 l -30.75729,0 0,-10.82402 c 0,-1.62502 -0.65505,-3.09257 -1.95254,-4.39638 -1.30379,-1.30221 -2.8485,-1.95568 -4.64202,-1.95568 -1.62974,0 -3.25633,0.65347 -4.88292,1.95568 -1.30695,1.30381 -1.95097,2.77136 -1.95097,4.39638 l 0,10.82402 -28.515013,0 0,9.53755 c -0.606234,1.06445 -0.918011,2.28007 -0.918011,3.65314 l 0,102.08499 c 3.744475,-0.88337 6.841776,-2.78867 9.280881,-5.7112 2.442255,-2.92251 3.665744,-6.42134 3.665744,-10.49491 l 0.244068,-85.87888 c 0,-0.0819 -0.01109,-0.16375 -0.01417,-0.24406 l 16.256501,0 0,65.36927 c 0,9.60526 3.66102,18.23268 10.98462,25.88382 6.99925,7.17087 15.71168,10.74686 26.13259,10.74686 1.95728,0 3.50041,-0.57001 4.64202,-1.70848 1.13688,-1.13688 1.7069,-2.68632 1.7069,-4.64201 0,-2.27535 -0.89281,-3.82006 -2.68475,-4.64044 -1.4644,-0.97627 -3.01384,-1.62503 -4.64044,-1.95097 -6.51424,-0.32438 -11.80343,-2.60602 -15.87386,-6.8402 -4.55856,-4.557 -6.83863,-10.17371 -6.83863,-16.84858 l 0,-65.20551 47.19329,0 0,65.20551 c 0,9.60526 3.6626,18.23268 10.98781,25.88382 6.99922,7.17087 15.71323,10.74686 26.13259,10.74686 1.95254,0 3.49883,-0.57001 4.64042,-1.70848 1.1369,-1.13688 1.70849,-2.68632 1.70849,-4.64201 0,-2.27535 -0.89282,-3.82006 -2.68632,-4.64044"
         style="fill:#00283f;fill-opacity:1;fill-rule:nonzero;stroke:none"
         id="path3792"
         inkscape:connector-curvature="0" />
      <path
         d="m 96.723079,425.25755 c 0,7.41337 -6.008796,13.42374 -13.420589,13.42374 -7.411793,0 -13.423738,-6.01037 -13.423738,-13.42374 0,-7.41337 6.011945,-13.42059 13.423738,-13.42059 7.411793,0 13.420589,6.00722 13.420589,13.42059"
         style="fill:#fab41d;fill-opacity:1;fill-rule:nonzero;stroke:none"
         id="path3796"
         inkscape:connector-curvature="0" />
      <path
         d="m 91.464122,425.25755 c 0,4.32551 -3.506705,7.83537 -7.833793,7.83537 -4.32394,0 -7.829071,-3.50986 -7.829071,-7.83537 0,-4.32394 3.505131,-7.83222 7.829071,-7.83222 4.327088,0 7.833793,3.50828 7.833793,7.83222"
         style="fill:#00283f;fill-opacity:1;fill-rule:nonzero;stroke:none"
         id="path3800"
         inkscape:connector-curvature="0" />
      <path
         d="m 157.3494,425.25755 c 0,7.41337 -6.01195,13.42374 -13.42058,13.42374 -7.41494,0 -13.42532,-6.01037 -13.42532,-13.42374 0,-7.41337 6.01038,-13.42059 13.42532,-13.42059 7.40865,0 13.42058,6.00722 13.42058,13.42059"
         style="fill:#fab41d;fill-opacity:1;fill-rule:nonzero;stroke:none"
         id="path3804"
         inkscape:connector-curvature="0" />
      <path
         d="m 152.08886,425.25755 c 0,4.32551 -3.5067,7.83537 -7.83378,7.83537 -4.32551,0 -7.83066,-3.50986 -7.83066,-7.83537 0,-4.32394 3.50514,-7.83222 7.83066,-7.83222 4.32708,0 7.83378,3.50828 7.83378,7.83222"
         style="fill:#00283f;fill-opacity:1;fill-rule:nonzero;stroke:none"
         id="path3808"
         inkscape:connector-curvature="0" />
      <path
         d="m 218.02816,425.25755 c 0,7.41337 -6.01037,13.42374 -13.42374,13.42374 -7.41179,0 -13.42216,-6.01037 -13.42216,-13.42374 0,-7.41337 6.01037,-13.42059 13.42216,-13.42059 7.41337,0 13.42374,6.00722 13.42374,13.42059"
         style="fill:#fab41d;fill-opacity:1;fill-rule:nonzero;stroke:none"
         id="path3812"
         inkscape:connector-curvature="0" />
      <path
         d="m 212.7692,425.25755 c 0,4.32551 -3.50985,7.83537 -7.83379,7.83537 -4.32709,0 -7.83222,-3.50986 -7.83222,-7.83537 0,-4.32394 3.50513,-7.83222 7.83222,-7.83222 4.32394,0 7.83379,3.50828 7.83379,7.83222"
         style="fill:#00283f;fill-opacity:1;fill-rule:nonzero;stroke:none"
         id="path3816"
         inkscape:connector-curvature="0" />
      <path
         d="m -4.022668,562.25984 c -0.6487484,0.32436 -1.943096,0.64873 -3.6043328,0.64873 -3.8484002,0 -6.7457232,-2.43123 -6.7457232,-6.90791 0,-4.27197 2.897323,-7.1693 7.1299334,-7.1693 1.7006027,0 2.7745017,0.36374 3.2405929,0.60623 l -0.4267254,1.43922 c -0.667644,-0.32438 -1.6187217,-0.56687 -2.7540314,-0.56687 -3.1996515,0 -5.3269795,2.04545 -5.3269795,5.63088 0,3.34137 1.9242,5.48917 5.2450986,5.48917 1.073899,0 2.1682683,-0.2236 2.8784274,-0.56844 l 0.36374,1.39827 z"
         style="fill:#00283f;fill-opacity:1;fill-rule:nonzero;stroke:none"
         id="path3824"
         inkscape:connector-curvature="0" />
      <path
         d="m 5.2591582,556.30567 -5.30651009,0 0,4.92073 5.91431799,0 0,1.47857 -7.6763312,0 0,-13.65048 7.3724272,0 0,1.47858 -5.61041399,0 0,4.31292 5.30651009,0 0,1.45968 z"
         style="fill:#00283f;fill-opacity:1;fill-rule:nonzero;stroke:none"
         id="path3828"
         inkscape:connector-curvature="0" />
      <path
         d="m 8.1593154,562.70577 0,-13.65206 1.9257746,0 4.372753,6.90789 c 1.014064,1.59827 1.804529,3.03747 2.451703,4.43417 l 0.03937,-0.0189 c -0.160612,-1.82343 -0.201553,-3.48307 -0.201553,-5.61042 l 0,-5.71275 1.661237,0 0,13.65206 -1.782483,0 -4.334963,-6.92681 c -0.951078,-1.51952 -1.86279,-3.0784 -2.5509038,-4.55698 l -0.061411,0.0204 c 0.1007764,1.72109 0.1417169,3.36027 0.1417169,5.62931 l 0,5.83401 -1.6612369,0 z"
         style="fill:#00283f;fill-opacity:1;fill-rule:nonzero;stroke:none"
         id="path3832"
         inkscape:connector-curvature="0" />
      <path
         d="m 24.083885,550.55307 -4.152305,0 0,-1.49904 10.107563,0 0,1.49904 -4.1712,0 0,12.15302 -1.784058,0 0,-12.15302 z"
         style="fill:#00283f;fill-opacity:1;fill-rule:nonzero;stroke:none"
         id="path3836"
         inkscape:connector-curvature="0" />
      <path
         d="m 33.325715,555.4538 1.802954,0 c 1.88326,0 3.078406,-1.03139 3.078406,-2.59185 0,-1.76201 -1.277027,-2.532 -3.141391,-2.55248 -0.850302,0 -1.456535,0.0819 -1.739969,0.16219 l 0,4.98214 z m -1.762013,-6.21665 c 0.889667,-0.18266 2.166694,-0.28501 3.38231,-0.28501 1.88326,0 3.097301,0.34484 3.949177,1.11484 0.689689,0.6078 1.073899,1.53999 1.073899,2.59342 0,1.80137 -1.13531,2.99653 -2.572949,3.48151 l 0,0.063 c 1.053429,0.36375 1.680133,1.3353 2.004507,2.75404 0.447196,1.90372 0.771569,3.22012 1.053429,3.74605 l -1.823424,0 c -0.220449,-0.38421 -0.525927,-1.55889 -0.910137,-3.26106 -0.406256,-1.88327 -1.135311,-2.59185 -2.733562,-2.65168 l -1.661237,0 0,5.91274 -1.762013,0 0,-13.46783 z"
         style="fill:#00283f;fill-opacity:1;fill-rule:nonzero;stroke:none"
         id="path3840"
         inkscape:connector-curvature="0" />
      <path
         d="m 43.59767,555.9613 c 0,2.9178 1.580931,5.5301 4.355432,5.5301 2.794973,0 4.375903,-2.57295 4.375903,-5.67181 0,-2.7131 -1.417169,-5.55058 -4.355432,-5.55058 -2.916219,0 -4.375903,2.6942 -4.375903,5.69229 m 10.595699,-0.22359 c 0,4.70028 -2.857956,7.19134 -6.341043,7.19134 -3.605908,0 -6.136341,-2.79654 -6.136341,-6.92838 0,-4.33496 2.694196,-7.1693 6.337894,-7.1693 3.727154,0 6.13949,2.85481 6.13949,6.90634"
         style="fill:#00283f;fill-opacity:1;fill-rule:nonzero;stroke:none"
         id="path3844"
         inkscape:connector-curvature="0" />
      <path
         d="m 62.545532,561.30796 c 0.445621,0.0819 1.092795,0.10081 1.780909,0.10081 3.766521,0 5.813542,-2.10528 5.813542,-5.79149 0.02047,-3.22013 -1.802954,-5.26715 -5.528533,-5.26715 -0.913287,0 -1.601401,0.0819 -2.065918,0.18265 l 0,10.77521 z M 60.78352,549.23683 c 1.073898,-0.16376 2.34935,-0.285 3.746049,-0.285 2.532009,0 4.334962,0.58733 5.528533,1.70217 1.215616,1.11327 1.925775,2.69419 1.925775,4.90183 0,2.22811 -0.688114,4.05153 -1.96514,5.30651 -1.275452,1.27545 -3.382311,1.96515 -6.03714,1.96515 -1.254982,0 -2.30841,-0.0598 -3.198077,-0.1622 l 0,-13.42846 z"
         style="fill:#00283f;fill-opacity:1;fill-rule:nonzero;stroke:none"
         id="path3848"
         inkscape:connector-curvature="0" />
      <path
         d="m 81.345852,556.30567 -5.304935,0 0,4.92073 5.914317,0 0,1.47857 -7.676331,0 0,-13.65048 7.370853,0 0,1.47858 -5.608839,0 0,4.31292 5.304935,0 0,1.45968 z"
         style="fill:#00283f;fill-opacity:1;fill-rule:nonzero;stroke:none"
         id="path3852"
         inkscape:connector-curvature="0" />
      <path
         inkscape:connector-curvature="0"
         id="path3854"
         style="fill:#00283f;fill-opacity:1;fill-rule:nonzero;stroke:none"
         d="m 90.304407,562.70545 -1.762014,0 0,-13.65205 1.762014,0 0,13.65205 z" />
      <path
         d="m 93.386276,562.70577 0,-13.65206 1.9242,0 4.374329,6.90789 c 1.012485,1.59827 1.802955,3.03747 2.451705,4.43417 l 0.0394,-0.0189 c -0.16219,-1.82343 -0.20313,-3.48307 -0.20313,-5.61042 l 0,-5.71275 1.66124,0 0,13.65206 -1.78091,0 -4.33654,-6.92681 c -0.949503,-1.51952 -1.862789,-3.0784 -2.550903,-4.55698 l -0.05983,0.0204 c 0.10078,1.72109 0.141716,3.36027 0.141716,5.62931 l 0,5.83401 -1.661237,0 z"
         style="fill:#00283f;fill-opacity:1;fill-rule:nonzero;stroke:none"
         id="path3858"
         inkscape:connector-curvature="0" />
      <path
         d="m 106.71837,562.70577 0,-13.65206 1.92578,0 4.37274,6.90789 c 1.01407,1.59827 1.80453,3.03747 2.4517,4.43417 l 0.0394,-0.0189 c -0.16062,-1.82343 -0.20155,-3.48307 -0.20155,-5.61042 l 0,-5.71275 1.66124,0 0,13.65206 -1.78248,0 -4.33497,-6.92681 c -0.95108,-1.51952 -1.86279,-3.0784 -2.55091,-4.55698 l -0.0615,0.0204 c 0.10081,1.72109 0.14172,3.36027 0.14172,5.62931 l 0,5.83401 -1.66124,0 z"
         style="fill:#00283f;fill-opacity:1;fill-rule:nonzero;stroke:none"
         id="path3862"
         inkscape:connector-curvature="0" />
      <path
         d="m 121.12372,555.9613 c 0,2.9178 1.58094,5.5301 4.35544,5.5301 2.79497,0 4.3759,-2.57295 4.3759,-5.67181 0,-2.7131 -1.41717,-5.55058 -4.35543,-5.55058 -2.91622,0 -4.37591,2.6942 -4.37591,5.69229 m 10.59571,-0.22359 c 0,4.70028 -2.85796,7.19134 -6.34104,7.19134 -3.6059,0 -6.13634,-2.79654 -6.13634,-6.92838 0,-4.33496 2.6942,-7.1693 6.3379,-7.1693 3.72715,0 6.13948,2.85481 6.13948,6.90634"
         style="fill:#00283f;fill-opacity:1;fill-rule:nonzero;stroke:none"
         id="path3866"
         inkscape:connector-curvature="0" />
      <path
         d="m 137.01144,562.70577 -4.45621,-13.65206 1.90374,0 2.12575,6.72525 c 0.58892,1.84232 1.09437,3.50355 1.45969,5.10496 l 0.0409,0 c 0.38422,-1.58093 0.94951,-3.30201 1.55889,-5.08606 l 2.30999,-6.74415 1.88168,0 -4.88135,13.65206 -1.94311,0 z"
         style="fill:#00283f;fill-opacity:1;fill-rule:nonzero;stroke:none"
         id="path3870"
         inkscape:connector-curvature="0" />
      <path
         d="m 150.84948,557.03458 -1.33686,-3.92871 c -0.30391,-0.89283 -0.50704,-1.70218 -0.71017,-2.49265 l -0.0392,0 c -0.20313,0.81093 -0.42516,1.64076 -0.6897,2.4706 l -1.33528,3.95076 4.11136,0 z m -4.47669,1.3778 -1.41716,4.29401 -1.82343,0 4.6373,-13.65206 2.1289,0 4.65776,13.65206 -1.88483,0 -1.45811,-4.29401 -4.84043,0 z"
         style="fill:#00283f;fill-opacity:1;fill-rule:nonzero;stroke:none"
         id="path3874"
         inkscape:connector-curvature="0" />
      <path
         d="m 165.80234,562.25984 c -0.64718,0.32436 -1.94466,0.64873 -3.60591,0.64873 -3.84682,0 -6.74414,-2.43123 -6.74414,-6.90791 0,-4.27197 2.89732,-7.1693 7.12835,-7.1693 1.70217,0 2.77608,0.36374 3.24217,0.60623 l -0.42516,1.43922 c -0.66921,-0.32438 -1.6203,-0.56687 -2.7556,-0.56687 -3.19965,0 -5.32698,2.04545 -5.32698,5.63088 0,3.34137 1.92578,5.48917 5.24668,5.48917 1.0739,0 2.16669,-0.2236 2.87685,-0.56844 l 0.36374,1.39827 z"
         style="fill:#00283f;fill-opacity:1;fill-rule:nonzero;stroke:none"
         id="path3878"
         inkscape:connector-curvature="0" />
      <path
         inkscape:connector-curvature="0"
         id="path3880"
         style="fill:#00283f;fill-opacity:1;fill-rule:nonzero;stroke:none"
         d="m 169.77766,562.70545 -1.76201,0 0,-13.65205 1.76201,0 0,13.65205 z" />
      <path
         d="m 181.24271,545.91531 -2.57137,2.34777 -1.45969,0 1.88484,-2.34777 2.14622,0 z m -7.31259,10.04615 c 0,2.91622 1.57935,5.53011 4.35543,5.53011 2.79498,0 4.37433,-2.57295 4.37433,-5.67183 0,-2.71467 -1.41717,-5.55058 -4.35385,-5.55058 -2.91623,0 -4.37591,2.69419 -4.37591,5.6923 m 10.59412,-0.2236 c 0,4.70027 -2.8548,7.19134 -6.33789,7.19134 -3.60748,0 -6.13949,-2.79654 -6.13949,-6.92838 0,-4.33496 2.6942,-7.16929 6.34104,-7.16929 3.72558,0 6.13634,2.8548 6.13634,6.90633"
         style="fill:#00283f;fill-opacity:1;fill-rule:nonzero;stroke:none"
         id="path3884"
         inkscape:connector-curvature="0" />
      <path
         d="m 186.82006,562.70577 0,-13.65206 1.92419,0 4.37591,6.90789 c 1.01249,1.59827 1.80295,3.03747 2.45171,4.43417 l 0.0393,-0.0189 c -0.16375,-1.82343 -0.20312,-3.48307 -0.20312,-5.61042 l 0,-5.71275 1.66124,0 0,13.65206 -1.78249,0 -4.33495,-6.92681 c -0.95109,-1.51952 -1.86438,-3.0784 -2.55249,-4.55698 l -0.0598,0.0204 c 0.10081,1.72109 0.14171,3.36027 0.14171,5.62931 l 0,5.83401 -1.66123,0 z"
         style="fill:#00283f;fill-opacity:1;fill-rule:nonzero;stroke:none"
         id="path3888"
         inkscape:connector-curvature="0" />
      <path
         d="m 206.55366,562.70577 0,-5.79307 -4.31449,-7.85899 2.00608,0 1.9242,3.76809 c 0.52593,1.03296 0.93218,1.8628 1.35576,2.81544 l 0.0426,0 c 0.3842,-0.89281 0.8503,-1.78248 1.37623,-2.81544 l 1.96514,-3.76809 2.0045,0 -4.57587,7.8401 0,5.81196 -1.78407,0 z"
         style="fill:#00283f;fill-opacity:1;fill-rule:nonzero;stroke:none"
         id="path3892"
         inkscape:connector-curvature="0" />
      <path
         d="m -10.970102,574.86917 -4.152304,0 0,-1.49905 10.1059877,0 0,1.49905 -4.1711998,0 0,12.15302 -1.7824839,0 0,-12.15302 z"
         style="fill:#00283f;fill-opacity:1;fill-rule:nonzero;stroke:none"
         id="path3896"
         inkscape:connector-curvature="0" />
      <path
         d="m -1.7298463,579.7699 1.80452839,0 c 1.88168531,0 3.07840561,-1.03139 3.07840561,-2.59185 0,-1.76201 -1.2770265,-2.532 -3.14139089,-2.55248 -0.85187597,0 -1.45653461,0.0803 -1.74154311,0.16218 l 0,4.98215 z m -1.7620132,-6.21665 c 0.8896671,-0.18266 2.1666937,-0.28501 3.38230964,-0.28501 1.88483456,0 3.09887586,0.34484 3.95075176,1.11483 0.6881143,0.60781 1.0738991,1.53999 1.0738991,2.59343 0,1.80137 -1.1353097,2.99652 -2.5745234,3.4815 l 0,0.063 c 1.0550035,0.36375 1.681707,1.3353 2.0045066,2.75403 0.4471955,1.90373 0.7715697,3.22013 1.0550035,3.74606 l -1.823424,0 c -0.2220231,-0.38421 -0.5259271,-1.55889 -0.9101373,-3.26107 -0.406255,-1.88326 -1.1353097,-2.59184 -2.73513583,-2.65168 l -1.66123687,0 0,5.91275 -1.7620132,0 0,-13.46783 z"
         style="fill:#00283f;fill-opacity:1;fill-rule:nonzero;stroke:none"
         id="path3900"
         inkscape:connector-curvature="0" />
      <path
         d="m 14.194881,581.35067 -1.336864,-3.9287 c -0.303904,-0.89282 -0.507031,-1.70218 -0.710158,-2.49264 l -0.03937,0 c -0.203128,0.81091 -0.425151,1.64075 -0.689689,2.47059 l -1.335288,3.95075 4.111364,0 z m -4.4766798,1.37781 -1.4171689,4.29401 -1.8234238,0 4.6372915,-13.65206 2.128902,0 4.657763,13.65206 -1.884836,0 -1.458109,-4.29401 -4.8404188,0 z"
         style="fill:#00283f;fill-opacity:1;fill-rule:nonzero;stroke:none"
         id="path3904"
         inkscape:connector-curvature="0" />
      <path
         d="m 19.912055,587.02186 0,-13.65205 1.9242,0 4.375902,6.9079 c 1.012489,1.59826 1.802954,3.03746 2.451702,4.43416 l 0.03937,-0.0189 c -0.163762,-1.82342 -0.203128,-3.48308 -0.203128,-5.61041 l 0,-5.71276 1.661237,0 0,13.65205 -1.782483,0 -4.334963,-6.9268 c -0.951078,-1.51952 -1.864364,-3.0784 -2.552478,-4.55698 l -0.05983,0.0204 c 0.100781,1.72108 0.141717,3.36027 0.141717,5.63089 l 0,5.83243 -1.661237,0 z"
         style="fill:#00283f;fill-opacity:1;fill-rule:nonzero;stroke:none"
         id="path3908"
         inkscape:connector-curvature="0" />
      <path
         d="m 33.001184,584.87517 c 0.78889,0.48656 1.94467,0.88966 3.160286,0.88966 1.801379,0 2.854808,-0.95108 2.854808,-2.32731 0,-1.27702 -0.729055,-2.00608 -2.571374,-2.71466 -2.228104,-0.79047 -3.605908,-1.94467 -3.605908,-3.86887 0,-2.12576 1.763589,-3.70669 4.415269,-3.70669 1.398273,0 2.409187,0.32438 3.018569,0.66922 l -0.484986,1.43765 c -0.447195,-0.24407 -1.358907,-0.64718 -2.593419,-0.64718 -1.864365,0 -2.572949,1.11327 -2.572949,2.04387 0,1.27703 0.831405,1.90373 2.714666,2.63278 2.309985,0.89283 3.484661,2.00609 3.484661,4.0106 0,2.10685 -1.560461,3.93027 -4.780584,3.93027 -1.317966,0 -2.754031,-0.38578 -3.48466,-0.87234 l 0.445621,-1.477 z"
         style="fill:#00283f;fill-opacity:1;fill-rule:nonzero;stroke:none"
         id="path3912"
         inkscape:connector-curvature="0" />
      <path
         d="m 43.234718,573.36981 7.353531,0 0,1.47858 -5.591519,0 0,4.53651 5.164794,0 0,1.45969 -5.164794,0 0,6.17727 -1.762012,0 0,-13.65205 z"
         style="fill:#00283f;fill-opacity:1;fill-rule:nonzero;stroke:none"
         id="path3916"
         inkscape:connector-curvature="0" />
      <path
         d="m 60.171303,580.62177 -5.30651,0 0,4.92073 5.914317,0 0,1.47857 -7.676331,0 0,-13.65048 7.372427,0 0,1.47857 -5.610413,0 0,4.31293 5.30651,0 0,1.45968 z"
         style="fill:#00283f;fill-opacity:1;fill-rule:nonzero;stroke:none"
         id="path3920"
         inkscape:connector-curvature="0" />
      <path
         d="m 64.83363,579.7699 1.802954,0 c 1.884835,0 3.078406,-1.03139 3.078406,-2.59185 0,-1.76201 -1.277027,-2.532 -3.139817,-2.55248 -0.850301,0 -1.458109,0.0803 -1.741543,0.16218 l 0,4.98215 z m -1.762013,-6.21665 c 0.891242,-0.18266 2.168269,-0.28501 3.38231,-0.28501 1.884835,0 3.098876,0.34484 3.949177,1.11483 0.689689,0.60781 1.073899,1.53999 1.073899,2.59343 0,1.80137 -1.133735,2.99652 -2.571374,3.4815 l 0,0.063 c 1.051854,0.36375 1.680133,1.3353 2.004507,2.75403 0.447196,1.90373 0.769995,3.22013 1.051854,3.74606 l -1.821849,0 c -0.222024,-0.38421 -0.527502,-1.55889 -0.911712,-3.26107 -0.404681,-1.88326 -1.135311,-2.59184 -2.733562,-2.65168 l -1.661237,0 0,5.91275 -1.762013,0 0,-13.46783 z"
         style="fill:#00283f;fill-opacity:1;fill-rule:nonzero;stroke:none"
         id="path3924"
         inkscape:connector-curvature="0" />
      <path
         d="m 81.042892,580.62177 -5.306509,0 0,4.92073 5.914318,0 0,1.47857 -7.676331,0 0,-13.65048 7.370853,0 0,1.47857 -5.60884,0 0,4.31293 5.306509,0 0,1.45968 z"
         style="fill:#00283f;fill-opacity:1;fill-rule:nonzero;stroke:none"
         id="path3928"
         inkscape:connector-curvature="0" />
      <path
         d="m 83.943051,587.02186 0,-13.65205 1.9242,0 4.375902,6.9079 c 1.012489,1.59826 1.802954,3.03746 2.451702,4.43416 l 0.03937,-0.0189 c -0.163763,-1.82342 -0.203128,-3.48308 -0.203128,-5.61041 l 0,-5.71276 1.661237,0 0,13.65205 -1.782484,0 -4.334962,-6.9268 c -0.951078,-1.51952 -1.864365,-3.0784 -2.552479,-4.55698 l -0.05983,0.0204 c 0.100781,1.72108 0.141717,3.36027 0.141717,5.63089 l 0,5.83243 -1.661236,0 z"
         style="fill:#00283f;fill-opacity:1;fill-rule:nonzero;stroke:none"
         id="path3932"
         inkscape:connector-curvature="0" />
      <path
         d="m 106.81521,586.57594 c -0.64717,0.32437 -1.94467,0.64873 -3.60591,0.64873 -3.846823,0 -6.744146,-2.43122 -6.744146,-6.9079 0,-4.27199 2.897323,-7.16931 7.128356,-7.16931 1.70218,0 2.77608,0.36375 3.24217,0.60624 l -0.42515,1.4392 c -0.66922,-0.32437 -1.6203,-0.56686 -2.75561,-0.56686 -3.19965,0 -5.326976,2.04544 -5.326976,5.63088 0,3.34138 1.925776,5.48918 5.246676,5.48918 1.07389,0 2.16669,-0.22361 2.87686,-0.56846 l 0.36373,1.39827 z"
         style="fill:#00283f;fill-opacity:1;fill-rule:nonzero;stroke:none"
         id="path3936"
         inkscape:connector-curvature="0" />
      <path
         inkscape:connector-curvature="0"
         id="path3938"
         style="fill:#00283f;fill-opacity:1;fill-rule:nonzero;stroke:none"
         d="m 110.79037,587.02249 -1.76202,0 0,-13.65206 1.76202,0 0,13.65206 z" />
      <path
         d="m 120.55623,581.35067 -1.33685,-3.9287 c -0.30392,-0.89282 -0.50704,-1.70218 -0.71016,-2.49264 l -0.0393,0 c -0.20312,0.81091 -0.42516,1.64075 -0.68968,2.47059 l -1.3353,3.95075 4.11136,0 z m -4.47667,1.37781 -1.41718,4.29401 -1.82341,0 4.63729,-13.65206 2.1289,0 4.65775,13.65206 -1.88483,0 -1.45811,-4.29401 -4.84041,0 z"
         style="fill:#00283f;fill-opacity:1;fill-rule:nonzero;stroke:none"
         id="path3942"
         inkscape:connector-curvature="0" />
      <path
         d="m 132.3307,574.86917 -4.1523,0 0,-1.49905 10.10598,0 0,1.49905 -4.17277,0 0,12.15302 -1.78091,0 0,-12.15302 z"
         style="fill:#00283f;fill-opacity:1;fill-rule:nonzero;stroke:none"
         id="path3946"
         inkscape:connector-curvature="0" />
      <path
         d="m 146.87762,580.62177 -5.30808,0 0,4.92073 5.91432,0 0,1.47857 -7.67633,0 0,-13.65048 7.37242,0 0,1.47857 -5.61041,0 0,4.31293 5.30808,0 0,1.45968 z"
         style="fill:#00283f;fill-opacity:1;fill-rule:nonzero;stroke:none"
         id="path3950"
         inkscape:connector-curvature="0" />
      <path
         d="m 159.31769,586.57594 c -0.64875,0.32437 -1.94467,0.64873 -3.6059,0.64873 -3.8484,0 -6.74573,-2.43122 -6.74573,-6.9079 0,-4.27199 2.89733,-7.16931 7.12994,-7.16931 1.70217,0 2.77608,0.36375 3.24059,0.60624 l -0.42516,1.4392 c -0.66764,-0.32437 -1.6203,-0.56686 -2.75561,-0.56686 -3.19808,0 -5.32698,2.04544 -5.32698,5.63088 0,3.34138 1.92578,5.48918 5.24667,5.48918 1.0739,0 2.16828,-0.22361 2.87686,-0.56846 l 0.36532,1.39827 z"
         style="fill:#00283f;fill-opacity:1;fill-rule:nonzero;stroke:none"
         id="path3954"
         inkscape:connector-curvature="0" />
      <path
         d="m 161.52895,587.02186 0,-13.65205 1.92577,0 4.37433,6.9079 c 1.01407,1.59826 1.80295,3.03746 2.4517,4.43416 l 0.0393,-0.0189 c -0.1622,-1.82342 -0.20155,-3.48308 -0.20155,-5.61041 l 0,-5.71276 1.66123,0 0,13.65205 -1.78406,0 -4.33339,-6.9268 c -0.95265,-1.51952 -1.86436,-3.0784 -2.55247,-4.55698 l -0.0614,0.0204 c 0.10081,1.72108 0.14172,3.36027 0.14172,5.63089 l 0,5.83243 -1.66124,0 z"
         style="fill:#00283f;fill-opacity:1;fill-rule:nonzero;stroke:none"
         id="path3958"
         inkscape:connector-curvature="0" />
      <path
         d="m 175.93604,580.2774 c 0,2.91779 1.57936,5.53011 4.35544,5.53011 2.79497,0 4.37431,-2.57295 4.37431,-5.67182 0,-2.7131 -1.41717,-5.55058 -4.35543,-5.55058 -2.91464,0 -4.37432,2.6942 -4.37432,5.69229 m 10.59413,-0.2236 c 0,4.70029 -2.85638,7.19135 -6.33947,7.19135 -3.60749,0 -6.13791,-2.79655 -6.13791,-6.92838 0,-4.33496 2.69418,-7.1693 6.33946,-7.1693 3.72559,0 6.13792,2.85638 6.13792,6.90633"
         style="fill:#00283f;fill-opacity:1;fill-rule:nonzero;stroke:none"
         id="path3962"
         inkscape:connector-curvature="0" />
      <path
         d="m 188.82362,573.36981 1.76201,0 0,12.17191 5.83401,0 0,1.48014 -7.59602,0 0,-13.65205 z"
         style="fill:#00283f;fill-opacity:1;fill-rule:nonzero;stroke:none"
         id="path3966"
         inkscape:connector-curvature="0" />
      <path
         d="m 205.98475,570.23141 -2.57296,2.34777 -1.45968,0 1.88642,-2.34777 2.14622,0 z m -7.31417,10.04615 c 0,2.91621 1.58092,5.5301 4.35543,5.5301 2.79497,0 4.3759,-2.57294 4.3759,-5.67182 0,-2.71467 -1.41717,-5.55058 -4.35386,-5.55058 -2.91779,0 -4.37747,2.69419 -4.37747,5.6923 m 10.59569,-0.2236 c 0,4.70027 -2.85638,7.19134 -6.33946,7.19134 -3.60591,0 -6.1379,-2.79654 -6.1379,-6.92838 0,-4.33496 2.69419,-7.1693 6.33944,-7.1693 3.72716,0 6.13792,2.85638 6.13792,6.90634"
         style="fill:#00283f;fill-opacity:1;fill-rule:nonzero;stroke:none"
         id="path3970"
         inkscape:connector-curvature="0" />
      <path
         d="m 221.95088,586.41438 c -0.78889,0.28343 -2.34777,0.74952 -4.19325,0.74952 -2.06591,0 -3.76809,-0.52593 -5.1018,-1.80296 -1.17468,-1.1353 -1.90531,-2.95716 -1.90531,-5.0829 0.0189,-4.07201 2.81544,-7.04963 7.39289,-7.04963 1.57936,0 2.81545,0.34484 3.40279,0.62669 l -0.42515,1.43922 c -0.72906,-0.32437 -1.64076,-0.58891 -3.01857,-0.58891 -3.32247,0 -5.48917,2.06749 -5.48917,5.49074 0,3.46262 2.08796,5.50964 5.26714,5.50964 1.15264,0 1.9431,-0.16376 2.34935,-0.36531 l 0,-4.07201 -2.77449,0 0,-1.41717 4.49557,0 0,6.56308 z"
         style="fill:#00283f;fill-opacity:1;fill-rule:nonzero;stroke:none"
         id="path3974"
         inkscape:connector-curvature="0" />
      <path
         inkscape:connector-curvature="0"
         id="path3976"
         style="fill:#00283f;fill-opacity:1;fill-rule:nonzero;stroke:none"
         d="m 226.41245,587.02249 -1.76202,0 0,-13.65206 1.76202,0 0,13.65206 z" />
      <path
         d="m 239.03343,586.57594 c -0.64874,0.32437 -1.94308,0.64873 -3.60431,0.64873 -3.84841,0 -6.74573,-2.43122 -6.74573,-6.9079 0,-4.27199 2.89732,-7.16931 7.12992,-7.16931 1.70062,0 2.77451,0.36375 3.2406,0.60624 l -0.42672,1.4392 c -0.66765,-0.32437 -1.61872,-0.56686 -2.75404,-0.56686 -3.19964,0 -5.32698,2.04544 -5.32698,5.63088 0,3.34138 1.92421,5.48918 5.24511,5.48918 1.07389,0 2.16826,-0.22361 2.87843,-0.56846 l 0.36372,1.39827 z"
         style="fill:#00283f;fill-opacity:1;fill-rule:nonzero;stroke:none"
         id="path3980"
         inkscape:connector-curvature="0" />
      <path
         d="m 248.01072,581.35067 -1.33686,-3.9287 c -0.30233,-0.89282 -0.50545,-1.70218 -0.70858,-2.49264 l -0.0394,0 c -0.20314,0.81091 -0.42672,1.64075 -0.68968,2.47059 l -1.33687,3.95075 4.11136,0 z m -4.4751,1.37781 -1.41715,4.29401 -1.82344,0 4.63729,-13.65206 2.12732,0 4.65779,13.65206 -1.88328,0 -1.4581,-4.29401 -4.84043,0 z"
         style="fill:#00283f;fill-opacity:1;fill-rule:nonzero;stroke:none"
         id="path3984"
         inkscape:connector-curvature="0" />
    </g>
  </g>
</svg>
