<?xml version="1.0" encoding="UTF-8" standalone="no"?>
<!-- Created with Inkscape (http://www.inkscape.org/) -->

<svg
   xmlns:dc="http://purl.org/dc/elements/1.1/"
   xmlns:cc="http://creativecommons.org/ns#"
   xmlns:rdf="http://www.w3.org/1999/02/22-rdf-syntax-ns#"
   xmlns:svg="http://www.w3.org/2000/svg"
   xmlns="http://www.w3.org/2000/svg"
   xmlns:sodipodi="http://sodipodi.sourceforge.net/DTD/sodipodi-0.dtd"
   xmlns:inkscape="http://www.inkscape.org/namespaces/inkscape"
   width="253.12695"
   height="168.439"
   viewBox="0 0 253.12695 168.43899"
   id="svg6820"
   version="1.1"
   inkscape:version="0.91 r13725"
   sodipodi:docname="CITT Logo.svg">
  <defs
     id="defs6822" />
  <sodipodi:namedview
     id="base"
     pagecolor="#ffffff"
     bordercolor="#666666"
     borderopacity="1.0"
     inkscape:pageopacity="0.0"
     inkscape:pageshadow="2"
     inkscape:zoom="1"
     inkscape:cx="126.56348"
     inkscape:cy="84.219498"
     inkscape:document-units="px"
     inkscape:current-layer="layer1"
     showgrid="false"
     fit-margin-top="10"
     fit-margin-left="10"
     fit-margin-right="10"
     fit-margin-bottom="10"
     units="px"
     inkscape:window-width="1366"
     inkscape:window-height="715"
     inkscape:window-x="-8"
     inkscape:window-y="22"
     inkscape:window-maximized="1" />
  <metadata
     id="metadata6825">
    <rdf:RDF>
      <cc:Work
         rdf:about="">
        <dc:format>image/svg+xml</dc:format>
        <dc:type
           rdf:resource="http://purl.org/dc/dcmitype/StillImage" />
        <dc:title></dc:title>
      </cc:Work>
    </rdf:RDF>
  </metadata>
  <g
     inkscape:label="Capa 1"
     inkscape:groupmode="layer"
     id="layer1"
     transform="translate(25.098786,-377.2453)">
    <g
       id="g7588">
      <path
         d="m 58.707367,487.94302 c 2.01238,0 3.706684,0.68811 5.079763,2.05962 1.371504,1.36835 2.054895,3.06423 2.054895,5.07189 0,11.16257 -3.933431,20.76782 -11.797143,28.81261 -8.052668,7.86687 -17.65635,11.79715 -28.811044,11.79715 -11.160992,0 -20.6749188,-3.93028 -28.5339074,-11.79715 -7.8684366,-8.04479 -11.7987166,-17.65004 -11.7987166,-28.81261 l 0,-66.94391 c 0,-11.15626 3.93028,-20.75995 11.7987166,-28.81104 7.8589886,-8.04795 17.3729154,-12.07428 28.5339074,-12.07428 11.154694,0 20.670196,4.02633 28.537057,12.07428 8.046371,7.86686 12.07113,17.37921 12.07113,28.53391 0,2.01709 -0.683391,3.70353 -2.054895,5.07661 -1.373079,1.36993 -3.067383,2.05805 -5.079763,2.05805 -2.010806,0 -3.703535,-0.68812 -5.075039,-2.05805 -1.368355,-1.37308 -2.054895,-3.05952 -2.054895,-5.07661 l 0,0.27713 c 0,-1.28017 -0.140142,-2.56035 -0.414128,-3.8421 -0.273986,-1.27703 -0.410979,-2.10214 -0.410979,-2.4706 -1.095944,-4.93962 -3.383884,-8.96123 -6.859098,-12.07428 -4.93962,-5.30178 -11.068088,-7.95818 -18.385403,-7.95818 -7.501548,0 -13.716621,2.6564 -18.6562415,7.95818 -4.9380461,4.93962 -7.40864377,11.07124 -7.40864377,18.38698 l 0,66.94391 c 0,7.13623 2.47059767,13.35603 7.40864377,18.65781 5.3033605,4.93963 11.5215825,7.4118 18.6562415,7.4118 7.317315,0 13.445783,-2.47217 18.385403,-7.4118 5.117554,-5.48444 7.684205,-11.70266 7.684205,-18.65781 0,-2.00766 0.68654,-3.70354 2.054895,-5.07189 1.371504,-1.37151 3.064233,-2.05962 5.075039,-2.05962"
         style="fill:#00283f;fill-opacity:1;fill-rule:nonzero;stroke:none"
         id="path3788"
         inkscape:connector-curvature="0" />
      <path
         d="m 208.28213,524.36411 c -1.46755,-0.97627 -3.0107,-1.62503 -4.64043,-1.95097 -6.51269,-0.32438 -11.80503,-2.60602 -15.8723,-6.8402 -4.5617,-4.557 -6.8402,-10.17371 -6.8402,-16.84858 l 0,-65.20551 1.68171,0 13.21588,0 c 1.95254,0 3.5004,-0.64875 4.64046,-1.9557 1.13845,-1.13845 1.71005,-2.60286 1.71005,-4.39952 0,-1.94939 -0.5716,-3.49411 -1.71005,-4.63414 -1.14006,-1.30222 -2.68792,-1.95569 -4.64046,-1.95569 l -13.21588,0 -1.68171,0 0,-10.98936 c 0,-1.62502 -0.65347,-3.09257 -1.95255,-4.39638 -1.30694,-1.30221 -2.85166,-1.95568 -4.63887,-1.95568 -1.62974,0 -3.25949,0.65347 -4.88608,1.95568 -1.30379,1.30381 -1.95255,2.77136 -1.95255,4.39638 l 0,10.98936 -14.87396,0 c -0.48971,-0.10237 -1.00462,-0.16534 -1.56204,-0.16534 l -30.75729,0 0,-10.82402 c 0,-1.62502 -0.65505,-3.09257 -1.95254,-4.39638 -1.30379,-1.30221 -2.8485,-1.95568 -4.64202,-1.95568 -1.62974,0 -3.25633,0.65347 -4.88292,1.95568 -1.30695,1.30381 -1.95097,2.77136 -1.95097,4.39638 l 0,10.82402 -28.515013,0 0,9.53755 c -0.606234,1.06445 -0.918011,2.28007 -0.918011,3.65314 l 0,102.08499 c 3.744475,-0.88337 6.841776,-2.78867 9.280881,-5.7112 2.442255,-2.92251 3.665744,-6.42134 3.665744,-10.49491 l 0.244068,-85.87888 c 0,-0.0819 -0.01109,-0.16375 -0.01417,-0.24406 l 16.256501,0 0,65.36927 c 0,9.60526 3.66102,18.23268 10.98462,25.88382 6.99925,7.17087 15.71168,10.74686 26.13259,10.74686 1.95728,0 3.50041,-0.57001 4.64202,-1.70848 1.13688,-1.13688 1.7069,-2.68632 1.7069,-4.64201 0,-2.27535 -0.89281,-3.82006 -2.68475,-4.64044 -1.4644,-0.97627 -3.01384,-1.62503 -4.64044,-1.95097 -6.51424,-0.32438 -11.80343,-2.60602 -15.87386,-6.8402 -4.55856,-4.557 -6.83863,-10.17371 -6.83863,-16.84858 l 0,-65.20551 47.19329,0 0,65.20551 c 0,9.60526 3.6626,18.23268 10.98781,25.88382 6.99922,7.17087 15.71323,10.74686 26.13259,10.74686 1.95254,0 3.49883,-0.57001 4.64042,-1.70848 1.1369,-1.13688 1.70849,-2.68632 1.70849,-4.64201 0,-2.27535 -0.89282,-3.82006 -2.68632,-4.64044"
         style="fill:#00283f;fill-opacity:1;fill-rule:nonzero;stroke:none"
         id="path3792"
         inkscape:connector-curvature="0" />
      <path
         d="m 96.723079,425.25755 c 0,7.41337 -6.008796,13.42374 -13.420589,13.42374 -7.411793,0 -13.423738,-6.01037 -13.423738,-13.42374 0,-7.41337 6.011945,-13.42059 13.423738,-13.42059 7.411793,0 13.420589,6.00722 13.420589,13.42059"
         style="fill:#fab41d;fill-opacity:1;fill-rule:nonzero;stroke:none"
         id="path3796"
         inkscape:connector-curvature="0" />
      <path
         d="m 91.464122,425.25755 c 0,4.32551 -3.506705,7.83537 -7.833793,7.83537 -4.32394,0 -7.829071,-3.50986 -7.829071,-7.83537 0,-4.32394 3.505131,-7.83222 7.829071,-7.83222 4.327088,0 7.833793,3.50828 7.833793,7.83222"
         style="fill:#00283f;fill-opacity:1;fill-rule:nonzero;stroke:none"
         id="path3800"
         inkscape:connector-curvature="0" />
      <path
         d="m 157.3494,425.25755 c 0,7.41337 -6.01195,13.42374 -13.42058,13.42374 -7.41494,0 -13.42532,-6.01037 -13.42532,-13.42374 0,-7.41337 6.01038,-13.42059 13.42532,-13.42059 7.40865,0 13.42058,6.00722 13.42058,13.42059"
         style="fill:#fab41d;fill-opacity:1;fill-rule:nonzero;stroke:none"
         id="path3804"
         inkscape:connector-curvature="0" />
      <path
         d="m 152.08886,425.25755 c 0,4.32551 -3.5067,7.83537 -7.83378,7.83537 -4.32551,0 -7.83066,-3.50986 -7.83066,-7.83537 0,-4.32394 3.50514,-7.83222 7.83066,-7.83222 4.32708,0 7.83378,3.50828 7.83378,7.83222"
         style="fill:#00283f;fill-opacity:1;fill-rule:nonzero;stroke:none"
         id="path3808"
         inkscape:connector-curvature="0" />
      <path
         d="m 218.02816,425.25755 c 0,7.41337 -6.01037,13.42374 -13.42374,13.42374 -7.41179,0 -13.42216,-6.01037 -13.42216,-13.42374 0,-7.41337 6.01037,-13.42059 13.42216,-13.42059 7.41337,0 13.42374,6.00722 13.42374,13.42059"
         style="fill:#fab41d;fill-opacity:1;fill-rule:nonzero;stroke:none"
         id="path3812"
         inkscape:connector-curvature="0" />
      <path
         d="m 212.7692,425.25755 c 0,4.32551 -3.50985,7.83537 -7.83379,7.83537 -4.32709,0 -7.83222,-3.50986 -7.83222,-7.83537 0,-4.32394 3.50513,-7.83222 7.83222,-7.83222 4.32394,0 7.83379,3.50828 7.83379,7.83222"
         style="fill:#00283f;fill-opacity:1;fill-rule:nonzero;stroke:none"
         id="path3816"
         inkscape:connector-curvature="0" />
    </g>
  </g>
</svg>
