<?xml version="1.0" encoding="UTF-8" standalone="no"?>
<svg
   xmlns:dc="http://purl.org/dc/elements/1.1/"
   xmlns:cc="http://creativecommons.org/ns#"
   xmlns:rdf="http://www.w3.org/1999/02/22-rdf-syntax-ns#"
   xmlns:svg="http://www.w3.org/2000/svg"
   xmlns="http://www.w3.org/2000/svg"
   xmlns:sodipodi="http://sodipodi.sourceforge.net/DTD/sodipodi-0.dtd"
   xmlns:inkscape="http://www.inkscape.org/namespaces/inkscape"
   width="870.00073"
   height="176.54001"
   id="svg3336"
   version="1.1"
   inkscape:version="0.91 r13725"
   sodipodi:docname="Windows 10.svg">
  <defs
     id="defs3360" />
  <sodipodi:namedview
     pagecolor="#ffffff"
     bordercolor="#666666"
     borderopacity="1"
     objecttolerance="10"
     gridtolerance="10"
     guidetolerance="10"
     inkscape:pageopacity="0"
     inkscape:pageshadow="2"
     inkscape:window-width="1366"
     inkscape:window-height="715"
     id="namedview3358"
     showgrid="false"
     fit-margin-top="10"
     fit-margin-left="10"
     fit-margin-right="10"
     fit-margin-bottom="10"
     inkscape:zoom="1"
     inkscape:cx="348.10993"
     inkscape:cy="53.580004"
     inkscape:window-x="-8"
     inkscape:window-y="22"
     inkscape:window-maximized="1"
     inkscape:current-layer="svg3336" />
  <metadata
     id="metadata37">image/svg+xml<rdf:RDF>
  <cc:Work
     rdf:about="">
    <dc:format>image/svg+xml</dc:format>
    <dc:type
       rdf:resource="http://purl.org/dc/dcmitype/StillImage" />
    <dc:title></dc:title>
  </cc:Work>
</rdf:RDF>
</metadata>
  <g
     id="g3339"
     transform="matrix(1.7882111,0,0,1.7882111,10.000002,9.9284716)">
    <title
       id="title3341">Layer 1</title>
    <g
       id="#00adefff">
      <path
         id="path5"
         d="M 40,6.91 C 55.75,4.5 71.529999,2.23 87.309998,0.04 c 0.01,13.83 0,27.650001 0.01,41.48 -15.769997,0.06 -31.540001,0.299999 -47.32,0.349998 -0.01,-11.66 -0.01,-23.309999 0,-34.960009 l 0,10e-6 z"
         inkscape:connector-curvature="0"
         style="fill:#0078d6" />
      <path
         id="path7"
         d="M 0,12.49 C 11.86,10.66 23.77,9.08 35.68,7.59 35.69,19.059999 35.69,30.52 35.7,41.990002 23.799998,41.98 11.899999,42.16 -1e-6,42.130001 l 0,-29.640001 0,0 z"
         inkscape:connector-curvature="0"
         style="fill:#0078d6" />
      <path
         id="path9"
         d="m 188.42,14.42 c 3.11999,-1.99 7.11,2.16 5.29001,5.280001 -0.87999,2.289999 -4.10001,3.16 -5.92002,1.48 -2.28,-1.550001 -1.95997,-5.67 0.63001,-6.76 l 0,0 z"
         inkscape:connector-curvature="0"
         style="fill:#0078d6" />
      <path
         id="path11"
         d="m 270.13,14.01 c 2,-0.01 4,-0.01 6,-0.01 0,18.669998 0,37.330002 0,56 -2,0 -3.98999,0 -5.98001,0 0.01,-2.029999 -0.03,-4.059998 -0.16998,-6.09 -4.33002,7.780003 -15.91,9.500004 -22.53001,3.73 -4.73,-4.07 -6.17,-10.689999 -5.92,-16.68 0.05,-6.079998 2.05,-12.540001 6.89,-16.509998 6.29001,-5.18 17.43998,-4.880001 21.75001,2.73 -0.08,-7.73 -0.01,-15.450001 -0.04,-23.17 M 257.21,36.150003 c -4.79999,0.759998 -8.04999,5.139999 -8.95,9.669998 -1.17997,5.459999 -0.97,11.779999 2.47,16.420002 3.72001,4.939999 11.93001,5.049999 15.91002,0.379997 2.70999,-2.82 3.47998,-6.860001 3.5,-10.639999 0.03,-3.989998 0.37,-8.489998 -2.28003,-11.82 C 265.52,36.830003 261.15,35.330003 257.21,36.150003 Z"
         inkscape:connector-curvature="0"
         style="fill:#0078d6" />
      <path
         id="path13"
         d="m 432.26578,16.15 c 0.53,-0.07 1.58999,-0.219999 2.11001,-0.29 0.03,18.040002 0.01,36.090001 0.01,54.14 -1.97998,0 -3.94998,0 -5.91998,0 0.04,-15.02 -0.10001,-30.049999 0.07,-45.07 -3.76999,2.610001 -7.84,4.84 -12.26999,6.08 0.03,-2 0.05,-4 0.07,-6 5.80011,-1.969999 11.0802,-5.15 15.93,-8.860001 z"
         inkscape:connector-curvature="0"
         style="fill:#0078d6" />
      <path
         id="path15"
         d="m 456.25577,16.129999 c 5.20001,-0.869999 10.97,1.030001 14.06,5.450001 4.39001,6.200001 4.80001,14.15 5.02002,21.480001 -0.15003,7.739998 -1,16.129997 -5.94001,22.439999 -4.55001,5.970001 -13.87002,7.370003 -19.97,2.980003 -4.95001,-3.57 -6.89001,-9.800003 -7.77002,-15.570004 -1,-8.57 -0.91,-17.560001 2.07001,-25.74 1.88,-5.549999 6.51999,-10.33 12.53,-11.040001 m -0.91998,5.370001 c -5.33002,2.16 -6.86002,8.459999 -7.60001,13.580002 -0.78,7.139999 -0.96002,14.5 0.73999,21.529999 0.85001,3.459999 2.64001,7.130001 6.07001,8.650002 3.88998,1.959999 9.09011,0.269997 11.13998,-3.570004 3.27002,-5.649998 3.35001,-12.43 3.39002,-18.779999 -0.13001,-6.189999 -0.38001,-12.85 -3.80002,-18.23 -2.03,-3.280001 -6.4,-4.6 -9.93997,-3.18 l 0,0 z"
         inkscape:connector-curvature="0"
         style="fill:#0078d6" />
      <path
         id="path17"
         d="m 113.95,16.99 c 2.25,0.01 4.5,0.01 6.76,0.04 3.51,12.679998 6.97,25.379999 10.49,38.069998 0.75,2.66 1.30999,5.380013 1.64,8.140011 3.66,-15.570011 8.66,-30.810009 12.86,-46.25001 1.94999,0.01 3.90001,0.01 5.85,0.02 3.09001,10.99 5.98001,22.030001 9.04,33.030001 1.13,4.379997 2.58999,8.700001 3.05,13.23 3.31,-15.549999 8.03,-30.790001 11.78,-46.240011 2.22,-0.03 4.44,-0.03 6.66,-0.03 -4.83999,17.690008 -9.88,35.330011 -14.78,53.000002 -2.40001,0 -4.81,0 -7.21,0 -3.55001,-12.69 -7.07,-25.38999 -10.66001,-38.059999 C 148.83,29.889991 148.58,27.76999 148.39,25.649991 c -0.28,1.83 -0.53999,3.68 -1.01,5.469999 -3.62999,12.92 -7.30999,25.820002 -10.84001,38.759993 C 134.14001,70.00998 131.74,70.019982 129.34,69.999978 124.19001,52.339982 119.08001,34.659982 113.95,16.989991 l 0,0 0,10e-6 z"
         inkscape:connector-curvature="0"
         style="fill:#0078d6" />
      <path
         id="path19"
         d="m 209.06,38.119999 c 3.43001,-6.110001 11.43001,-8.919998 17.88,-6.09 5.13001,2 7.04,7.940002 7.2,13 0.28,8.32 0.05,16.650002 0.11999,24.970001 -2,0 -4,0 -6,-0.01 C 228.17,62 228.47002,53.990002 228.12,46 c -0.15999,-3.959999 -1.84,-8.720001 -6.14998,-9.73 -6.29003,-1.900002 -12.57003,3.77 -12.76999,9.989998 -0.18,7.91 -0.01,15.830002 -0.07,23.740002 -2,0 -4,0 -6,0 0.01,-12.669998 0.01,-25.330002 0,-38 2,0 4.00997,0 6.00997,0 -0.01,2.040001 -0.02,4.080002 -0.08,6.119999 l -1e-5,0 z"
         inkscape:connector-curvature="0"
         style="fill:#0078d6" />
      <path
         id="path21"
         d="M 299.47,31.059999 C 304.82001,30.59 310.75,31.43 314.76999,35.299999 319.31,39.490001 320.66,46 320.41,51.950001 c -0.07,5.349998 -2.05001,10.779999 -5.97,14.509998 -8.17999,7.440002 -23.36999,5.809998 -28.56,-4.419998 -4.08001,-8.57 -3.26001,-20.43 4.19001,-26.940002 C 292.73999,32.840001 296.11999,31.81 299.47,31.06 m -1.07999,5.440001 C 289.57989,39.21 288.0899,50.720002 290.8399,58.290002 c 2.18988,6.720001 10.72998,9.699997 16.86011,6.559998 4.14993,-1.91 6.03998,-6.59 6.44,-10.879997 0.44989,-5.010002 0.05,-10.690002 -3.49002,-14.600002 -3,-3.379997 -8.08011,-4.110001 -12.25998,-2.869999 z"
         inkscape:connector-curvature="0"
         style="fill:#0078d6" />
      <path
         id="path23"
         d="m 390.45999,31.040001 c 3.75,-0.26 7.57001,0.1 11.10001,1.48 0.97998,1.860001 0.22,4.299999 0.44998,6.389999 C 397.79999,36.279999 392,34.599999 387.42999,37.279999 c -3.13,1.700001 -3.28,6.73 -0.23001,8.600002 4.37,2.829998 9.92001,3.57 13.80002,7.209999 4.28,4.119999 3.23999,12.039997 -1.77002,15.130001 -6.09,3.879997 -14.10999,3.5 -20.48999,0.540001 0,-2.240013 -0.01,-4.480003 -0.05,-6.720001 4.53998,3.459999 10.91998,5.379997 16.34998,2.919998 3.17001,-1.59 3.33001,-6.459999 0.54001,-8.509998 -4.37,-3.220001 -10.35999,-3.73 -14.23999,-7.75 -3.83002,-3.860001 -3.14002,-10.959999 1.13,-14.23 2.20999,-2.030003 5.19998,-2.640001 7.98999,-3.43 z"
         inkscape:connector-curvature="0"
         style="fill:#0078d6" />
      <path
         id="path25"
         d="m 187.13,32.009998 c 2,-0.01 4,-0.01 6,-0.01 0,12.669998 0,25.330002 0,38 -2,0 -4,0 -6,0 0,-12.669998 0.01,-25.330002 0,-37.990002 z"
         inkscape:connector-curvature="0"
         style="fill:#0078d6" />
      <path
         id="path27"
         d="m 322.91,32 c 2.07999,0 4.16999,0 6.26001,0 2.47998,9.049999 4.87998,18.119999 7.40998,27.16 0.51001,1.700001 0.70001,3.459999 0.88,5.219997 2.83002,-10.899998 6.41001,-21.599998 9.62,-32.389997 1.82,0.01 3.64001,0.02 5.47,0.03 2.75,10.8 6.17001,21.44 8.45001,32.350003 2.35001,-10.850002 5.69,-21.460003 8.29999,-32.250004 2.01001,-0.1 4.02002,-0.129999 6.04001,-0.15 -3.81,12.67 -7.45999,25.379999 -11.29001,38.030001 -2.07999,0 -4.15,0 -6.22,0 C 355.13001,59.700001 351.63001,49.599998 349.44,39.189999 346.82999,49.590001 343.20999,59.709999 340.23001,70 338.22,70 336.22,70 334.22,70 330.45999,57.330002 326.62,44.689999 322.91,32 l 0,0 z"
         inkscape:connector-curvature="0"
         style="fill:#0078d6" />
      <path
         id="path29"
         d="m 0,45.740002 c 11.89,-0.04 23.780001,0.149998 35.669998,0.129997 0,11.5 0.03,23.000004 0.01,34.500004 C 23.799999,78.610001 11.899999,77.07 0,75.459999 L 0,45.740002 Z"
         inkscape:connector-curvature="0"
         style="fill:#0078d6" />
      <path
         id="path31"
         d="m 39.93,46.200001 c 15.799999,0 31.589996,0 47.379997,0 0.02,13.790001 0,27.579998 0,41.380001 -15.75,-2.360001 -31.529999,-4.550003 -47.309998,-6.690002 -0.02,-11.559998 -0.05,-23.119999 -0.07,-34.689999 z"
         inkscape:connector-curvature="0"
         style="fill:#0078d6" />
    </g>
  </g>
</svg>
