<?xml version="1.0" encoding="UTF-8" standalone="no"?>
<!-- Created with Inkscape (http://www.inkscape.org/) -->

<svg
   xmlns:dc="http://purl.org/dc/elements/1.1/"
   xmlns:cc="http://creativecommons.org/ns#"
   xmlns:rdf="http://www.w3.org/1999/02/22-rdf-syntax-ns#"
   xmlns:svg="http://www.w3.org/2000/svg"
   xmlns="http://www.w3.org/2000/svg"
   xmlns:xlink="http://www.w3.org/1999/xlink"
   xmlns:sodipodi="http://sodipodi.sourceforge.net/DTD/sodipodi-0.dtd"
   xmlns:inkscape="http://www.inkscape.org/namespaces/inkscape"
   width="552"
   height="552"
   viewBox="0 0 552 552"
   id="svg3913"
   version="1.1"
   inkscape:version="0.91 r13725"
   sodipodi:docname="kuanto.svg">
  <defs
     id="defs3915">
    <filter
       style="color-interpolation-filters:sRGB"
       inkscape:label="Desaturate"
       x="0"
       y="0"
       width="1"
       height="1"
       inkscape:menu="Color"
       inkscape:menu-tooltip="Render in shades of gray by reducing saturation to zero"
       id="filter4990">
      <feColorMatrix
         type="saturate"
         values="0"
         id="feColorMatrix4992" />
    </filter>
    <linearGradient
       inkscape:collect="always"
       xlink:href="#linearGradient3049"
       id="linearGradient4226"
       gradientUnits="userSpaceOnUse"
       x1="444.87476"
       y1="-79.899498"
       x2="545.38525"
       y2="20.610992"
       gradientTransform="matrix(0.69216178,0,0,0.69216178,-66.726237,469.24781)" />
    <linearGradient
       id="linearGradient3049"
       inkscape:collect="always">
      <stop
         id="stop3051"
         offset="0"
         style="stop-color:#fed34a;stop-opacity:1" />
      <stop
         id="stop3053"
         offset="1"
         style="stop-color:#ffcc05;stop-opacity:1" />
    </linearGradient>
  </defs>
  <sodipodi:namedview
     id="base"
     pagecolor="#ffffff"
     bordercolor="#666666"
     borderopacity="1.0"
     inkscape:pageopacity="0.0"
     inkscape:pageshadow="2"
     inkscape:zoom="0.38691406"
     inkscape:cx="-6.3645669"
     inkscape:cy="36.499473"
     inkscape:document-units="px"
     inkscape:current-layer="layer1"
     showgrid="false"
     fit-margin-top="20"
     fit-margin-left="20"
     fit-margin-right="20"
     fit-margin-bottom="20"
     inkscape:window-width="1366"
     inkscape:window-height="715"
     inkscape:window-x="-8"
     inkscape:window-y="22"
     inkscape:window-maximized="1"
     units="px" />
  <metadata
     id="metadata3918">
    <rdf:RDF>
      <cc:Work
         rdf:about="">
        <dc:format>image/svg+xml</dc:format>
        <dc:type
           rdf:resource="http://purl.org/dc/dcmitype/StillImage" />
        <dc:title></dc:title>
      </cc:Work>
    </rdf:RDF>
  </metadata>
  <g
     inkscape:label="Capa 1"
     inkscape:groupmode="layer"
     id="layer1"
     transform="translate(201.47401,-40.190627)">
    <g
       id="g4765"
       transform="matrix(4.2666667,0,0,4.2666667,592.81506,-1869.1559)">
      <rect
         style="fill:#ffcc33;fill-opacity:0.99196209;stroke:none"
         id="rect4151"
         width="84.852814"
         height="84.852814"
         x="233.85194"
         y="405.64212"
         transform="matrix(0.70710678,0.70710678,-0.70710678,0.70710678,0,0)" />
      <rect
         transform="matrix(0.70710678,0.70710678,-0.70710678,0.70710678,0,0)"
         y="411.58524"
         x="239.79506"
         height="72.966599"
         width="72.966599"
         id="rect4153"
         style="fill:url(#linearGradient4226);fill-opacity:1;stroke:none" />
      <path
         inkscape:connector-curvature="0"
         style="fill:#ffffff;fill-opacity:1;stroke:none"
         d="m -132.99225,481.80532 c -3.13748,0 -5.66708,2.55123 -5.66708,5.6887 0,3.13748 2.5296,5.68871 5.66708,5.68871 3.13748,0 5.6887,-2.55123 5.6887,-5.68871 0,-3.13747 -2.55122,-5.6887 -5.6887,-5.6887 z m 26.97268,0.0649 -15.27082,27.36202 -8.67366,0 1.10314,-13.49716 -10.38243,0 -1.83855,22.68993 19.01281,0 10.27428,24.85293 12.004682,0 -12.199352,-29.50339 -18.32066,0 0.10815,-1.29781 17.60687,0 17.066113,-30.60652 -10.490573,0 z m -35.17048,37.83096 -1.92507,23.57676 10.40406,0 1.90344,-23.57676 -10.38243,0 z m 2.68213,3.48244 4.19623,0 -0.54075,6.74858 -4.19623,0 0.54075,-6.74858 z m -0.73542,8.91159 4.21786,0 -0.60564,7.4191 -4.21786,0 0.60564,-7.4191 z"
         id="path4155" />
      <path
         inkscape:connector-curvature="0"
         id="path4157"
         d="m -132.99225,481.80532 c -3.13748,0 -5.66708,2.55123 -5.66708,5.6887 0,3.13748 2.5296,5.68871 5.66708,5.68871 3.13748,0 5.6887,-2.55123 5.6887,-5.68871 0,-3.13747 -2.55122,-5.6887 -5.6887,-5.6887 z m 26.97268,0.0649 -15.27082,27.36202 -8.67366,0 1.10314,-13.49716 -10.38243,0 -1.83855,22.68993 19.01281,0 10.27428,24.85293 12.004682,0 -12.199352,-29.50339 -18.32066,0 0.10815,-1.29781 17.60687,0 17.066113,-30.60652 -10.490573,0 z m -35.17048,37.83096 -1.92507,23.57676 10.40406,0 1.90344,-23.57676 -10.38243,0 z m 2.68213,3.48244 4.19623,0 -0.54075,6.74858 -4.19623,0 0.54075,-6.74858 z m -0.73542,8.91159 4.21786,0 -0.60564,7.4191 -4.21786,0 0.60564,-7.4191 z"
         style="fill:#000033;fill-opacity:1;stroke:none" />
    </g>
  </g>
</svg>
