<?xml version="1.0" encoding="UTF-8" standalone="no"?>
<!-- Created with Inkscape (http://www.inkscape.org/) -->

<svg
   xmlns:dc="http://purl.org/dc/elements/1.1/"
   xmlns:cc="http://creativecommons.org/ns#"
   xmlns:rdf="http://www.w3.org/1999/02/22-rdf-syntax-ns#"
   xmlns:svg="http://www.w3.org/2000/svg"
   xmlns="http://www.w3.org/2000/svg"
   xmlns:sodipodi="http://sodipodi.sourceforge.net/DTD/sodipodi-0.dtd"
   xmlns:inkscape="http://www.inkscape.org/namespaces/inkscape"
   width="552"
   height="197.91437"
   viewBox="0 0 552.00001 197.91437"
   id="svg4791"
   version="1.1"
   inkscape:version="0.91 r13725"
   sodipodi:docname="servicios3ros.svg">
  <defs
     id="defs4793">
    <filter
       style="color-interpolation-filters:sRGB"
       inkscape:label="Desaturate"
       x="0"
       y="0"
       width="1"
       height="1"
       inkscape:menu="Color"
       inkscape:menu-tooltip="Render in shades of gray by reducing saturation to zero"
       id="filter4998">
      <feColorMatrix
         type="saturate"
         values="0"
         id="feColorMatrix5000" />
    </filter>
  </defs>
  <sodipodi:namedview
     id="base"
     pagecolor="#ffffff"
     bordercolor="#666666"
     borderopacity="1.0"
     inkscape:pageopacity="0.0"
     inkscape:pageshadow="2"
     inkscape:zoom="1.0969203"
     inkscape:cx="299.40463"
     inkscape:cy="83.826128"
     inkscape:document-units="px"
     inkscape:current-layer="layer1"
     showgrid="false"
     units="px"
     fit-margin-top="20"
     fit-margin-left="20"
     fit-margin-right="20"
     fit-margin-bottom="20"
     inkscape:window-width="1366"
     inkscape:window-height="715"
     inkscape:window-x="-8"
     inkscape:window-y="22"
     inkscape:window-maximized="1" />
  <metadata
     id="metadata4796">
    <rdf:RDF>
      <cc:Work
         rdf:about="">
        <dc:format>image/svg+xml</dc:format>
        <dc:type
           rdf:resource="http://purl.org/dc/dcmitype/StillImage" />
        <dc:title></dc:title>
      </cc:Work>
    </rdf:RDF>
  </metadata>
  <g
     inkscape:label="Capa 1"
     inkscape:groupmode="layer"
     id="layer1"
     transform="translate(-79.684598,-507.15289)">
    <g
       id="g4874">
      <path
         inkscape:connector-curvature="0"
         style="fill:#dd8a38;fill-opacity:1"
         d="m 436.66669,619.13016 0,9.02494 25.79827,0 c 1.17271,0.0128 1.91496,0.86523 1.91496,1.91504 l 0,2.0471 -15.87052,0 -3.61021,8.3646 19.48073,0 0,2.48734 c 0,1.04978 -0.74225,1.90216 -1.91496,1.91504 l -25.79827,0 0,9.02497 34.2069,0 c 2.78054,0 4.57843,-1.98497 4.57843,-4.80968 l 0,-9.36611 c 0,-1.79259 -1.14091,-3.04863 -2.90547,-3.04863 1.76456,0 2.90547,-1.25609 2.90547,-3.04868 l 0,-9.69631 c 0,-2.8247 -1.79789,-4.80962 -4.57843,-4.80962 l -34.2069,0 z m 41.1625,0 0,34.77903 11.00623,0 0,-25.75409 19.17233,0 c 1.17271,0.0128 1.91521,0.86523 1.91521,1.91504 l 0,5.61305 c 0,1.04981 -0.7425,1.90216 -1.91521,1.91506 l -12.4477,0 0,0.0205 -0.0655,0 0.0445,0.033 -5.42594,8.96988 12.77813,0 4.88658,7.28591 12.76685,0 -4.74353,-7.28591 0.62728,0 c 2.78057,0 4.57872,-1.98492 4.57872,-4.80963 l 0,-17.87376 c 0,-2.82471 -1.79815,-4.80963 -4.57872,-4.80963 l -38.5869,0 z m 50.13253,0 c -2.78057,0 -4.57846,1.98492 -4.57846,4.80962 l 0,25.15973 c 0,2.82471 1.79789,4.80968 4.57846,4.80968 l 34.86699,0 c 2.78055,0 4.57846,-1.98497 4.57846,-4.80968 l 0,-25.15973 c 0,-2.8247 -1.79791,-4.80962 -4.57846,-4.80962 l -34.86699,0 z m 44.58532,0 c -1.72757,0.0102 -2.76247,1.21034 -2.76247,2.83955 l 0,15.78263 c 0,1.92466 1.49002,3.31279 3.26876,3.31279 l 25.62217,0 c 1.2341,0 1.96638,1.02999 1.92596,1.90405 0,1.04978 -0.73149,1.89115 -1.90418,1.90403 l -23.83897,0.0102 -5.05168,9.02495 37.28822,0 c 2.78057,0 4.57871,-1.98492 4.57871,-4.80963 l 0,-12.93207 0,-0.0102 c -0.13644,-2.53453 -2.22988,-4.54548 -4.79864,-4.54548 l -25.20379,0 c -0.88374,-0.0179 -1.5958,-0.72999 -1.5958,-1.61787 0,-0.899 0.72965,-1.62888 1.62885,-1.62888 8.49787,0.023 21.4718,0.0102 29.98042,0.0102 l 0,-9.24503 c -13.42039,0 -25.70588,0 -39.1263,0 z m -36.17672,9.02494 18.04977,0 c 1.17271,0.0128 1.91521,0.86523 1.91521,1.91504 l 0,12.89904 c 0,1.04978 -0.7425,1.90216 -1.91521,1.91504 l -18.04977,0 c -1.17269,-0.0128 -1.91493,-0.86526 -1.91493,-1.91504 l 0,-12.89904 c 0,-1.04981 0.74224,-1.90216 1.91493,-1.91504 z"
         id="path4266" />
      <path
         inkscape:connector-curvature="0"
         style="fill:#83a439;fill-opacity:1"
         d="m 102.4473,619.13016 c -1.72754,0.0102 -2.762702,1.21034 -2.762702,2.83955 l 0,15.78263 c 0,1.92466 1.490022,3.31279 3.268732,3.31279 l 25.62217,0 c 1.23413,0 1.96667,1.02999 1.92597,1.90405 0,1.04978 -0.74225,1.89115 -1.91493,1.90403 0,0 -28.8799,0.0102 -28.8799,0.0102 l 0,9.02495 37.2885,0 c 2.78057,0 4.57846,-1.98492 4.57846,-4.80963 l 0,-12.93209 0,-0.0102 c -0.13645,-2.53453 -2.22992,-4.54549 -4.79867,-4.54549 l -25.20379,0 c -0.88346,-0.0179 -1.5958,-0.73001 -1.5958,-1.61789 0,-0.899 0.72993,-1.62888 1.62887,-1.62888 8.49813,0.023 17.02536,0.0102 25.53398,0.0102 l 4.44644,-9.24503 c -13.42042,0 -25.70591,0 -39.1263,0 z m 46.03807,0 c -2.78057,0 -4.57846,1.98492 -4.57846,4.80962 l 0,25.15973 c 0,2.82471 1.79789,4.80968 4.57846,4.80968 l 34.20664,0 0,-9.02497 -25.79802,0 c -1.17271,-0.0128 -1.91521,-0.86526 -1.91521,-1.91504 l 0,-12.89904 c 0,-1.04981 0.7425,-1.90216 1.91521,-1.91504 l 25.79802,0 0,-9.02494 -34.20664,0 z m 36.55098,0 0,34.77903 11.00596,0 0,-25.75409 19.1726,0 c 1.17269,0.0128 1.91496,0.86523 1.91496,1.91504 l 0,5.61305 c 0,1.04981 -0.74227,1.90216 -1.91496,1.91506 l -12.44794,0 0,0.0205 -0.0655,0 0.0445,0.033 -5.42594,8.9699 12.77814,0 4.88658,7.28589 12.76687,0 -4.74355,-7.28589 0.6273,0 c 2.78057,0 4.57871,-1.98492 4.57871,-4.80962 l 0,-17.87377 c 0,-2.8247 -1.79814,-4.80962 -4.57871,-4.80962 l -38.58693,0 z m 45.46589,0 15.27628,34.77903 13.42723,0 c 5.13172,-11.57547 15.27654,-34.77903 15.27654,-34.77903 l -12.98731,0 -9.00286,22.10007 -9.00282,-22.10007 -12.98706,0 z m 46.31311,0 0,34.77903 11.4464,0 0,-34.77903 -11.4464,0 z m 18.38021,0 c -2.78054,0 -4.57846,1.98492 -4.57846,4.80962 l 0,25.15973 c 0,2.82471 1.79792,4.80968 4.57846,4.80968 l 34.20664,0 0,-9.02497 -25.79801,0 c -1.17297,-0.0128 -1.91521,-0.86526 -1.91521,-1.91504 l 0,-12.89904 c 0,-1.04981 0.74224,-1.90216 1.91521,-1.91504 l 25.79801,0 0,-9.02494 -34.20664,0 z m 36.562,0 0,34.77903 11.88628,0 0,-34.77903 -11.88628,0 z m 18.83113,0 c -2.78055,0 -4.57846,1.98492 -4.57846,4.80962 l 0,25.15973 c 0,2.82471 1.79791,4.80968 4.57846,4.80968 l 34.86727,0 c 2.78029,0 4.57844,-1.98497 4.57844,-4.80968 l 0,-25.15973 c 0,-2.8247 -1.79815,-4.80962 -4.57844,-4.80962 l -34.86727,0 z m 44.57456,0 c -1.72756,0.0102 -2.76272,1.21034 -2.76272,2.83955 l 0,15.78263 c 0,1.92466 1.49002,3.31279 3.26876,3.31279 l 25.62214,0 c 1.23413,0 1.96667,1.02999 1.92599,1.90405 0,1.04978 -0.73123,1.89115 -1.90392,1.90403 l -23.85001,0.0102 -5.04092,9.02495 37.28852,0 c 2.78055,0 4.57844,-1.98492 4.57844,-4.80963 l 0,-12.93207 0,-0.0102 c -0.13645,-2.53453 -2.22989,-4.54548 -4.79865,-4.54548 l -25.20381,0 c -0.88346,-0.0179 -1.59578,-0.72999 -1.59578,-1.61787 0,-0.899 0.72991,-1.62888 1.62885,-1.62888 8.49813,0.023 21.47208,0.0102 29.98042,0.0102 l 0,-9.24503 c -13.42039,0 -25.70588,0 -39.1263,0 z m -36.16594,9.02494 18.05003,0 c 1.17268,0.0128 1.91495,0.86523 1.91495,1.91504 l 0,12.89904 c 0,1.04978 -0.74227,1.90216 -1.91495,1.91504 l -18.05003,0 c -1.17271,-0.0128 -1.91495,-0.86526 -1.91495,-1.91504 l 0,-12.89904 c 0,-1.04981 0.74224,-1.90216 1.91495,-1.91504 z m -198.66949,4.18228 -3.60995,8.36457 25.97414,0 0,-8.36457 -22.36419,0 z"
         id="path3966" />
      <path
         id="path4345"
         d="m 522.43575,544.05634 c -3.84668,0 -6.96688,3.12002 -6.96688,6.96678 0,3.84676 3.1202,6.96681 6.96688,6.96681 3.84671,0 6.96689,-3.12005 6.96689,-6.96681 0,-3.84676 -3.12018,-6.96678 -6.96689,-6.96678 z m -14.96814,18.45706 c -1.70209,0 -3.08162,1.37971 -3.08162,3.08168 l 0,30.78382 c 0,1.70199 1.37953,3.08168 3.08162,3.08168 1.70181,0 3.0816,-1.37969 3.0816,-3.08168 l 0,-30.78382 c 0,-1.70197 -1.37979,-3.08168 -3.0816,-3.08168 z m 9.74037,0 c -1.7021,0 -3.08188,1.37971 -3.08188,3.08168 l 0,64.74839 c 0,1.70196 1.37978,3.08168 3.08188,3.08168 1.70181,0 3.0816,-1.37972 3.0816,-3.08168 l 0,-64.74839 c 0,-1.70197 -1.37979,-3.08168 -3.0816,-3.08168 z m 9.63013,0 c -1.70184,0 -3.08163,1.37971 -3.08163,3.08168 l 0,64.74839 c 0,1.70196 1.37979,3.08168 3.08163,3.08168 1.70207,0 3.0816,-1.37972 3.0816,-3.08168 l 0,-64.74839 c 0,-1.70197 -1.37953,-3.08168 -3.0816,-3.08168 z m 9.68522,0 c -1.70181,0 -3.0816,1.37971 -3.0816,3.08168 l 0,30.78382 c 0,1.70199 1.37979,3.08168 3.0816,3.08168 1.70209,0 3.08188,-1.37969 3.08188,-3.08168 l 0,-30.78382 c 0,-1.70197 -1.37979,-3.08168 -3.08188,-3.08168 z"
         style="fill:#dd8a38;fill-opacity:1"
         inkscape:connector-curvature="0" />
      <path
         style="fill:#b3b4b6;fill-opacity:1"
         d="m 481.87957,527.15289 c -3.84671,0 -6.96691,3.12005 -6.96691,6.96681 0,3.84676 3.1202,6.96681 6.96691,6.96681 3.84668,0 6.9666,-3.12005 6.9666,-6.96681 0,-3.84676 -3.11992,-6.96681 -6.9666,-6.96681 z m -14.96817,18.45709 c -1.70209,0 -3.08188,1.37971 -3.08188,3.08167 l 0,30.78383 c 0,1.70199 1.37979,3.08167 3.08188,3.08167 1.70184,0 3.0816,-1.37968 3.0816,-3.08167 l 0,-30.78383 c 0,-1.70196 -1.37976,-3.08167 -3.0816,-3.08167 z m 9.74037,0 c -1.7021,0 -3.08189,1.37971 -3.08189,3.08167 l 0,64.74839 c 0,1.70197 1.37979,3.08168 3.08189,3.08168 1.70183,0 3.0816,-1.37971 3.0816,-3.08168 l 0,-64.74839 c 0,-1.70196 -1.37977,-3.08167 -3.0816,-3.08167 z m 9.63013,0 c -1.70184,0 -3.08163,1.37971 -3.08163,3.08167 l 0,64.74839 c 0,1.70197 1.37979,3.08168 3.08163,3.08168 1.70209,0 3.0816,-1.37971 3.0816,-3.08168 l 0,-64.74839 c 0,-1.70196 -1.37951,-3.08167 -3.0816,-3.08167 z m 9.68525,0 c -1.70184,0 -3.08163,1.37971 -3.08163,3.08167 l 0,30.78383 c 0,1.70199 1.37979,3.08167 3.08163,3.08167 1.70209,0 3.08185,-1.37968 3.08185,-3.08167 l 0,-30.78383 c 0,-1.70196 -1.37976,-3.08167 -3.08185,-3.08167 z"
         id="path4329"
         inkscape:connector-curvature="0" />
      <path
         id="path4347"
         d="m 562.99066,527.15289 c -3.84671,0 -6.96691,3.12005 -6.96691,6.96681 0,3.84676 3.1202,6.96681 6.96691,6.96681 3.84668,0 6.9666,-3.12005 6.9666,-6.96681 0,-3.84676 -3.11992,-6.96681 -6.9666,-6.96681 z m -14.96817,18.45709 c -1.70209,0 -3.08188,1.37971 -3.08188,3.08167 l 0,30.78383 c 0,1.70199 1.37979,3.08167 3.08188,3.08167 1.70184,0 3.0816,-1.37968 3.0816,-3.08167 l 0,-30.78383 c 0,-1.70196 -1.37976,-3.08167 -3.0816,-3.08167 z m 9.74011,0 c -1.70184,0 -3.08162,1.37971 -3.08162,3.08167 l 0,64.74839 c 0,1.70197 1.37978,3.08168 3.08162,3.08168 1.70209,0 3.08186,-1.37971 3.08186,-3.08168 l 0,-64.74839 c 0,-1.70196 -1.37977,-3.08167 -3.08186,-3.08167 z m 9.63039,0 c -1.70184,0 -3.0816,1.37971 -3.0816,3.08167 l 0,64.74839 c 0,1.70197 1.37976,3.08168 3.0816,3.08168 1.70209,0 3.0816,-1.37971 3.0816,-3.08168 l 0,-64.74839 c 0,-1.70196 -1.37951,-3.08167 -3.0816,-3.08167 z m 9.68525,0 c -1.70184,0 -3.08163,1.37971 -3.08163,3.08167 l 0,30.78383 c 0,1.70199 1.37979,3.08167 3.08163,3.08167 1.70209,0 3.08188,-1.37968 3.08188,-3.08167 l 0,-30.78383 c 0,-1.70196 -1.37979,-3.08167 -3.08188,-3.08167 z"
         style="fill:#b3b4b6;fill-opacity:1"
         inkscape:connector-curvature="0" />
      <path
         style="color:#000000;font-style:normal;font-variant:normal;font-weight:normal;font-stretch:normal;font-size:medium;line-height:125%;font-family:TakaoPGothic;-inkscape-font-specification:'TakaoPGothic Bold';text-indent:0;text-align:start;text-decoration:none;text-decoration-line:none;letter-spacing:248;word-spacing:0;text-transform:none;direction:ltr;block-progression:tb;writing-mode:lr-tb;baseline-shift:baseline;text-anchor:start;display:inline;overflow:visible;visibility:visible;fill:#b3b4b6;fill-opacity:1;fill-rule:nonzero;stroke:none;stroke-width:40.79999924;marker:none;enable-background:accumulate"
         d="m 203.05095,668.5251 c -1.52625,0 -2.879,0.47166 -3.87426,1.41967 0,0 0,0 0,0 -0.88819,0.86485 -1.35354,2.03833 -1.35354,3.31285 0,1.01576 0.37821,1.97796 1.06744,2.74068 0.68925,0.76245 1.64513,1.34408 2.85064,1.80496 l 0.58321,0.22041 c 0,0 0,0 0,0 1.27138,0.48502 2.10996,0.96927 2.43252,1.27662 0.32023,0.3231 0.41812,0.58215 0.41812,0.93543 0,0.50524 -0.13133,0.76457 -0.56141,1.07873 -0.34043,0.22323 -0.75356,0.35198 -1.32073,0.35198 -1.24751,0 -2.12413,-0.46772 -2.91653,-1.59581 -0.13901,-0.19686 -0.35878,-0.33305 -0.59632,-0.36979 -0.23629,-0.0369 -0.48871,0.0264 -0.6803,0.17331 l -1.36484,1.0344 c -0.1838,0.13901 -0.30786,0.35169 -0.34224,0.57871 -0.0341,0.22835 0.0264,0.46669 0.15488,0.65408 1.32047,1.84986 3.33883,2.8286 5.72331,2.8286 1.44225,0 2.73621,-0.37507 3.75301,-1.16667 1.12835,-0.8874 1.73883,-2.22387 1.73883,-3.70916 0,-0.96981 -0.30945,-1.89578 -0.89134,-2.67428 -0.70838,-0.94172 -1.8593,-1.63909 -3.42308,-2.26742 l 0,0 -0.66035,-0.27507 c -1.07927,-0.44646 -1.79919,-0.82624 -2.00315,-0.97953 -0.30418,-0.24141 -0.38528,-0.42335 -0.38528,-0.79237 0,-0.34094 0.0893,-0.57429 0.33017,-0.84752 0.31943,-0.32701 0.6819,-0.48425 1.30972,-0.48425 1.16034,0 1.86401,0.38267 2.45429,1.35381 0.10496,0.24934 0.33178,0.44672 0.59449,0.51732 0,0 0,0 0,0 0,0 0.0264,0 0.0264,0 0.0261,0 0.0499,0 0.076,0 0.27717,0.042 0.57218,-0.055 0.77033,-0.2519 l 1.23282,-0.88056 c 0.18892,-0.13389 0.32361,-0.34199 0.36613,-0.5693 0.042,-0.22835 0,-0.47086 -0.13645,-0.6635 -1.21208,-1.79632 -3.11496,-2.77348 -5.35982,-2.77348 z m 24.56548,0 c -0.0341,-5.1e-4 -0.076,0 -0.11034,0 -2.01943,0.0264 -3.79159,0.721 -5.13961,2.06902 -1.5433,1.55039 -2.31127,3.65483 -2.31127,6.1194 0,2.51284 0.77297,4.65508 2.34409,6.20756 0.002,0.002 0,-0.002 0,0 1.35798,1.35539 3.16034,2.04698 5.20599,2.04698 2.05696,0 3.85746,-0.69054 5.21677,-2.04698 0.002,-0.002 0,0.002 0,0 1.56718,-1.54829 2.34434,-3.66507 2.34434,-6.1304 0,-2.51206 -0.76429,-4.64198 -2.31127,-6.19656 -1.35326,-1.35301 -3.1459,-2.05013 -5.18395,-2.06902 -0.0289,0 -0.0499,0 -0.076,0 z m 73.56416,0 c -2.0916,0 -3.94934,0.7861 -5.34907,2.2782 -1.46586,1.55407 -2.19001,3.61415 -2.19001,5.99841 0,2.29919 0.65774,4.28316 2.0139,5.77817 l 0,0 c 1.44646,1.57584 3.38371,2.39921 5.59104,2.39921 1.72754,0 3.30051,-0.54646 4.57872,-1.61784 0.71311,-0.59003 1.27137,-1.33253 1.6727,-2.17925 0.16538,-0.22298 0.22042,-0.52572 0.14439,-0.7924 0,-0.0261 0,-0.0366 0,-0.055 -0.002,0 0,0 0,0 -0.0945,-0.26534 -0.31312,-0.48136 -0.58345,-0.56141 l -1.33177,-0.64934 c -0.20992,-0.1024 -0.46087,-0.10752 -0.68239,-0.0341 -0.22042,0.076 -0.41285,0.23091 -0.51707,0.44042 -0.75405,1.51312 -1.69446,2.11313 -3.24695,2.11313 -1.24068,0 -2.13148,-0.43333 -2.92754,-1.45275 -0.66117,-0.83597 -1.01261,-1.91155 -1.01261,-3.34592 0,-1.67821 0.41339,-2.89106 1.18871,-3.78606 0.002,-0.002 0,0 0,0 0.75065,-0.84437 1.56928,-1.21078 2.67454,-1.21078 1.53016,0 2.40996,0.57639 3.09263,2.08031 0.097,0.21529 0.28478,0.39109 0.50629,0.47324 0.22042,0.0814 0.46797,0.076 0.68242,-0.0264 l 1.58477,-0.73751 c 0.21248,-0.0998 0.38162,-0.28557 0.46218,-0.50629 0.0814,-0.22042 0.0655,-0.46904 -0.034,-0.68242 -1.1672,-2.51364 -3.43465,-3.90707 -6.31728,-3.90707 z m 41.84488,0 c -0.034,-5.1e-4 -0.0655,0 -0.0998,0 -2.0194,0.0264 -3.80259,0.721 -5.15061,2.06902 -1.5433,1.55039 -2.31127,3.65483 -2.31127,6.1194 0,2.51284 0.78397,4.65508 2.35509,6.20756 1.35801,1.35539 3.16035,2.04698 5.20602,2.04698 2.05693,0 3.86847,-0.69054 5.22778,-2.04698 1.56718,-1.54829 2.35538,-3.66507 2.35538,-6.1304 0,-2.51206 -0.76432,-4.64198 -2.31127,-6.19656 -1.35327,-1.35301 -3.14591,-2.05013 -5.18398,-2.06902 -0.0289,0 -0.0604,0 -0.0893,0 z m 73.11299,0 c -1.5265,0 -2.879,0.47166 -3.87425,1.41967 -0.88819,0.86485 -1.36484,2.03833 -1.36484,3.31285 0,1.01576 0.3785,1.97796 1.06772,2.74068 0.68923,0.76245 1.65614,1.34408 2.86167,1.80496 l 0.57216,0.22041 c 5.4e-4,2.6e-4 0,0 0,0 1.27112,0.48502 2.09895,0.96927 2.42125,1.27662 0.32046,0.3231 0.42939,0.58215 0.42939,0.93543 0,0.50524 -0.14182,0.76457 -0.57244,1.07873 -0.34066,0.22323 -0.75354,0.35198 -1.32073,0.35198 -1.24749,0 -2.12413,-0.46772 -2.91651,-1.59581 -0.139,-0.19686 -0.35642,-0.33725 -0.59422,-0.37427 -0.23885,-0.0369 -0.49081,0.0315 -0.68242,0.17587 l -1.35378,1.03465 c -0.18381,0.13901 -0.30656,0.34435 -0.34122,0.57245 -0.034,0.22835 0.0264,0.47244 0.15488,0.66035 1.32021,1.84985 3.32782,2.82834 5.71205,2.82834 1.44251,0 2.73646,-0.37481 3.75326,-1.16639 1.12835,-0.8874 1.73883,-2.22415 1.73883,-3.70918 0,-0.96981 -0.30971,-1.89604 -0.89159,-2.67451 -0.70841,-0.94175 -1.85905,-1.63884 -3.42283,-2.26719 l 0,0 -0.64934,-0.27507 c -1.07899,-0.44644 -1.79919,-0.8265 -2.00312,-0.97951 -10e-4,-10e-4 0,7.7e-4 0,0 -0.30395,-0.24141 -0.38505,-0.42337 -0.38505,-0.7924 0,-0.34094 0.0893,-0.57426 0.33019,-0.84748 0.31941,-0.32704 0.69291,-0.48425 1.32073,-0.48425 1.16037,0 1.85274,0.38266 2.44329,1.35352 0.10752,0.2519 0.33937,0.44987 0.60526,0.51732 0.002,10e-4 0,0 0,0 0,0.002 0,-10e-4 0,0 0.0261,0 0.0525,0 0.076,0 0.27689,0.042 0.5719,-0.055 0.77033,-0.2519 l 1.24357,-0.88033 c 0.18637,-0.13389 0.32256,-0.3454 0.36324,-0.57242 0.042,-0.22835 -0.0264,-0.46904 -0.14439,-0.66038 -1.21205,-1.7963 -3.11518,-2.77348 -5.35979,-2.77348 z m 66.50934,0 c -0.0341,-5.1e-4 -0.0655,0 -0.0998,0 -2.01969,0.0264 -3.8026,0.721 -5.1509,2.06902 -1.54304,1.55039 -2.31127,3.65483 -2.31102,6.1194 0,2.51284 0.784,4.65508 2.35513,6.20756 1.35798,1.35539 3.16034,2.04698 5.20599,2.04698 2.05696,0 3.86849,-0.69054 5.2278,-2.04698 1.56718,-1.54829 2.3551,-3.66507 2.35535,-6.1304 -2.5e-4,-2.51206 -0.76428,-4.64198 -2.31127,-6.19656 -1.35326,-1.35301 -3.1459,-2.05013 -5.18395,-2.06902 -0.0289,0 -0.0604,0 -0.0893,0 z m -202.04849,0.27507 c -0.0264,0.003 -0.0289,0 -0.0445,0 l -1.57376,0 c -0.23373,0.002 -0.46377,0.0998 -0.62861,0.26325 -0.16538,0.16537 -0.25984,0.39554 -0.26299,0.62835 l 0,9.04694 c 0,0.99369 -0.23885,1.63645 -0.62728,2.08002 -0.55408,0.62626 -1.2761,0.94672 -2.41024,0.94672 -1.11311,0 -1.83306,-0.321 -2.41047,-0.95773 -0.37821,-0.41679 -0.61627,-1.05249 -0.61627,-2.06901 l 0,-9.04694 c -0.002,-0.23373 -0.0998,-0.46746 -0.26693,-0.63229 -0.16793,-0.16538 -0.40079,-0.25984 -0.6357,-0.25984 l -1.72782,0 c -0.23628,-10e-4 -0.46848,0.0945 -0.63567,0.25984 -0.16794,0.16537 -0.26509,0.39764 -0.26693,0.63229 l 0,9.25611 c 0,1.46481 0.35878,2.75695 1.13359,3.75299 1.23646,1.57348 3.14617,2.36639 5.4262,2.36639 2.2719,0 4.17585,-0.79186 5.3929,-2.36639 0.78188,-1.00339 1.15564,-2.29893 1.15564,-3.75299 l 0,-9.10205 c 0.0445,-0.27558 -0.0474,-0.57006 -0.24141,-0.77033 0,0 -0.0261,-0.0264 -0.034,-0.034 -0.0264,-0.0264 -0.042,-0.0369 -0.0655,-0.055 -0.16,-0.12851 -0.36638,-0.19942 -0.57241,-0.19686 -0.0289,-0.002 -0.0579,-0.002 -0.0894,0 z m 233.07431,0 c -0.042,8e-4 -0.0894,0 -0.13133,0 l -2.05824,0 c -0.29922,5.1e-4 -0.58688,0.15488 -0.74829,0.40735 l -3.18083,4.97477 -3.1916,-4.97477 c -0.16282,-0.2519 -0.45983,-0.4076 -0.75955,-0.40735 l -2.19003,0 c -0.32571,0 -0.6412,0.18381 -0.79237,0.4735 -0.15232,0.28818 -0.13133,0.66744 0.055,0.93542 l 5.05167,7.30783 0,6.27346 c 0,0.23373 0.097,0.46116 0.2643,0.62756 0.16537,0.16538 0.4034,0.26376 0.63831,0.26404 l 1.72782,0 c 0.23629,0 0.47216,-0.097 0.63859,-0.26404 0.16538,-0.16538 0.26404,-0.3924 0.26404,-0.62756 l 0,-6.27346 5.06268,-7.19785 c 0.23373,-0.24678 0.3134,-0.64095 0.18637,-0.95749 -5.4e-4,-10e-4 5.1e-4,0 0,0 0,-0.0261 -0.0264,-0.034 -0.0341,-0.055 -0.002,0 0.002,-0.0261 0,-0.0261 -0.002,-0.003 0,0 0,0 0,0 -0.0261,-0.0315 -0.0261,-0.0446 0,-0.0264 -0.0264,-0.0369 -0.034,-0.055 -0.16282,-0.23884 -0.44726,-0.38504 -0.73754,-0.3853 z m -265.377,0 c -0.23373,5.1e-4 -0.47245,0.097 -0.63831,0.2643 -0.16538,0.16537 -0.26432,0.39239 -0.26404,0.6273 l 0,14.09861 c 0,0.23373 0.097,0.46116 0.26404,0.62728 0.16537,0.16537 0.4034,0.26404 0.63831,0.26432 l 8.29865,0 c 0.28528,0.0474 0.59184,-0.055 0.79237,-0.26432 0,0 0.0264,0 0.0341,-0.0264 0.18099,-0.19942 0.26352,-0.4929 0.22041,-0.75932 l 0,-1.3866 c 0,-0.23629 -0.097,-0.47217 -0.26404,-0.63857 -0.16537,-0.16537 -0.40315,-0.26404 -0.63831,-0.26404 l -5.78921,0 0,-11.65532 c 0,-0.23628 -0.097,-0.46116 -0.26403,-0.6273 -0.16538,-0.16538 -0.40315,-0.26429 -0.6386,-0.26429 z m 72.17753,0 c -0.22297,0.0264 -0.44014,0.11802 -0.59343,0.28163 -0.15232,0.16281 -0.24141,0.38582 -0.24397,0.60997 l 0,14.09861 c 0.002,0.23373 0.097,0.46377 0.26299,0.62861 0.16538,0.16537 0.39552,0.26245 0.62833,0.26299 l 1.61784,0 c 0.0394,0 0.0814,0 0.12083,0 0.23629,0 0.46956,-0.0893 0.63831,-0.25191 0,0 0,0 0,0 0,-0.003 0,0 0,0 0,0 0,0 0,0 0.2048,-0.20198 0.30265,-0.50839 0.25191,-0.79237 l 0,-13.9448 c -0.002,-0.23373 -0.097,-0.46352 -0.26299,-0.62836 -0.16538,-0.16537 -0.39555,-0.26245 -0.62835,-0.26298 l -1.76113,0 c -0.0264,-5.2e-4 -0.0369,-5.2e-4 -0.055,0 z m 43.23154,0 c -0.23629,5.1e-4 -0.46141,0.097 -0.6273,0.2643 -0.16538,0.16537 -0.26429,0.39239 -0.26429,0.6273 l 0,14.09861 c 0,0.23373 0.097,0.46116 0.26429,0.62728 0.16538,0.16537 0.39237,0.26404 0.6273,0.26432 l 1.695,0 c 0.23629,0 0.47191,-0.097 0.63831,-0.26432 0.16538,-0.16538 0.26404,-0.39212 0.26404,-0.62728 l 0,-7.41809 c 0,-0.37112 0,-0.93673 -0.0261,-1.66192 0,0.0264 0.0261,0.0394 0.034,0.055 l 6.26242,9.5094 c 0.16282,0.24678 0.45248,0.40681 0.74855,0.40709 l 1.44171,0 c 0.28532,0.0474 0.59213,-0.055 0.7924,-0.26404 0,0 0.0264,-0.0264 0.0264,-0.0264 0.18099,-0.19942 0.27453,-0.49315 0.23091,-0.75957 l 0,-13.94453 c 0,-0.23629 -0.097,-0.4609 -0.26429,-0.6273 -0.16538,-0.16538 -0.40315,-0.26429 -0.63831,-0.26429 l -1.69501,0 c -0.23628,5.1e-4 -0.47219,0.097 -0.63831,0.26429 -0.16537,0.16538 -0.26406,0.3924 -0.26406,0.6273 l 0,6.68081 c 0,0.37163 0.0264,0.83568 0.0264,1.27662 -0.055,-0.0865 -0.097,-0.16538 -0.15488,-0.2519 -0.002,-0.003 0,0 0,0 l -5.38212,-8.17767 c -0.16282,-0.24678 -0.45197,-0.40735 -0.74829,-0.40706 z m 25.90825,0 c -0.23629,5.1e-4 -0.47245,0.097 -0.63833,0.2643 -0.16538,0.16537 -0.2643,0.39239 -0.2643,0.6273 l 0,14.09861 c 0,0.23373 0.097,0.46116 0.2643,0.62728 0.16537,0.16537 0.40314,0.26404 0.63833,0.26432 l 8.90389,0 c 0.28528,0.0474 0.59184,-0.055 0.79237,-0.26432 0,0 0.0264,0 0.034,-0.0264 0.18099,-0.19942 0.26352,-0.4929 0.22041,-0.75932 l 0,-1.37582 c 0,-0.23629 -0.097,-0.46091 -0.26404,-0.62731 -0.16537,-0.16537 -0.40315,-0.26403 -0.63831,-0.26403 l -6.43855,0 0,-3.2467 5.3929,0 c 0.23628,0 0.47216,-0.097 0.63831,-0.26432 0.16537,-0.16537 0.26429,-0.39211 0.26429,-0.62727 l 0,-1.4197 c 0,-0.23629 -0.097,-0.47217 -0.26429,-0.63857 -0.16538,-0.16538 -0.40315,-0.26404 -0.63831,-0.26404 l -5.3929,0 0,-2.80655 6.1963,0 c 0.23629,0 0.47217,-0.097 0.63831,-0.26404 0.16538,-0.16538 0.2643,-0.40315 0.2643,-0.63831 l 0,-1.50787 c 0,-0.23628 -0.097,-0.46116 -0.2643,-0.6273 -0.16538,-0.16538 -0.40315,-0.26429 -0.63831,-0.26429 z m 61.36947,0 c -0.23628,5.1e-4 -0.46141,0.097 -0.6273,0.2643 -0.16537,0.16537 -0.26429,0.39239 -0.26429,0.6273 l 0,14.09861 c 0,0.23373 0.097,0.46116 0.26429,0.62728 0.16538,0.16537 0.3924,0.26404 0.6273,0.26432 l 1.73883,0 c 0.23629,0 0.47217,-0.097 0.63831,-0.26432 0.16538,-0.16538 0.25447,-0.39212 0.25447,-0.62728 l 0,-5.69001 5.74512,0 0,5.69001 c 0,0.23373 0.097,0.46116 0.26404,0.62728 0.16538,0.16537 0.40341,0.26404 0.63857,0.26432 l 1.58477,0 c 0.28531,0.0474 0.59212,-0.055 0.79239,-0.26432 0,0 0.0264,0 0.0341,-0.0264 0.18099,-0.19942 0.26353,-0.4929 0.22042,-0.75932 l 0,-13.94453 c 0,-0.23628 -0.097,-0.46116 -0.26432,-0.6273 -0.16538,-0.16538 -0.40315,-0.26429 -0.63831,-0.26429 l -1.72782,0 c -0.23629,5.1e-4 -0.47243,0.097 -0.63857,0.26429 -0.16538,0.16538 -0.26404,0.3924 -0.26404,0.6273 l 0,5.16165 -5.74513,0 0,-5.16165 c 0,-0.23628 -0.0865,-0.46116 -0.25446,-0.6273 -0.16538,-0.16538 -0.40287,-0.26429 -0.63831,-0.26429 z M 227.61643,671.739 c 1.01468,0 1.76926,0.32256 2.46533,1.03437 0.002,0.002 0,-0.002 0,0 0.93752,0.9378 1.40866,2.16771 1.40866,3.88529 0,1.83331 -0.479,3.10522 -1.38688,4.01705 -0.001,10e-4 0,0 0,0 -0.72256,0.70366 -1.48792,1.01258 -2.48737,1.01258 -1.01051,0 -1.77375,-0.30971 -2.47637,-1.01258 -0.002,-0.002 0,0 0,0 -0.91102,-0.89503 -1.38688,-2.13282 -1.38688,-3.92912 0,-1.79632 0.4819,-3.0572 1.39789,-3.97322 0.71916,-0.71916 1.48424,-1.03437 2.47637,-1.03437 z m 115.40904,0 c 1.01471,0 1.7693,0.32256 2.46536,1.03437 0.002,0.002 0,-0.002 0,0 0.93752,0.9378 1.40864,2.16771 1.40864,3.88529 0,1.83331 -0.479,3.10522 -1.38685,4.01705 -0.001,10e-4 10e-4,0 0,0 -0.72231,0.70366 -1.4987,1.01258 -2.49815,1.01258 -1.01051,0 -1.77375,-0.30971 -2.47637,-1.01258 -0.002,-0.002 0.002,0 0,0 -0.91103,-0.89503 -1.38688,-2.13282 -1.38688,-3.92912 0,-1.79632 0.47086,-3.0572 1.38688,-3.97322 0.71916,-0.71916 1.48424,-1.03437 2.47637,-1.03437 z m 139.62233,0 c 1.01468,0 1.76901,0.32256 2.46533,1.03437 0.002,0.002 0,-0.002 0,0 0.93752,0.9378 1.40866,2.16771 1.40866,3.88529 0,1.83331 -0.479,3.10522 -1.38688,4.01705 -10e-4,10e-4 0.001,0 0,0 -0.7223,0.70366 -1.49867,1.01258 -2.49815,1.01258 -1.01048,0 -1.77374,-0.30971 -2.47636,-1.01258 -0.002,-0.002 0.002,0 0,0 -0.911,-0.89503 -1.38685,-2.13282 -1.38685,-3.92912 0,-1.79632 0.47086,-3.0572 1.38685,-3.97322 0.71915,-0.71916 1.48426,-1.03437 2.47636,-1.03437 z"
         id="path4015"
         inkscape:connector-curvature="0"
         sodipodi:nodetypes="cccssccccccscsccscscscccccccccccccccscccccsccsccccccccsccscccccccccscscccccccscccccscscccccccssccccccscsccscsccccccccccccccccccscccccccsccccccccscscscscsccscscscscccccccccccccscccscccsccccccccccccscsscccccscccsscccsccscccccccccsccccscssccscsccccccccscccscscccccccscsscccccssccccscssccccscsscccccssccccccsscccccscccscccsccccccsccsccssccccsccsccsscccccccsccccc" />
    </g>
  </g>
</svg>
