<?xml version="1.0" encoding="UTF-8" standalone="no"?>
<!-- Created with Inkscape (http://www.inkscape.org/) -->

<svg
   xmlns:dc="http://purl.org/dc/elements/1.1/"
   xmlns:cc="http://creativecommons.org/ns#"
   xmlns:rdf="http://www.w3.org/1999/02/22-rdf-syntax-ns#"
   xmlns:svg="http://www.w3.org/2000/svg"
   xmlns="http://www.w3.org/2000/svg"
   xmlns:sodipodi="http://sodipodi.sourceforge.net/DTD/sodipodi-0.dtd"
   xmlns:inkscape="http://www.inkscape.org/namespaces/inkscape"
   id="svg3336"
   version="1.1"
   inkscape:version="0.91 r13725"
   xml:space="preserve"
   width="173.97424"
   height="137.94287"
   viewBox="0 0 173.97424 137.94287"
   sodipodi:docname="CNA-Chile.svg"><metadata
     id="metadata3342"><rdf:RDF><cc:Work
         rdf:about=""><dc:format>image/svg+xml</dc:format><dc:type
           rdf:resource="http://purl.org/dc/dcmitype/StillImage" /><dc:title></dc:title></cc:Work></rdf:RDF></metadata><defs
     id="defs3340"><clipPath
       clipPathUnits="userSpaceOnUse"
       id="clipPath3350"><path
         d="M 0,792 612,792 612,0 0,0 0,792 Z"
         id="path3352"
         inkscape:connector-curvature="0" /></clipPath></defs><sodipodi:namedview
     pagecolor="#ffffff"
     bordercolor="#666666"
     borderopacity="1"
     objecttolerance="10"
     gridtolerance="10"
     guidetolerance="10"
     inkscape:pageopacity="0"
     inkscape:pageshadow="2"
     inkscape:window-width="1366"
     inkscape:window-height="715"
     id="namedview3338"
     showgrid="false"
     fit-margin-top="10"
     fit-margin-left="10"
     fit-margin-right="10"
     fit-margin-bottom="10"
     inkscape:zoom="2.8284271"
     inkscape:cx="69.620632"
     inkscape:cy="50.546583"
     inkscape:window-x="-8"
     inkscape:window-y="22"
     inkscape:window-maximized="1"
     inkscape:current-layer="g3344" /><g
     id="g3344"
     inkscape:groupmode="layer"
     inkscape:label="logo-CNA[1]"
     transform="matrix(1.25,0,0,-1.25,-112.48387,563.9665)"><g
       id="g5670"><path
         d="m 106.2041,379.0127 c -0.196,-0.108 -0.435,-0.212 -0.711,-0.3 -0.275,-0.087 -0.585,-0.17 -0.929,-0.238 -0.341,-0.072 -0.699,-0.108 -1.071,-0.108 -0.792,0 -1.529,0.134 -2.205,0.398 -0.672,0.269 -1.252,0.674 -1.744,1.216 -0.483,0.549 -0.869,1.212 -1.146,2.002 -0.277,0.787 -0.411,1.682 -0.411,2.692 0,1.004 0.134,1.9 0.411,2.686 0.277,0.791 0.665,1.454 1.162,2.003 0.501,0.542 1.097,0.956 1.79,1.241 0.694,0.279 1.459,0.424 2.295,0.424 0.665,0 1.268,-0.078 1.819,-0.238 0.549,-0.16 1.032,-0.351 1.457,-0.58 -0.081,-0.166 -0.145,-0.388 -0.196,-0.673 -0.052,-0.283 -0.092,-0.517 -0.122,-0.709 l -0.093,-0.035 c -0.096,0.139 -0.239,0.299 -0.419,0.476 -0.182,0.181 -0.391,0.351 -0.635,0.517 -0.24,0.166 -0.512,0.305 -0.814,0.418 -0.304,0.115 -0.632,0.166 -0.997,0.166 -0.592,0 -1.144,-0.108 -1.653,-0.335 -0.51,-0.223 -0.953,-0.575 -1.33,-1.041 -0.375,-0.465 -0.672,-1.061 -0.882,-1.774 -0.212,-0.715 -0.316,-1.564 -0.316,-2.546 0,-0.989 0.104,-1.832 0.316,-2.552 0.21,-0.718 0.507,-1.308 0.882,-1.774 0.377,-0.472 0.82,-0.818 1.33,-1.041 0.509,-0.222 1.061,-0.336 1.653,-0.336 0.365,0 0.696,0.052 1.004,0.161 0.307,0.103 0.588,0.232 0.844,0.377 0.258,0.149 0.489,0.311 0.695,0.482 0.205,0.17 0.381,0.32 0.523,0.449 l 0.057,-0.067 -0.135,-1.049 c -0.09,-0.094 -0.232,-0.198 -0.429,-0.312"
         style="fill:#8c9096;fill-opacity:1;fill-rule:nonzero;stroke:none"
         id="path3356"
         inkscape:connector-curvature="0" /><path
         d="m 109.3555,381.3467 c 0.075,-0.455 0.207,-0.869 0.388,-1.23 0.181,-0.364 0.424,-0.649 0.722,-0.861 0.303,-0.217 0.675,-0.32 1.12,-0.32 0.442,0 0.815,0.103 1.116,0.32 0.302,0.212 0.545,0.497 0.727,0.861 0.18,0.361 0.307,0.775 0.385,1.23 0.078,0.467 0.111,0.947 0.111,1.444 0,0.496 -0.033,0.973 -0.111,1.438 -0.078,0.461 -0.205,0.87 -0.385,1.232 -0.182,0.362 -0.425,0.653 -0.727,0.865 -0.301,0.211 -0.674,0.32 -1.116,0.32 -0.445,0 -0.817,-0.109 -1.12,-0.32 -0.298,-0.212 -0.541,-0.503 -0.722,-0.865 -0.181,-0.362 -0.313,-0.771 -0.388,-1.232 -0.073,-0.465 -0.111,-0.942 -0.111,-1.438 0,-0.497 0.038,-0.977 0.111,-1.444 m -1.113,3.493 c 0.213,0.565 0.5,1.02 0.851,1.366 0.355,0.352 0.748,0.606 1.183,0.766 0.438,0.16 0.874,0.238 1.309,0.238 0.442,0 0.883,-0.078 1.312,-0.238 0.432,-0.16 0.825,-0.414 1.18,-0.766 0.349,-0.346 0.636,-0.801 0.851,-1.366 0.215,-0.559 0.326,-1.247 0.326,-2.049 0,-0.808 -0.111,-1.49 -0.326,-2.055 -0.215,-0.559 -0.502,-1.014 -0.851,-1.366 -0.355,-0.351 -0.748,-0.594 -1.18,-0.735 -0.429,-0.143 -0.87,-0.212 -1.312,-0.212 -0.435,0 -0.871,0.069 -1.309,0.212 -0.435,0.141 -0.828,0.384 -1.183,0.735 -0.351,0.352 -0.638,0.807 -0.851,1.366 -0.217,0.565 -0.326,1.247 -0.326,2.055 0,0.802 0.109,1.49 0.326,2.049"
         style="fill:#8c9096;fill-opacity:1;fill-rule:nonzero;stroke:none"
         id="path3360"
         inkscape:connector-curvature="0" /><path
         d="m 116.9204,385.3936 c -0.013,0.585 -0.046,1.133 -0.098,1.641 0.282,-0.057 0.507,-0.088 0.68,-0.088 0.081,0 0.169,0.009 0.262,0.025 0.095,0.016 0.21,0.037 0.342,0.063 -0.029,-0.477 -0.044,-0.948 -0.044,-1.424 l 0.031,0 c 0.53,1.066 1.275,1.599 2.24,1.599 0.251,0 0.497,-0.046 0.74,-0.129 0.238,-0.093 0.456,-0.212 0.652,-0.367 0.197,-0.156 0.365,-0.342 0.505,-0.559 0.137,-0.218 0.235,-0.455 0.286,-0.704 l 0.029,0 c 0.243,0.569 0.572,1.004 0.994,1.304 0.416,0.306 0.9,0.455 1.444,0.455 0.331,0 0.641,-0.051 0.923,-0.155 0.282,-0.108 0.525,-0.274 0.733,-0.503 0.212,-0.221 0.369,-0.512 0.486,-0.868 0.119,-0.357 0.173,-0.782 0.173,-1.278 0,-0.202 -0.003,-0.42 -0.013,-0.658 -0.012,-0.232 -0.024,-0.512 -0.031,-0.828 -0.007,-0.31 -0.021,-0.668 -0.031,-1.066 -0.008,-0.398 -0.016,-0.853 -0.016,-1.376 0,-0.32 0.003,-0.626 0.011,-0.921 0.003,-0.301 0.015,-0.616 0.036,-0.957 -0.111,0.021 -0.22,0.035 -0.334,0.035 l -0.315,0 -0.331,0 c -0.112,0 -0.223,-0.014 -0.332,-0.035 0.029,0.295 0.06,0.89 0.096,1.79 0.036,0.9 0.052,2.158 0.052,3.768 0,0.294 -0.026,0.574 -0.081,0.832 -0.059,0.263 -0.144,0.486 -0.266,0.673 -0.121,0.191 -0.284,0.347 -0.486,0.456 -0.202,0.113 -0.453,0.17 -0.755,0.17 -0.368,0 -0.674,-0.083 -0.927,-0.249 -0.251,-0.166 -0.448,-0.361 -0.59,-0.589 -0.083,-0.129 -0.145,-0.258 -0.191,-0.389 -0.044,-0.129 -0.081,-0.324 -0.106,-0.594 -0.026,-0.264 -0.042,-0.636 -0.052,-1.118 -0.011,-0.48 -0.016,-1.144 -0.016,-1.982 0,-0.512 0.005,-0.973 0.024,-1.391 0.012,-0.426 0.031,-0.881 0.054,-1.377 -0.233,0.021 -0.451,0.035 -0.66,0.035 -0.21,0 -0.427,-0.014 -0.657,-0.035 0.044,0.647 0.075,1.315 0.095,1.986 0.016,0.673 0.026,1.336 0.026,1.993 0,0.553 -0.002,0.989 -0.007,1.303 -0.006,0.312 -0.019,0.561 -0.039,0.746 -0.018,0.187 -0.049,0.33 -0.083,0.451 -0.033,0.123 -0.08,0.248 -0.142,0.392 -0.106,0.229 -0.283,0.42 -0.518,0.58 -0.235,0.155 -0.479,0.238 -0.729,0.238 -0.66,0 -1.149,-0.252 -1.457,-0.765 -0.31,-0.508 -0.465,-1.227 -0.465,-2.148 l 0,-1.511 c 0,-0.529 0.007,-1.092 0.023,-1.682 0.01,-0.58 0.046,-1.112 0.095,-1.583 -0.233,0.021 -0.455,0.035 -0.678,0.035 -0.222,0 -0.45,-0.014 -0.68,-0.035 0.052,0.471 0.085,1.003 0.098,1.583 0.016,0.59 0.024,1.153 0.024,1.682 l 0,1.846 c 0,0.535 -0.008,1.093 -0.024,1.683"
         style="fill:#8c9096;fill-opacity:1;fill-rule:nonzero;stroke:none"
         id="path3364"
         inkscape:connector-curvature="0" /><path
         d="m 129.8008,385.3936 c -0.019,0.585 -0.05,1.133 -0.099,1.641 0.282,-0.057 0.505,-0.088 0.678,-0.088 0.168,0 0.396,0.031 0.678,0.088 -0.049,-0.508 -0.083,-1.056 -0.095,-1.641 -0.016,-0.59 -0.024,-1.148 -0.024,-1.683 l 0,-1.846 c 0,-0.529 0.008,-1.092 0.024,-1.682 0.012,-0.58 0.046,-1.112 0.095,-1.583 -0.23,0.021 -0.458,0.035 -0.678,0.035 -0.223,0 -0.447,-0.014 -0.678,-0.035 0.049,0.471 0.08,1.003 0.099,1.583 0.013,0.59 0.02,1.153 0.02,1.682 l 0,1.846 c 0,0.535 -0.007,1.093 -0.02,1.683 m 0.033,5.366 c 0.153,0.181 0.334,0.269 0.546,0.269 0.213,0 0.388,-0.088 0.544,-0.269 0.15,-0.177 0.227,-0.388 0.227,-0.637 0,-0.248 -0.077,-0.46 -0.227,-0.641 -0.156,-0.176 -0.331,-0.264 -0.544,-0.264 -0.212,0 -0.393,0.088 -0.546,0.264 -0.147,0.181 -0.225,0.393 -0.225,0.641 0,0.249 0.078,0.46 0.225,0.637"
         style="fill:#8c9096;fill-opacity:1;fill-rule:nonzero;stroke:none"
         id="path3368"
         inkscape:connector-curvature="0" /><path
         d="m 133.71,379.8564 c 0.104,-0.14 0.232,-0.274 0.375,-0.398 0.145,-0.125 0.315,-0.228 0.5,-0.311 0.183,-0.083 0.385,-0.124 0.595,-0.124 0.191,0 0.375,0.037 0.551,0.109 0.175,0.067 0.331,0.171 0.47,0.3 0.132,0.129 0.241,0.295 0.322,0.496 0.082,0.202 0.121,0.43 0.121,0.695 0,0.366 -0.088,0.646 -0.261,0.843 -0.179,0.196 -0.399,0.351 -0.66,0.481 -0.262,0.118 -0.546,0.232 -0.862,0.326 -0.313,0.098 -0.595,0.228 -0.861,0.398 -0.259,0.175 -0.478,0.404 -0.653,0.689 -0.178,0.278 -0.266,0.673 -0.266,1.169 0,0.389 0.057,0.75 0.169,1.076 0.108,0.325 0.272,0.605 0.483,0.844 0.209,0.237 0.474,0.419 0.784,0.559 0.311,0.135 0.667,0.202 1.069,0.202 0.372,0 0.688,-0.058 0.944,-0.176 0.259,-0.125 0.505,-0.229 0.732,-0.321 -0.078,-0.176 -0.155,-0.394 -0.225,-0.658 -0.069,-0.259 -0.116,-0.46 -0.137,-0.605 l -0.178,0 c -0.083,0.285 -0.239,0.543 -0.469,0.766 -0.232,0.223 -0.522,0.335 -0.861,0.335 -0.151,0 -0.303,-0.025 -0.455,-0.087 -0.148,-0.062 -0.285,-0.145 -0.407,-0.264 -0.119,-0.118 -0.223,-0.274 -0.3,-0.465 -0.083,-0.186 -0.119,-0.414 -0.119,-0.674 0,-0.378 0.086,-0.673 0.261,-0.879 0.176,-0.207 0.396,-0.367 0.655,-0.486 0.261,-0.12 0.549,-0.227 0.864,-0.31 0.31,-0.089 0.598,-0.217 0.859,-0.38 0.261,-0.154 0.481,-0.377 0.654,-0.661 0.179,-0.284 0.266,-0.673 0.266,-1.17 0,-0.346 -0.061,-0.681 -0.188,-1.018 -0.129,-0.332 -0.305,-0.627 -0.541,-0.891 -0.24,-0.268 -0.525,-0.476 -0.853,-0.626 -0.335,-0.145 -0.712,-0.218 -1.134,-0.218 -0.463,0 -0.851,0.052 -1.163,0.156 -0.311,0.108 -0.573,0.233 -0.788,0.378 0.068,0.15 0.125,0.357 0.192,0.626 0.065,0.269 0.098,0.492 0.098,0.667 l 0.182,0 c 0.051,-0.119 0.129,-0.247 0.235,-0.393"
         style="fill:#8c9096;fill-opacity:1;fill-rule:nonzero;stroke:none"
         id="path3372"
         inkscape:connector-curvature="0" /><path
         d="m 139.7148,385.3936 c -0.016,0.585 -0.046,1.133 -0.096,1.641 0.28,-0.057 0.508,-0.088 0.681,-0.088 0.168,0 0.396,0.031 0.675,0.088 -0.052,-0.508 -0.08,-1.056 -0.1,-1.641 -0.011,-0.59 -0.019,-1.148 -0.019,-1.683 l 0,-1.846 c 0,-0.529 0.008,-1.092 0.019,-1.682 0.02,-0.58 0.048,-1.112 0.1,-1.583 -0.227,0.021 -0.455,0.035 -0.675,0.035 -0.225,0 -0.453,-0.014 -0.681,-0.035 0.05,0.471 0.08,1.003 0.096,1.583 0.016,0.59 0.024,1.153 0.024,1.682 l 0,1.846 c 0,0.535 -0.008,1.093 -0.024,1.683 m 0.039,5.366 c 0.15,0.181 0.334,0.269 0.546,0.269 0.21,0 0.391,-0.088 0.54,-0.269 0.153,-0.177 0.226,-0.388 0.226,-0.637 0,-0.248 -0.073,-0.46 -0.226,-0.641 -0.149,-0.176 -0.33,-0.264 -0.54,-0.264 -0.212,0 -0.396,0.088 -0.546,0.264 -0.153,0.181 -0.225,0.393 -0.225,0.641 0,0.249 0.072,0.46 0.225,0.637"
         style="fill:#8c9096;fill-opacity:1;fill-rule:nonzero;stroke:none"
         id="path3376"
         inkscape:connector-curvature="0" /><path
         d="m 148.3906,391.6338 c 0.098,0 0.207,-0.047 0.323,-0.145 0.116,-0.093 0.176,-0.233 0.176,-0.424 0,-0.212 -0.062,-0.382 -0.187,-0.507 -0.119,-0.118 -0.24,-0.233 -0.362,-0.326 l -2.214,-1.666 -0.637,0 2.215,2.638 c 0.246,0.285 0.473,0.43 0.686,0.43 m -4.101,-10.287 c 0.075,-0.455 0.204,-0.869 0.385,-1.231 0.181,-0.363 0.424,-0.648 0.725,-0.86 0.302,-0.217 0.675,-0.32 1.117,-0.32 0.442,0 0.815,0.103 1.119,0.32 0.299,0.212 0.542,0.497 0.724,0.86 0.18,0.362 0.31,0.776 0.383,1.231 0.074,0.467 0.113,0.947 0.113,1.444 0,0.496 -0.039,0.973 -0.113,1.438 -0.073,0.461 -0.203,0.87 -0.383,1.232 -0.182,0.361 -0.425,0.652 -0.724,0.864 -0.304,0.212 -0.677,0.321 -1.119,0.321 -0.442,0 -0.815,-0.109 -1.117,-0.321 -0.301,-0.212 -0.544,-0.503 -0.725,-0.864 -0.181,-0.362 -0.31,-0.771 -0.385,-1.232 -0.073,-0.465 -0.111,-0.942 -0.111,-1.438 0,-0.497 0.038,-0.977 0.111,-1.444 m -1.118,3.493 c 0.218,0.565 0.502,1.02 0.853,1.366 0.352,0.352 0.748,0.606 1.186,0.766 0.439,0.16 0.874,0.238 1.306,0.238 0.442,0 0.88,-0.078 1.312,-0.238 0.432,-0.16 0.828,-0.414 1.18,-0.766 0.352,-0.346 0.636,-0.801 0.848,-1.366 0.221,-0.56 0.326,-1.247 0.326,-2.049 0,-0.808 -0.105,-1.49 -0.326,-2.055 -0.212,-0.559 -0.496,-1.014 -0.848,-1.366 -0.352,-0.351 -0.748,-0.594 -1.18,-0.735 -0.432,-0.144 -0.87,-0.212 -1.312,-0.212 -0.432,0 -0.867,0.068 -1.306,0.212 -0.438,0.141 -0.834,0.384 -1.186,0.735 -0.351,0.352 -0.635,0.807 -0.853,1.366 -0.215,0.565 -0.321,1.247 -0.321,2.055 0,0.802 0.106,1.489 0.321,2.049"
         style="fill:#8c9096;fill-opacity:1;fill-rule:nonzero;stroke:none"
         id="path3380"
         inkscape:connector-curvature="0" /><path
         d="m 156.3257,385.6055 c -0.29,0.456 -0.691,0.683 -1.206,0.683 -0.706,0 -1.216,-0.252 -1.542,-0.765 -0.334,-0.508 -0.492,-1.227 -0.492,-2.147 l 0,-1.512 c 0,-0.529 0.006,-1.092 0.019,-1.682 0.018,-0.58 0.049,-1.112 0.1,-1.583 -0.232,0.021 -0.458,0.035 -0.683,0.035 -0.217,0 -0.445,-0.014 -0.677,-0.035 0.051,0.471 0.085,1.003 0.101,1.583 0.015,0.59 0.017,1.153 0.017,1.682 l 0,1.846 c 0,0.535 -0.002,1.093 -0.017,1.683 -0.016,0.585 -0.05,1.133 -0.101,1.641 0.281,-0.057 0.512,-0.088 0.677,-0.088 0.083,0 0.174,0.01 0.269,0.025 0.094,0.016 0.208,0.037 0.337,0.063 -0.029,-0.477 -0.042,-0.948 -0.042,-1.424 l 0.029,0 c 0.282,0.513 0.621,0.906 1.011,1.181 0.394,0.284 0.865,0.418 1.413,0.418 0.28,0 0.564,-0.046 0.851,-0.145 0.293,-0.087 0.552,-0.253 0.785,-0.481 0.23,-0.233 0.419,-0.547 0.566,-0.947 0.142,-0.393 0.217,-0.899 0.217,-1.51 0,-0.519 -0.01,-1.041 -0.028,-1.575 -0.021,-0.543 -0.031,-1.112 -0.031,-1.717 l 0,-1.153 c 0,-0.192 0.005,-0.374 0.008,-0.56 0.002,-0.186 0.013,-0.357 0.023,-0.522 -0.205,0.021 -0.417,0.035 -0.642,0.035 -0.212,0 -0.421,-0.014 -0.626,-0.035 0.021,0.615 0.042,1.246 0.068,1.899 0.025,0.652 0.035,1.319 0.035,2.007 l 0,1.082 c 0,0.89 -0.144,1.562 -0.439,2.018"
         style="fill:#8c9096;fill-opacity:1;fill-rule:nonzero;stroke:none"
         id="path3384"
         inkscape:connector-curvature="0" /><path
         d="m 169.4795,383.2041 c -1.31,1.651 -2.621,3.296 -3.925,4.927 -0.01,-0.326 -0.023,-0.771 -0.034,-1.33 -0.007,-0.553 -0.013,-1.314 -0.013,-2.272 0,-0.249 0.006,-0.558 0.008,-0.922 0.005,-0.366 0.01,-0.755 0.016,-1.153 0.003,-0.409 0.013,-0.817 0.023,-1.227 0.01,-0.413 0.018,-0.801 0.029,-1.153 0.01,-0.357 0.02,-0.667 0.028,-0.936 0.013,-0.265 0.023,-0.446 0.031,-0.538 -0.161,0.02 -0.337,0.035 -0.528,0.035 -0.199,0 -0.388,-0.015 -0.559,-0.035 0.018,0.113 0.042,0.335 0.068,0.656 0.025,0.316 0.048,0.704 0.072,1.144 0.015,0.445 0.041,0.926 0.065,1.445 0.026,0.526 0.046,1.044 0.059,1.567 0.018,0.517 0.026,1.03 0.038,1.525 0.012,0.498 0.014,0.943 0.014,1.331 0,1.133 -0.002,2.117 -0.005,2.933 -0.003,0.818 -0.021,1.43 -0.036,1.827 l 0.24,0 c 0.613,-0.78 1.268,-1.613 1.969,-2.509 0.698,-0.895 1.395,-1.781 2.083,-2.649 0.69,-0.87 1.343,-1.693 1.964,-2.469 0.615,-0.771 1.159,-1.433 1.622,-1.982 l 0,2.417 c 0,1.242 -0.008,2.452 -0.024,3.633 -0.015,1.179 -0.049,2.287 -0.095,3.332 0.199,-0.062 0.369,-0.093 0.513,-0.093 0.118,0 0.281,0.031 0.481,0.093 -0.024,-0.264 -0.042,-0.657 -0.068,-1.174 -0.026,-0.524 -0.052,-1.076 -0.075,-1.667 -0.026,-0.596 -0.049,-1.174 -0.07,-1.743 -0.021,-0.57 -0.031,-1.025 -0.031,-1.367 l 0,-1.066 c 0,-0.403 0.006,-0.823 0.01,-1.264 0.005,-0.432 0.01,-0.873 0.013,-1.319 0.008,-0.449 0.011,-0.863 0.018,-1.241 0.003,-0.388 0.006,-0.725 0.006,-1.004 l 0,-0.59 -0.21,0 c -1.156,1.573 -2.39,3.188 -3.697,4.838"
         style="fill:#8c9096;fill-opacity:1;fill-rule:nonzero;stroke:none"
         id="path3388"
         inkscape:connector-curvature="0" /><path
         d="m 179.2852,382.8428 c -0.225,-0.048 -0.453,-0.094 -0.683,-0.15 -0.23,-0.058 -0.458,-0.119 -0.683,-0.207 -0.225,-0.083 -0.427,-0.192 -0.606,-0.337 -0.173,-0.14 -0.313,-0.321 -0.419,-0.533 -0.103,-0.211 -0.157,-0.486 -0.157,-0.818 0,-0.553 0.139,-0.973 0.406,-1.257 0.269,-0.285 0.571,-0.428 0.903,-0.428 0.38,0 0.729,0.123 1.043,0.372 0.315,0.253 0.558,0.538 0.727,0.869 l 0.061,2.67 c -0.168,-0.073 -0.364,-0.135 -0.592,-0.181 m -1.883,4.155 c 0.383,0.14 0.776,0.212 1.179,0.212 0.36,0 0.691,-0.057 0.997,-0.186 0.302,-0.124 0.561,-0.3 0.773,-0.533 0.215,-0.234 0.386,-0.508 0.505,-0.835 0.124,-0.324 0.183,-0.681 0.183,-1.075 0,-0.673 -0.007,-1.345 -0.028,-2.012 -0.018,-0.673 -0.031,-1.376 -0.031,-2.128 0,-0.134 0.003,-0.289 0.007,-0.45 0.006,-0.16 0.026,-0.3 0.07,-0.423 0.039,-0.129 0.096,-0.235 0.174,-0.312 0.075,-0.083 0.186,-0.123 0.339,-0.123 0.051,0 0.101,0 0.158,0.005 0.052,0.006 0.108,0.03 0.16,0.061 l 0,-0.387 c -0.114,-0.063 -0.251,-0.109 -0.419,-0.14 -0.163,-0.037 -0.347,-0.052 -0.549,-0.052 -0.326,0 -0.577,0.093 -0.753,0.289 -0.17,0.193 -0.274,0.447 -0.307,0.756 -0.358,-0.429 -0.714,-0.744 -1.066,-0.941 -0.347,-0.203 -0.782,-0.301 -1.292,-0.301 -0.25,0 -0.496,0.042 -0.739,0.12 -0.241,0.083 -0.454,0.222 -0.637,0.413 -0.189,0.188 -0.336,0.414 -0.453,0.678 -0.116,0.269 -0.171,0.574 -0.171,0.916 0,0.709 0.184,1.264 0.562,1.65 0.378,0.395 0.895,0.653 1.557,0.788 0.541,0.102 0.966,0.196 1.27,0.274 0.306,0.077 0.534,0.154 0.679,0.237 0.142,0.083 0.233,0.183 0.264,0.295 0.026,0.109 0.043,0.254 0.043,0.435 0,0.295 -0.028,0.58 -0.09,0.849 -0.062,0.275 -0.155,0.512 -0.285,0.709 -0.132,0.206 -0.305,0.368 -0.514,0.493 -0.21,0.123 -0.469,0.185 -0.769,0.185 -0.403,0 -0.781,-0.104 -1.128,-0.321 -0.344,-0.213 -0.603,-0.507 -0.779,-0.885 l -0.163,0 0,0.921 c 0.455,0.403 0.872,0.678 1.253,0.818"
         style="fill:#8c9096;fill-opacity:1;fill-rule:nonzero;stroke:none"
         id="path3392"
         inkscape:connector-curvature="0" /><path
         d="m 183.3789,384.7773 c 0.225,0.559 0.512,1.016 0.869,1.377 0.36,0.362 0.765,0.626 1.231,0.802 0.463,0.171 0.937,0.254 1.418,0.254 0.557,0 1.051,-0.079 1.488,-0.239 0.44,-0.16 0.752,-0.34 0.944,-0.543 -0.072,-0.176 -0.135,-0.363 -0.189,-0.558 -0.054,-0.192 -0.103,-0.4 -0.142,-0.612 l -0.121,0 c -0.073,0.157 -0.166,0.311 -0.288,0.466 -0.121,0.166 -0.263,0.312 -0.429,0.446 -0.171,0.138 -0.349,0.253 -0.553,0.341 -0.203,0.088 -0.42,0.134 -0.663,0.134 -0.453,0 -0.844,-0.102 -1.17,-0.295 -0.331,-0.196 -0.595,-0.466 -0.801,-0.806 -0.208,-0.343 -0.355,-0.751 -0.453,-1.222 -0.097,-0.466 -0.145,-0.973 -0.145,-1.516 0,-1.221 0.225,-2.137 0.665,-2.758 0.445,-0.626 1.091,-0.936 1.947,-0.936 0.203,0 0.41,0.031 0.62,0.098 0.211,0.066 0.418,0.154 0.62,0.263 0.202,0.119 0.391,0.248 0.564,0.404 0.176,0.15 0.332,0.32 0.463,0.497 l 0.075,-0.052 c -0.052,-0.285 -0.083,-0.574 -0.093,-0.875 -0.3,-0.279 -0.672,-0.526 -1.123,-0.724 -0.45,-0.203 -0.91,-0.3 -1.397,-0.3 -0.432,0 -0.869,0.072 -1.304,0.217 -0.439,0.15 -0.833,0.399 -1.185,0.75 -0.351,0.347 -0.636,0.798 -0.853,1.356 -0.218,0.554 -0.327,1.236 -0.327,2.045 0,0.765 0.115,1.428 0.332,1.986"
         style="fill:#8c9096;fill-opacity:1;fill-rule:nonzero;stroke:none"
         id="path3396"
         inkscape:connector-curvature="0" /><path
         d="m 191.479,385.3936 c -0.016,0.585 -0.049,1.133 -0.101,1.641 0.285,-0.057 0.513,-0.088 0.681,-0.088 0.173,0 0.396,0.031 0.68,0.088 -0.052,-0.508 -0.083,-1.056 -0.095,-1.641 -0.019,-0.59 -0.023,-1.148 -0.023,-1.683 l 0,-1.846 c 0,-0.529 0.004,-1.092 0.023,-1.682 0.012,-0.58 0.043,-1.112 0.095,-1.583 -0.233,0.021 -0.458,0.035 -0.68,0.035 -0.218,0 -0.443,-0.014 -0.681,-0.035 0.052,0.471 0.085,1.003 0.101,1.583 0.019,0.59 0.023,1.153 0.023,1.682 l 0,1.846 c 0,0.535 -0.004,1.093 -0.023,1.683 m 0.039,5.366 c 0.15,0.181 0.334,0.269 0.541,0.269 0.212,0 0.393,-0.088 0.546,-0.269 0.147,-0.177 0.225,-0.388 0.225,-0.637 0,-0.248 -0.078,-0.46 -0.225,-0.641 -0.153,-0.176 -0.334,-0.264 -0.546,-0.264 -0.207,0 -0.391,0.088 -0.541,0.264 -0.147,0.181 -0.225,0.393 -0.225,0.641 0,0.249 0.078,0.46 0.225,0.637"
         style="fill:#8c9096;fill-opacity:1;fill-rule:nonzero;stroke:none"
         id="path3400"
         inkscape:connector-curvature="0" /><path
         d="m 196.0566,381.3467 c 0.072,-0.455 0.199,-0.869 0.382,-1.23 0.181,-0.364 0.419,-0.649 0.725,-0.861 0.302,-0.217 0.673,-0.32 1.115,-0.32 0.445,0 0.82,0.103 1.118,0.32 0.303,0.212 0.546,0.497 0.727,0.861 0.181,0.361 0.305,0.775 0.382,1.23 0.076,0.467 0.114,0.947 0.114,1.444 0,0.496 -0.038,0.973 -0.114,1.438 -0.077,0.461 -0.201,0.87 -0.382,1.232 -0.181,0.362 -0.424,0.653 -0.727,0.865 -0.298,0.211 -0.673,0.32 -1.118,0.32 -0.442,0 -0.813,-0.109 -1.115,-0.32 -0.306,-0.212 -0.544,-0.503 -0.725,-0.865 -0.183,-0.362 -0.31,-0.771 -0.382,-1.232 -0.078,-0.465 -0.12,-0.942 -0.12,-1.438 0,-0.497 0.042,-0.977 0.12,-1.444 m -1.121,3.493 c 0.217,0.565 0.5,1.02 0.852,1.366 0.353,0.352 0.75,0.606 1.187,0.766 0.437,0.16 0.869,0.238 1.304,0.238 0.445,0 0.882,-0.078 1.315,-0.238 0.437,-0.16 0.822,-0.414 1.179,-0.766 0.352,-0.346 0.634,-0.801 0.851,-1.366 0.215,-0.559 0.324,-1.247 0.324,-2.049 0,-0.808 -0.109,-1.49 -0.324,-2.055 -0.217,-0.559 -0.499,-1.014 -0.851,-1.366 -0.357,-0.351 -0.742,-0.594 -1.179,-0.735 -0.433,-0.143 -0.87,-0.212 -1.315,-0.212 -0.435,0 -0.867,0.069 -1.304,0.212 -0.437,0.141 -0.834,0.384 -1.187,0.735 -0.352,0.352 -0.635,0.807 -0.852,1.366 -0.215,0.565 -0.325,1.247 -0.325,2.055 0,0.802 0.11,1.49 0.325,2.049"
         style="fill:#8c9096;fill-opacity:1;fill-rule:nonzero;stroke:none"
         id="path3404"
         inkscape:connector-curvature="0" /><path
         d="m 208.0928,385.6055 c -0.293,0.456 -0.693,0.683 -1.207,0.683 -0.705,0 -1.22,-0.252 -1.549,-0.765 -0.326,-0.508 -0.489,-1.227 -0.489,-2.147 l 0,-1.512 c 0,-0.529 0.005,-1.092 0.021,-1.682 0.016,-0.58 0.049,-1.112 0.099,-1.583 -0.231,0.021 -0.457,0.035 -0.679,0.035 -0.222,0 -0.447,-0.014 -0.68,-0.035 0.049,0.471 0.086,1.003 0.098,1.583 0.016,0.59 0.021,1.153 0.021,1.682 l 0,1.846 c 0,0.535 -0.005,1.093 -0.021,1.683 -0.012,0.585 -0.049,1.133 -0.098,1.641 0.282,-0.057 0.507,-0.088 0.68,-0.088 0.081,0 0.165,0.01 0.264,0.025 0.096,0.016 0.21,0.037 0.339,0.063 -0.028,-0.477 -0.044,-0.948 -0.044,-1.424 l 0.028,0 c 0.285,0.513 0.624,0.906 1.017,1.181 0.391,0.284 0.859,0.418 1.405,0.418 0.285,0 0.569,-0.046 0.856,-0.145 0.288,-0.087 0.546,-0.253 0.78,-0.481 0.232,-0.233 0.424,-0.547 0.569,-0.947 0.147,-0.393 0.219,-0.899 0.219,-1.51 0,-0.519 -0.009,-1.041 -0.028,-1.575 -0.023,-0.543 -0.028,-1.112 -0.028,-1.717 l 0,-1.153 c 0,-0.192 0,-0.374 0.005,-0.56 0.002,-0.186 0.013,-0.357 0.023,-0.522 -0.204,0.021 -0.416,0.035 -0.644,0.035 -0.212,0 -0.422,-0.014 -0.624,-0.035 0.016,0.615 0.042,1.246 0.068,1.899 0.023,0.652 0.036,1.319 0.036,2.007 l 0,1.082 c 0,0.89 -0.145,1.562 -0.437,2.018"
         style="fill:#8c9096;fill-opacity:1;fill-rule:nonzero;stroke:none"
         id="path3408"
         inkscape:connector-curvature="0" /><path
         d="m 215.2598,382.8428 c -0.226,-0.048 -0.451,-0.094 -0.684,-0.15 -0.231,-0.058 -0.46,-0.119 -0.686,-0.207 -0.222,-0.083 -0.423,-0.192 -0.6,-0.337 -0.176,-0.14 -0.313,-0.321 -0.421,-0.533 -0.104,-0.211 -0.158,-0.486 -0.158,-0.818 0,-0.553 0.137,-0.973 0.406,-1.257 0.269,-0.285 0.57,-0.428 0.903,-0.428 0.38,0 0.728,0.123 1.043,0.372 0.313,0.253 0.558,0.538 0.727,0.869 l 0.062,2.67 c -0.168,-0.073 -0.365,-0.135 -0.592,-0.181 m -1.884,4.155 c 0.383,0.14 0.774,0.212 1.177,0.212 0.362,0 0.693,-0.057 0.999,-0.186 0.303,-0.124 0.559,-0.3 0.773,-0.533 0.215,-0.234 0.386,-0.508 0.504,-0.835 0.125,-0.324 0.185,-0.681 0.185,-1.075 0,-0.673 -0.008,-1.345 -0.028,-2.012 -0.019,-0.673 -0.032,-1.376 -0.032,-2.128 0,-0.134 0.003,-0.289 0.009,-0.45 0.004,-0.16 0.025,-0.3 0.068,-0.423 0.04,-0.129 0.097,-0.235 0.172,-0.312 0.075,-0.083 0.191,-0.123 0.341,-0.123 0.049,0 0.1,0 0.157,0.005 0.052,0.006 0.109,0.03 0.155,0.061 l 0,-0.387 c -0.107,-0.063 -0.247,-0.109 -0.412,-0.14 -0.166,-0.037 -0.347,-0.052 -0.55,-0.052 -0.328,0 -0.577,0.093 -0.752,0.289 -0.174,0.193 -0.275,0.447 -0.306,0.756 -0.359,-0.429 -0.713,-0.744 -1.068,-0.941 -0.346,-0.203 -0.781,-0.301 -1.293,-0.301 -0.249,0 -0.495,0.042 -0.738,0.12 -0.238,0.083 -0.453,0.222 -0.639,0.413 -0.184,0.188 -0.334,0.414 -0.451,0.678 -0.116,0.269 -0.171,0.574 -0.171,0.916 0,0.709 0.185,1.264 0.563,1.65 0.377,0.395 0.895,0.653 1.556,0.788 0.541,0.102 0.968,0.196 1.271,0.274 0.303,0.077 0.531,0.154 0.678,0.237 0.143,0.083 0.232,0.183 0.261,0.295 0.031,0.109 0.047,0.254 0.047,0.435 0,0.295 -0.028,0.58 -0.091,0.849 -0.062,0.275 -0.154,0.512 -0.284,0.709 -0.133,0.206 -0.308,0.368 -0.517,0.493 -0.211,0.123 -0.466,0.185 -0.769,0.185 -0.404,0 -0.779,-0.104 -1.125,-0.321 -0.346,-0.213 -0.603,-0.507 -0.777,-0.885 l -0.165,0 0,0.921 c 0.453,0.403 0.868,0.678 1.252,0.818"
         style="fill:#8c9096;fill-opacity:1;fill-rule:nonzero;stroke:none"
         id="path3412"
         inkscape:connector-curvature="0" /><path
         d="m 219.9185,388.1875 c -0.002,0.472 -0.012,0.942 -0.018,1.402 -0.01,0.461 -0.025,0.907 -0.043,1.326 -0.014,0.419 -0.031,0.775 -0.053,1.07 0.285,-0.056 0.513,-0.082 0.683,-0.082 0.169,0 0.397,0.026 0.679,0.082 -0.019,-0.295 -0.039,-0.651 -0.052,-1.07 -0.015,-0.419 -0.029,-0.865 -0.038,-1.326 -0.011,-0.46 -0.019,-0.93 -0.022,-1.402 -0.007,-0.476 -0.01,-0.91 -0.01,-1.313 l 0,-3.215 c 0,-0.404 0.003,-0.842 0.01,-1.314 0.003,-0.475 0.011,-0.941 0.022,-1.402 0.009,-0.466 0.023,-0.901 0.038,-1.314 0.013,-0.415 0.033,-0.76 0.052,-1.03 -0.233,0.021 -0.458,0.035 -0.679,0.035 -0.222,0 -0.449,-0.014 -0.683,-0.035 0.022,0.27 0.039,0.615 0.053,1.03 0.018,0.413 0.033,0.848 0.043,1.314 0.006,0.461 0.016,0.927 0.018,1.402 0.008,0.472 0.011,0.91 0.011,1.314 l 0,3.215 c 0,0.403 -0.003,0.837 -0.011,1.313"
         style="fill:#8c9096;fill-opacity:1;fill-rule:nonzero;stroke:none"
         id="path3416"
         inkscape:connector-curvature="0" /><path
         d="m 110.7061,365.4814 c 0.127,-0.466 0.29,-0.832 0.483,-1.112 0.198,-0.281 0.42,-0.472 0.671,-0.58 0.254,-0.104 0.499,-0.156 0.74,-0.156 0.396,0 0.73,0.115 1.011,0.342 0.285,0.234 0.518,0.533 0.701,0.906 0.189,0.377 0.324,0.801 0.412,1.273 0.083,0.471 0.127,0.947 0.127,1.417 0,1.139 -0.187,2.009 -0.559,2.603 -0.373,0.601 -0.921,0.901 -1.645,0.901 -0.363,0 -0.675,-0.098 -0.945,-0.295 -0.264,-0.196 -0.487,-0.471 -0.663,-0.818 -0.178,-0.351 -0.31,-0.755 -0.392,-1.226 -0.086,-0.465 -0.13,-0.968 -0.13,-1.5 0,-0.71 0.064,-1.294 0.189,-1.755 m 4.098,-0.589 c -0.08,-0.192 -0.186,-0.399 -0.323,-0.611 -0.134,-0.224 -0.308,-0.425 -0.515,-0.611 -0.204,-0.191 -0.447,-0.346 -0.732,-0.465 -0.277,-0.12 -0.611,-0.177 -0.979,-0.177 -0.385,0 -0.759,0.079 -1.125,0.233 -0.367,0.15 -0.693,0.404 -0.983,0.75 -0.287,0.352 -0.514,0.802 -0.693,1.351 -0.176,0.549 -0.262,1.211 -0.262,1.976 0,0.761 0.094,1.419 0.285,1.978 0.189,0.553 0.44,1.019 0.748,1.396 0.305,0.373 0.654,0.647 1.037,0.833 0.391,0.182 0.779,0.275 1.17,0.275 1.122,0 1.896,-0.59 2.331,-1.78 l 0.028,0 0,1.745 c 0,0.449 -0.002,0.899 -0.01,1.355 -0.005,0.455 -0.005,0.894 -0.013,1.309 -0.005,0.409 -0.011,0.802 -0.015,1.17 -0.005,0.366 -0.013,0.692 -0.024,0.977 0.122,-0.025 0.241,-0.042 0.347,-0.062 0.109,-0.02 0.222,-0.026 0.334,-0.026 0.108,0 0.217,0.006 0.32,0.026 0.109,0.02 0.228,0.037 0.357,0.062 -0.031,-0.377 -0.056,-0.926 -0.074,-1.64 -0.024,-0.719 -0.037,-1.506 -0.053,-2.375 -0.014,-0.859 -0.027,-1.754 -0.038,-2.664 -0.01,-0.913 -0.016,-1.746 -0.016,-2.506 0,-0.813 0.006,-1.546 0.016,-2.199 0.011,-0.652 0.021,-1.319 0.028,-2.007 -0.199,0.025 -0.393,0.036 -0.587,0.036 -0.181,0 -0.372,-0.011 -0.572,-0.036 l 0.042,1.687 -0.029,0 z"
         style="fill:#8c9096;fill-opacity:1;fill-rule:nonzero;stroke:none"
         id="path3420"
         inkscape:connector-curvature="0" /><path
         d="m 120.0024,370.9463 c -0.254,-0.197 -0.463,-0.451 -0.634,-0.751 -0.163,-0.305 -0.29,-0.636 -0.373,-0.993 -0.088,-0.363 -0.139,-0.704 -0.162,-1.025 0.313,-0.01 0.639,-0.02 0.975,-0.037 0.341,-0.009 0.67,-0.014 0.988,-0.014 0.334,0 0.67,0.005 1.018,0.014 0.337,0.017 0.669,0.027 0.993,0.037 0,0.321 -0.026,0.662 -0.068,1.015 -0.044,0.351 -0.14,0.688 -0.274,0.993 -0.137,0.306 -0.324,0.564 -0.567,0.761 -0.24,0.207 -0.558,0.305 -0.95,0.305 -0.369,0 -0.688,-0.098 -0.946,-0.305 m -1.656,-0.373 c 0.59,0.834 1.446,1.247 2.574,1.247 0.531,0 0.991,-0.098 1.38,-0.295 0.388,-0.197 0.714,-0.455 0.973,-0.781 0.266,-0.321 0.455,-0.709 0.581,-1.145 0.127,-0.438 0.187,-0.904 0.187,-1.407 0,-0.112 0,-0.232 -0.006,-0.341 -0.002,-0.114 -0.012,-0.227 -0.023,-0.346 -0.543,0.01 -1.078,0.025 -1.614,0.037 -0.533,0.004 -1.071,0.014 -1.617,0.014 -0.329,0 -0.658,-0.01 -0.986,-0.014 -0.329,-0.012 -0.658,-0.027 -0.988,-0.037 -0.013,-0.063 -0.016,-0.151 -0.016,-0.269 l 0,-0.228 c 0,-0.465 0.054,-0.896 0.173,-1.299 0.114,-0.409 0.285,-0.75 0.505,-1.04 0.222,-0.289 0.494,-0.518 0.815,-0.694 0.321,-0.17 0.693,-0.253 1.117,-0.253 0.203,0 0.413,0.032 0.616,0.092 0.214,0.069 0.422,0.156 0.621,0.27 0.204,0.114 0.391,0.243 0.569,0.399 0.176,0.154 0.332,0.32 0.461,0.496 l 0.072,-0.052 -0.09,-0.874 c -0.3,-0.279 -0.675,-0.522 -1.123,-0.725 -0.45,-0.201 -0.914,-0.3 -1.397,-0.3 -0.544,0 -1.04,0.099 -1.485,0.296 -0.451,0.19 -0.838,0.476 -1.164,0.848 -0.329,0.372 -0.577,0.812 -0.756,1.325 -0.173,0.507 -0.262,1.06 -0.262,1.65 0,1.459 0.29,2.604 0.883,3.426"
         style="fill:#8c9096;fill-opacity:1;fill-rule:nonzero;stroke:none"
         id="path3424"
         inkscape:connector-curvature="0" /><path
         d="m 131.7251,368.7266 c 0.264,0 0.536,-0.006 0.818,-0.017 0.279,-0.009 0.554,-0.014 0.815,-0.014 0.28,0 0.564,0 0.848,0.005 0.283,0.009 0.562,0.015 0.844,0.026 l -1.677,4.512 -1.648,-4.512 z m 6.689,-5.521 c -0.143,0.025 -0.272,0.036 -0.402,0.036 l -0.398,0 -0.399,0 c -0.126,0 -0.259,-0.011 -0.398,-0.036 -0.07,0.274 -0.168,0.6 -0.29,0.987 -0.118,0.378 -0.253,0.787 -0.398,1.207 -0.147,0.418 -0.296,0.848 -0.445,1.276 -0.153,0.436 -0.292,0.844 -0.424,1.239 -0.324,0.009 -0.65,0.014 -0.983,0.025 -0.329,0.006 -0.665,0.006 -0.994,0.006 -0.311,0 -0.621,0 -0.921,-0.006 -0.303,-0.011 -0.611,-0.016 -0.922,-0.025 -0.323,-0.927 -0.612,-1.802 -0.874,-2.64 -0.263,-0.833 -0.461,-1.521 -0.59,-2.069 -0.171,0.025 -0.357,0.036 -0.559,0.036 -0.201,0 -0.387,-0.011 -0.553,-0.036 0.809,2.069 1.606,4.133 2.38,6.182 0.776,2.049 1.558,4.131 2.342,6.252 l 0.285,0 c 0.243,-0.689 0.503,-1.434 0.786,-2.235 0.279,-0.798 0.567,-1.605 0.861,-2.423 0.29,-0.813 0.582,-1.629 0.875,-2.426 0.292,-0.808 0.566,-1.558 0.822,-2.252 0.259,-0.692 0.487,-1.308 0.694,-1.851 0.207,-0.549 0.375,-0.963 0.505,-1.247"
         style="fill:#8c9096;fill-opacity:1;fill-rule:nonzero;stroke:none"
         id="path3428"
         inkscape:connector-curvature="0" /><path
         d="m 139.6089,369.3877 c 0.22,0.555 0.509,1.016 0.867,1.377 0.357,0.362 0.768,0.626 1.231,0.797 0.461,0.176 0.932,0.259 1.418,0.259 0.551,0 1.05,-0.083 1.485,-0.239 0.44,-0.165 0.753,-0.346 0.944,-0.548 -0.071,-0.175 -0.132,-0.362 -0.189,-0.553 -0.054,-0.197 -0.103,-0.404 -0.141,-0.615 l -0.119,0 c -0.07,0.149 -0.169,0.309 -0.288,0.469 -0.121,0.16 -0.264,0.312 -0.432,0.446 -0.166,0.134 -0.349,0.249 -0.55,0.336 -0.201,0.087 -0.422,0.134 -0.666,0.134 -0.453,0 -0.841,-0.097 -1.169,-0.295 -0.327,-0.191 -0.596,-0.464 -0.802,-0.806 -0.202,-0.342 -0.355,-0.75 -0.448,-1.217 -0.099,-0.471 -0.144,-0.973 -0.144,-1.522 0,-1.215 0.222,-2.136 0.664,-2.757 0.44,-0.627 1.092,-0.931 1.945,-0.931 0.202,0 0.407,0.031 0.62,0.092 0.211,0.068 0.419,0.156 0.62,0.269 0.202,0.115 0.388,0.243 0.564,0.4 0.176,0.154 0.331,0.32 0.461,0.496 l 0.074,-0.052 c -0.049,-0.284 -0.077,-0.575 -0.09,-0.874 -0.3,-0.279 -0.675,-0.522 -1.126,-0.726 -0.444,-0.201 -0.91,-0.299 -1.394,-0.299 -0.435,0 -0.866,0.073 -1.307,0.216 -0.439,0.152 -0.833,0.401 -1.184,0.752 -0.352,0.352 -0.637,0.802 -0.854,1.356 -0.215,0.558 -0.323,1.242 -0.323,2.044 0,0.77 0.111,1.433 0.333,1.991"
         style="fill:#8c9096;fill-opacity:1;fill-rule:nonzero;stroke:none"
         id="path3432"
         inkscape:connector-curvature="0" /><path
         d="m 150.499,370.3828 c -0.145,0.056 -0.292,0.081 -0.445,0.081 -0.241,0 -0.458,-0.06 -0.649,-0.189 -0.189,-0.131 -0.352,-0.307 -0.485,-0.524 -0.129,-0.218 -0.23,-0.481 -0.299,-0.781 -0.073,-0.306 -0.107,-0.627 -0.107,-0.968 l 0,-1.951 c 0,-0.797 0.003,-1.401 0.006,-1.821 0.007,-0.424 0.025,-0.767 0.054,-1.025 -0.202,0.026 -0.404,0.036 -0.603,0.036 -0.22,0 -0.431,-0.01 -0.634,-0.036 0.034,0.404 0.049,0.947 0.052,1.64 0.007,0.698 0.007,1.548 0.007,2.552 l 0,0.569 c 0,0.46 0,0.993 -0.007,1.594 -0.003,0.609 -0.018,1.299 -0.052,2.085 0.111,-0.026 0.217,-0.047 0.316,-0.063 0.101,-0.02 0.207,-0.031 0.318,-0.031 0.09,0 0.184,0.011 0.287,0.031 0.101,0.016 0.204,0.037 0.316,0.063 -0.036,-0.429 -0.062,-0.766 -0.067,-1.021 -0.006,-0.241 -0.01,-0.48 -0.01,-0.707 l 0.033,-0.016 c 0.595,1.278 1.257,1.919 1.995,1.919 0.088,0 0.165,-0.005 0.23,-0.02 0.065,-0.011 0.15,-0.041 0.251,-0.089 -0.052,-0.138 -0.083,-0.361 -0.093,-0.646 -0.008,-0.289 -0.016,-0.553 -0.016,-0.79 l -0.103,-0.089 c -0.052,0.072 -0.148,0.135 -0.295,0.197"
         style="fill:#8c9096;fill-opacity:1;fill-rule:nonzero;stroke:none"
         id="path3436"
         inkscape:connector-curvature="0" /><path
         d="m 154.2275,370.9463 c -0.253,-0.197 -0.466,-0.451 -0.634,-0.751 -0.166,-0.305 -0.293,-0.636 -0.376,-0.993 -0.087,-0.363 -0.139,-0.704 -0.163,-1.025 0.316,-0.01 0.642,-0.02 0.979,-0.037 0.336,-0.009 0.665,-0.014 0.988,-0.014 0.329,0 0.672,0.005 1.014,0.014 0.339,0.017 0.672,0.027 0.991,0.037 0,0.321 -0.024,0.662 -0.067,1.015 -0.044,0.351 -0.134,0.688 -0.272,0.993 -0.131,0.306 -0.323,0.564 -0.564,0.761 -0.243,0.207 -0.559,0.305 -0.952,0.305 -0.37,0 -0.688,-0.098 -0.944,-0.305 m -1.659,-0.373 c 0.587,0.834 1.447,1.247 2.575,1.247 0.533,0 0.993,-0.098 1.376,-0.295 0.388,-0.197 0.714,-0.455 0.976,-0.781 0.264,-0.321 0.455,-0.709 0.582,-1.145 0.127,-0.438 0.191,-0.904 0.191,-1.407 0,-0.112 -0.002,-0.232 -0.01,-0.341 -0.003,-0.114 -0.013,-0.227 -0.024,-0.346 -0.543,0.01 -1.081,0.025 -1.614,0.037 -0.533,0.004 -1.074,0.014 -1.612,0.014 -0.336,0 -0.665,-0.01 -0.993,-0.014 -0.326,-0.012 -0.655,-0.027 -0.989,-0.037 -0.008,-0.063 -0.015,-0.151 -0.015,-0.269 l 0,-0.228 c 0,-0.465 0.059,-0.896 0.173,-1.299 0.116,-0.409 0.285,-0.75 0.507,-1.04 0.223,-0.289 0.497,-0.518 0.815,-0.694 0.321,-0.17 0.696,-0.253 1.117,-0.253 0.203,0 0.412,0.032 0.619,0.092 0.212,0.069 0.42,0.156 0.621,0.27 0.199,0.114 0.388,0.243 0.564,0.399 0.179,0.154 0.332,0.32 0.464,0.496 l 0.071,-0.052 -0.09,-0.874 c -0.3,-0.279 -0.678,-0.522 -1.123,-0.725 -0.45,-0.201 -0.916,-0.3 -1.399,-0.3 -0.544,0 -1.038,0.099 -1.483,0.296 -0.45,0.19 -0.839,0.476 -1.167,0.848 -0.326,0.372 -0.577,0.812 -0.753,1.325 -0.176,0.507 -0.263,1.06 -0.263,1.65 0,1.459 0.292,2.604 0.884,3.426"
         style="fill:#8c9096;fill-opacity:1;fill-rule:nonzero;stroke:none"
         id="path3440"
         inkscape:connector-curvature="0" /><path
         d="m 160.8564,365.4814 c 0.124,-0.466 0.284,-0.832 0.483,-1.112 0.194,-0.281 0.422,-0.472 0.67,-0.58 0.252,-0.104 0.5,-0.156 0.74,-0.156 0.394,0 0.728,0.115 1.007,0.342 0.285,0.234 0.522,0.533 0.706,0.906 0.186,0.377 0.324,0.801 0.407,1.273 0.087,0.471 0.129,0.947 0.129,1.417 0,1.139 -0.186,2.009 -0.559,2.603 -0.373,0.601 -0.921,0.901 -1.646,0.901 -0.362,0 -0.678,-0.098 -0.941,-0.295 -0.267,-0.196 -0.49,-0.471 -0.668,-0.818 -0.173,-0.351 -0.305,-0.755 -0.39,-1.226 -0.084,-0.465 -0.13,-0.968 -0.13,-1.5 0,-0.71 0.062,-1.294 0.192,-1.755 m 4.098,-0.589 c -0.083,-0.192 -0.189,-0.399 -0.324,-0.611 -0.137,-0.224 -0.31,-0.425 -0.515,-0.611 -0.206,-0.191 -0.447,-0.346 -0.729,-0.465 -0.285,-0.12 -0.611,-0.177 -0.986,-0.177 -0.38,0 -0.755,0.079 -1.12,0.233 -0.37,0.15 -0.696,0.404 -0.986,0.75 -0.285,0.352 -0.518,0.802 -0.691,1.351 -0.176,0.549 -0.266,1.211 -0.266,1.976 0,0.761 0.098,1.419 0.287,1.978 0.191,0.553 0.44,1.019 0.748,1.396 0.305,0.373 0.651,0.647 1.04,0.833 0.388,0.182 0.778,0.275 1.169,0.275 1.118,0 1.894,-0.59 2.326,-1.78 l 0.033,0 0,1.745 c 0,0.449 -0.007,0.899 -0.01,1.355 -0.007,0.455 -0.01,0.894 -0.015,1.309 -0.005,0.409 -0.011,0.802 -0.013,1.17 -0.007,0.366 -0.013,0.692 -0.023,0.977 0.119,-0.025 0.235,-0.042 0.346,-0.062 0.109,-0.02 0.217,-0.026 0.332,-0.026 0.113,0 0.217,0.006 0.323,0.026 0.106,0.02 0.225,0.037 0.355,0.062 -0.029,-0.377 -0.055,-0.926 -0.073,-1.64 -0.021,-0.719 -0.039,-1.506 -0.052,-2.375 -0.018,-0.859 -0.031,-1.754 -0.038,-2.664 -0.013,-0.913 -0.013,-1.746 -0.013,-2.506 0,-0.813 0,-1.546 0.013,-2.199 0.007,-0.652 0.017,-1.319 0.028,-2.007 -0.202,0.025 -0.393,0.036 -0.587,0.036 -0.182,0 -0.373,-0.011 -0.573,-0.036 l 0.045,1.687 -0.031,0 z"
         style="fill:#8c9096;fill-opacity:1;fill-rule:nonzero;stroke:none"
         id="path3444"
         inkscape:connector-curvature="0" /><path
         d="m 168.6001,369.999 c -0.016,0.585 -0.047,1.134 -0.099,1.646 0.285,-0.063 0.51,-0.094 0.678,-0.094 0.171,0 0.401,0.031 0.683,0.094 -0.052,-0.512 -0.085,-1.061 -0.1,-1.646 -0.014,-0.585 -0.024,-1.144 -0.024,-1.676 l 0,-1.847 c 0,-0.534 0.01,-1.097 0.024,-1.683 0.015,-0.584 0.048,-1.112 0.1,-1.588 -0.233,0.025 -0.461,0.036 -0.683,0.036 -0.22,0 -0.445,-0.011 -0.678,-0.036 0.052,0.476 0.083,1.004 0.099,1.588 0.016,0.586 0.02,1.149 0.02,1.683 l 0,1.847 c 0,0.532 -0.004,1.091 -0.02,1.676 m 0.036,5.371 c 0.152,0.176 0.333,0.27 0.543,0.27 0.212,0 0.394,-0.094 0.546,-0.27 0.153,-0.175 0.223,-0.389 0.223,-0.642 0,-0.243 -0.07,-0.455 -0.223,-0.636 -0.152,-0.181 -0.334,-0.264 -0.546,-0.264 -0.21,0 -0.391,0.083 -0.543,0.264 -0.148,0.181 -0.225,0.393 -0.225,0.636 0,0.253 0.077,0.467 0.225,0.642"
         style="fill:#8c9096;fill-opacity:1;fill-rule:nonzero;stroke:none"
         id="path3448"
         inkscape:connector-curvature="0" /><path
         d="m 173.7227,374.0195 c -0.026,-0.449 -0.052,-0.89 -0.067,-1.319 -0.013,-0.435 -0.034,-0.869 -0.05,-1.31 0.106,0 0.316,0.006 0.617,0.011 0.302,0.006 0.63,0.02 0.982,0.047 -0.013,-0.037 -0.015,-0.104 -0.015,-0.198 l 0,-0.175 0,-0.197 c 0,-0.083 0.002,-0.14 0.015,-0.18 -0.131,0.014 -0.269,0.025 -0.411,0.025 -0.137,0.01 -0.29,0.015 -0.45,0.015 l -0.738,0 c -0.013,-0.052 -0.026,-0.238 -0.041,-0.57 -0.013,-0.33 -0.026,-0.723 -0.036,-1.184 -0.011,-0.455 -0.02,-0.931 -0.026,-1.428 0,-0.497 -0.008,-0.941 -0.008,-1.336 0,-0.326 0.008,-0.65 0.023,-0.972 0.016,-0.321 0.065,-0.611 0.145,-0.865 0.083,-0.252 0.202,-0.46 0.362,-0.609 0.163,-0.155 0.396,-0.229 0.697,-0.229 0.08,0 0.186,0.011 0.326,0.032 0.134,0.025 0.251,0.056 0.352,0.093 l 0,-0.429 c -0.172,-0.036 -0.36,-0.083 -0.567,-0.134 -0.204,-0.054 -0.406,-0.079 -0.593,-0.079 -0.634,0 -1.107,0.181 -1.407,0.549 -0.3,0.368 -0.456,0.906 -0.456,1.614 0,0.321 0.009,0.668 0.021,1.04 0.005,0.373 0.021,0.781 0.036,1.227 0.016,0.445 0.029,0.936 0.035,1.474 0.012,0.538 0.017,1.139 0.017,1.806 l -0.481,0 c -0.083,0 -0.171,-0.005 -0.259,-0.015 -0.088,0 -0.186,-0.011 -0.284,-0.025 0.007,0.071 0.015,0.139 0.021,0.206 0.004,0.068 0.007,0.129 0.007,0.206 0,0.057 -0.003,0.12 -0.007,0.177 -0.006,0.057 -0.014,0.12 -0.021,0.176 0.45,-0.036 0.781,-0.052 0.993,-0.052 -0.01,0.233 -0.018,0.534 -0.021,0.885 -0.005,0.358 -0.018,0.725 -0.036,1.102 l 1.252,0.621 0.073,0 z"
         style="fill:#8c9096;fill-opacity:1;fill-rule:nonzero;stroke:none"
         id="path3452"
         inkscape:connector-curvature="0" /><path
         d="m 179.7456,367.4531 c -0.228,-0.052 -0.455,-0.103 -0.686,-0.154 -0.23,-0.054 -0.457,-0.12 -0.685,-0.208 -0.225,-0.078 -0.424,-0.192 -0.6,-0.336 -0.176,-0.14 -0.314,-0.317 -0.42,-0.534 -0.103,-0.212 -0.155,-0.481 -0.155,-0.817 0,-0.554 0.132,-0.972 0.404,-1.258 0.269,-0.284 0.567,-0.423 0.9,-0.423 0.381,0 0.73,0.123 1.043,0.372 0.313,0.243 0.561,0.538 0.727,0.864 l 0.062,2.665 c -0.171,-0.067 -0.367,-0.13 -0.59,-0.171 m -1.883,4.155 c 0.38,0.14 0.773,0.212 1.175,0.212 0.362,0 0.695,-0.066 0.998,-0.186 0.3,-0.123 0.561,-0.306 0.771,-0.533 0.218,-0.232 0.385,-0.512 0.507,-0.833 0.121,-0.332 0.186,-0.688 0.186,-1.076 0,-0.677 -0.013,-1.346 -0.03,-2.013 -0.021,-0.672 -0.032,-1.382 -0.032,-2.126 0,-0.14 0.003,-0.291 0.006,-0.457 0.007,-0.155 0.031,-0.299 0.069,-0.424 0.042,-0.123 0.099,-0.227 0.174,-0.31 0.078,-0.083 0.191,-0.125 0.339,-0.125 0.052,0 0.103,0 0.158,0.011 0.057,0.006 0.111,0.026 0.16,0.062 l 0,-0.393 c -0.112,-0.058 -0.249,-0.104 -0.414,-0.146 -0.165,-0.03 -0.35,-0.046 -0.549,-0.046 -0.331,0 -0.579,0.099 -0.755,0.29 -0.171,0.197 -0.275,0.445 -0.305,0.756 -0.363,-0.425 -0.717,-0.74 -1.066,-0.943 -0.352,-0.201 -0.782,-0.3 -1.294,-0.3 -0.251,0 -0.497,0.042 -0.735,0.125 -0.246,0.083 -0.456,0.217 -0.644,0.409 -0.184,0.192 -0.334,0.413 -0.45,0.682 -0.117,0.265 -0.174,0.569 -0.174,0.917 0,0.708 0.187,1.263 0.565,1.65 0.375,0.388 0.894,0.652 1.556,0.782 0.542,0.109 0.966,0.196 1.271,0.273 0.309,0.079 0.531,0.156 0.681,0.239 0.14,0.087 0.23,0.181 0.261,0.295 0.029,0.115 0.044,0.258 0.044,0.439 0,0.291 -0.028,0.575 -0.09,0.849 -0.063,0.269 -0.158,0.507 -0.288,0.709 -0.129,0.202 -0.299,0.368 -0.512,0.487 -0.212,0.124 -0.466,0.191 -0.771,0.191 -0.404,0 -0.776,-0.108 -1.123,-0.32 -0.347,-0.212 -0.608,-0.508 -0.779,-0.89 l -0.166,0 0,0.925 c 0.453,0.399 0.87,0.674 1.256,0.818"
         style="fill:#8c9096;fill-opacity:1;fill-rule:nonzero;stroke:none"
         id="path3456"
         inkscape:connector-curvature="0" /><path
         d="m 183.8389,369.3877 c 0.223,0.555 0.51,1.016 0.869,1.377 0.355,0.362 0.766,0.626 1.227,0.797 0.466,0.176 0.936,0.259 1.423,0.259 0.551,0 1.045,-0.083 1.485,-0.239 0.437,-0.165 0.753,-0.346 0.944,-0.548 -0.072,-0.175 -0.136,-0.362 -0.189,-0.553 -0.054,-0.197 -0.103,-0.404 -0.145,-0.615 l -0.118,0 c -0.073,0.149 -0.169,0.309 -0.288,0.469 -0.124,0.16 -0.266,0.312 -0.429,0.446 -0.169,0.134 -0.349,0.249 -0.554,0.336 -0.199,0.087 -0.422,0.134 -0.662,0.134 -0.453,0 -0.844,-0.097 -1.17,-0.295 -0.328,-0.191 -0.595,-0.464 -0.799,-0.806 -0.207,-0.342 -0.36,-0.75 -0.453,-1.217 -0.099,-0.471 -0.147,-0.973 -0.147,-1.522 0,-1.215 0.224,-2.136 0.662,-2.757 0.448,-0.627 1.092,-0.931 1.953,-0.931 0.2,0 0.404,0.031 0.616,0.092 0.215,0.068 0.417,0.156 0.621,0.269 0.199,0.115 0.388,0.243 0.567,0.4 0.173,0.154 0.329,0.32 0.458,0.496 l 0.077,-0.052 c -0.049,-0.284 -0.085,-0.575 -0.09,-0.874 -0.305,-0.279 -0.678,-0.522 -1.126,-0.726 -0.445,-0.201 -0.916,-0.299 -1.395,-0.299 -0.434,0 -0.869,0.073 -1.309,0.216 -0.434,0.152 -0.833,0.401 -1.184,0.752 -0.35,0.352 -0.635,0.802 -0.854,1.356 -0.218,0.558 -0.323,1.242 -0.323,2.044 0,0.77 0.111,1.433 0.333,1.991"
         style="fill:#8c9096;fill-opacity:1;fill-rule:nonzero;stroke:none"
         id="path3460"
         inkscape:connector-curvature="0" /><path
         d="m 191.9351,369.999 c -0.013,0.585 -0.044,1.134 -0.094,1.646 0.282,-0.063 0.505,-0.094 0.678,-0.094 0.168,0 0.399,0.031 0.681,0.094 -0.052,-0.512 -0.086,-1.061 -0.098,-1.646 -0.016,-0.585 -0.026,-1.144 -0.026,-1.676 l 0,-1.847 c 0,-0.534 0.01,-1.097 0.026,-1.683 0.012,-0.584 0.046,-1.112 0.098,-1.588 -0.233,0.025 -0.461,0.036 -0.681,0.036 -0.219,0 -0.448,-0.011 -0.678,-0.036 0.05,0.476 0.081,1.004 0.094,1.588 0.018,0.586 0.026,1.149 0.026,1.683 l 0,1.847 c 0,0.532 -0.008,1.091 -0.026,1.676 m 0.043,5.371 c 0.148,0.176 0.329,0.27 0.541,0.27 0.21,0 0.391,-0.094 0.543,-0.27 0.151,-0.175 0.226,-0.389 0.226,-0.642 0,-0.243 -0.075,-0.455 -0.226,-0.636 -0.152,-0.181 -0.333,-0.264 -0.543,-0.264 -0.212,0 -0.393,0.083 -0.541,0.264 -0.152,0.181 -0.23,0.393 -0.23,0.636 0,0.253 0.078,0.467 0.23,0.642"
         style="fill:#8c9096;fill-opacity:1;fill-rule:nonzero;stroke:none"
         id="path3464"
         inkscape:connector-curvature="0" /><path
         d="m 200.6099,376.2451 c 0.099,0 0.208,-0.052 0.323,-0.146 0.116,-0.097 0.177,-0.237 0.177,-0.423 0,-0.212 -0.061,-0.383 -0.182,-0.508 -0.122,-0.129 -0.243,-0.238 -0.362,-0.326 l -2.22,-1.677 -0.634,0 2.22,2.65 c 0.238,0.284 0.466,0.43 0.678,0.43 m -4.098,-10.288 c 0.077,-0.46 0.202,-0.875 0.383,-1.236 0.181,-0.358 0.424,-0.647 0.727,-0.859 0.3,-0.213 0.675,-0.316 1.114,-0.316 0.443,0 0.818,0.103 1.119,0.316 0.299,0.212 0.543,0.501 0.724,0.859 0.181,0.361 0.31,0.776 0.383,1.236 0.078,0.467 0.113,0.942 0.113,1.439 0,0.497 -0.035,0.978 -0.113,1.443 -0.073,0.457 -0.202,0.87 -0.383,1.232 -0.181,0.358 -0.425,0.647 -0.724,0.859 -0.301,0.211 -0.676,0.321 -1.119,0.321 -0.439,0 -0.814,-0.11 -1.114,-0.321 -0.303,-0.212 -0.546,-0.501 -0.727,-0.859 -0.181,-0.362 -0.306,-0.775 -0.383,-1.232 -0.075,-0.465 -0.111,-0.946 -0.111,-1.443 0,-0.497 0.036,-0.972 0.111,-1.439 m -1.116,3.493 c 0.215,0.559 0.498,1.014 0.852,1.366 0.349,0.352 0.745,0.601 1.185,0.766 0.437,0.155 0.871,0.238 1.303,0.238 0.443,0 0.883,-0.083 1.315,-0.238 0.435,-0.165 0.826,-0.414 1.18,-0.766 0.349,-0.352 0.637,-0.807 0.854,-1.366 0.212,-0.563 0.323,-1.247 0.323,-2.054 0,-0.801 -0.111,-1.49 -0.323,-2.048 -0.217,-0.565 -0.505,-1.021 -0.854,-1.373 -0.354,-0.346 -0.745,-0.589 -1.18,-0.734 -0.432,-0.14 -0.872,-0.213 -1.315,-0.213 -0.432,0 -0.866,0.073 -1.303,0.213 -0.44,0.145 -0.836,0.388 -1.185,0.734 -0.354,0.352 -0.637,0.808 -0.852,1.373 -0.217,0.558 -0.325,1.247 -0.325,2.048 0,0.807 0.108,1.491 0.325,2.054"
         style="fill:#8c9096;fill-opacity:1;fill-rule:nonzero;stroke:none"
         id="path3468"
         inkscape:connector-curvature="0" /><path
         d="m 208.5508,370.2119 c -0.292,0.455 -0.696,0.683 -1.206,0.683 -0.704,0 -1.221,-0.254 -1.547,-0.766 -0.331,-0.507 -0.492,-1.222 -0.492,-2.143 l 0,-1.51 c 0,-0.534 0.005,-1.097 0.018,-1.683 0.021,-0.584 0.049,-1.112 0.102,-1.588 -0.231,0.026 -0.458,0.036 -0.679,0.036 -0.22,0 -0.447,-0.01 -0.68,-0.036 0.049,0.476 0.083,1.004 0.098,1.588 0.016,0.586 0.026,1.149 0.026,1.683 l 0,1.847 c 0,0.533 -0.01,1.091 -0.026,1.676 -0.015,0.585 -0.049,1.134 -0.098,1.646 0.281,-0.063 0.509,-0.094 0.68,-0.094 0.08,0 0.171,0.011 0.264,0.031 0.093,0.016 0.207,0.037 0.339,0.063 -0.028,-0.477 -0.044,-0.953 -0.044,-1.424 l 0.028,0 c 0.282,0.509 0.621,0.906 1.014,1.18 0.394,0.279 0.865,0.419 1.411,0.419 0.282,0 0.566,-0.046 0.856,-0.144 0.288,-0.094 0.546,-0.259 0.777,-0.486 0.232,-0.234 0.421,-0.543 0.569,-0.943 0.15,-0.392 0.219,-0.905 0.219,-1.52 0,-0.507 -0.007,-1.031 -0.027,-1.569 -0.025,-0.538 -0.029,-1.107 -0.029,-1.718 l 0,-1.148 c 0,-0.191 0,-0.378 0.004,-0.564 0.003,-0.182 0.014,-0.358 0.025,-0.523 -0.206,0.026 -0.42,0.036 -0.643,0.036 -0.214,0 -0.424,-0.01 -0.629,-0.036 0.022,0.615 0.045,1.247 0.071,1.9 0.025,0.652 0.036,1.324 0.036,2.011 l 0,1.076 c 0,0.892 -0.145,1.564 -0.437,2.02"
         style="fill:#8c9096;fill-opacity:1;fill-rule:nonzero;stroke:none"
         id="path3472"
         inkscape:connector-curvature="0" /><path
         d="m 136.0669,349.3369 c -0.173,-0.088 -0.388,-0.171 -0.631,-0.243 -0.252,-0.069 -0.525,-0.129 -0.831,-0.187 -0.308,-0.062 -0.624,-0.088 -0.957,-0.088 -0.714,0 -1.369,0.104 -1.972,0.321 -0.602,0.212 -1.123,0.538 -1.56,0.972 -0.434,0.436 -0.778,0.968 -1.027,1.6 -0.246,0.626 -0.368,1.345 -0.368,2.148 0,0.807 0.122,1.526 0.368,2.152 0.249,0.632 0.595,1.17 1.04,1.599 0.445,0.441 0.978,0.771 1.599,0.998 0.621,0.224 1.307,0.336 2.051,0.336 0.596,0 1.139,-0.061 1.631,-0.19 0.486,-0.125 0.923,-0.279 1.302,-0.456 -0.073,-0.135 -0.133,-0.316 -0.179,-0.544 -0.042,-0.227 -0.078,-0.418 -0.106,-0.567 l -0.081,-0.028 c -0.091,0.114 -0.217,0.244 -0.378,0.383 -0.163,0.141 -0.352,0.28 -0.566,0.415 -0.218,0.129 -0.458,0.237 -0.73,0.331 -0.272,0.089 -0.569,0.14 -0.893,0.14 -0.529,0 -1.024,-0.094 -1.474,-0.275 -0.458,-0.181 -0.851,-0.455 -1.193,-0.828 -0.336,-0.378 -0.597,-0.848 -0.786,-1.428 -0.189,-0.569 -0.285,-1.248 -0.285,-2.038 0,-0.781 0.096,-1.46 0.285,-2.034 0.189,-0.575 0.45,-1.046 0.786,-1.424 0.342,-0.372 0.735,-0.651 1.193,-0.827 0.45,-0.181 0.945,-0.275 1.474,-0.275 0.324,0 0.624,0.048 0.899,0.13 0.276,0.088 0.528,0.191 0.758,0.305 0.227,0.12 0.435,0.248 0.618,0.383 0.189,0.14 0.345,0.258 0.466,0.363 l 0.054,-0.051 -0.119,-0.844 c -0.08,-0.073 -0.209,-0.156 -0.388,-0.249"
         style="fill:#384ea9;fill-opacity:1;fill-rule:nonzero;stroke:none"
         id="path3476"
         inkscape:connector-curvature="0" /><path
         d="m 142.7417,352.6904 c -1.169,1.324 -2.339,2.639 -3.508,3.948 -0.01,-0.269 -0.018,-0.627 -0.026,-1.072 -0.01,-0.438 -0.015,-1.05 -0.015,-1.815 0,-0.198 0.002,-0.446 0.005,-0.741 0.007,-0.295 0.01,-0.6 0.018,-0.921 0.003,-0.326 0.008,-0.652 0.018,-0.984 0.008,-0.33 0.016,-0.636 0.026,-0.921 0.01,-0.289 0.02,-0.538 0.026,-0.744 0.01,-0.218 0.021,-0.363 0.028,-0.435 -0.144,0.02 -0.3,0.026 -0.47,0.026 -0.182,0 -0.348,-0.006 -0.5,-0.026 0.018,0.094 0.036,0.269 0.059,0.523 0.024,0.258 0.045,0.564 0.063,0.921 0.015,0.352 0.036,0.735 0.062,1.154 0.021,0.418 0.038,0.833 0.051,1.252 0.016,0.413 0.021,0.828 0.032,1.222 0.01,0.392 0.015,0.756 0.015,1.065 0,0.91 -0.003,1.693 -0.005,2.344 -0.008,0.652 -0.021,1.139 -0.036,1.459 l 0.217,0 c 0.548,-0.621 1.136,-1.288 1.764,-2.003 0.624,-0.713 1.245,-1.422 1.861,-2.115 0.615,-0.699 1.2,-1.356 1.754,-1.983 0.554,-0.615 1.038,-1.143 1.452,-1.583 l 0,1.936 c 0,0.993 -0.008,1.962 -0.024,2.903 -0.01,0.947 -0.041,1.831 -0.088,2.664 0.181,-0.046 0.334,-0.072 0.464,-0.072 0.106,0 0.25,0.026 0.429,0.072 -0.016,-0.206 -0.037,-0.517 -0.06,-0.936 -0.02,-0.419 -0.046,-0.859 -0.07,-1.335 -0.018,-0.471 -0.039,-0.937 -0.059,-1.392 -0.018,-0.455 -0.028,-0.823 -0.028,-1.098 l 0,-0.847 c 0,-0.326 0.005,-0.663 0.007,-1.015 0.005,-0.347 0.011,-0.699 0.016,-1.055 0.002,-0.358 0.005,-0.684 0.013,-0.994 0.002,-0.311 0.008,-0.575 0.008,-0.801 l 0,-0.472 -0.189,0 c -1.038,1.262 -2.14,2.552 -3.31,3.871"
         style="fill:#384ea9;fill-opacity:1;fill-rule:nonzero;stroke:none"
         id="path3480"
         inkscape:connector-curvature="0" /><path
         d="m 150.354,353.4248 c 0.238,0 0.479,-0.011 0.732,-0.016 0.251,-0.009 0.495,-0.015 0.73,-0.015 0.248,0 0.499,0.006 0.752,0.006 0.252,0.004 0.505,0.014 0.757,0.025 l -1.499,3.606 -1.472,-3.606 z m 5.982,-4.419 c -0.127,0.02 -0.246,0.025 -0.36,0.025 l -0.357,0 -0.354,0 c -0.114,0 -0.233,-0.005 -0.36,-0.025 -0.065,0.217 -0.15,0.476 -0.256,0.786 -0.108,0.312 -0.228,0.626 -0.357,0.968 -0.135,0.337 -0.264,0.678 -0.399,1.02 -0.134,0.346 -0.261,0.676 -0.378,0.988 -0.286,0.011 -0.581,0.02 -0.879,0.025 -0.295,0 -0.595,0.006 -0.89,0.006 -0.28,0 -0.554,-0.006 -0.826,-0.006 -0.269,-0.005 -0.543,-0.014 -0.819,-0.025 -0.288,-0.74 -0.549,-1.439 -0.782,-2.107 -0.238,-0.672 -0.411,-1.22 -0.527,-1.655 -0.156,0.02 -0.321,0.025 -0.503,0.025 -0.178,0 -0.344,-0.005 -0.499,-0.025 0.73,1.655 1.441,3.307 2.132,4.941 0.696,1.641 1.391,3.307 2.093,4.999 l 0.256,0 c 0.217,-0.542 0.45,-1.137 0.704,-1.781 0.254,-0.64 0.507,-1.282 0.769,-1.934 0.258,-0.658 0.522,-1.304 0.784,-1.951 0.261,-0.641 0.506,-1.242 0.737,-1.796 0.227,-0.553 0.434,-1.05 0.621,-1.485 0.181,-0.435 0.333,-0.765 0.45,-0.993"
         style="fill:#384ea9;fill-opacity:1;fill-rule:nonzero;stroke:none"
         id="path3484"
         inkscape:connector-curvature="0" /><path
         inkscape:connector-curvature="0"
         id="path3486"
         style="fill:#384ea9;fill-opacity:1;fill-rule:nonzero;stroke:none"
         d="m 160.465,351.872 -3.363,0 0,0.881 3.363,0 0,-0.881 z" /><path
         d="m 168.8945,349.3369 c -0.178,-0.088 -0.388,-0.171 -0.634,-0.243 -0.245,-0.069 -0.525,-0.129 -0.833,-0.187 -0.303,-0.062 -0.623,-0.088 -0.954,-0.088 -0.712,0 -1.37,0.104 -1.972,0.321 -0.606,0.212 -1.123,0.538 -1.558,0.972 -0.437,0.436 -0.778,0.968 -1.027,1.6 -0.251,0.626 -0.372,1.345 -0.372,2.148 0,0.807 0.121,1.526 0.372,2.152 0.249,0.632 0.593,1.17 1.04,1.599 0.445,0.441 0.979,0.771 1.599,0.998 0.621,0.224 1.307,0.336 2.049,0.336 0.593,0 1.136,-0.061 1.628,-0.19 0.492,-0.125 0.924,-0.279 1.302,-0.456 -0.071,-0.135 -0.13,-0.316 -0.175,-0.544 -0.046,-0.227 -0.08,-0.418 -0.106,-0.567 l -0.084,-0.028 c -0.088,0.114 -0.216,0.244 -0.376,0.383 -0.163,0.141 -0.352,0.28 -0.566,0.415 -0.215,0.129 -0.461,0.237 -0.733,0.331 -0.266,0.089 -0.564,0.14 -0.89,0.14 -0.53,0 -1.022,-0.094 -1.477,-0.275 -0.453,-0.181 -0.849,-0.455 -1.185,-0.828 -0.337,-0.378 -0.603,-0.848 -0.792,-1.428 -0.188,-0.569 -0.281,-1.248 -0.281,-2.038 0,-0.781 0.093,-1.46 0.281,-2.034 0.189,-0.575 0.455,-1.046 0.792,-1.424 0.336,-0.372 0.732,-0.651 1.185,-0.827 0.455,-0.181 0.947,-0.275 1.477,-0.275 0.326,0 0.626,0.048 0.901,0.13 0.272,0.088 0.525,0.191 0.755,0.305 0.228,0.12 0.437,0.248 0.621,0.383 0.184,0.14 0.339,0.258 0.466,0.363 l 0.052,-0.051 -0.12,-0.844 c -0.08,-0.073 -0.209,-0.156 -0.385,-0.249"
         style="fill:#384ea9;fill-opacity:1;fill-rule:nonzero;stroke:none"
         id="path3490"
         inkscape:connector-curvature="0" /><path
         d="m 171.0781,356.6738 c -0.002,0.383 -0.01,0.755 -0.018,1.129 -0.008,0.367 -0.021,0.719 -0.034,1.056 -0.015,0.336 -0.028,0.621 -0.044,0.858 0.249,-0.046 0.453,-0.067 0.608,-0.067 0.148,0 0.352,0.021 0.603,0.067 -0.015,-0.237 -0.035,-0.522 -0.049,-0.853 -0.013,-0.332 -0.021,-0.673 -0.031,-1.046 -0.01,-0.362 -0.015,-0.73 -0.021,-1.102 -0.005,-0.368 -0.005,-0.704 -0.005,-1.019 l 0,-1.082 0.026,0 c 0.251,0.41 0.557,0.725 0.908,0.948 0.352,0.221 0.771,0.335 1.26,0.335 0.249,0 0.505,-0.04 0.766,-0.119 0.254,-0.073 0.487,-0.202 0.693,-0.387 0.213,-0.187 0.378,-0.436 0.508,-0.756 0.134,-0.316 0.196,-0.72 0.196,-1.211 0,-0.408 -0.008,-0.828 -0.023,-1.258 -0.02,-0.43 -0.031,-0.889 -0.031,-1.371 l 0,-0.927 c 0,-0.149 0.005,-0.299 0.011,-0.444 0.002,-0.15 0.01,-0.285 0.02,-0.419 -0.181,0.02 -0.372,0.025 -0.577,0.025 -0.189,0 -0.377,-0.005 -0.559,-0.025 0.021,0.491 0.039,0.998 0.063,1.516 0.022,0.527 0.03,1.061 0.03,1.608 l 0,0.87 c 0,0.709 -0.129,1.247 -0.39,1.611 -0.257,0.361 -0.618,0.542 -1.079,0.542 -0.629,0 -1.092,-0.197 -1.382,-0.611 -0.298,-0.403 -0.44,-0.976 -0.44,-1.718 0,-0.262 0,-0.569 0.005,-0.921 0.006,-0.351 0.011,-0.704 0.021,-1.06 0.01,-0.353 0.018,-0.699 0.031,-1.03 0.014,-0.331 0.034,-0.601 0.049,-0.807 -0.204,0.02 -0.411,0.025 -0.603,0.025 -0.201,0 -0.403,-0.005 -0.608,-0.025 0.016,0.217 0.029,0.491 0.044,0.823 0.013,0.33 0.026,0.682 0.034,1.05 0.008,0.372 0.016,0.745 0.018,1.122 0.008,0.384 0.011,0.73 0.011,1.051 l 0,2.571 c 0,0.322 -0.003,0.673 -0.011,1.051"
         style="fill:#384ea9;fill-opacity:1;fill-rule:nonzero;stroke:none"
         id="path3494"
         inkscape:connector-curvature="0" /><path
         d="m 178.8013,354.4385 c -0.013,0.472 -0.042,0.906 -0.087,1.315 0.253,-0.047 0.455,-0.073 0.608,-0.073 0.152,0 0.352,0.026 0.607,0.073 -0.046,-0.409 -0.075,-0.843 -0.088,-1.315 -0.013,-0.47 -0.023,-0.916 -0.023,-1.345 l 0,-1.475 c 0,-0.424 0.01,-0.874 0.023,-1.345 0.013,-0.467 0.042,-0.891 0.088,-1.268 -0.21,0.02 -0.411,0.026 -0.607,0.026 -0.197,0 -0.402,-0.006 -0.608,-0.026 0.045,0.377 0.074,0.801 0.087,1.268 0.013,0.471 0.019,0.921 0.019,1.345 l 0,1.475 c 0,0.429 -0.006,0.875 -0.019,1.345 m 0.031,4.301 c 0.14,0.139 0.298,0.206 0.49,0.206 0.19,0 0.352,-0.067 0.483,-0.206 0.138,-0.146 0.204,-0.311 0.204,-0.513 0,-0.202 -0.066,-0.367 -0.204,-0.512 -0.131,-0.14 -0.293,-0.212 -0.483,-0.212 -0.192,0 -0.35,0.072 -0.49,0.212 -0.132,0.145 -0.199,0.31 -0.199,0.512 0,0.202 0.067,0.367 0.199,0.513"
         style="fill:#384ea9;fill-opacity:1;fill-rule:nonzero;stroke:none"
         id="path3498"
         inkscape:connector-curvature="0" /><path
         d="m 182.501,356.6738 c -0.002,0.383 -0.013,0.755 -0.023,1.129 -0.01,0.367 -0.019,0.719 -0.031,1.056 -0.013,0.336 -0.031,0.621 -0.049,0.858 0.256,-0.046 0.455,-0.067 0.608,-0.067 0.156,0 0.354,0.021 0.605,0.067 -0.018,-0.237 -0.03,-0.522 -0.043,-0.858 -0.014,-0.337 -0.027,-0.689 -0.037,-1.056 -0.005,-0.374 -0.013,-0.746 -0.018,-1.129 -0.008,-0.378 -0.008,-0.729 -0.008,-1.051 l 0,-2.571 c 0,-0.321 0,-0.667 0.008,-1.051 0.005,-0.377 0.013,-0.75 0.018,-1.122 0.01,-0.368 0.023,-0.72 0.037,-1.05 0.013,-0.332 0.025,-0.606 0.043,-0.823 -0.206,0.02 -0.409,0.025 -0.605,0.025 -0.196,0 -0.399,-0.005 -0.608,-0.025 0.018,0.217 0.036,0.491 0.049,0.823 0.012,0.33 0.021,0.682 0.031,1.05 0.01,0.372 0.021,0.745 0.023,1.122 0.003,0.384 0.008,0.73 0.008,1.051 l 0,2.571 c 0,0.322 -0.005,0.673 -0.008,1.051"
         style="fill:#384ea9;fill-opacity:1;fill-rule:nonzero;stroke:none"
         id="path3502"
         inkscape:connector-curvature="0" /><path
         d="m 187.5596,355.1992 c -0.228,-0.16 -0.417,-0.362 -0.564,-0.605 -0.15,-0.239 -0.262,-0.507 -0.339,-0.791 -0.077,-0.295 -0.124,-0.564 -0.14,-0.818 0.277,-0.012 0.569,-0.02 0.87,-0.031 0.302,-0.012 0.597,-0.012 0.885,-0.012 0.297,0 0.597,0 0.903,0.012 0.304,0.011 0.602,0.019 0.889,0.031 0,0.254 -0.018,0.523 -0.061,0.807 -0.037,0.285 -0.12,0.554 -0.241,0.798 -0.119,0.243 -0.287,0.449 -0.505,0.609 -0.217,0.161 -0.502,0.243 -0.853,0.243 -0.332,0 -0.614,-0.082 -0.844,-0.243 m -1.482,-0.295 c 0.527,0.662 1.293,0.993 2.3,0.993 0.478,0 0.89,-0.082 1.233,-0.237 0.347,-0.155 0.637,-0.362 0.875,-0.621 0.231,-0.264 0.407,-0.569 0.515,-0.921 0.117,-0.352 0.168,-0.725 0.168,-1.118 0,-0.098 0,-0.192 -0.003,-0.284 -0.002,-0.083 -0.013,-0.181 -0.023,-0.275 -0.483,0.011 -0.965,0.015 -1.44,0.031 -0.482,0.011 -0.958,0.011 -1.447,0.011 -0.298,0 -0.592,0 -0.883,-0.011 -0.294,-0.016 -0.587,-0.02 -0.884,-0.031 -0.011,-0.046 -0.013,-0.119 -0.013,-0.212 l 0,-0.18 c 0,-0.374 0.052,-0.715 0.155,-1.041 0.103,-0.321 0.254,-0.601 0.452,-0.833 0.198,-0.228 0.441,-0.414 0.728,-0.554 0.287,-0.14 0.624,-0.207 1.001,-0.207 0.181,0 0.363,0.031 0.551,0.078 0.192,0.057 0.375,0.129 0.554,0.217 0.181,0.089 0.349,0.197 0.507,0.315 0.158,0.125 0.293,0.26 0.411,0.405 l 0.068,-0.047 -0.083,-0.694 c -0.266,-0.227 -0.603,-0.424 -1.004,-0.585 -0.401,-0.16 -0.818,-0.238 -1.247,-0.238 -0.486,0 -0.932,0.078 -1.33,0.229 -0.401,0.155 -0.748,0.387 -1.043,0.683 -0.292,0.299 -0.514,0.652 -0.67,1.06 -0.16,0.409 -0.24,0.849 -0.24,1.32 0,1.163 0.266,2.08 0.792,2.747"
         style="fill:#384ea9;fill-opacity:1;fill-rule:nonzero;stroke:none"
         id="path3506"
         inkscape:connector-curvature="0" /><path
         d="m 166.2739,442.2832 13.446,-30.014 -9.299,-6.835 -11.55,25.899 -14.796,-34.333 -0.593,-0.59 -1.182,-0.445 -10.507,0 -0.298,0.145 19.979,46.473 0.593,0.59 0.74,0 12.877,0 0.258,-0.258 0.332,-0.632 z"
         style="fill:#384ea9;fill-opacity:1;fill-rule:evenodd;stroke:none"
         id="path3510"
         inkscape:connector-curvature="0" /><path
         d="m 170.4727,405.2061 -11.894,-9.536 15.783,0.011 -3.889,9.525 z"
         style="fill:#33b56b;fill-opacity:1;fill-rule:evenodd;stroke:none"
         id="path3514"
         inkscape:connector-curvature="0" /><path
         d="m 179.8804,412.084 23.689,19.472 -15.537,-35.741 -0.222,0 -0.517,0 -0.373,0.368 -7.04,15.901 z"
         style="fill:#33b56b;fill-opacity:1;fill-rule:evenodd;stroke:none"
         id="path3518"
         inkscape:connector-curvature="0" /></g></g></svg>