<?xml version="1.0" encoding="UTF-8" standalone="no"?>
<!-- Created with Inkscape (http://www.inkscape.org/) -->

<svg
   xmlns:dc="http://purl.org/dc/elements/1.1/"
   xmlns:cc="http://creativecommons.org/ns#"
   xmlns:rdf="http://www.w3.org/1999/02/22-rdf-syntax-ns#"
   xmlns:svg="http://www.w3.org/2000/svg"
   xmlns="http://www.w3.org/2000/svg"
   xmlns:sodipodi="http://sodipodi.sourceforge.net/DTD/sodipodi-0.dtd"
   xmlns:inkscape="http://www.inkscape.org/namespaces/inkscape"
   width="713.9516"
   height="210"
   viewBox="0 0 713.9516 210"
   id="svg2"
   version="1.1"
   inkscape:version="0.91 r13725"
   sodipodi:docname="OTECNYA.svg">
  <defs
     id="defs4">
    <marker
       inkscape:stockid="Arrow1Lstart"
       orient="auto"
       refY="0"
       refX="0"
       id="Arrow1Lstart"
       style="overflow:visible"
       inkscape:isstock="true">
      <path
         id="path5036"
         d="M 0,0 5,-5 -12.5,0 5,5 0,0 Z"
         style="fill:#ffffff;fill-opacity:1;fill-rule:evenodd;stroke:#000000;stroke-width:1pt;stroke-opacity:1"
         transform="matrix(0.8,0,0,0.8,10,0)"
         inkscape:connector-curvature="0" />
    </marker>
  </defs>
  <sodipodi:namedview
     id="base"
     pagecolor="#ffffff"
     bordercolor="#666666"
     borderopacity="1.0"
     inkscape:pageopacity="0.0"
     inkscape:pageshadow="2"
     inkscape:zoom="1.1054688"
     inkscape:cx="314.44115"
     inkscape:cy="21.385451"
     inkscape:document-units="px"
     inkscape:current-layer="layer1"
     showgrid="false"
     inkscape:window-width="1366"
     inkscape:window-height="715"
     inkscape:window-x="-8"
     inkscape:window-y="22"
     inkscape:window-maximized="1"
     showguides="true"
     units="px"
     inkscape:guide-bbox="true"
     fit-margin-top="5"
     fit-margin-left="5"
     fit-margin-right="5"
     fit-margin-bottom="5" />
  <metadata
     id="metadata7">
    <rdf:RDF>
      <cc:Work
         rdf:about="">
        <dc:format>image/svg+xml</dc:format>
        <dc:type
           rdf:resource="http://purl.org/dc/dcmitype/StillImage" />
        <dc:title />
      </cc:Work>
    </rdf:RDF>
  </metadata>
  <g
     inkscape:label="Capa 1"
     inkscape:groupmode="layer"
     id="layer1"
     transform="translate(-500.52221,-312.85025)">
    <g
       id="g3736"
       transform="matrix(1.3419026,0,0,1.3419026,-172.83939,-177.05438)">
      <path
         inkscape:connector-curvature="0"
         id="circle3355-0"
         d="m 602.72679,466.01233 a 54.311823,62.968705 45 0 0 6.1213,-82.92913 54.311823,62.968705 45 0 0 -82.93166,6.12146 54.311823,62.968705 45 0 0 -9.28047,11.49271 54.311823,62.968705 45 0 1 71.43333,3.16696 54.311823,62.968705 45 0 1 3.1619,71.4337 54.311823,62.968705 45 0 0 11.49542,-9.28322 z"
         style="opacity:1;fill:#66bb6a;fill-opacity:1" />
      <path
         inkscape:connector-curvature="0"
         style="opacity:1;fill:#ef6c00;fill-opacity:1"
         d="m 525.91739,389.20142 a 54.311823,62.968705 45 0 0 -6.1213,82.92913 54.311823,62.968705 45 0 0 82.93166,-6.12146 54.311823,62.968705 45 0 0 9.28049,-11.49278 54.311823,62.968705 45 0 1 -71.43335,-3.16689 54.311823,62.968705 45 0 1 -3.1619,-71.4337 54.311823,62.968705 45 0 0 -11.49542,9.28313 z"
         id="path3360-8" />
      <path
         d="m 663.90948,404.20066 -22.84528,0 0,55.39555 -21.83739,0 0,-55.39555 -22.95727,0 0,-17.43933 67.63994,0 0,17.43933 z"
         style="font-style:normal;font-variant:normal;font-weight:normal;font-stretch:normal;font-size:medium;line-height:125%;font-family:Raleway;-inkscape-font-specification:Raleway;letter-spacing:0px;word-spacing:0px;fill:#ef6c00;fill-opacity:1;stroke:none;stroke-width:1px;stroke-linecap:butt;stroke-linejoin:miter;stroke-opacity:1"
         id="path3908-7"
         inkscape:connector-curvature="0" />
      <path
         d="m 728.419,442.15686 0,17.43935 -56.66523,0 0,-72.83488 55.65734,0 0,17.43933 -33.81997,0 0,10.25845 28.89255,0 0,16.2084 -28.89255,0 0,11.48935 34.82786,0 z"
         style="font-style:normal;font-variant:normal;font-weight:normal;font-stretch:normal;font-size:medium;line-height:125%;font-family:Raleway;-inkscape-font-specification:Raleway;letter-spacing:0px;word-spacing:0px;fill:#66bb6a;fill-opacity:1;stroke:none;stroke-width:1px;stroke-linecap:butt;stroke-linejoin:miter;stroke-opacity:1"
         id="path3910-6"
         inkscape:connector-curvature="0" />
      <path
         d="m 733.00344,422.56336 q 0,-6.66808 2.57569,-13.13088 2.57568,-6.46283 7.50311,-11.59205 5.0394,-5.12923 12.09456,-8.30935 7.16714,-3.1801 16.23804,-3.1801 10.63873,0 18.58978,4.41113 7.95105,4.30855 11.75859,11.48944 l -16.68601,10.87396 q -1.00786,-2.66719 -2.68767,-4.41113 -1.56782,-1.74393 -3.47158,-2.76978 -1.90378,-1.02584 -4.03151,-1.43617 -2.12775,-0.41035 -3.91954,-0.41035 -4.14351,0 -7.16713,1.74394 -2.91166,1.64134 -4.92743,4.41112 -1.90376,2.66721 -2.79967,6.15506 -0.89587,3.38537 -0.89587,6.77059 0,3.7956 1.00785,7.28351 1.11988,3.4879 3.13565,6.155 2.12773,2.66727 5.03939,4.30853 3.02365,1.53874 6.83118,1.53874 1.90379,0 3.91953,-0.41022 2.01577,-0.51292 3.80755,-1.53874 1.90376,-1.12852 3.35959,-2.76979 1.56781,-1.74395 2.46371,-4.20602 l 17.80587,9.74558 q -1.6798,4.00065 -5.15139,7.18084 -3.3596,3.18019 -7.72706,5.33436 -4.3675,2.15436 -9.29489,3.2827 -4.92742,1.12852 -9.63086,1.12852 -8.287,0 -15.23017,-3.18019 -6.94317,-3.28269 -11.98258,-8.61706 -4.92738,-5.33436 -7.72706,-12.10496 -2.79967,-6.7706 -2.79967,-13.74623 z"
         style="font-style:normal;font-variant:normal;font-weight:normal;font-stretch:normal;font-size:medium;line-height:125%;font-family:Raleway;-inkscape-font-specification:Raleway;letter-spacing:0px;word-spacing:0px;fill:#66bb6a;fill-opacity:1;stroke:none;stroke-width:1px;stroke-linecap:butt;stroke-linejoin:miter;stroke-opacity:1"
         id="path3912-6"
         inkscape:connector-curvature="0" />
      <path
         d="m 832.48077,423.79422 0,35.80199 -21.83737,0 0,-72.83488 17.02195,0 31.91619,37.03289 0,-37.03289 21.83738,0 0,72.83488 -17.35793,0 -31.58022,-35.80199 z"
         style="font-style:normal;font-variant:normal;font-weight:normal;font-stretch:normal;font-size:medium;line-height:125%;font-family:Raleway;-inkscape-font-specification:Raleway;letter-spacing:0px;word-spacing:0px;fill:#66bb6a;fill-opacity:1;stroke:none;stroke-width:1px;stroke-linecap:butt;stroke-linejoin:miter;stroke-opacity:1"
         id="path3914-5"
         inkscape:connector-curvature="0" />
      <path
         d="m 910.41296,386.76133 14.22229,31.49341 14.55826,-31.49341 23.74116,0 -27.43672,48.72761 0,24.10727 -21.72538,0 0,-24.31246 -26.98878,-48.52242 23.62917,0 z"
         style="font-style:normal;font-variant:normal;font-weight:normal;font-stretch:normal;font-size:medium;line-height:125%;font-family:Raleway;-inkscape-font-specification:Raleway;letter-spacing:0px;word-spacing:0px;fill:#66bb6a;fill-opacity:1;stroke:none;stroke-width:1px;stroke-linecap:butt;stroke-linejoin:miter;stroke-opacity:1"
         id="path3916-4"
         inkscape:connector-curvature="0" />
      <path
         d="m 953.17959,459.59621 29.67645,-72.83488 17.69386,0 29.5645,72.83488 -23.0693,0 -4.8154,-14.25916 -21.16546,0 -4.70342,14.25916 -23.18123,0 z m 38.52338,-52.01026 -7.3911,24.41511 14.44626,0 -7.05516,-24.41511 z"
         style="font-style:normal;font-variant:normal;font-weight:normal;font-stretch:normal;font-size:medium;line-height:125%;font-family:Raleway;-inkscape-font-specification:Raleway;letter-spacing:0px;word-spacing:0px;fill:#66bb6a;fill-opacity:1;stroke:none;stroke-width:1px;stroke-linecap:butt;stroke-linejoin:miter;stroke-opacity:1"
         id="path3918-3"
         inkscape:connector-curvature="0" />
      <path
         inkscape:connector-curvature="0"
         id="path3967-9"
         d="m 634.49739,500.12077 5.7334,-0.56346 q 0.51761,2.91804 2.09031,4.28653 1.59261,1.36849 4.28013,1.36849 2.8468,0 4.28015,-1.20755 1.45326,-1.2275 1.45326,-2.85769 0,-1.04644 -0.61714,-1.77083 -0.59724,-0.74469 -2.11022,-1.28802 -1.03519,-0.36211 -4.7181,-1.2879 -4.73802,-1.18735 -6.64914,-2.91802 -2.68753,-2.43505 -2.68753,-5.93667 0,-2.25391 1.25417,-4.20597 1.27409,-1.97218 3.6431,-2.99852 2.38891,-1.02633 5.7533,-1.02633 5.4945,0 8.26166,2.43503 2.78706,2.43503 2.92643,6.50015 l -5.89265,0.26161 q -0.37826,-2.27406 -1.63243,-3.26013 -1.23428,-1.00623 -3.72274,-1.00623 -2.56808,0 -4.02133,1.0666 -0.93566,0.68422 -0.93566,1.8313 0,1.04648 0.87592,1.79106 1.11484,0.94584 5.41489,1.9722 4.30005,1.02632 6.35054,2.13315 2.07039,1.08673 3.22502,2.99852 1.17456,1.89173 1.17456,4.68888 0,2.53582 -1.39352,4.7494 -1.39354,2.21358 -3.94172,3.30044 -2.54819,1.06656 -6.35055,1.06656 -5.53432,0 -8.50055,-2.57587 -2.96622,-2.59617 -3.54356,-7.54673 z"
         style="font-style:normal;font-variant:normal;font-weight:bold;font-stretch:normal;font-size:medium;line-height:125%;font-family:Arial;-inkscape-font-specification:'Arial, Bold';text-align:start;letter-spacing:0px;word-spacing:0px;writing-mode:lr-tb;text-anchor:start;fill:#ef6c00;fill-opacity:1;stroke:none;stroke-width:1px;stroke-linecap:butt;stroke-linejoin:miter;stroke-opacity:1" />
      <path
         inkscape:connector-curvature="0"
         id="path3969-7"
         d="m 661.8903,498.73234 q 0,-2.81749 1.3736,-5.45376 1.37364,-2.63627 3.882,-4.02486 2.52828,-1.38856 5.63385,-1.38856 4.79775,0 7.86353,3.15951 3.06578,3.13938 3.06578,7.94907 0,4.84998 -3.1056,8.04984 -3.08569,3.17937 -7.78389,3.17937 -2.90651,0 -5.55422,-1.32808 -2.62781,-1.32825 -4.00145,-3.884 -1.3736,-2.57587 -1.3736,-6.25853 z m 5.73339,0.30175 q 0,3.17974 1.49307,4.8701 1.49307,1.69036 3.68291,1.69036 2.18984,0 3.663,-1.69036 1.49307,-1.69036 1.49307,-4.91033 0,-3.13938 -1.49307,-4.82981 -1.47316,-1.69044 -3.663,-1.69044 -2.18984,0 -3.68291,1.69044 -1.49307,1.69043 -1.49307,4.87004 z"
         style="font-style:normal;font-variant:normal;font-weight:bold;font-stretch:normal;font-size:medium;line-height:125%;font-family:Arial;-inkscape-font-specification:'Arial, Bold';text-align:start;letter-spacing:0px;word-spacing:0px;writing-mode:lr-tb;text-anchor:start;fill:#ef6c00;fill-opacity:1;stroke:none;stroke-width:1px;stroke-linecap:butt;stroke-linejoin:miter;stroke-opacity:1" />
      <path
         inkscape:connector-curvature="0"
         id="path3971-4"
         d="m 687.69059,488.34815 5.15607,0 0,2.91801 q 2.76714,-3.401 6.58942,-3.401 2.03057,0 3.52364,0.84522 1.49307,0.84522 2.44864,2.55578 1.39352,-1.71056 3.00607,-2.55578 1.6125,-0.84522 3.44399,-0.84522 2.32921,0 3.94171,0.96597 1.61252,0.94582 2.40883,2.79727 0.57732,1.36843 0.57732,4.42732 l 0,13.66443 -5.59404,0 0,-12.21548 q 0,-3.17961 -0.57732,-4.10534 -0.7764,-1.20746 -2.38892,-1.20746 -1.17454,0 -2.20974,0.72448 -1.03519,0.72448 -1.49308,2.13317 -0.45786,1.38857 -0.45786,4.40721 l 0,10.26342 -5.59406,0 0,-11.71238 q 0,-3.11926 -0.29861,-4.02483 -0.2986,-0.9056 -0.93566,-1.34834 -0.61713,-0.44273 -1.69213,-0.44273 -1.29399,0 -2.32921,0.70434 -1.03519,0.70437 -1.49306,2.03255 -0.43797,1.32821 -0.43797,4.40727 l 0,10.38412 -5.59403,0 0,-21.372 z"
         style="font-style:normal;font-variant:normal;font-weight:bold;font-stretch:normal;font-size:medium;line-height:125%;font-family:Arial;-inkscape-font-specification:'Arial, Bold';text-align:start;letter-spacing:0px;word-spacing:0px;writing-mode:lr-tb;text-anchor:start;fill:#ef6c00;fill-opacity:1;stroke:none;stroke-width:1px;stroke-linecap:butt;stroke-linejoin:miter;stroke-opacity:1" />
      <path
         inkscape:connector-curvature="0"
         id="path3973-3"
         d="m 723.04651,498.73234 q 0,-2.81749 1.37362,-5.45376 1.37364,-2.63627 3.88199,-4.02486 2.52828,-1.38856 5.63386,-1.38856 4.79773,0 7.86352,3.15951 3.06578,3.13938 3.06578,7.94907 0,4.84998 -3.10561,8.04984 -3.08568,3.17937 -7.78388,3.17937 -2.90651,0 -5.55421,-1.32808 -2.62781,-1.32825 -4.00145,-3.884 -1.37362,-2.57587 -1.37362,-6.25853 z m 5.7334,0.30175 q 0,3.17974 1.49307,4.8701 1.49307,1.69036 3.68291,1.69036 2.18983,0 3.663,-1.69036 1.49307,-1.69036 1.49307,-4.91033 0,-3.13938 -1.49307,-4.82981 -1.47317,-1.69044 -3.663,-1.69044 -2.18984,0 -3.68291,1.69044 -1.49307,1.69043 -1.49307,4.87004 z"
         style="font-style:normal;font-variant:normal;font-weight:bold;font-stretch:normal;font-size:medium;line-height:125%;font-family:Arial;-inkscape-font-specification:'Arial, Bold';text-align:start;letter-spacing:0px;word-spacing:0px;writing-mode:lr-tb;text-anchor:start;fill:#ef6c00;fill-opacity:1;stroke:none;stroke-width:1px;stroke-linecap:butt;stroke-linejoin:miter;stroke-opacity:1" />
      <path
         inkscape:connector-curvature="0"
         id="path3975-3"
         d="m 747.29399,503.62237 5.61395,-0.8652 q 0.35835,1.65012 1.45327,2.51551 1.09492,0.84509 3.06576,0.84509 2.16994,0 3.26486,-0.80485 0.73659,-0.56346 0.73659,-1.50931 0,-0.64393 -0.39815,-1.06656 -0.41805,-0.40252 -1.87132,-0.74469 -6.76859,-1.50931 -8.58018,-2.75692 -2.50836,-1.73077 -2.50836,-4.80976 0,-2.77715 2.16992,-4.66884 2.16994,-1.89168 6.72879,-1.89168 4.33985,0 6.45006,1.42881 2.1102,1.42884 2.90651,4.2261 l -5.2755,0.98609 q -0.33844,-1.2477 -1.29401,-1.91181 -0.93567,-0.66409 -2.68752,-0.66409 -2.20976,0 -3.16533,0.62384 -0.63704,0.44273 -0.63704,1.1471 0,0.60372 0.5574,1.02634 0.75651,0.56347 5.21582,1.58981 4.4792,1.02638 6.25099,2.51557 1.75185,1.50931 1.75185,4.20588 0,2.93816 -2.4287,5.05115 -2.42874,2.113 -7.18668,2.113 -4.31995,0 -6.8482,-1.77065 -2.50836,-1.77101 -3.28478,-4.80993 z"
         style="font-style:normal;font-variant:normal;font-weight:bold;font-stretch:normal;font-size:medium;line-height:125%;font-family:Arial;-inkscape-font-specification:'Arial, Bold';text-align:start;letter-spacing:0px;word-spacing:0px;writing-mode:lr-tb;text-anchor:start;fill:#ef6c00;fill-opacity:1;stroke:none;stroke-width:1px;stroke-linecap:butt;stroke-linejoin:miter;stroke-opacity:1" />
      <path
         inkscape:connector-curvature="0"
         id="path3977-0"
         d="m 783.30691,509.72015 0,-29.50222 21.63957,0 0,4.99082 -15.74693,0 0,6.5404 14.65201,0 0,4.97068 -14.65201,0 0,8.02963 16.30433,0 0,4.97069 -22.19697,0 z"
         style="font-style:normal;font-variant:normal;font-weight:bold;font-stretch:normal;font-size:medium;line-height:125%;font-family:Arial;-inkscape-font-specification:'Arial, Bold';text-align:start;letter-spacing:0px;word-spacing:0px;writing-mode:lr-tb;text-anchor:start;fill:#ef6c00;fill-opacity:1;stroke:none;stroke-width:1px;stroke-linecap:butt;stroke-linejoin:miter;stroke-opacity:1" />
      <path
         inkscape:connector-curvature="0"
         id="path3979-2"
         d="m 807.81319,509.72015 7.62461,-11.00793 -7.30609,-10.36407 6.82832,0 3.74263,5.87628 3.9417,-5.87628 6.56952,0 -7.16674,10.12249 7.82371,11.24951 -6.86814,0 -4.30005,-6.621 -4.33986,6.621 -6.54961,0 z"
         style="font-style:normal;font-variant:normal;font-weight:bold;font-stretch:normal;font-size:medium;line-height:125%;font-family:Arial;-inkscape-font-specification:'Arial, Bold';text-align:start;letter-spacing:0px;word-spacing:0px;writing-mode:lr-tb;text-anchor:start;fill:#ef6c00;fill-opacity:1;stroke:none;stroke-width:1px;stroke-linecap:butt;stroke-linejoin:miter;stroke-opacity:1" />
      <path
         inkscape:connector-curvature="0"
         id="path3981-5"
         d="m 833.03614,488.34815 5.21581,0 0,3.13937 q 1.01528,-1.60995 2.74725,-2.61615 1.73196,-1.00621 3.84217,-1.00621 3.68289,0 6.251,2.91802 2.56808,2.91802 2.56808,8.13021 0,5.35309 -2.588,8.33147 -2.58799,2.95809 -6.2709,2.95809 -1.75187,0 -3.18521,-0.70427 -1.41346,-0.70427 -2.98614,-2.41493 l 0,10.76652 -5.59406,0 0,-29.50212 z m 5.53432,10.32366 q 0,3.60237 1.41346,5.33297 1.41342,1.71066 3.44399,1.71066 1.95096,0 3.24496,-1.56967 1.29399,-1.58995 1.29399,-5.19215 0,-3.36075 -1.3338,-4.99081 -1.33383,-1.63007 -3.30468,-1.63007 -2.05047,0 -3.40421,1.60995 -1.35371,1.58981 -1.35371,4.72912 z"
         style="font-style:normal;font-variant:normal;font-weight:bold;font-stretch:normal;font-size:medium;line-height:125%;font-family:Arial;-inkscape-font-specification:'Arial, Bold';text-align:start;letter-spacing:0px;word-spacing:0px;writing-mode:lr-tb;text-anchor:start;fill:#ef6c00;fill-opacity:1;stroke:none;stroke-width:1px;stroke-linecap:butt;stroke-linejoin:miter;stroke-opacity:1" />
      <path
         inkscape:connector-curvature="0"
         id="path3983-0"
         d="m 870.36295,502.9181 5.57414,0.94586 q -1.075,3.09909 -3.40421,4.7291 -2.30929,1.60989 -5.79312,1.60989 -5.5144,0 -8.16213,-3.64242 -2.09029,-2.91804 -2.09029,-7.3655 0,-5.31271 2.74726,-8.31123 2.74724,-3.01864 6.94774,-3.01864 4.71812,0 7.44546,3.15951 2.72734,3.13938 2.60789,9.63943 l -14.01495,0 q 0.0596,2.5157 1.35371,3.92425 1.294,1.38861 3.22504,1.38861 1.31389,0 2.20974,-0.72439 0.89586,-0.72457 1.35372,-2.33447 z m 0.31852,-5.71537 q -0.0596,-2.45508 -1.25417,-3.72291 -1.19447,-1.28795 -2.90653,-1.28795 -1.8315,0 -3.02596,1.34834 -1.19445,1.3483 -1.17453,3.66252 l 8.36119,0 z"
         style="font-style:normal;font-variant:normal;font-weight:bold;font-stretch:normal;font-size:medium;line-height:125%;font-family:Arial;-inkscape-font-specification:'Arial, Bold';text-align:start;letter-spacing:0px;word-spacing:0px;writing-mode:lr-tb;text-anchor:start;fill:#ef6c00;fill-opacity:1;stroke:none;stroke-width:1px;stroke-linecap:butt;stroke-linejoin:miter;stroke-opacity:1" />
      <path
         inkscape:connector-curvature="0"
         id="path3985-3"
         d="m 886.16961,509.72015 -5.59406,0 0,-21.372 5.19589,0 0,3.03875 q 1.33382,-2.1533 2.38892,-2.83751 1.07501,-0.68423 2.42875,-0.68423 1.9111,0 3.68289,1.06659 l -1.73197,4.93044 q -1.41342,-0.92573 -2.62781,-0.92573 -1.17454,0 -1.99076,0.66412 -0.8162,0.64397 -1.29399,2.35452 -0.45786,1.7105 -0.45786,7.16417 l 0,6.60088 z"
         style="font-style:normal;font-variant:normal;font-weight:bold;font-stretch:normal;font-size:medium;line-height:125%;font-family:Arial;-inkscape-font-specification:'Arial, Bold';text-align:start;letter-spacing:0px;word-spacing:0px;writing-mode:lr-tb;text-anchor:start;fill:#ef6c00;fill-opacity:1;stroke:none;stroke-width:1px;stroke-linecap:butt;stroke-linejoin:miter;stroke-opacity:1" />
      <path
         inkscape:connector-curvature="0"
         id="path3987-9"
         d="m 906.35594,488.34815 0,4.50781 -3.82228,0 0,8.61318 q 0,2.6161 0.0995,3.05886 0.11961,0.42263 0.4977,0.70445 0.39815,0.28164 0.95555,0.28164 0.77642,0 2.24958,-0.54334 l 0.47778,4.38711 q -1.95094,0.84509 -4.4195,0.84509 -1.51297,0 -2.72734,-0.5031 -1.21437,-0.52304 -1.79169,-1.32808 -0.5574,-0.82515 -0.7764,-2.21358 -0.17924,-0.98609 -0.17924,-3.98478 l 0,-9.31745 -2.56807,0 0,-4.50781 2.56807,0 0,-4.24624 5.61395,-3.30039 0,7.54663 3.82228,0 z"
         style="font-style:normal;font-variant:normal;font-weight:bold;font-stretch:normal;font-size:medium;line-height:125%;font-family:Arial;-inkscape-font-specification:'Arial, Bold';text-align:start;letter-spacing:0px;word-spacing:0px;writing-mode:lr-tb;text-anchor:start;fill:#ef6c00;fill-opacity:1;stroke:none;stroke-width:1px;stroke-linecap:butt;stroke-linejoin:miter;stroke-opacity:1" />
      <path
         inkscape:connector-curvature="0"
         id="path3989-0"
         d="m 908.98375,498.73234 q 0,-2.81749 1.37364,-5.45376 1.3736,-2.63627 3.88196,-4.02486 2.52828,-1.38856 5.63387,-1.38856 4.79773,0 7.86351,3.15951 3.06578,3.13938 3.06578,7.94907 0,4.84998 -3.1056,8.04984 -3.08567,3.17937 -7.78387,3.17937 -2.90651,0 -5.55422,-1.32808 -2.62783,-1.32825 -4.00143,-3.884 -1.37364,-2.57587 -1.37364,-6.25853 z m 5.73339,0.30175 q 0,3.17974 1.49307,4.8701 1.49307,1.69036 3.68293,1.69036 2.18982,0 3.66299,-1.69036 1.49308,-1.69036 1.49308,-4.91033 0,-3.13938 -1.49308,-4.82981 -1.47317,-1.69044 -3.66299,-1.69044 -2.18986,0 -3.68293,1.69044 -1.49307,1.69043 -1.49307,4.87004 z"
         style="font-style:normal;font-variant:normal;font-weight:bold;font-stretch:normal;font-size:medium;line-height:125%;font-family:Arial;-inkscape-font-specification:'Arial, Bold';text-align:start;letter-spacing:0px;word-spacing:0px;writing-mode:lr-tb;text-anchor:start;fill:#ef6c00;fill-opacity:1;stroke:none;stroke-width:1px;stroke-linecap:butt;stroke-linejoin:miter;stroke-opacity:1" />
      <path
         inkscape:connector-curvature="0"
         id="path3991-0"
         d="m 933.23121,503.62237 5.61396,-0.8652 q 0.35835,1.65012 1.45325,2.51551 1.09492,0.84509 3.06578,0.84509 2.16992,0 3.26484,-0.80485 0.73659,-0.56346 0.73659,-1.50931 0,-0.64393 -0.39815,-1.06656 -0.41807,-0.40252 -1.87133,-0.74469 -6.76859,-1.50931 -8.58017,-2.75692 -2.50836,-1.73077 -2.50836,-4.80976 0,-2.77715 2.16994,-4.66884 2.16992,-1.89168 6.72877,-1.89168 4.33987,0 6.45007,1.42881 2.11021,1.42884 2.90649,4.2261 l -5.2755,0.98609 q -0.33843,-1.2477 -1.29398,-1.91181 -0.93567,-0.66409 -2.68755,-0.66409 -2.20974,0 -3.16531,0.62384 -0.63703,0.44273 -0.63703,1.1471 0,0.60372 0.5574,1.02634 0.75649,0.56347 5.2158,1.58981 4.47922,1.02638 6.25099,2.51557 1.75187,1.50931 1.75187,4.20588 0,2.93816 -2.42872,5.05115 -2.42875,2.113 -7.18666,2.113 -4.31997,0 -6.84822,-1.77065 -2.50836,-1.77101 -3.28477,-4.80993 z"
         style="font-style:normal;font-variant:normal;font-weight:bold;font-stretch:normal;font-size:medium;line-height:125%;font-family:Arial;-inkscape-font-specification:'Arial, Bold';text-align:start;letter-spacing:0px;word-spacing:0px;writing-mode:lr-tb;text-anchor:start;fill:#ef6c00;fill-opacity:1;stroke:none;stroke-width:1px;stroke-linecap:butt;stroke-linejoin:miter;stroke-opacity:1" />
    </g>
  </g>
</svg>
