<?xml version="1.0" encoding="UTF-8" standalone="no"?>
<!-- Generator: Adobe Illustrator 17.0.0, SVG Export Plug-In . SVG Version: 6.00 Build 0)  -->

<svg
   xmlns:dc="http://purl.org/dc/elements/1.1/"
   xmlns:cc="http://creativecommons.org/ns#"
   xmlns:rdf="http://www.w3.org/1999/02/22-rdf-syntax-ns#"
   xmlns:svg="http://www.w3.org/2000/svg"
   xmlns="http://www.w3.org/2000/svg"
   xmlns:sodipodi="http://sodipodi.sourceforge.net/DTD/sodipodi-0.dtd"
   xmlns:inkscape="http://www.inkscape.org/namespaces/inkscape"
   version="1.1"
   id="Capa_1"
   x="0px"
   y="0px"
   width="218.52592"
   height="218.85899"
   viewBox="0 0 218.52592 218.85899"
   enable-background="new 0 0 200 81"
   xml:space="preserve"
   inkscape:version="0.91 r13725"
   sodipodi:docname="MULTIcaja.svg"><metadata
     id="metadata3621"><rdf:RDF><cc:Work
         rdf:about=""><dc:format>image/svg+xml</dc:format><dc:type
           rdf:resource="http://purl.org/dc/dcmitype/StillImage" /><dc:title></dc:title></cc:Work></rdf:RDF></metadata><defs
     id="defs3619" /><sodipodi:namedview
     pagecolor="#ffffff"
     bordercolor="#666666"
     borderopacity="1"
     objecttolerance="10"
     gridtolerance="10"
     guidetolerance="10"
     inkscape:pageopacity="0"
     inkscape:pageshadow="2"
     inkscape:window-width="1366"
     inkscape:window-height="715"
     id="namedview3617"
     showgrid="false"
     fit-margin-top="10"
     fit-margin-left="10"
     fit-margin-right="10"
     fit-margin-bottom="10"
     inkscape:zoom="1"
     inkscape:cx="306.71303"
     inkscape:cy="67.408995"
     inkscape:window-x="-8"
     inkscape:window-y="22"
     inkscape:window-maximized="1"
     inkscape:current-layer="Capa_1" /><g
     id="g3553"
     transform="matrix(3.297718,0,0,3.297718,-23.58396,-7.8142726)"><path
       style="fill:#c00b1d"
       inkscape:connector-curvature="0"
       d="m 10.184,35.453 c 0,-16.573 13.478,-30.051 30.051,-30.051 9.784,0 18.47,4.692 23.961,11.881 l -12.08,12.18 C 49.92,25.17 45.427,22.275 40.335,22.275 c -7.288,0 -13.278,5.89 -13.278,13.278 0,7.288 5.89,13.278 13.278,13.278 5.191,0 9.584,-2.895 11.781,-7.188 l 12.18,12.18 C 58.805,61.011 50.119,65.704 40.335,65.704 23.662,65.604 10.184,52.126 10.184,35.453 Z"
       id="path3555" /><g
       id="g3557"><path
         inkscape:connector-curvature="0"
         d="m 30.55,38.947 1.897,0 0.2,-2.296 c 0,-0.2 0,-0.399 0,-0.599 l 0.1,0 c 0,0.2 0.1,0.399 0.1,0.699 l 0.699,2.196 1.098,0 0.799,-2.396 c 0.1,-0.2 0.1,-0.399 0.1,-0.499 l 0,0 0.3,2.895 1.897,0 -0.899,-5.291 -1.997,0 -0.599,2.097 c -0.1,0.2 -0.1,0.499 -0.1,0.699 l 0,0 -0.699,-2.795 -1.997,0 -0.899,5.29 z"
         id="path3559" /><path
         inkscape:connector-curvature="0"
         d="m 41.333,33.656 0,2.995 c 0,0.399 0,0.799 -0.499,0.799 -0.499,0 -0.499,-0.399 -0.499,-0.799 l 0,-2.995 -1.897,0 0,3.095 c 0,1.498 0.998,2.196 2.496,2.196 1.498,0 2.496,-0.699 2.496,-2.196 l 0,-3.095 -2.097,0 z"
         id="path3561" /><polygon
         points="44.128,33.656 44.128,38.947 47.622,38.947 47.622,37.25 46.025,37.25 46.025,33.656 "
         id="polygon3563" /><polygon
         points="50.617,38.947 50.617,35.253 51.616,35.353 51.616,33.656 47.622,33.656 47.622,35.353 48.621,35.253 48.621,38.947 "
         id="polygon3565" /><rect
         x="52.115002"
         y="33.655998"
         width="1.897"
         height="5.2909999"
         id="rect3567" /><path
         style="fill:#c00b1d"
         inkscape:connector-curvature="0"
         d="m 57.506,37.649 c -0.2,0 -0.399,0.1 -0.599,0.1 -0.399,0 -0.599,-0.3 -0.599,-0.799 0,-1.098 0.599,-1.897 1.298,-1.897 0.1,0 0.2,0 0.399,0.1 l 0.399,-1.298 c -0.1,-0.1 -0.399,-0.1 -0.699,-0.1 -1.597,0 -2.895,1.498 -2.895,3.494 0,0.899 0.499,1.897 1.697,1.897 0.499,0 0.799,-0.1 0.998,-0.1 l 10e-4,-1.397 z"
         id="path3569" /><path
         style="fill:#c00b1d"
         inkscape:connector-curvature="0"
         d="m 62.099,38.947 c 0,-0.599 0.1,-1.597 0.2,-2.196 l 0.599,-2.895 c -0.399,-0.1 -0.998,-0.2 -1.498,-0.2 -2.296,0 -3.095,2.196 -3.095,3.794 0,0.899 0.399,1.597 1.198,1.597 0.399,0 0.899,-0.3 1.298,-0.899 l 0,0 c 0,0.3 0,0.599 0,0.799 l 1.298,0 0,0 z m -1.298,-2.496 c -0.2,0.899 -0.399,1.298 -0.699,1.298 -0.3,0 -0.399,-0.3 -0.399,-0.699 0,-0.599 0.399,-2.296 1.098,-2.296 0.1,0 0.1,0 0.3,0 l -0.3,1.697 z"
         id="path3571" /><path
         style="fill:#c00b1d"
         inkscape:connector-curvature="0"
         d="m 63.896,33.756 -0.899,4.792 c -0.2,0.998 -0.499,1.298 -0.899,1.298 -0.1,0 -0.2,0 -0.2,0 l -0.2,1.198 c 0.2,0 0.399,0.1 0.599,0.1 0.799,0 1.398,-0.3 1.697,-0.799 0.2,-0.3 0.399,-0.799 0.599,-1.797 l 0.899,-4.692 -1.597,0 10e-4,-0.1 0,0 z m 0.998,-0.599 c 0.399,0 0.899,-0.3 0.899,-0.899 0,-0.399 -0.2,-0.799 -0.699,-0.799 -0.499,0 -0.799,0.499 -0.799,0.899 -0.1,0.499 0.1,0.799 0.599,0.799 l 0,0 z"
         id="path3573" /><path
         style="fill:#c00b1d"
         inkscape:connector-curvature="0"
         d="m 69.586,38.947 c 0,-0.599 0.1,-1.597 0.2,-2.196 l 0.599,-2.895 c -0.399,-0.1 -0.998,-0.2 -1.498,-0.2 -2.296,0 -3.095,2.196 -3.095,3.794 0,0.899 0.399,1.597 1.198,1.597 0.399,0 0.899,-0.3 1.298,-0.899 l 0,0 c 0,0.3 0,0.599 0,0.799 l 1.298,0 0,0 z m -1.298,-2.496 c -0.2,0.899 -0.399,1.298 -0.699,1.298 -0.3,0 -0.399,-0.3 -0.399,-0.699 0,-0.599 0.399,-2.296 1.098,-2.296 0.1,0 0.1,0 0.3,0 l -0.3,1.697 z"
         id="path3575" /></g></g></svg>