<?xml version="1.0" encoding="UTF-8" standalone="no"?>
<!-- Created with Inkscape (http://www.inkscape.org/) -->

<svg
   xmlns:dc="http://purl.org/dc/elements/1.1/"
   xmlns:cc="http://creativecommons.org/ns#"
   xmlns:rdf="http://www.w3.org/1999/02/22-rdf-syntax-ns#"
   xmlns:svg="http://www.w3.org/2000/svg"
   xmlns="http://www.w3.org/2000/svg"
   xmlns:sodipodi="http://sodipodi.sourceforge.net/DTD/sodipodi-0.dtd"
   xmlns:inkscape="http://www.inkscape.org/namespaces/inkscape"
   xml:space="preserve"
   height="195.0786"
   width="710.25348"
   version="1.1"
   id="svg3491"
   inkscape:version="0.91 r13725"
   sodipodi:docname="PayPal.svg"><sodipodi:namedview
     pagecolor="#ffffff"
     bordercolor="#666666"
     borderopacity="1"
     objecttolerance="10"
     gridtolerance="10"
     guidetolerance="10"
     inkscape:pageopacity="0"
     inkscape:pageshadow="2"
     inkscape:window-width="1366"
     inkscape:window-height="715"
     id="namedview3550"
     showgrid="false"
     fit-margin-top="10"
     fit-margin-left="10"
     fit-margin-right="10"
     fit-margin-bottom="10"
     inkscape:zoom="1"
     inkscape:cx="351.62674"
     inkscape:cy="47.5393"
     inkscape:window-x="-8"
     inkscape:window-y="22"
     inkscape:window-maximized="1"
     inkscape:current-layer="svg3491" /><metadata
     id="metadata3493"><rdf:RDF><cc:Work
         rdf:about=""><dc:format>image/svg+xml</dc:format><dc:type
           rdf:resource="http://purl.org/dc/dcmitype/StillImage" /><dc:title></dc:title></cc:Work></rdf:RDF></metadata><defs
     id="defs3495"><clipPath
       id="clipPath16"><path
         d="M 0,51 157,51 157,0 0,0 0,51 Z"
         id="path3498"
         inkscape:connector-curvature="0" /></clipPath></defs><g
     transform="matrix(2.9149218,0,0,-2.9149218,-8.46182,207.10259)"
     id="g3500"><g
       transform="matrix(1.6613986,0,0,1.6613986,-4.1890052,-4.9972634)"
       id="g3502"><g
         clip-path="url(#clipPath16)"
         id="g3504"><g
           transform="translate(32.4187,40.9816)"
           id="g3506"><path
             d="m 0,0 c -1.674,1.908 -4.7,2.726 -8.571,2.726 l -11.235,0 c -0.792,0 -1.465,-0.576 -1.589,-1.357 L -26.073,-28.3 c -0.093,-0.585 0.36,-1.115 0.953,-1.115 l 6.936,0 1.742,11.049 -0.054,-0.346 c 0.124,0.781 0.792,1.357 1.583,1.357 l 3.296,0 c 6.475,0 11.545,2.63 13.026,10.238 0.044,0.225 0.082,0.444 0.115,0.658 C 1.965,-3.647 1.521,-1.733 0,0"
             id="path3508"
             inkscape:connector-curvature="0"
             style="fill:#003087;fill-rule:nonzero" /></g><g
           transform="translate(117.3312,26.8632)"
           id="g3510"><path
             d="m 0,0 c -0.424,-2.784 -2.55,-2.784 -4.607,-2.784 l -1.17,0 0.821,5.198 c 0.049,0.314 0.32,0.545 0.638,0.545 l 0.537,0 c 1.4,0 2.722,0 3.404,-0.797 C 0.031,1.685 0.154,0.977 0,0 m -0.895,7.264 -7.756,0 c -0.531,0 -0.982,-0.386 -1.065,-0.91 l -3.136,-19.888 c -0.062,-0.392 0.242,-0.747 0.638,-0.747 l 3.98,0 c 0.371,0 0.687,0.27 0.745,0.636 l 0.89,5.639 c 0.082,0.524 0.534,0.91 1.064,0.91 l 2.454,0 c 5.109,0 8.058,2.472 8.828,7.373 C 6.094,2.419 5.761,4.103 4.758,5.282 3.655,6.578 1.7,7.264 -0.895,7.264"
             id="path3512"
             inkscape:connector-curvature="0"
             style="fill:#009cde;fill-rule:nonzero" /></g><g
           transform="translate(62.0115,26.8632)"
           id="g3514"><path
             d="m 0,0 c -0.424,-2.784 -2.55,-2.784 -4.607,-2.784 l -1.17,0 0.821,5.198 c 0.049,0.314 0.32,0.545 0.638,0.545 l 0.537,0 c 1.4,0 2.722,0 3.404,-0.797 C 0.031,1.685 0.154,0.977 0,0 m -0.895,7.264 -7.756,0 c -0.531,0 -0.982,-0.386 -1.065,-0.91 l -3.136,-19.888 c -0.062,-0.392 0.241,-0.747 0.638,-0.747 l 3.704,0 c 0.53,0 0.981,0.386 1.064,0.909 l 0.847,5.366 c 0.082,0.524 0.534,0.91 1.064,0.91 l 2.454,0 c 5.109,0 8.058,2.472 8.828,7.373 C 6.094,2.419 5.761,4.103 4.758,5.282 3.655,6.578 1.7,7.264 -0.895,7.264"
             id="path3516"
             inkscape:connector-curvature="0"
             style="fill:#003087;fill-rule:nonzero" /></g><g
           transform="translate(79.1228,19.7234)"
           id="g3518"><path
             d="m 0,0 c -0.359,-2.122 -2.043,-3.547 -4.192,-3.547 -1.077,0 -1.94,0.347 -2.494,1.003 -0.549,0.65 -0.756,1.577 -0.582,2.608 0.334,2.104 2.046,3.574 4.162,3.574 1.055,0 1.911,-0.35 2.476,-1.012 C -0.061,1.959 0.163,1.027 0,0 m 5.176,7.229 -3.714,0 C 1.144,7.229 0.873,6.998 0.823,6.683 L 0.66,5.645 0.401,6.021 c -0.805,1.167 -2.598,1.558 -4.388,1.558 -4.103,0 -7.608,-3.11 -8.29,-7.471 -0.355,-2.176 0.149,-4.255 1.383,-5.706 1.133,-1.333 2.75,-1.888 4.677,-1.888 3.308,0 5.142,2.124 5.142,2.124 L -1.241,-6.394 C -1.303,-6.786 -1,-7.141 -0.602,-7.141 l 3.344,0 c 0.531,0 0.982,0.385 1.065,0.909 L 5.815,6.482 C 5.877,6.874 5.573,7.229 5.176,7.229"
             id="path3520"
             inkscape:connector-curvature="0"
             style="fill:#003087;fill-rule:nonzero" /></g><g
           transform="translate(134.4426,19.7234)"
           id="g3522"><path
             d="m 0,0 c -0.359,-2.122 -2.043,-3.547 -4.192,-3.547 -1.077,0 -1.94,0.347 -2.494,1.003 -0.55,0.65 -0.756,1.577 -0.582,2.608 0.334,2.104 2.046,3.574 4.162,3.574 1.055,0 1.911,-0.35 2.476,-1.012 C -0.061,1.959 0.163,1.027 0,0 m 5.176,7.229 -3.714,0 C 1.144,7.229 0.873,6.998 0.823,6.683 L 0.66,5.645 0.4,6.021 c -0.804,1.167 -2.597,1.558 -4.387,1.558 -4.103,0 -7.608,-3.11 -8.29,-7.471 -0.355,-2.176 0.149,-4.255 1.383,-5.706 1.133,-1.333 2.75,-1.888 4.677,-1.888 3.308,0 5.142,2.124 5.142,2.124 L -1.241,-6.394 C -1.303,-6.786 -1,-7.141 -0.602,-7.141 l 3.344,0 c 0.531,0 0.982,0.385 1.065,0.909 L 5.815,6.482 C 5.877,6.874 5.573,7.229 5.176,7.229"
             id="path3524"
             inkscape:connector-curvature="0"
             style="fill:#009cde;fill-rule:nonzero" /></g><g
           transform="translate(104.0795,26.9523)"
           id="g3526"><path
             d="M 0,0 -3.733,0 C -4.09,0 -4.424,-0.177 -4.624,-0.473 l -5.15,-7.584 -2.182,7.288 C -12.093,-0.313 -12.513,0 -12.989,0 l -3.669,0 c -0.443,0 -0.755,-0.436 -0.612,-0.855 l 4.11,-12.066 -3.866,-5.455 c -0.303,-0.428 0.003,-1.02 0.528,-1.02 l 3.729,0 c 0.353,0 0.684,0.173 0.886,0.463 L 0.531,-1.015 C 0.828,-0.586 0.522,0 0,0"
             id="path3528"
             inkscape:connector-curvature="0"
             style="fill:#003087;fill-rule:nonzero" /></g><g
           transform="translate(143.996,33.5807)"
           id="g3530"><path
             d="m 0,0 -3.183,-20.252 c -0.062,-0.392 0.241,-0.747 0.638,-0.747 l 3.202,0 c 0.53,0 0.982,0.386 1.064,0.91 L 4.86,-0.201 C 4.922,0.191 4.619,0.546 4.221,0.546 l -3.582,0 C 0.32,0.546 0.049,0.315 0,0"
             id="path3532"
             inkscape:connector-curvature="0"
             style="fill:#009cde;fill-rule:nonzero" /></g><g
           transform="translate(32.4187,40.9816)"
           id="g3534"><path
             d="m 0,0 c -1.674,1.908 -4.7,2.726 -8.571,2.726 l -11.235,0 c -0.792,0 -1.465,-0.576 -1.589,-1.357 L -26.073,-28.3 c -0.093,-0.585 0.36,-1.115 0.953,-1.115 l 6.936,0 1.742,11.049 -0.054,-0.346 c 0.124,0.781 0.792,1.357 1.583,1.357 l 3.296,0 c 6.475,0 11.545,2.63 13.026,10.238 0.044,0.225 0.082,0.444 0.115,0.658 C 1.965,-3.647 1.521,-1.733 0,0"
             id="path3536"
             inkscape:connector-curvature="0"
             style="fill:#003087;fill-rule:nonzero" /></g><g
           transform="translate(17.8489,34.4853)"
           id="g3538"><path
             d="m 0,0 c 0.074,0.47 0.376,0.855 0.782,1.05 0.185,0.088 0.391,0.137 0.607,0.137 l 8.808,0 c 1.043,0 2.016,-0.068 2.905,-0.211 0.255,-0.041 0.502,-0.088 0.742,-0.142 0.24,-0.053 0.473,-0.113 0.699,-0.179 C 14.656,0.622 14.767,0.588 14.876,0.552 15.313,0.406 15.72,0.236 16.094,0.037 16.535,2.85 16.091,4.763 14.57,6.496 12.895,8.404 9.87,9.222 5.999,9.222 l -11.236,0 c -0.791,0 -1.464,-0.576 -1.588,-1.357 l -4.678,-29.668 c -0.093,-0.586 0.36,-1.115 0.952,-1.115 l 6.937,0 1.742,11.049 L 0,0 Z"
             id="path3540"
             inkscape:connector-curvature="0"
             style="fill:#003087;fill-rule:nonzero" /></g><g
           transform="translate(33.9429,34.5226)"
           id="g3542"><path
             d="m 0,0 0,0 c -0.034,-0.215 -0.071,-0.433 -0.115,-0.658 -1.481,-7.607 -6.551,-10.238 -13.026,-10.238 l -3.297,0 c -0.791,0 -1.459,-0.576 -1.582,-1.357 l -1.688,-10.702 -0.479,-3.036 c -0.081,-0.512 0.315,-0.976 0.833,-0.976 l 5.847,0 c 0.692,0 1.281,0.504 1.389,1.187 l 0.057,0.298 1.102,6.984 0.071,0.386 c 0.108,0.683 0.697,1.187 1.389,1.187 l 0.875,0 c 5.664,0 10.099,2.301 11.395,8.956 0.541,2.781 0.261,5.103 -1.17,6.734 C 1.167,-0.741 0.628,-0.333 0,0"
             id="path3544"
             inkscape:connector-curvature="0"
             style="fill:#009cde;fill-rule:nonzero" /></g><g
           transform="translate(32.3922,35.1407)"
           id="g3546"><path
             d="m 0,0 c -0.226,0.066 -0.459,0.126 -0.699,0.179 -0.24,0.053 -0.488,0.1 -0.742,0.141 -0.89,0.144 -1.862,0.212 -2.906,0.212 l -8.807,0 c -0.217,0 -0.423,-0.049 -0.607,-0.138 -0.407,-0.195 -0.708,-0.579 -0.782,-1.05 l -1.872,-11.869 -0.054,-0.346 c 0.123,0.781 0.791,1.357 1.582,1.357 l 3.297,0 c 6.475,0 11.545,2.63 13.026,10.238 0.044,0.225 0.081,0.443 0.115,0.658 C 1.176,-0.42 0.77,-0.249 0.333,-0.104 0.224,-0.068 0.113,-0.033 0,0"
             id="path3548"
             inkscape:connector-curvature="0"
             style="fill:#012169;fill-rule:nonzero" /></g></g></g></g></svg>