<?xml version="1.0" encoding="UTF-8" standalone="no"?>
<!-- Generator: Adobe Illustrator 12.0.0, SVG Export Plug-In . SVG Version: 6.00 Build 51448)  -->

<svg
   xmlns:dc="http://purl.org/dc/elements/1.1/"
   xmlns:cc="http://creativecommons.org/ns#"
   xmlns:rdf="http://www.w3.org/1999/02/22-rdf-syntax-ns#"
   xmlns:svg="http://www.w3.org/2000/svg"
   xmlns="http://www.w3.org/2000/svg"
   xmlns:sodipodi="http://sodipodi.sourceforge.net/DTD/sodipodi-0.dtd"
   xmlns:inkscape="http://www.inkscape.org/namespaces/inkscape"
   version="1.1"
   id="Layer_1"
   width="679.05499"
   height="222.069"
   viewBox="0 0 679.055 222.06901"
   overflow="visible"
   enable-background="new 0 0 659.055 202.068"
   xml:space="preserve"
   inkscape:version="0.91 r13725"
   sodipodi:docname="VISA.svg"
   style="overflow:visible"><metadata
     id="metadata3355"><rdf:RDF><cc:Work
         rdf:about=""><dc:format>image/svg+xml</dc:format><dc:type
           rdf:resource="http://purl.org/dc/dcmitype/StillImage" /><dc:title></dc:title></cc:Work></rdf:RDF></metadata><defs
     id="defs3353" /><sodipodi:namedview
     pagecolor="#ffffff"
     bordercolor="#666666"
     borderopacity="1"
     objecttolerance="10"
     gridtolerance="10"
     guidetolerance="10"
     inkscape:pageopacity="0"
     inkscape:pageshadow="2"
     inkscape:window-width="1366"
     inkscape:window-height="715"
     id="namedview3351"
     showgrid="false"
     fit-margin-top="10"
     fit-margin-left="10"
     fit-margin-right="10"
     fit-margin-bottom="10"
     inkscape:zoom="1.1457099"
     inkscape:cx="339.5275"
     inkscape:cy="111.0345"
     inkscape:window-x="-8"
     inkscape:window-y="22"
     inkscape:window-maximized="1"
     inkscape:current-layer="Layer_1" /><g
     id="g3337"
     transform="translate(10,10)"><g
       id="g3339"><polygon
         points="285.514,199.164 232.178,199.164 265.539,3.402 318.898,3.402 "
         id="polygon3341"
         style="fill:#0057a0" /><path
         d="M 479.04,8.222 C 468.468,4.256 451.904,0 431.217,0 c -52.724,0 -89.864,26.551 -90.18,64.604 -0.297,28.129 26.514,43.821 46.754,53.185 20.769,9.595 27.752,15.715 27.653,24.283 -0.132,13.122 -16.586,19.117 -31.923,19.117 -21.357,0 -32.703,-2.967 -50.226,-10.276 l -6.876,-3.112 -7.489,43.824 c 12.463,5.464 35.509,10.199 59.438,10.444 56.089,0 92.501,-26.247 92.915,-66.882 C 471.484,112.918 457.268,95.97 426.484,81.999 407.833,72.943 396.411,66.9 396.532,57.73 c 0,-8.137 9.668,-16.838 30.557,-16.838 17.449,-0.271 30.088,3.534 39.936,7.5 l 4.782,2.259 7.233,-42.429"
         id="path3343"
         inkscape:connector-curvature="0"
         style="fill:#0057a0" /><path
         d="m 615.867,3.589 -41.231,0 c -12.773,0 -22.331,3.486 -27.941,16.234 l -79.245,179.403 56.031,0 c 0,0 9.162,-24.122 11.234,-29.418 6.123,0 60.554,0.084 68.336,0.084 1.596,6.853 6.492,29.334 6.492,29.334 l 49.512,0 L 615.867,3.589 M 550.07,129.767 c 4.413,-11.279 21.259,-54.723 21.259,-54.723 -0.315,0.521 4.38,-11.334 7.075,-18.684 l 3.607,16.878 c 0,0 10.217,46.729 12.352,56.528 l -44.293,0 z"
         id="path3345"
         inkscape:connector-curvature="0"
         style="fill:#0057a0" /><path
         d="m 187.425,3.545 -52.24,133.495 -5.566,-27.129 C 119.894,78.637 89.594,44.755 55.72,27.792 l 47.767,171.203 56.455,-0.065 84.004,-195.385 -56.521,0"
         id="path3347"
         inkscape:connector-curvature="0"
         style="fill:#0057a0" /><path
         d="M 86.722,3.424 0.681,3.424 0,7.497 C 66.939,23.701 111.232,62.86 129.618,109.911 L 110.909,19.951 C 107.679,7.555 98.311,3.856 86.722,3.424"
         id="path3349"
         inkscape:connector-curvature="0"
         style="fill:#faa61a" /></g></g></svg>