<?xml version="1.0" encoding="UTF-8" standalone="no"?>
<!-- Created with Inkscape (http://www.inkscape.org/) -->

<svg
   xmlns:dc="http://purl.org/dc/elements/1.1/"
   xmlns:cc="http://creativecommons.org/ns#"
   xmlns:rdf="http://www.w3.org/1999/02/22-rdf-syntax-ns#"
   xmlns:svg="http://www.w3.org/2000/svg"
   xmlns="http://www.w3.org/2000/svg"
   xmlns:sodipodi="http://sodipodi.sourceforge.net/DTD/sodipodi-0.dtd"
   xmlns:inkscape="http://www.inkscape.org/namespaces/inkscape"
   width="400"
   height="400"
   id="svg3819"
   version="1.1"
   inkscape:version="0.48.5 r10040"
   sodipodi:docname="prontoCopecLogoWhite.svg">
  <defs
     id="defs3821">
    <clipPath
       clipPathUnits="userSpaceOnUse"
       id="clipPath4736">
      <rect
         y="-94.679955"
         x="-124.42439"
         height="731.9599"
         width="780.15234"
         id="rect4738"
         style="fill:#f9f9f9;fill-opacity:1;fill-rule:evenodd;stroke:#ffffff;stroke-width:4.943398;stroke-linecap:square;stroke-linejoin:round;stroke-miterlimit:4;stroke-opacity:1;stroke-dasharray:none;stroke-dashoffset:0" />
    </clipPath>
    <clipPath
       clipPathUnits="userSpaceOnUse"
       id="clipPath3774">
      <rect
         style="fill:#5353ff;fill-opacity:1;fill-rule:evenodd;stroke:none"
         id="rect3776"
         width="188"
         height="222"
         x="-55"
         y="280.36218"
         rx="19.316786"
         ry="19.316786" />
    </clipPath>
  </defs>
  <sodipodi:namedview
     id="base"
     pagecolor="#b0b0b0"
     bordercolor="#666666"
     borderopacity="1.0"
     inkscape:pageopacity="1"
     inkscape:pageshadow="2"
     inkscape:zoom="0.5"
     inkscape:cx="407.55696"
     inkscape:cy="620.02037"
     inkscape:document-units="px"
     inkscape:current-layer="layer1"
     showgrid="false"
     showguides="true"
     inkscape:guide-bbox="true"
     inkscape:window-width="1366"
     inkscape:window-height="715"
     inkscape:window-x="-8"
     inkscape:window-y="22"
     inkscape:window-maximized="1" />
  <metadata
     id="metadata3824">
    <rdf:RDF>
      <cc:Work
         rdf:about="">
        <dc:format>image/svg+xml</dc:format>
        <dc:type
           rdf:resource="http://purl.org/dc/dcmitype/StillImage" />
        <dc:title />
      </cc:Work>
    </rdf:RDF>
  </metadata>
  <g
     inkscape:label="Capa 1"
     inkscape:groupmode="layer"
     id="layer1"
     transform="translate(0,-652.36218)">
    <path
       style="fill:#ffffff;stroke:none"
       d="m 101.07047,784.0563 c -0.93653,0.001 -1.889384,-0.006 -2.880976,0.0223 -2.211159,0.063 -3.520194,0.67097 -8.30794,2.38965 -14.689288,5.27305 -28.49685,10.68915 -43.77302,14.18156 -9.986701,2.28314 -12.73741,10.77738 -11.635584,20.05519 0.358123,3.01554 0.739435,6.04576 1.116659,9.06727 -4.765282,-2.18582 -10.014469,-3.34672 -15.387556,-3.30531 -0.847505,0.006 -1.693958,0.0453 -2.545982,0.11166 -0.31748,0.0169 -0.640539,0.056 -0.960327,0.0893 -10.2331901,1.06829 -17.66184806,10.224 -16.59354706,20.45718 1.06829996,10.23319 10.24632906,17.66185 20.47952006,16.59355 1.606216,-0.16768 3.132247,-0.53267 4.5783,-1.07199 0.424744,-0.15317 0.843724,-0.30717 1.272991,-0.44666 4.455598,-1.44786 9.145014,-2.12135 13.868901,-2.03232 3.764592,18.57677 9.501405,35.97094 19.787191,50.07097 2.839459,3.89241 6.934131,6.03743 11.367586,6.54362 3.279331,0.37441 18.272018,3.29979 27.581469,3.72964 1.859345,0.4112 3.848195,0.0398 6.007625,-1.45165 20.78211,-14.35395 28.49693,-16.64314 38.54706,-20.45719 5.6714,-2.15233 12.36881,-7.41877 8.0846,-15.52156 -11.89014,-22.48804 -23.7046,-58.92769 -22.6235,-87.74704 0.20113,-5.36175 -2.65767,-8.11762 -6.76695,-8.84393 -5.21512,-1.21555 -11.85118,-2.45095 -21.21652,-2.43432 z m -24.633487,15.74489 c -1.71787,0.46505 -3.451312,0.92577 -5.181296,1.36232 -0.282742,0.0713 -0.556313,0.14001 -0.826327,0.22333 0.269988,-0.0833 0.543585,-0.17431 0.826327,-0.24566 1.729984,-0.43655 3.463521,-0.87545 5.181296,-1.33999 z m 33.879427,6.47662 c 8.09321,-0.075 16.31085,8.60242 18.87153,20.32319 2.73139,12.50215 -1.99925,23.7283 -10.58593,25.08015 -4.08657,0.64337 -8.30848,-1.0827 -11.90358,-4.39963 -0.33203,10.00348 -5.07997,17.85427 -12.394908,19.02786 -9.384341,1.5056 -19.415044,-8.54308 -22.400173,-22.46717 -2.985129,-13.9241 2.206576,-26.4332 11.590917,-27.9388 4.845144,-0.77734 9.850298,1.52072 13.980567,5.85129 0.776742,-8.13527 4.982077,-14.35869 11.233587,-15.34289 0.53667,-0.0845 1.06844,-0.129 1.60799,-0.134 z m 52.46062,9.04494 0,73.16347 8.57594,0 0,-27.64847 9.64793,0 c 8.13124,3e-5 14.58271,-2.21005 19.36286,-6.63295 2.06552,-1.91117 3.67331,-4.07301 4.8463,-6.45429 l 0,40.73571 8.37494,0 0,-26.62114 c -1e-5,-5.81775 1.19707,-10.41134 3.59564,-13.77957 2.39854,-3.36814 5.38326,-5.06958 8.9556,-5.06963 2.54426,4e-5 4.52066,0.49469 5.96296,1.45166 -3.61975,4.72391 -5.44929,10.8894 -5.44929,18.5142 0,8.06324 2.31328,14.52536 6.92328,19.40752 4.60998,4.88217 10.76884,7.32529 18.49187,7.32529 7.92711,0 14.24876,-2.50802 18.96086,-7.52628 4.71201,-5.01825 7.05723,-11.69743 7.05729,-20.03286 -6e-5,-8.50549 -2.17184,-15.14637 -6.54362,-19.94352 -4.37189,-4.79706 -10.45519,-7.19124 -18.24621,-7.19129 -8.16532,5e-5 -14.6551,2.45913 -19.45219,7.39228 -0.49239,0.50636 -0.94281,1.0388 -1.38466,1.58566 l 0,-7.97294 c -1.15678,-0.47626 -2.82525,-0.71461 -5.00263,-0.71466 -3.02799,5e-5 -5.76904,1.04602 -8.21861,3.10431 -2.44961,2.05838 -4.25854,4.92393 -5.44929,8.59827 l -0.201,0 0,-10.78692 -6.07462,0 c -0.18604,-6.49105 -2.32302,-11.57084 -6.43196,-15.2089 -4.30383,-3.8104 -10.37649,-5.69488 -18.20153,-5.69495 l -20.09986,0 z m 177.03507,5.56096 -8.35261,2.70231 0,12.75224 -11.52392,0 0,5.85129 c -0.36295,-0.57775 -0.73964,-1.11624 -1.16132,-1.63032 -3.02802,-3.69135 -7.41624,-5.53858 -13.13191,-5.53863 -7.48488,5e-5 -13.183,3.29336 -17.12954,9.8936 l -0.201,0 0,-8.6876 -8.37494,0 0,52.25962 8.37494,0 0,-29.79245 c -2e-5,-4.79708 1.37051,-8.77883 4.1093,-11.92592 2.73876,-3.14699 6.20019,-4.71225 10.38493,-4.7123 8.09721,5e-5 12.12687,5.54706 12.12691,16.63822 l 0,29.79245 8.37494,0 0,-31.93644 c -3e-5,-5.30036 -0.86422,-9.66066 -2.61298,-13.0649 l 10.76459,0 0,30.93144 c -1e-5,10.20663 4.56061,15.29823 13.71257,15.29823 3.23207,0 5.84329,-0.54162 7.81661,-1.63033 l 0,-7.14661 c -1.53103,1.15676 -3.36228,1.74199 -5.47163,1.74199 -2.75581,0 -4.72753,-0.75867 -5.91829,-2.25565 -1.19079,-1.49696 -1.78667,-3.99966 -1.78665,-7.50395 l 0,-29.43512 13.17657,0 0,-7.14662 -13.17657,0 0,-15.45455 z m -168.45913,2.18865 10.04993,0 c 11.43137,6e-5 17.15183,4.83202 17.15188,14.49423 -5e-5,4.93325 -1.57699,8.7522 -4.68997,11.45691 -3.11306,2.7048 -7.61409,4.06468 -13.5339,4.06464 l -8.97794,0 0,-30.01578 z m -61.81822,0.0223 c -3.55844,0 -6.43196,2.87352 -6.43196,6.43195 0,3.55843 2.87352,6.45429 6.43196,6.45429 3.55843,0 6.45428,-2.89586 6.45428,-6.45429 0,-3.55843 -2.89585,-6.43195 -6.45428,-6.43195 z m -23.427503,8.12927 c -4.360823,0 -7.88361,3.54513 -7.88361,7.90595 0,4.36082 3.522787,7.90594 7.88361,7.90594 4.360824,0 7.905944,-3.54512 7.905944,-7.90594 0,-4.36082 -3.54512,-7.90595 -7.905944,-7.90595 z m 289.102933,3.79664 c -8.16533,5e-5 -14.6551,2.45913 -19.4522,7.39228 -4.79712,4.93325 -7.19129,11.79119 -7.19128,20.56886 -1e-5,8.06324 2.29095,14.52536 6.90095,19.40752 4.60998,4.88217 10.79117,7.32529 18.5142,7.32529 7.92711,0 14.24876,-2.50802 18.96087,-7.52628 4.712,-5.01825 7.05722,-11.69743 7.05728,-20.03286 -6e-5,-8.50549 -2.19417,-15.14637 -6.56595,-19.94352 -4.37188,-4.79706 -10.43285,-7.19124 -18.22387,-7.19129 z m -122.54213,7.03495 c 5.40948,5e-5 9.57532,1.77705 12.48425,5.3153 2.90884,3.53833 4.35492,8.56502 4.35497,15.09722 -5e-5,6.46422 -1.44613,11.45897 -4.35497,14.96323 -2.90893,3.50428 -7.07477,5.2483 -12.48425,5.2483 -5.30747,0 -9.54354,-1.78764 -12.70757,-5.35997 -3.16406,-3.5723 -4.73464,-8.45852 -4.73463,-14.65056 -1e-5,-6.43014 1.55992,-11.46214 4.68996,-15.11956 3.13002,-3.65733 7.37672,-5.49391 12.75224,-5.49396 z m 121.9168,0 c 5.40947,5e-5 9.57531,1.77705 12.48424,5.3153 2.90885,3.53833 4.35492,8.56502 4.35497,15.09722 -5e-5,6.46422 -1.44612,11.45897 -4.35497,14.96323 -2.90893,3.50428 -7.07477,5.2483 -12.48424,5.2483 -5.30747,0 -9.54355,-1.78764 -12.70758,-5.35997 -3.16407,-3.5723 -4.73464,-8.45852 -4.73463,-14.65056 -10e-6,-6.43014 1.55992,-11.46214 4.68997,-15.11956 3.13001,-3.65733 7.37673,-5.49391 12.75224,-5.49396 z m -288.45527,32.8968 a 0.71473302,0.71473302 0 0 1 0.04467,0 0.71473302,0.71473302 0 0 1 0.736995,1.00499 c -0.580822,1.38752 -0.893327,2.87312 -0.893327,4.3773 0,6.27427 5.093311,11.36759 11.367586,11.36759 6.274266,0 11.367576,-5.09332 11.367576,-11.36759 a 0.71473302,0.71473302 0 1 1 1.38466,0 c 0,7.04674 -5.7055,12.77458 -12.752236,12.77458 -7.046738,0 -12.752243,-5.72784 -12.752243,-12.77458 0,-1.69366 0.328673,-3.37332 0.98266,-4.93563 a 0.71473302,0.71473302 0 0 1 0.513663,-0.44666 z m 232.24267,25.21415 c -0.88812,0.0328 -1.81122,0.58923 -2.07698,1.47399 -0.21783,0.79057 -0.33574,1.58563 -0.49133,2.38965 -0.59713,3.26318 -1.15654,6.53184 -1.69733,9.80426 -0.11269,0.73001 -0.0768,1.54321 0.268,2.21099 0.23212,0.45163 0.71316,0.68607 1.20599,0.71466 2.26993,0.22795 4.55646,0.13532 6.83396,0.15633 1.48524,-0.0286 2.98138,-0.0414 4.46663,-0.0893 0.2296,-1.34396 0.44208,-2.69835 0.67,-4.04231 -2.57943,7.2e-4 -5.1702,-0.004 -7.74962,0 -0.34482,0 -0.70427,-0.0476 -0.98266,-0.26799 -0.17412,-0.13289 -0.23583,-0.37209 -0.17866,-0.58067 0.46088,-2.32964 0.89425,-4.65812 1.33999,-6.99028 0.1026,-0.44322 0.34909,-0.99294 0.84866,-1.07199 2.68959,0.0773 5.37184,0.0134 8.06228,0 0.23212,-1.23294 0.43955,-2.47436 0.66999,-3.70731 -3.73079,0 -7.45813,-7.1e-4 -11.18892,0 z m 14.82923,0 c -0.162,0.005 -0.33364,0.0245 -0.49133,0.067 -0.77374,0.1682 -1.47689,0.74538 -1.65266,1.54099 -0.35996,1.5172 -0.58925,3.06745 -0.87099,4.60063 -0.43061,2.47177 -0.86509,4.93864 -1.27299,7.41462 -0.11774,0.68796 -0.0804,1.42267 0.17866,2.07698 0.17662,0.44406 0.56691,0.78892 1.04966,0.84866 1.14295,0.17159 2.3086,0.16398 3.46165,0.201 1.98986,-0.003 3.99626,0.0125 5.98529,-0.0447 1.00838,-0.002 2.00658,-0.0665 3.01497,-0.0447 0.32212,0.0421 0.58412,-0.1525 0.82633,-0.335 0.52901,-0.42892 0.85184,-1.07926 0.96033,-1.74199 0.71908,-4.02934 1.42575,-8.0529 2.14398,-12.08224 0.0934,-0.67199 -0.0507,-1.44174 -0.53599,-1.94299 -0.39949,-0.41126 -0.98507,-0.55547 -1.54099,-0.55833 l -10.76459,0 c -0.16148,8.6e-4 -0.32933,-0.005 -0.49133,0 z m 15.72255,0 c -0.96381,5.5331 -1.91296,11.08278 -2.88098,16.61588 0.35996,0.19932 0.78502,0.18889 1.18366,0.22333 l 0.98266,0 c 0.68039,-0.0328 1.37427,-0.0629 2.05465,-0.11166 0.20522,-1.10259 0.3848,-2.20946 0.62533,-3.30531 0.0715,-0.30529 0.1738,-0.66738 0.469,-0.82633 0.44069,-0.046 0.89761,-0.008 1.33999,0 2.55587,0.0269 5.10692,0.0378 7.66028,0.15633 1.1051,0.0496 2.13576,-0.86946 2.23331,-1.96532 0.47434,-2.92929 0.98013,-5.85904 1.38466,-8.79927 0.0437,-0.40032 0.14166,-0.81996 -0.0223,-1.20599 -0.20017,-0.48442 -0.74016,-0.78666 -1.25066,-0.78166 -4.59956,10e-4 -9.18001,0 -13.77957,0 z m 19.76486,0 c -0.36753,-0.003 -0.7411,-0.006 -1.09432,0.11167 -0.65264,0.17745 -1.25281,0.64016 -1.47399,1.29532 -0.16653,0.53405 -0.26613,1.08282 -0.37967,1.63032 -0.64842,3.44064 -1.21392,6.88617 -1.78665,10.34026 -0.14887,0.74178 -0.17812,1.53742 0.0893,2.25565 0.16232,0.44406 0.54962,0.83745 1.02733,0.91566 0.77122,0.14043 1.56367,0.13829 2.34498,0.17867 2.21862,0.0495 4.43582,0.0261 6.65529,0 1.64588,-0.0471 3.28806,-0.0788 4.93563,-0.067 0.19091,-1.35069 0.46693,-2.69666 0.69233,-4.04231 l -10.18393,0 c -0.31707,-0.008 -0.66251,-0.0653 -0.91566,-0.26799 -0.17161,-0.13205 -0.23584,-0.37377 -0.17867,-0.58067 0.10345,-0.51891 0.20333,-1.02291 0.31267,-1.54099 0.10008,-0.22538 0.37592,-0.29955 0.60299,-0.29033 3.42886,10e-4 6.86674,7.2e-4 10.2956,0 0.29772,0.0345 0.39402,-0.29715 0.42433,-0.53599 0.42472,-2.4045 0.82126,-4.8066 1.22832,-7.21362 0.0984,-0.43565 0.14616,-0.91649 -0.0893,-1.31766 -0.35239,-0.64674 -1.14588,-0.83858 -1.83132,-0.84866 -3.5609,-10e-4 -7.11352,-0.0216 -10.67526,-0.0223 z m 16.97321,0 c -0.91251,0.032 -1.8613,0.62007 -2.09932,1.54099 -0.38014,1.55758 -0.62382,3.1379 -0.91566,4.7123 -0.42303,2.43056 -0.82715,4.86902 -1.22832,7.30295 -0.12783,0.68964 -0.11074,1.41342 0.134,2.07698 0.16232,0.44323 0.52813,0.83661 1.00499,0.91566 0.79729,0.14379 1.6046,0.13915 2.41198,0.17867 3.05881,0.0572 6.12097,0.0163 9.17894,-0.067 0.2296,-1.34312 0.46441,-2.69835 0.69233,-4.04231 -2.57943,7.2e-4 -5.17019,-0.004 -7.74961,0 -0.34566,0 -0.70513,-0.0468 -0.98266,-0.26799 -0.17243,-0.13289 -0.25732,-0.37377 -0.201,-0.58067 0.42388,-2.14713 0.82127,-4.28145 1.22832,-6.43195 0.0757,-0.3894 0.13951,-0.81903 0.35733,-1.16133 0.14466,-0.24642 0.3862,-0.47907 0.69233,-0.46899 2.66521,0.0883 5.33007,0.0101 7.99528,0 0.23296,-1.23294 0.43871,-2.47436 0.66999,-3.70731 l -11.18892,0 z m -50.04864,3.70731 c 1.65346,0.0353 3.326,0.0669 4.9803,0.0223 0.41967,0.0219 0.91088,-0.0954 1.25066,0.22333 0.19847,0.16316 0.18327,0.43956 0.15633,0.67 -0.31455,2.21694 -0.62597,4.43835 -0.93799,6.65528 -0.0387,0.55425 -0.42647,1.00947 -0.84867,1.33999 -1.89735,-0.007 -3.79844,0.003 -5.69495,0 -0.35072,-0.0101 -0.73456,-0.065 -0.98266,-0.33499 -0.19847,-0.22203 -0.0951,-0.54664 -0.0447,-0.804 0.44827,-2.2531 0.85714,-4.51216 1.29532,-6.76695 0.11018,-0.42304 0.34611,-0.93603 0.82633,-1.00499 z m 34.92908,0.0223 c 0.38519,-0.0314 0.77445,0.0185 1.16133,0 1.59626,0.0577 3.18303,-0.008 4.7793,0 0.38434,0.0707 0.81969,0.46693 0.66999,0.89333 -0.15727,0.6232 -0.30752,1.23213 -0.46899,1.85365 -0.0639,0.30361 -0.41143,0.43698 -0.69233,0.42433 -2.21358,-0.002 -4.41938,10e-4 -6.63295,0 0.14297,-0.72833 0.27547,-1.46116 0.42433,-2.18865 0.10597,-0.40706 0.31863,-0.86492 0.75932,-0.98266 z m -17.93353,0.22333 c 1.81997,0.0614 3.64997,0.004 5.47162,0.0223 0.36164,0.0184 0.74698,-0.0743 1.09433,0.067 0.23296,0.0908 0.37366,0.35657 0.335,0.60299 -0.10093,0.86626 -0.23165,1.73113 -0.37967,2.59065 -0.1211,0.65348 -0.70007,1.22364 -1.38465,1.20599 -1.76532,-10e-4 -3.52682,-10e-4 -5.29297,0 -0.20605,0.005 -0.43553,-0.0425 -0.55833,-0.22333 -0.12612,-0.17409 -0.13689,-0.39947 -0.11166,-0.603 0.10933,-0.96633 0.20333,-1.93697 0.31266,-2.90331 0.0168,-0.32884 0.2765,-0.56505 0.51367,-0.75933 z"
       id="path3881"
       inkscape:connector-curvature="0" />
  </g>
</svg>
